G04 #@! TF.GenerationSoftware,KiCad,Pcbnew,10.0.4-150-gc4750059f9*
G04 #@! TF.CreationDate,2026-07-09T16:37:47+10:00*
G04 #@! TF.ProjectId,Ice40hx4k_tq144,49636534-3068-4783-946b-5f7471313434,B*
G04 #@! TF.SameCoordinates,Original*
G04 #@! TF.FileFunction,Paste,Bot*
G04 #@! TF.FilePolarity,Positive*
%FSLAX46Y46*%
G04 Gerber Fmt 4.6, Leading zero omitted, Abs format (unit mm)*
G04 Created by KiCad (PCBNEW 10.0.4-150-gc4750059f9) date 2026-07-09 16:37:47*
%MOMM*%
%LPD*%
G01*
G04 APERTURE LIST*
G04 Aperture macros list*
%AMRoundRect*
0 Rectangle with rounded corners*
0 $1 Rounding radius*
0 $2 $3 $4 $5 $6 $7 $8 $9 X,Y pos of 4 corners*
0 Add a 4 corners polygon primitive as box body*
4,1,4,$2,$3,$4,$5,$6,$7,$8,$9,$2,$3,0*
0 Add four circle primitives for the rounded corners*
1,1,$1+$1,$2,$3*
1,1,$1+$1,$4,$5*
1,1,$1+$1,$6,$7*
1,1,$1+$1,$8,$9*
0 Add four rect primitives between the rounded corners*
20,1,$1+$1,$2,$3,$4,$5,0*
20,1,$1+$1,$4,$5,$6,$7,0*
20,1,$1+$1,$6,$7,$8,$9,0*
20,1,$1+$1,$8,$9,$2,$3,0*%
G04 Aperture macros list end*
%ADD10RoundRect,0.200000X-0.200000X-0.275000X0.200000X-0.275000X0.200000X0.275000X-0.200000X0.275000X0*%
%ADD11RoundRect,0.250000X0.250000X0.475000X-0.250000X0.475000X-0.250000X-0.475000X0.250000X-0.475000X0*%
%ADD12RoundRect,0.150000X0.512500X0.150000X-0.512500X0.150000X-0.512500X-0.150000X0.512500X-0.150000X0*%
%ADD13RoundRect,0.225000X-0.225000X-0.250000X0.225000X-0.250000X0.225000X0.250000X-0.225000X0.250000X0*%
%ADD14RoundRect,0.225000X-0.250000X0.225000X-0.250000X-0.225000X0.250000X-0.225000X0.250000X0.225000X0*%
%ADD15RoundRect,0.225000X0.250000X-0.225000X0.250000X0.225000X-0.250000X0.225000X-0.250000X-0.225000X0*%
%ADD16RoundRect,0.200000X-0.275000X0.200000X-0.275000X-0.200000X0.275000X-0.200000X0.275000X0.200000X0*%
%ADD17RoundRect,0.225000X0.225000X0.250000X-0.225000X0.250000X-0.225000X-0.250000X0.225000X-0.250000X0*%
%ADD18RoundRect,0.200000X0.200000X0.275000X-0.200000X0.275000X-0.200000X-0.275000X0.200000X-0.275000X0*%
%ADD19RoundRect,0.150000X0.587500X0.150000X-0.587500X0.150000X-0.587500X-0.150000X0.587500X-0.150000X0*%
%ADD20RoundRect,0.200000X0.275000X-0.200000X0.275000X0.200000X-0.275000X0.200000X-0.275000X-0.200000X0*%
G04 APERTURE END LIST*
D10*
X62922707Y-71500000D03*
X64572707Y-71500000D03*
D11*
X60350000Y-69228707D03*
X58450000Y-69228707D03*
D12*
X58775000Y-85800000D03*
X58775000Y-86750000D03*
X58775000Y-87700000D03*
X56500000Y-87700000D03*
X56500000Y-85800000D03*
D13*
X60175500Y-93612000D03*
X61725500Y-93612000D03*
X110150000Y-92450000D03*
X111700000Y-92450000D03*
D14*
X118850000Y-88250000D03*
X118850000Y-89800000D03*
D13*
X48123002Y-90056000D03*
X49673002Y-90056000D03*
D15*
X108150000Y-94250000D03*
X108150000Y-92700000D03*
X67186002Y-80991000D03*
X67186002Y-79441000D03*
D16*
X116950000Y-89800000D03*
X116950000Y-91450000D03*
D14*
X115050000Y-88250000D03*
X115050000Y-89800000D03*
D17*
X59375000Y-99700000D03*
X57825000Y-99700000D03*
D13*
X68113707Y-84468707D03*
X69663707Y-84468707D03*
D17*
X56924000Y-77864707D03*
X55374000Y-77864707D03*
D18*
X59200000Y-96800000D03*
X57550000Y-96800000D03*
D14*
X107600000Y-87412500D03*
X107600000Y-88962500D03*
D15*
X51301707Y-79515000D03*
X51301707Y-77965000D03*
D19*
X74400000Y-74755707D03*
X74400000Y-76655707D03*
X72525000Y-75705707D03*
D17*
X117350000Y-84600000D03*
X115800000Y-84600000D03*
D13*
X60933597Y-77864707D03*
X62483597Y-77864707D03*
D17*
X60175000Y-71500000D03*
X58625000Y-71500000D03*
D13*
X54924000Y-93612000D03*
X56474000Y-93612000D03*
D14*
X56500000Y-81902707D03*
X56500000Y-83452707D03*
D20*
X105750000Y-92933265D03*
X105750000Y-91283265D03*
D13*
X110550000Y-85650000D03*
X112100000Y-85650000D03*
D11*
X59550000Y-101800000D03*
X57650000Y-101800000D03*
D14*
X67186002Y-86741000D03*
X67186002Y-88291000D03*
D15*
X51560001Y-96800000D03*
X51560001Y-95250000D03*
D13*
X67025000Y-96400000D03*
X68575000Y-96400000D03*
D17*
X110550000Y-84100000D03*
X109000000Y-84100000D03*
D13*
X49980002Y-92850000D03*
X51530002Y-92850000D03*
X66809908Y-74562707D03*
X68359908Y-74562707D03*
D17*
X113150000Y-94950000D03*
X111600000Y-94950000D03*
X115325000Y-93000000D03*
X113775000Y-93000000D03*
M02*
