G04 #@! TF.GenerationSoftware,KiCad,Pcbnew,10.0.4-150-gc4750059f9*
G04 #@! TF.CreationDate,2026-07-09T16:37:47+10:00*
G04 #@! TF.ProjectId,Ice40hx4k_tq144,49636534-3068-4783-946b-5f7471313434,B*
G04 #@! TF.SameCoordinates,Original*
G04 #@! TF.FileFunction,Soldermask,Bot*
G04 #@! TF.FilePolarity,Negative*
%FSLAX46Y46*%
G04 Gerber Fmt 4.6, Leading zero omitted, Abs format (unit mm)*
G04 Created by KiCad (PCBNEW 10.0.4-150-gc4750059f9) date 2026-07-09 16:37:47*
%MOMM*%
%LPD*%
G01*
G04 APERTURE LIST*
G04 Aperture macros list*
%AMRoundRect*
0 Rectangle with rounded corners*
0 $1 Rounding radius*
0 $2 $3 $4 $5 $6 $7 $8 $9 X,Y pos of 4 corners*
0 Add a 4 corners polygon primitive as box body*
4,1,4,$2,$3,$4,$5,$6,$7,$8,$9,$2,$3,0*
0 Add four circle primitives for the rounded corners*
1,1,$1+$1,$2,$3*
1,1,$1+$1,$4,$5*
1,1,$1+$1,$6,$7*
1,1,$1+$1,$8,$9*
0 Add four rect primitives between the rounded corners*
20,1,$1+$1,$2,$3,$4,$5,0*
20,1,$1+$1,$4,$5,$6,$7,0*
20,1,$1+$1,$6,$7,$8,$9,0*
20,1,$1+$1,$8,$9,$2,$3,0*%
G04 Aperture macros list end*
%ADD10C,0.700000*%
%ADD11R,1.700000X1.700000*%
%ADD12C,1.700000*%
%ADD13R,1.785000X1.785000*%
%ADD14C,1.785000*%
%ADD15C,4.770000*%
%ADD16C,2.000000*%
%ADD17C,3.500000*%
%ADD18RoundRect,0.250000X0.550000X-0.550000X0.550000X0.550000X-0.550000X0.550000X-0.550000X-0.550000X0*%
%ADD19C,1.600000*%
%ADD20O,1.700000X1.350000*%
%ADD21O,1.500000X1.100000*%
%ADD22RoundRect,0.200000X-0.200000X-0.275000X0.200000X-0.275000X0.200000X0.275000X-0.200000X0.275000X0*%
%ADD23RoundRect,0.250000X0.250000X0.475000X-0.250000X0.475000X-0.250000X-0.475000X0.250000X-0.475000X0*%
%ADD24RoundRect,0.150000X0.512500X0.150000X-0.512500X0.150000X-0.512500X-0.150000X0.512500X-0.150000X0*%
%ADD25RoundRect,0.225000X-0.225000X-0.250000X0.225000X-0.250000X0.225000X0.250000X-0.225000X0.250000X0*%
%ADD26RoundRect,0.225000X-0.250000X0.225000X-0.250000X-0.225000X0.250000X-0.225000X0.250000X0.225000X0*%
%ADD27RoundRect,0.225000X0.250000X-0.225000X0.250000X0.225000X-0.250000X0.225000X-0.250000X-0.225000X0*%
%ADD28RoundRect,0.200000X-0.275000X0.200000X-0.275000X-0.200000X0.275000X-0.200000X0.275000X0.200000X0*%
%ADD29RoundRect,0.225000X0.225000X0.250000X-0.225000X0.250000X-0.225000X-0.250000X0.225000X-0.250000X0*%
%ADD30RoundRect,0.200000X0.200000X0.275000X-0.200000X0.275000X-0.200000X-0.275000X0.200000X-0.275000X0*%
%ADD31RoundRect,0.150000X0.587500X0.150000X-0.587500X0.150000X-0.587500X-0.150000X0.587500X-0.150000X0*%
%ADD32RoundRect,0.200000X0.275000X-0.200000X0.275000X0.200000X-0.275000X0.200000X-0.275000X-0.200000X0*%
G04 APERTURE END LIST*
D10*
X112300000Y-87962500D03*
X111300000Y-87962500D03*
X110300000Y-87962500D03*
X112300000Y-88962500D03*
X111300000Y-88962500D03*
X110300000Y-88962500D03*
X112300000Y-89962500D03*
X111300000Y-89962500D03*
X110300000Y-89962500D03*
D11*
X92636000Y-76680000D03*
D12*
X90096000Y-76680000D03*
X92636000Y-74140000D03*
X90096000Y-74140000D03*
X92636000Y-71600000D03*
X90096000Y-71600000D03*
X92636000Y-69060000D03*
X90096000Y-69060000D03*
X92636000Y-66520000D03*
X90096000Y-66520000D03*
D13*
X114100000Y-56450000D03*
D14*
X114100000Y-58740000D03*
X114100000Y-61030000D03*
X114100000Y-63320000D03*
X114100000Y-65610000D03*
X116200000Y-55310000D03*
X116200000Y-57600000D03*
X116200000Y-59890000D03*
X116200000Y-62180000D03*
X116200000Y-64470000D03*
X118280000Y-56450000D03*
X118280000Y-58740000D03*
X118280000Y-61030000D03*
X118280000Y-63320000D03*
X118280000Y-65610000D03*
D15*
X116200000Y-73260000D03*
X116200000Y-48270000D03*
D16*
X42500000Y-131386000D03*
X36000000Y-131386000D03*
X42500000Y-126886000D03*
X36000000Y-126886000D03*
D11*
X55364000Y-41335000D03*
D12*
X55364000Y-38795000D03*
X57904000Y-41335000D03*
X57904000Y-38795000D03*
X60444000Y-41335000D03*
X60444000Y-38795000D03*
X62984000Y-41335000D03*
X62984000Y-38795000D03*
D11*
X118500000Y-119000000D03*
D12*
X118500000Y-116460000D03*
X118500000Y-113920000D03*
D11*
X68947333Y-41335000D03*
D12*
X68947333Y-38795000D03*
X71487333Y-41335000D03*
X71487333Y-38795000D03*
X74027333Y-41335000D03*
X74027333Y-38795000D03*
X76567333Y-41335000D03*
X76567333Y-38795000D03*
D11*
X29527000Y-122890000D03*
D12*
X26987000Y-122890000D03*
X29527000Y-120350000D03*
X26987000Y-120350000D03*
X29527000Y-117810000D03*
X26987000Y-117810000D03*
D11*
X26987000Y-95898000D03*
D12*
X29527000Y-95898000D03*
X26987000Y-98438000D03*
X29527000Y-98438000D03*
X26987000Y-100978000D03*
X29527000Y-100978000D03*
X26987000Y-103518000D03*
X29527000Y-103518000D03*
X26987000Y-106058000D03*
X29527000Y-106058000D03*
D17*
X26340000Y-39840000D03*
D11*
X82045000Y-131386000D03*
D12*
X84585000Y-131386000D03*
X87125000Y-131386000D03*
X89665000Y-131386000D03*
X92205000Y-131386000D03*
X94745000Y-131386000D03*
X97285000Y-131386000D03*
X99825000Y-131386000D03*
D11*
X92636000Y-90818000D03*
D12*
X90096000Y-90818000D03*
X92636000Y-88278000D03*
X90096000Y-88278000D03*
X92636000Y-85738000D03*
X90096000Y-85738000D03*
X92636000Y-83198000D03*
X90096000Y-83198000D03*
X92636000Y-80658000D03*
X90096000Y-80658000D03*
D18*
X89850000Y-40600000D03*
D19*
X89850000Y-38100000D03*
D17*
X26340000Y-130900000D03*
D11*
X99060000Y-40640000D03*
D12*
X99060000Y-38100000D03*
X101600000Y-40640000D03*
X101600000Y-38100000D03*
X104140000Y-40640000D03*
X104140000Y-38100000D03*
X106680000Y-40640000D03*
X106680000Y-38100000D03*
D11*
X26987000Y-80658000D03*
D12*
X29527000Y-80658000D03*
X26987000Y-83198000D03*
X29527000Y-83198000D03*
X26987000Y-85738000D03*
X29527000Y-85738000D03*
X26987000Y-88278000D03*
X29527000Y-88278000D03*
X26987000Y-90818000D03*
X29527000Y-90818000D03*
D11*
X92636000Y-105260000D03*
D12*
X90096000Y-105260000D03*
X92636000Y-102720000D03*
X90096000Y-102720000D03*
X92636000Y-100180000D03*
X90096000Y-100180000D03*
X92636000Y-97640000D03*
X90096000Y-97640000D03*
X92636000Y-95100000D03*
X90096000Y-95100000D03*
D11*
X26987000Y-65418000D03*
D12*
X29527000Y-65418000D03*
X26987000Y-67958000D03*
X29527000Y-67958000D03*
X26987000Y-70498000D03*
X29527000Y-70498000D03*
X26987000Y-73038000D03*
X29527000Y-73038000D03*
X26987000Y-75578000D03*
X29527000Y-75578000D03*
D17*
X117400000Y-130900000D03*
D11*
X92636000Y-58900000D03*
D12*
X90096000Y-58900000D03*
D11*
X41780667Y-41335000D03*
D12*
X41780667Y-38795000D03*
X44320667Y-41335000D03*
X44320667Y-38795000D03*
X46860667Y-41335000D03*
X46860667Y-38795000D03*
X49400667Y-41335000D03*
X49400667Y-38795000D03*
D17*
X117400000Y-39840000D03*
D11*
X68984000Y-128846000D03*
D12*
X68984000Y-131386000D03*
X66444000Y-128846000D03*
X66444000Y-131386000D03*
X63904000Y-128846000D03*
X63904000Y-131386000D03*
X61364000Y-128846000D03*
X61364000Y-131386000D03*
D20*
X119300000Y-104500000D03*
D21*
X116300000Y-104190000D03*
X116300000Y-99350000D03*
D20*
X119300000Y-99040000D03*
D11*
X56984000Y-128846000D03*
D12*
X56984000Y-131386000D03*
X54444000Y-128846000D03*
X54444000Y-131386000D03*
X51904000Y-128846000D03*
X51904000Y-131386000D03*
X49364000Y-128846000D03*
X49364000Y-131386000D03*
D22*
X62922707Y-71500000D03*
X64572707Y-71500000D03*
D23*
X60350000Y-69228707D03*
X58450000Y-69228707D03*
D24*
X58775000Y-85800000D03*
X58775000Y-86750000D03*
X58775000Y-87700000D03*
X56500000Y-87700000D03*
X56500000Y-85800000D03*
D25*
X60175500Y-93612000D03*
X61725500Y-93612000D03*
X110150000Y-92450000D03*
X111700000Y-92450000D03*
D26*
X118850000Y-88250000D03*
X118850000Y-89800000D03*
D25*
X48123002Y-90056000D03*
X49673002Y-90056000D03*
D27*
X108150000Y-94250000D03*
X108150000Y-92700000D03*
X67186002Y-80991000D03*
X67186002Y-79441000D03*
D28*
X116950000Y-89800000D03*
X116950000Y-91450000D03*
D26*
X115050000Y-88250000D03*
X115050000Y-89800000D03*
D29*
X59375000Y-99700000D03*
X57825000Y-99700000D03*
D25*
X68113707Y-84468707D03*
X69663707Y-84468707D03*
D29*
X56924000Y-77864707D03*
X55374000Y-77864707D03*
D30*
X59200000Y-96800000D03*
X57550000Y-96800000D03*
D26*
X107600000Y-87412500D03*
X107600000Y-88962500D03*
D27*
X51301707Y-79515000D03*
X51301707Y-77965000D03*
D31*
X74400000Y-74755707D03*
X74400000Y-76655707D03*
X72525000Y-75705707D03*
D29*
X117350000Y-84600000D03*
X115800000Y-84600000D03*
D25*
X60933597Y-77864707D03*
X62483597Y-77864707D03*
D29*
X60175000Y-71500000D03*
X58625000Y-71500000D03*
D25*
X54924000Y-93612000D03*
X56474000Y-93612000D03*
D26*
X56500000Y-81902707D03*
X56500000Y-83452707D03*
D32*
X105750000Y-92933265D03*
X105750000Y-91283265D03*
D25*
X110550000Y-85650000D03*
X112100000Y-85650000D03*
D23*
X59550000Y-101800000D03*
X57650000Y-101800000D03*
D26*
X67186002Y-86741000D03*
X67186002Y-88291000D03*
D27*
X51560001Y-96800000D03*
X51560001Y-95250000D03*
D25*
X67025000Y-96400000D03*
X68575000Y-96400000D03*
D29*
X110550000Y-84100000D03*
X109000000Y-84100000D03*
D25*
X49980002Y-92850000D03*
X51530002Y-92850000D03*
X66809908Y-74562707D03*
X68359908Y-74562707D03*
D29*
X113150000Y-94950000D03*
X111600000Y-94950000D03*
X115325000Y-93000000D03*
X113775000Y-93000000D03*
M02*
