G04 #@! TF.GenerationSoftware,KiCad,Pcbnew,10.0.4-150-gc4750059f9*
G04 #@! TF.CreationDate,2026-07-09T16:37:47+10:00*
G04 #@! TF.ProjectId,Ice40hx4k_tq144,49636534-3068-4783-946b-5f7471313434,B*
G04 #@! TF.SameCoordinates,Original*
G04 #@! TF.FileFunction,Soldermask,Top*
G04 #@! TF.FilePolarity,Negative*
%FSLAX46Y46*%
G04 Gerber Fmt 4.6, Leading zero omitted, Abs format (unit mm)*
G04 Created by KiCad (PCBNEW 10.0.4-150-gc4750059f9) date 2026-07-09 16:37:47*
%MOMM*%
%LPD*%
G01*
G04 APERTURE LIST*
G04 Aperture macros list*
%AMRoundRect*
0 Rectangle with rounded corners*
0 $1 Rounding radius*
0 $2 $3 $4 $5 $6 $7 $8 $9 X,Y pos of 4 corners*
0 Add a 4 corners polygon primitive as box body*
4,1,4,$2,$3,$4,$5,$6,$7,$8,$9,$2,$3,0*
0 Add four circle primitives for the rounded corners*
1,1,$1+$1,$2,$3*
1,1,$1+$1,$4,$5*
1,1,$1+$1,$6,$7*
1,1,$1+$1,$8,$9*
0 Add four rect primitives between the rounded corners*
20,1,$1+$1,$2,$3,$4,$5,0*
20,1,$1+$1,$4,$5,$6,$7,0*
20,1,$1+$1,$6,$7,$8,$9,0*
20,1,$1+$1,$8,$9,$2,$3,0*%
%AMOutline5P*
0 Free polygon, 5 corners , with rotation*
0 The origin of the aperture is its center*
0 number of corners: always 5*
0 $1 to $10 corner X, Y*
0 $11 Rotation angle, in degrees counterclockwise*
0 create outline with 5 corners*
4,1,5,$1,$2,$3,$4,$5,$6,$7,$8,$9,$10,$1,$2,$11*%
%AMOutline6P*
0 Free polygon, 6 corners , with rotation*
0 The origin of the aperture is its center*
0 number of corners: always 6*
0 $1 to $12 corner X, Y*
0 $13 Rotation angle, in degrees counterclockwise*
0 create outline with 6 corners*
4,1,6,$1,$2,$3,$4,$5,$6,$7,$8,$9,$10,$11,$12,$1,$2,$13*%
%AMOutline7P*
0 Free polygon, 7 corners , with rotation*
0 The origin of the aperture is its center*
0 number of corners: always 7*
0 $1 to $14 corner X, Y*
0 $15 Rotation angle, in degrees counterclockwise*
0 create outline with 7 corners*
4,1,7,$1,$2,$3,$4,$5,$6,$7,$8,$9,$10,$11,$12,$13,$14,$1,$2,$15*%
%AMOutline8P*
0 Free polygon, 8 corners , with rotation*
0 The origin of the aperture is its center*
0 number of corners: always 8*
0 $1 to $16 corner X, Y*
0 $17 Rotation angle, in degrees counterclockwise*
0 create outline with 8 corners*
4,1,8,$1,$2,$3,$4,$5,$6,$7,$8,$9,$10,$11,$12,$13,$14,$15,$16,$1,$2,$17*%
G04 Aperture macros list end*
%ADD10RoundRect,0.200000X0.200000X0.275000X-0.200000X0.275000X-0.200000X-0.275000X0.200000X-0.275000X0*%
%ADD11RoundRect,0.200000X-0.200000X-0.275000X0.200000X-0.275000X0.200000X0.275000X-0.200000X0.275000X0*%
%ADD12RoundRect,0.225000X0.250000X-0.225000X0.250000X0.225000X-0.250000X0.225000X-0.250000X-0.225000X0*%
%ADD13Outline5P,-0.100000X0.437500X0.100000X0.437500X0.100000X-0.387500X0.050000X-0.437500X-0.100000X-0.437500X0.000000*%
%ADD14R,0.200000X0.875000*%
%ADD15Outline5P,-0.100000X0.437500X0.100000X0.437500X0.100000X-0.437500X-0.050000X-0.437500X-0.100000X-0.387500X0.000000*%
%ADD16Outline5P,-0.100000X0.387500X-0.050000X0.437500X0.100000X0.437500X0.100000X-0.437500X-0.100000X-0.437500X270.000000*%
%ADD17R,0.875000X0.200000*%
%ADD18Outline5P,-0.100000X0.437500X0.050000X0.437500X0.100000X0.387500X0.100000X-0.437500X-0.100000X-0.437500X270.000000*%
%ADD19Outline5P,-0.100000X0.387500X-0.050000X0.437500X0.100000X0.437500X0.100000X-0.437500X-0.100000X-0.437500X0.000000*%
%ADD20Outline5P,-0.100000X0.437500X0.050000X0.437500X0.100000X0.387500X0.100000X-0.437500X-0.100000X-0.437500X0.000000*%
%ADD21Outline5P,-0.100000X0.437500X0.100000X0.437500X0.100000X-0.387500X0.050000X-0.437500X-0.100000X-0.437500X270.000000*%
%ADD22Outline5P,-0.100000X0.437500X0.100000X0.437500X0.100000X-0.437500X-0.050000X-0.437500X-0.100000X-0.387500X270.000000*%
%ADD23C,0.700000*%
%ADD24R,3.400000X3.400000*%
%ADD25RoundRect,0.225000X-0.225000X-0.250000X0.225000X-0.250000X0.225000X0.250000X-0.225000X0.250000X0*%
%ADD26RoundRect,0.200000X0.275000X-0.200000X0.275000X0.200000X-0.275000X0.200000X-0.275000X-0.200000X0*%
%ADD27RoundRect,0.225000X-0.250000X0.225000X-0.250000X-0.225000X0.250000X-0.225000X0.250000X0.225000X0*%
%ADD28R,1.700000X1.700000*%
%ADD29C,1.700000*%
%ADD30RoundRect,0.100000X-0.100000X0.637500X-0.100000X-0.637500X0.100000X-0.637500X0.100000X0.637500X0*%
%ADD31R,1.200000X0.400000*%
%ADD32RoundRect,0.225000X-0.375000X0.225000X-0.375000X-0.225000X0.375000X-0.225000X0.375000X0.225000X0*%
%ADD33R,1.785000X1.785000*%
%ADD34C,1.785000*%
%ADD35C,4.770000*%
%ADD36RoundRect,0.100000X0.100000X-0.637500X0.100000X0.637500X-0.100000X0.637500X-0.100000X-0.637500X0*%
%ADD37RoundRect,0.150000X-0.650000X-0.150000X0.650000X-0.150000X0.650000X0.150000X-0.650000X0.150000X0*%
%ADD38C,2.000000*%
%ADD39C,3.500000*%
%ADD40RoundRect,0.200000X-0.275000X0.200000X-0.275000X-0.200000X0.275000X-0.200000X0.275000X0.200000X0*%
%ADD41R,1.400000X0.950000*%
%ADD42RoundRect,0.250000X0.350000X-0.450000X0.350000X0.450000X-0.350000X0.450000X-0.350000X-0.450000X0*%
%ADD43R,1.475000X0.300000*%
%ADD44R,0.300000X1.475000*%
%ADD45RoundRect,0.250000X0.550000X-0.550000X0.550000X0.550000X-0.550000X0.550000X-0.550000X-0.550000X0*%
%ADD46C,1.600000*%
%ADD47RoundRect,0.375000X0.375000X-0.625000X0.375000X0.625000X-0.375000X0.625000X-0.375000X-0.625000X0*%
%ADD48RoundRect,0.500000X1.400000X-0.500000X1.400000X0.500000X-1.400000X0.500000X-1.400000X-0.500000X0*%
%ADD49RoundRect,0.250000X-0.250000X-0.475000X0.250000X-0.475000X0.250000X0.475000X-0.250000X0.475000X0*%
%ADD50C,1.000000*%
%ADD51RoundRect,0.225000X0.225000X0.250000X-0.225000X0.250000X-0.225000X-0.250000X0.225000X-0.250000X0*%
%ADD52R,1.650000X0.400000*%
%ADD53R,0.700000X1.825000*%
%ADD54R,1.500000X2.000000*%
%ADD55R,2.000000X1.350000*%
%ADD56O,1.700000X1.350000*%
%ADD57O,1.500000X1.100000*%
%ADD58R,2.500000X1.430000*%
%ADD59R,0.950000X1.400000*%
%ADD60RoundRect,0.150000X-0.150000X0.512500X-0.150000X-0.512500X0.150000X-0.512500X0.150000X0.512500X0*%
G04 APERTURE END LIST*
D10*
X77987331Y-44235000D03*
X76337331Y-44235000D03*
D11*
X47014001Y-125946000D03*
X48664001Y-125946000D03*
D10*
X101525000Y-100430000D03*
X99875000Y-100430000D03*
X68017332Y-46635000D03*
X66367332Y-46635000D03*
X58047333Y-62577500D03*
X56397333Y-62577500D03*
D11*
X63630666Y-110100000D03*
X65280666Y-110100000D03*
D10*
X44754000Y-62577500D03*
X43104000Y-62577500D03*
D12*
X54750667Y-52000000D03*
X54750667Y-50450000D03*
D13*
X114100000Y-85525000D03*
D14*
X113700000Y-85525000D03*
X113300000Y-85525000D03*
X112900000Y-85525000D03*
X112500000Y-85525000D03*
X112100000Y-85525000D03*
X111700000Y-85525000D03*
X111300000Y-85525000D03*
X110900000Y-85525000D03*
X110500000Y-85525000D03*
X110100000Y-85525000D03*
X109700000Y-85525000D03*
X109300000Y-85525000D03*
X108900000Y-85525000D03*
D15*
X108500000Y-85525000D03*
D16*
X107862500Y-86162500D03*
D17*
X107862500Y-86562500D03*
X107862500Y-86962500D03*
X107862500Y-87362500D03*
X107862500Y-87762500D03*
X107862500Y-88162500D03*
X107862500Y-88562500D03*
X107862500Y-88962500D03*
X107862500Y-89362500D03*
X107862500Y-89762500D03*
X107862500Y-90162500D03*
X107862500Y-90562500D03*
X107862500Y-90962500D03*
X107862500Y-91362500D03*
D18*
X107862500Y-91762500D03*
D19*
X108500000Y-92400000D03*
D14*
X108900000Y-92400000D03*
X109300000Y-92400000D03*
X109700000Y-92400000D03*
X110100000Y-92400000D03*
X110500000Y-92400000D03*
X110900000Y-92400000D03*
X111300000Y-92400000D03*
X111700000Y-92400000D03*
X112100000Y-92400000D03*
X112500000Y-92400000D03*
X112900000Y-92400000D03*
X113300000Y-92400000D03*
X113700000Y-92400000D03*
D20*
X114100000Y-92400000D03*
D21*
X114737500Y-91762500D03*
D17*
X114737500Y-91362500D03*
X114737500Y-90962500D03*
X114737500Y-90562500D03*
X114737500Y-90162500D03*
X114737500Y-89762500D03*
X114737500Y-89362500D03*
X114737500Y-88962500D03*
X114737500Y-88562500D03*
X114737500Y-88162500D03*
X114737500Y-87762500D03*
X114737500Y-87362500D03*
X114737500Y-86962500D03*
X114737500Y-86562500D03*
D22*
X114737500Y-86162500D03*
D23*
X112300000Y-87962500D03*
X111300000Y-87962500D03*
X110300000Y-87962500D03*
X112300000Y-88962500D03*
X111300000Y-88962500D03*
D24*
X111300000Y-88962500D03*
D23*
X110300000Y-88962500D03*
X112300000Y-89962500D03*
X111300000Y-89962500D03*
X110300000Y-89962500D03*
D10*
X61370666Y-46635000D03*
X59720666Y-46635000D03*
D25*
X100200000Y-90212500D03*
X101750000Y-90212500D03*
D10*
X109000000Y-61030000D03*
X107350000Y-61030000D03*
D26*
X74013666Y-107603500D03*
X74013666Y-105953500D03*
D10*
X48077334Y-60177500D03*
X46427334Y-60177500D03*
D11*
X50337334Y-125946000D03*
X51987334Y-125946000D03*
D10*
X58047333Y-60177500D03*
X56397333Y-60177500D03*
X44754000Y-44235000D03*
X43104000Y-44235000D03*
D27*
X41160667Y-54625000D03*
X41160667Y-56175000D03*
D11*
X66953999Y-123546000D03*
X68603999Y-123546000D03*
D26*
X43150000Y-71215000D03*
X43150000Y-69565000D03*
X39430667Y-50450000D03*
X39430667Y-48800000D03*
D28*
X92636000Y-76680000D03*
D29*
X90096000Y-76680000D03*
X92636000Y-74140000D03*
X90096000Y-74140000D03*
X92636000Y-71600000D03*
X90096000Y-71600000D03*
X92636000Y-69060000D03*
X90096000Y-69060000D03*
X92636000Y-66520000D03*
X90096000Y-66520000D03*
D30*
X68099000Y-114193500D03*
X67449000Y-114193500D03*
X66799000Y-114193500D03*
X66149000Y-114193500D03*
X65499000Y-114193500D03*
X64849000Y-114193500D03*
X64199000Y-114193500D03*
X63549000Y-114193500D03*
X62899000Y-114193500D03*
X62249000Y-114193500D03*
X62249000Y-119918500D03*
X62899000Y-119918500D03*
X63549000Y-119918500D03*
X64199000Y-119918500D03*
X64849000Y-119918500D03*
X65499000Y-119918500D03*
X66149000Y-119918500D03*
X66799000Y-119918500D03*
X67449000Y-119918500D03*
X68099000Y-119918500D03*
D31*
X35900000Y-82245500D03*
X35900000Y-82880500D03*
X35900000Y-83515500D03*
X35900000Y-84150500D03*
X35900000Y-84785500D03*
X35900000Y-85420500D03*
X35900000Y-86055500D03*
X35900000Y-86690500D03*
X35900000Y-87325500D03*
X35900000Y-87960500D03*
X35900000Y-88595500D03*
X35900000Y-89230500D03*
X41100000Y-89230500D03*
X41100000Y-88595500D03*
X41100000Y-87960500D03*
X41100000Y-87325500D03*
X41100000Y-86690500D03*
X41100000Y-86055500D03*
X41100000Y-85420500D03*
X41100000Y-84785500D03*
X41100000Y-84150500D03*
X41100000Y-83515500D03*
X41100000Y-82880500D03*
X41100000Y-82245500D03*
D10*
X118200000Y-84650000D03*
X116550000Y-84650000D03*
D32*
X44900000Y-114825000D03*
X44900000Y-118125000D03*
D33*
X114100000Y-56450000D03*
D34*
X114100000Y-58740000D03*
X114100000Y-61030000D03*
X114100000Y-63320000D03*
X114100000Y-65610000D03*
X116200000Y-55310000D03*
X116200000Y-57600000D03*
X116200000Y-59890000D03*
X116200000Y-62180000D03*
X116200000Y-64470000D03*
X118280000Y-56450000D03*
X118280000Y-58740000D03*
X118280000Y-61030000D03*
X118280000Y-63320000D03*
X118280000Y-65610000D03*
D35*
X116200000Y-73260000D03*
X116200000Y-48270000D03*
D11*
X66953999Y-125946000D03*
X68603999Y-125946000D03*
D10*
X77987331Y-60177500D03*
X76337331Y-60177500D03*
D26*
X84400000Y-71215000D03*
X84400000Y-69565000D03*
D36*
X69832333Y-56175000D03*
X70482333Y-56175000D03*
X71132333Y-56175000D03*
X71782333Y-56175000D03*
X72432333Y-56175000D03*
X73082333Y-56175000D03*
X73732333Y-56175000D03*
X74382333Y-56175000D03*
X75032333Y-56175000D03*
X75682333Y-56175000D03*
X75682333Y-50450000D03*
X75032333Y-50450000D03*
X74382333Y-50450000D03*
X73732333Y-50450000D03*
X73082333Y-50450000D03*
X72432333Y-50450000D03*
X71782333Y-50450000D03*
X71132333Y-50450000D03*
X70482333Y-50450000D03*
X69832333Y-50450000D03*
D10*
X97165500Y-72833333D03*
X95515500Y-72833333D03*
X101525000Y-105260000D03*
X99875000Y-105260000D03*
D11*
X63630666Y-123546000D03*
X65280666Y-123546000D03*
D27*
X118793750Y-79400000D03*
X118793750Y-80950000D03*
D37*
X76500000Y-106445000D03*
X76500000Y-107715000D03*
X76500000Y-108985000D03*
X76500000Y-110255000D03*
X83700000Y-110255000D03*
X83700000Y-108985000D03*
X83700000Y-107715000D03*
X83700000Y-106445000D03*
D10*
X109000000Y-56450000D03*
X107350000Y-56450000D03*
D38*
X42500000Y-131386000D03*
X36000000Y-131386000D03*
X42500000Y-126886000D03*
X36000000Y-126886000D03*
D10*
X44754000Y-46635000D03*
X43104000Y-46635000D03*
X64693999Y-62577500D03*
X63043999Y-62577500D03*
D11*
X53660667Y-107600000D03*
X55310667Y-107600000D03*
X50337334Y-107600000D03*
X51987334Y-107600000D03*
D10*
X41430667Y-60177500D03*
X39780667Y-60177500D03*
D28*
X55364000Y-41335000D03*
D29*
X55364000Y-38795000D03*
X57904000Y-41335000D03*
X57904000Y-38795000D03*
X60444000Y-41335000D03*
X60444000Y-38795000D03*
X62984000Y-41335000D03*
X62984000Y-38795000D03*
D10*
X101805000Y-69060000D03*
X100155000Y-69060000D03*
X58047333Y-44235000D03*
X56397333Y-44235000D03*
D12*
X41130667Y-52000000D03*
X41130667Y-50450000D03*
D10*
X48077334Y-46635000D03*
X46427334Y-46635000D03*
D28*
X118500000Y-119000000D03*
D29*
X118500000Y-116460000D03*
X118500000Y-113920000D03*
D28*
X68947333Y-41335000D03*
D29*
X68947333Y-38795000D03*
X71487333Y-41335000D03*
X71487333Y-38795000D03*
X74027333Y-41335000D03*
X74027333Y-38795000D03*
X76567333Y-41335000D03*
X76567333Y-38795000D03*
D10*
X97165500Y-65100000D03*
X95515500Y-65100000D03*
D26*
X84400000Y-93276000D03*
X84400000Y-91626000D03*
D28*
X29527000Y-122890000D03*
D29*
X26987000Y-122890000D03*
X29527000Y-120350000D03*
X26987000Y-120350000D03*
X29527000Y-117810000D03*
X26987000Y-117810000D03*
D10*
X41430667Y-62577500D03*
X39780667Y-62577500D03*
X97165500Y-94700000D03*
X95515500Y-94700000D03*
D36*
X56249000Y-56175000D03*
X56899000Y-56175000D03*
X57549000Y-56175000D03*
X58199000Y-56175000D03*
X58849000Y-56175000D03*
X59499000Y-56175000D03*
X60149000Y-56175000D03*
X60799000Y-56175000D03*
X61449000Y-56175000D03*
X62099000Y-56175000D03*
X62099000Y-50450000D03*
X61449000Y-50450000D03*
X60799000Y-50450000D03*
X60149000Y-50450000D03*
X59499000Y-50450000D03*
X58849000Y-50450000D03*
X58199000Y-50450000D03*
X57549000Y-50450000D03*
X56899000Y-50450000D03*
X56249000Y-50450000D03*
D25*
X80898000Y-69200000D03*
X82448000Y-69200000D03*
D28*
X26987000Y-95898000D03*
D29*
X29527000Y-95898000D03*
X26987000Y-98438000D03*
X29527000Y-98438000D03*
X26987000Y-100978000D03*
X29527000Y-100978000D03*
X26987000Y-103518000D03*
X29527000Y-103518000D03*
X26987000Y-106058000D03*
X29527000Y-106058000D03*
D25*
X82150000Y-104450000D03*
X83700000Y-104450000D03*
D12*
X69600000Y-115743500D03*
X69600000Y-114193500D03*
D10*
X48077334Y-44235000D03*
X46427334Y-44235000D03*
D39*
X26340000Y-39840000D03*
D28*
X82045000Y-131386000D03*
D29*
X84585000Y-131386000D03*
X87125000Y-131386000D03*
X89665000Y-131386000D03*
X92205000Y-131386000D03*
X94745000Y-131386000D03*
X97285000Y-131386000D03*
X99825000Y-131386000D03*
D40*
X71300000Y-119918500D03*
X71300000Y-121568500D03*
D11*
X53660667Y-125946000D03*
X55310667Y-125946000D03*
D41*
X110998000Y-40767000D03*
X110998000Y-38867000D03*
D10*
X97165500Y-70316667D03*
X95515500Y-70316667D03*
D11*
X47014001Y-110100000D03*
X48664001Y-110100000D03*
D26*
X80400000Y-114975000D03*
X80400000Y-113325000D03*
D10*
X109000000Y-58740000D03*
X107350000Y-58740000D03*
X51400667Y-60177500D03*
X49750667Y-60177500D03*
D11*
X70277332Y-123546000D03*
X71927332Y-123546000D03*
D10*
X44754000Y-60177500D03*
X43104000Y-60177500D03*
D11*
X70277332Y-110100000D03*
X71927332Y-110100000D03*
D10*
X74663998Y-60177500D03*
X73013998Y-60177500D03*
D28*
X92636000Y-90818000D03*
D29*
X90096000Y-90818000D03*
X92636000Y-88278000D03*
X90096000Y-88278000D03*
X92636000Y-85738000D03*
X90096000Y-85738000D03*
X92636000Y-83198000D03*
X90096000Y-83198000D03*
X92636000Y-80658000D03*
X90096000Y-80658000D03*
D42*
X101750000Y-88162500D03*
X101750000Y-85762500D03*
X99850000Y-85762500D03*
X99850000Y-88162500D03*
D11*
X47014001Y-123546000D03*
X48664001Y-123546000D03*
D31*
X77248000Y-71215000D03*
X77248000Y-71850000D03*
X77248000Y-72485000D03*
X77248000Y-73120000D03*
X77248000Y-73755000D03*
X77248000Y-74390000D03*
X77248000Y-75025000D03*
X77248000Y-75660000D03*
X77248000Y-76295000D03*
X77248000Y-76930000D03*
X77248000Y-77565000D03*
X77248000Y-78200000D03*
X82448000Y-78200000D03*
X82448000Y-77565000D03*
X82448000Y-76930000D03*
X82448000Y-76295000D03*
X82448000Y-75660000D03*
X82448000Y-75025000D03*
X82448000Y-74390000D03*
X82448000Y-73755000D03*
X82448000Y-73120000D03*
X82448000Y-72485000D03*
X82448000Y-71850000D03*
X82448000Y-71215000D03*
D10*
X54724000Y-60177500D03*
X53074000Y-60177500D03*
D11*
X66953999Y-107603500D03*
X68603999Y-107603500D03*
D25*
X39550000Y-91253250D03*
X41100000Y-91253250D03*
D43*
X48436000Y-76988000D03*
X48436000Y-77488000D03*
X48436000Y-77988000D03*
X48436000Y-78488000D03*
X48436000Y-78988000D03*
X48436000Y-79488000D03*
X48436000Y-79988000D03*
X48436000Y-80488000D03*
X48436000Y-80988000D03*
X48436000Y-81488000D03*
X48436000Y-81988000D03*
X48436000Y-82488000D03*
X48436000Y-82988000D03*
X48436000Y-83488000D03*
X48436000Y-83988000D03*
X48436000Y-84488000D03*
X48436000Y-84988000D03*
X48436000Y-85488000D03*
X48436000Y-85988000D03*
X48436000Y-86488000D03*
X48436000Y-86988000D03*
X48436000Y-87488000D03*
X48436000Y-87988000D03*
X48436000Y-88488000D03*
X48436000Y-88988000D03*
X48436000Y-89488000D03*
X48436000Y-89988000D03*
X48436000Y-90488000D03*
X48436000Y-90988000D03*
X48436000Y-91488000D03*
X48436000Y-91988000D03*
X48436000Y-92488000D03*
X48436000Y-92988000D03*
X48436000Y-93488000D03*
X48436000Y-93988000D03*
X48436000Y-94488000D03*
D44*
X50424000Y-96476000D03*
X50924000Y-96476000D03*
X51424000Y-96476000D03*
X51924000Y-96476000D03*
X52424000Y-96476000D03*
X52924000Y-96476000D03*
X53424000Y-96476000D03*
X53924000Y-96476000D03*
X54424000Y-96476000D03*
X54924000Y-96476000D03*
X55424000Y-96476000D03*
X55924000Y-96476000D03*
X56424000Y-96476000D03*
X56924000Y-96476000D03*
X57424000Y-96476000D03*
X57924000Y-96476000D03*
X58424000Y-96476000D03*
X58924000Y-96476000D03*
X59424000Y-96476000D03*
X59924000Y-96476000D03*
X60424000Y-96476000D03*
X60924000Y-96476000D03*
X61424000Y-96476000D03*
X61924000Y-96476000D03*
X62424000Y-96476000D03*
X62924000Y-96476000D03*
X63424000Y-96476000D03*
X63924000Y-96476000D03*
X64424000Y-96476000D03*
X64924000Y-96476000D03*
X65424000Y-96476000D03*
X65924000Y-96476000D03*
X66424000Y-96476000D03*
X66924000Y-96476000D03*
X67424000Y-96476000D03*
X67924000Y-96476000D03*
D43*
X69912000Y-94488000D03*
X69912000Y-93988000D03*
X69912000Y-93488000D03*
X69912000Y-92988000D03*
X69912000Y-92488000D03*
X69912000Y-91988000D03*
X69912000Y-91488000D03*
X69912000Y-90988000D03*
X69912000Y-90488000D03*
X69912000Y-89988000D03*
X69912000Y-89488000D03*
X69912000Y-88988000D03*
X69912000Y-88488000D03*
X69912000Y-87988000D03*
X69912000Y-87488000D03*
X69912000Y-86988000D03*
X69912000Y-86488000D03*
X69912000Y-85988000D03*
X69912000Y-85488000D03*
X69912000Y-84988000D03*
X69912000Y-84488000D03*
X69912000Y-83988000D03*
X69912000Y-83488000D03*
X69912000Y-82988000D03*
X69912000Y-82488000D03*
X69912000Y-81988000D03*
X69912000Y-81488000D03*
X69912000Y-80988000D03*
X69912000Y-80488000D03*
X69912000Y-79988000D03*
X69912000Y-79488000D03*
X69912000Y-78988000D03*
X69912000Y-78488000D03*
X69912000Y-77988000D03*
X69912000Y-77488000D03*
X69912000Y-76988000D03*
D44*
X67924000Y-75000000D03*
X67424000Y-75000000D03*
X66924000Y-75000000D03*
X66424000Y-75000000D03*
X65924000Y-75000000D03*
X65424000Y-75000000D03*
X64924000Y-75000000D03*
X64424000Y-75000000D03*
X63924000Y-75000000D03*
X63424000Y-75000000D03*
X62924000Y-75000000D03*
X62424000Y-75000000D03*
X61924000Y-75000000D03*
X61424000Y-75000000D03*
X60924000Y-75000000D03*
X60424000Y-75000000D03*
X59924000Y-75000000D03*
X59424000Y-75000000D03*
X58924000Y-75000000D03*
X58424000Y-75000000D03*
X57924000Y-75000000D03*
X57424000Y-75000000D03*
X56924000Y-75000000D03*
X56424000Y-75000000D03*
X55924000Y-75000000D03*
X55424000Y-75000000D03*
X54924000Y-75000000D03*
X54424000Y-75000000D03*
X53924000Y-75000000D03*
X53424000Y-75000000D03*
X52924000Y-75000000D03*
X52424000Y-75000000D03*
X51924000Y-75000000D03*
X51424000Y-75000000D03*
X50924000Y-75000000D03*
X50424000Y-75000000D03*
D11*
X60307333Y-125946000D03*
X61957333Y-125946000D03*
D10*
X97165500Y-101937500D03*
X95515500Y-101937500D03*
D26*
X66674000Y-50450000D03*
X66674000Y-48800000D03*
D27*
X54750667Y-54625000D03*
X54750667Y-56175000D03*
D26*
X43150000Y-82245500D03*
X43150000Y-80595500D03*
D10*
X71340665Y-44235000D03*
X69690665Y-44235000D03*
D11*
X63630666Y-125946000D03*
X65280666Y-125946000D03*
D10*
X74663998Y-46635000D03*
X73013998Y-46635000D03*
D11*
X56984000Y-107603500D03*
X58634000Y-107603500D03*
D10*
X97165500Y-99525000D03*
X95515500Y-99525000D03*
X71340665Y-60177500D03*
X69690665Y-60177500D03*
D45*
X89850000Y-40600000D03*
D46*
X89850000Y-38100000D03*
D10*
X104625000Y-131386000D03*
X102975000Y-131386000D03*
X71340665Y-46635000D03*
X69690665Y-46635000D03*
D26*
X43150000Y-93276000D03*
X43150000Y-91626000D03*
D39*
X26340000Y-130900000D03*
D30*
X56099000Y-114193500D03*
X55449000Y-114193500D03*
X54799000Y-114193500D03*
X54149000Y-114193500D03*
X53499000Y-114193500D03*
X52849000Y-114193500D03*
X52199000Y-114193500D03*
X51549000Y-114193500D03*
X50899000Y-114193500D03*
X50249000Y-114193500D03*
X50249000Y-119918500D03*
X50899000Y-119918500D03*
X51549000Y-119918500D03*
X52199000Y-119918500D03*
X52849000Y-119918500D03*
X53499000Y-119918500D03*
X54149000Y-119918500D03*
X54799000Y-119918500D03*
X55449000Y-119918500D03*
X56099000Y-119918500D03*
D28*
X99060000Y-40640000D03*
D29*
X99060000Y-38100000D03*
X101600000Y-40640000D03*
X101600000Y-38100000D03*
X104140000Y-40640000D03*
X104140000Y-38100000D03*
X106680000Y-40640000D03*
X106680000Y-38100000D03*
D47*
X36275000Y-112450000D03*
X38575000Y-112450000D03*
D48*
X38575000Y-106150000D03*
D47*
X40875000Y-112450000D03*
D10*
X97165500Y-104350000D03*
X95515500Y-104350000D03*
X54724000Y-44235000D03*
X53074000Y-44235000D03*
X74663998Y-44235000D03*
X73013998Y-44235000D03*
D11*
X60307333Y-123546000D03*
X61957333Y-123546000D03*
D10*
X77987331Y-62577500D03*
X76337331Y-62577500D03*
X64693999Y-46635000D03*
X63043999Y-46635000D03*
X101805000Y-76680000D03*
X100155000Y-76680000D03*
D28*
X26987000Y-80658000D03*
D29*
X29527000Y-80658000D03*
X26987000Y-83198000D03*
X29527000Y-83198000D03*
X26987000Y-85738000D03*
X29527000Y-85738000D03*
X26987000Y-88278000D03*
X29527000Y-88278000D03*
X26987000Y-90818000D03*
X29527000Y-90818000D03*
D10*
X51400667Y-44235000D03*
X49750667Y-44235000D03*
D11*
X63630666Y-107603500D03*
X65280666Y-107603500D03*
D12*
X57600000Y-115743500D03*
X57600000Y-114193500D03*
D10*
X77987331Y-46635000D03*
X76337331Y-46635000D03*
X61370666Y-44235000D03*
X59720666Y-44235000D03*
D40*
X53074000Y-48800000D03*
X53074000Y-50450000D03*
D31*
X35900000Y-93276000D03*
X35900000Y-93911000D03*
X35900000Y-94546000D03*
X35900000Y-95181000D03*
X35900000Y-95816000D03*
X35900000Y-96451000D03*
X35900000Y-97086000D03*
X35900000Y-97721000D03*
X35900000Y-98356000D03*
X35900000Y-98991000D03*
X35900000Y-99626000D03*
X35900000Y-100261000D03*
X41100000Y-100261000D03*
X41100000Y-99626000D03*
X41100000Y-98991000D03*
X41100000Y-98356000D03*
X41100000Y-97721000D03*
X41100000Y-97086000D03*
X41100000Y-96451000D03*
X41100000Y-95816000D03*
X41100000Y-95181000D03*
X41100000Y-94546000D03*
X41100000Y-93911000D03*
X41100000Y-93276000D03*
D27*
X57600000Y-118368500D03*
X57600000Y-119918500D03*
D28*
X92636000Y-105260000D03*
D29*
X90096000Y-105260000D03*
X92636000Y-102720000D03*
X90096000Y-102720000D03*
X92636000Y-100180000D03*
X90096000Y-100180000D03*
X92636000Y-97640000D03*
X90096000Y-97640000D03*
X92636000Y-95100000D03*
X90096000Y-95100000D03*
D26*
X82850000Y-114975000D03*
X82850000Y-113325000D03*
D10*
X61370666Y-62577500D03*
X59720666Y-62577500D03*
X61370666Y-60177500D03*
X59720666Y-60177500D03*
D28*
X26987000Y-65418000D03*
D29*
X29527000Y-65418000D03*
X26987000Y-67958000D03*
X29527000Y-67958000D03*
X26987000Y-70498000D03*
X29527000Y-70498000D03*
X26987000Y-73038000D03*
X29527000Y-73038000D03*
X26987000Y-75578000D03*
X29527000Y-75578000D03*
D10*
X71340665Y-62577500D03*
X69690665Y-62577500D03*
X64693999Y-44235000D03*
X63043999Y-44235000D03*
D12*
X40875000Y-116375000D03*
X40875000Y-114825000D03*
D10*
X68017332Y-60177500D03*
X66367332Y-60177500D03*
D49*
X36675000Y-115100000D03*
X38575000Y-115100000D03*
D27*
X68374000Y-54625000D03*
X68374000Y-56175000D03*
D10*
X58047333Y-46635000D03*
X56397333Y-46635000D03*
D11*
X56984000Y-123546000D03*
X58634000Y-123546000D03*
D25*
X80898000Y-91253250D03*
X82448000Y-91253250D03*
D50*
X57600000Y-70000000D03*
D10*
X51400667Y-46635000D03*
X49750667Y-46635000D03*
D39*
X117400000Y-130900000D03*
D28*
X92636000Y-58900000D03*
D29*
X90096000Y-58900000D03*
D51*
X101400000Y-83812500D03*
X99850000Y-83812500D03*
D10*
X54724000Y-46635000D03*
X53074000Y-46635000D03*
X97165500Y-97112500D03*
X95515500Y-97112500D03*
D11*
X116550000Y-90300000D03*
X118200000Y-90300000D03*
X116550000Y-88800000D03*
X118200000Y-88800000D03*
D28*
X41780667Y-41335000D03*
D29*
X41780667Y-38795000D03*
X44320667Y-41335000D03*
X44320667Y-38795000D03*
X46860667Y-41335000D03*
X46860667Y-38795000D03*
X49400667Y-41335000D03*
X49400667Y-38795000D03*
D31*
X77248000Y-82245500D03*
X77248000Y-82880500D03*
X77248000Y-83515500D03*
X77248000Y-84150500D03*
X77248000Y-84785500D03*
X77248000Y-85420500D03*
X77248000Y-86055500D03*
X77248000Y-86690500D03*
X77248000Y-87325500D03*
X77248000Y-87960500D03*
X77248000Y-88595500D03*
X77248000Y-89230500D03*
X82448000Y-89230500D03*
X82448000Y-88595500D03*
X82448000Y-87960500D03*
X82448000Y-87325500D03*
X82448000Y-86690500D03*
X82448000Y-86055500D03*
X82448000Y-85420500D03*
X82448000Y-84785500D03*
X82448000Y-84150500D03*
X82448000Y-83515500D03*
X82448000Y-82880500D03*
X82448000Y-82245500D03*
D11*
X116550000Y-86162500D03*
X118200000Y-86162500D03*
D39*
X117400000Y-39840000D03*
D40*
X59300000Y-119918500D03*
X59300000Y-121568500D03*
D10*
X101805000Y-66520000D03*
X100155000Y-66520000D03*
D28*
X68984000Y-128846000D03*
D29*
X68984000Y-131386000D03*
X66444000Y-128846000D03*
X66444000Y-131386000D03*
X63904000Y-128846000D03*
X63904000Y-131386000D03*
X61364000Y-128846000D03*
X61364000Y-131386000D03*
D10*
X74663998Y-62577500D03*
X73013998Y-62577500D03*
D25*
X39550000Y-80222750D03*
X41100000Y-80222750D03*
D31*
X77248000Y-93276000D03*
X77248000Y-93911000D03*
X77248000Y-94546000D03*
X77248000Y-95181000D03*
X77248000Y-95816000D03*
X77248000Y-96451000D03*
X77248000Y-97086000D03*
X77248000Y-97721000D03*
X77248000Y-98356000D03*
X77248000Y-98991000D03*
X77248000Y-99626000D03*
X77248000Y-100261000D03*
X82448000Y-100261000D03*
X82448000Y-99626000D03*
X82448000Y-98991000D03*
X82448000Y-98356000D03*
X82448000Y-97721000D03*
X82448000Y-97086000D03*
X82448000Y-96451000D03*
X82448000Y-95816000D03*
X82448000Y-95181000D03*
X82448000Y-94546000D03*
X82448000Y-93911000D03*
X82448000Y-93276000D03*
D12*
X68374000Y-52000000D03*
X68374000Y-50450000D03*
D11*
X70277332Y-107603500D03*
X71927332Y-107603500D03*
D26*
X74013666Y-110700000D03*
X74013666Y-109050000D03*
D50*
X57400000Y-101200000D03*
D10*
X101525000Y-102845000D03*
X99875000Y-102845000D03*
D11*
X60307333Y-110100000D03*
X61957333Y-110100000D03*
X53660667Y-110100000D03*
X55310667Y-110100000D03*
X56984000Y-125946000D03*
X58634000Y-125946000D03*
D10*
X41430667Y-44235000D03*
X39780667Y-44235000D03*
X68017332Y-62577500D03*
X66367332Y-62577500D03*
X54724000Y-62577500D03*
X53074000Y-62577500D03*
X48077334Y-62577500D03*
X46427334Y-62577500D03*
D11*
X60307333Y-107603500D03*
X61957333Y-107603500D03*
X66953999Y-110100000D03*
X68603999Y-110100000D03*
D36*
X42665667Y-56175000D03*
X43315667Y-56175000D03*
X43965667Y-56175000D03*
X44615667Y-56175000D03*
X45265667Y-56175000D03*
X45915667Y-56175000D03*
X46565667Y-56175000D03*
X47215667Y-56175000D03*
X47865667Y-56175000D03*
X48515667Y-56175000D03*
X48515667Y-50450000D03*
X47865667Y-50450000D03*
X47215667Y-50450000D03*
X46565667Y-50450000D03*
X45915667Y-50450000D03*
X45265667Y-50450000D03*
X44615667Y-50450000D03*
X43965667Y-50450000D03*
X43315667Y-50450000D03*
X42665667Y-50450000D03*
D11*
X56984000Y-110100000D03*
X58634000Y-110100000D03*
D10*
X101805000Y-71600000D03*
X100155000Y-71600000D03*
D11*
X47014001Y-107600000D03*
X48664001Y-107600000D03*
D10*
X101525000Y-95600000D03*
X99875000Y-95600000D03*
D31*
X35900000Y-71215000D03*
X35900000Y-71850000D03*
X35900000Y-72485000D03*
X35900000Y-73120000D03*
X35900000Y-73755000D03*
X35900000Y-74390000D03*
X35900000Y-75025000D03*
X35900000Y-75660000D03*
X35900000Y-76295000D03*
X35900000Y-76930000D03*
X35900000Y-77565000D03*
X35900000Y-78200000D03*
X41100000Y-78200000D03*
X41100000Y-77565000D03*
X41100000Y-76930000D03*
X41100000Y-76295000D03*
X41100000Y-75660000D03*
X41100000Y-75025000D03*
X41100000Y-74390000D03*
X41100000Y-73755000D03*
X41100000Y-73120000D03*
X41100000Y-72485000D03*
X41100000Y-71850000D03*
X41100000Y-71215000D03*
D50*
X57600000Y-67800000D03*
D11*
X50337334Y-123546000D03*
X51987334Y-123546000D03*
D10*
X97165500Y-67800000D03*
X95515500Y-67800000D03*
D11*
X53660667Y-123546000D03*
X55310667Y-123546000D03*
D10*
X101805000Y-74140000D03*
X100155000Y-74140000D03*
D11*
X50337334Y-110100000D03*
X51987334Y-110100000D03*
D40*
X104250000Y-87375000D03*
X104250000Y-89025000D03*
D10*
X41430667Y-46635000D03*
X39780667Y-46635000D03*
X51400667Y-62577500D03*
X49750667Y-62577500D03*
X109000000Y-44750000D03*
X107350000Y-44750000D03*
X97165500Y-75350000D03*
X95515500Y-75350000D03*
D52*
X116420000Y-103070000D03*
X116420000Y-102420000D03*
X116420000Y-101770000D03*
X116420000Y-101120000D03*
X116420000Y-100470000D03*
D53*
X117620000Y-104720000D03*
D54*
X116320000Y-104620000D03*
D55*
X118370000Y-104500000D03*
D56*
X119300000Y-104500000D03*
D57*
X116300000Y-104190000D03*
D58*
X119570000Y-102730000D03*
X119570000Y-100810000D03*
D57*
X116300000Y-99350000D03*
D56*
X119300000Y-99040000D03*
D55*
X118370000Y-99020000D03*
D54*
X116300000Y-98870000D03*
D53*
X117620000Y-98770000D03*
D28*
X56984000Y-128846000D03*
D29*
X56984000Y-131386000D03*
X54444000Y-128846000D03*
X54444000Y-131386000D03*
X51904000Y-128846000D03*
X51904000Y-131386000D03*
X49364000Y-128846000D03*
X49364000Y-131386000D03*
D11*
X70277332Y-125946000D03*
X71927332Y-125946000D03*
D25*
X39550000Y-69200000D03*
X41100000Y-69200000D03*
D27*
X69600000Y-118368500D03*
X69600000Y-119918500D03*
D10*
X68017332Y-44235000D03*
X66367332Y-44235000D03*
D25*
X80898000Y-80222750D03*
X82448000Y-80222750D03*
D10*
X64693999Y-60177500D03*
X63043999Y-60177500D03*
X101525000Y-98015000D03*
X99875000Y-98015000D03*
D26*
X84400000Y-82245500D03*
X84400000Y-80595500D03*
D59*
X107400000Y-131386000D03*
X109300000Y-131386000D03*
D60*
X116393750Y-78675000D03*
X115443750Y-78675000D03*
X114493750Y-78675000D03*
X114493750Y-80950000D03*
X116393750Y-80950000D03*
D11*
X88015000Y-112150000D03*
X89665000Y-112150000D03*
M02*
