G04 #@! TF.GenerationSoftware,KiCad,Pcbnew,10.0.4-150-gc4750059f9*
G04 #@! TF.CreationDate,2026-07-09T16:37:47+10:00*
G04 #@! TF.ProjectId,Ice40hx4k_tq144,49636534-3068-4783-946b-5f7471313434,B*
G04 #@! TF.SameCoordinates,Original*
G04 #@! TF.FileFunction,Legend,Bot*
G04 #@! TF.FilePolarity,Positive*
%FSLAX46Y46*%
G04 Gerber Fmt 4.6, Leading zero omitted, Abs format (unit mm)*
G04 Created by KiCad (PCBNEW 10.0.4-150-gc4750059f9) date 2026-07-09 16:37:47*
%MOMM*%
%LPD*%
G01*
G04 APERTURE LIST*
G04 Aperture macros list*
%AMRoundRect*
0 Rectangle with rounded corners*
0 $1 Rounding radius*
0 $2 $3 $4 $5 $6 $7 $8 $9 X,Y pos of 4 corners*
0 Add a 4 corners polygon primitive as box body*
4,1,4,$2,$3,$4,$5,$6,$7,$8,$9,$2,$3,0*
0 Add four circle primitives for the rounded corners*
1,1,$1+$1,$2,$3*
1,1,$1+$1,$4,$5*
1,1,$1+$1,$6,$7*
1,1,$1+$1,$8,$9*
0 Add four rect primitives between the rounded corners*
20,1,$1+$1,$2,$3,$4,$5,0*
20,1,$1+$1,$4,$5,$6,$7,0*
20,1,$1+$1,$6,$7,$8,$9,0*
20,1,$1+$1,$8,$9,$2,$3,0*%
G04 Aperture macros list end*
%ADD10C,0.150000*%
%ADD11C,0.120000*%
%ADD12C,0.700000*%
%ADD13R,1.700000X1.700000*%
%ADD14C,1.700000*%
%ADD15R,1.785000X1.785000*%
%ADD16C,1.785000*%
%ADD17C,4.770000*%
%ADD18C,2.000000*%
%ADD19C,3.500000*%
%ADD20RoundRect,0.250000X0.550000X-0.550000X0.550000X0.550000X-0.550000X0.550000X-0.550000X-0.550000X0*%
%ADD21C,1.600000*%
%ADD22O,1.700000X1.350000*%
%ADD23O,1.500000X1.100000*%
%ADD24RoundRect,0.200000X-0.200000X-0.275000X0.200000X-0.275000X0.200000X0.275000X-0.200000X0.275000X0*%
%ADD25RoundRect,0.250000X0.250000X0.475000X-0.250000X0.475000X-0.250000X-0.475000X0.250000X-0.475000X0*%
%ADD26RoundRect,0.150000X0.512500X0.150000X-0.512500X0.150000X-0.512500X-0.150000X0.512500X-0.150000X0*%
%ADD27RoundRect,0.225000X-0.225000X-0.250000X0.225000X-0.250000X0.225000X0.250000X-0.225000X0.250000X0*%
%ADD28RoundRect,0.225000X-0.250000X0.225000X-0.250000X-0.225000X0.250000X-0.225000X0.250000X0.225000X0*%
%ADD29RoundRect,0.225000X0.250000X-0.225000X0.250000X0.225000X-0.250000X0.225000X-0.250000X-0.225000X0*%
%ADD30RoundRect,0.200000X-0.275000X0.200000X-0.275000X-0.200000X0.275000X-0.200000X0.275000X0.200000X0*%
%ADD31RoundRect,0.225000X0.225000X0.250000X-0.225000X0.250000X-0.225000X-0.250000X0.225000X-0.250000X0*%
%ADD32RoundRect,0.200000X0.200000X0.275000X-0.200000X0.275000X-0.200000X-0.275000X0.200000X-0.275000X0*%
%ADD33RoundRect,0.150000X0.587500X0.150000X-0.587500X0.150000X-0.587500X-0.150000X0.587500X-0.150000X0*%
%ADD34RoundRect,0.200000X0.275000X-0.200000X0.275000X0.200000X-0.275000X0.200000X-0.275000X-0.200000X0*%
G04 APERTURE END LIST*
D10*
X67492857Y-72004819D02*
X67826190Y-71528628D01*
X68064285Y-72004819D02*
X68064285Y-71004819D01*
X68064285Y-71004819D02*
X67683333Y-71004819D01*
X67683333Y-71004819D02*
X67588095Y-71052438D01*
X67588095Y-71052438D02*
X67540476Y-71100057D01*
X67540476Y-71100057D02*
X67492857Y-71195295D01*
X67492857Y-71195295D02*
X67492857Y-71338152D01*
X67492857Y-71338152D02*
X67540476Y-71433390D01*
X67540476Y-71433390D02*
X67588095Y-71481009D01*
X67588095Y-71481009D02*
X67683333Y-71528628D01*
X67683333Y-71528628D02*
X68064285Y-71528628D01*
X66540476Y-72004819D02*
X67111904Y-72004819D01*
X66826190Y-72004819D02*
X66826190Y-71004819D01*
X66826190Y-71004819D02*
X66921428Y-71147676D01*
X66921428Y-71147676D02*
X67016666Y-71242914D01*
X67016666Y-71242914D02*
X67111904Y-71290533D01*
X65921428Y-71004819D02*
X65826190Y-71004819D01*
X65826190Y-71004819D02*
X65730952Y-71052438D01*
X65730952Y-71052438D02*
X65683333Y-71100057D01*
X65683333Y-71100057D02*
X65635714Y-71195295D01*
X65635714Y-71195295D02*
X65588095Y-71385771D01*
X65588095Y-71385771D02*
X65588095Y-71623866D01*
X65588095Y-71623866D02*
X65635714Y-71814342D01*
X65635714Y-71814342D02*
X65683333Y-71909580D01*
X65683333Y-71909580D02*
X65730952Y-71957200D01*
X65730952Y-71957200D02*
X65826190Y-72004819D01*
X65826190Y-72004819D02*
X65921428Y-72004819D01*
X65921428Y-72004819D02*
X66016666Y-71957200D01*
X66016666Y-71957200D02*
X66064285Y-71909580D01*
X66064285Y-71909580D02*
X66111904Y-71814342D01*
X66111904Y-71814342D02*
X66159523Y-71623866D01*
X66159523Y-71623866D02*
X66159523Y-71385771D01*
X66159523Y-71385771D02*
X66111904Y-71195295D01*
X66111904Y-71195295D02*
X66064285Y-71100057D01*
X66064285Y-71100057D02*
X66016666Y-71052438D01*
X66016666Y-71052438D02*
X65921428Y-71004819D01*
X64966666Y-70454819D02*
X65538094Y-70454819D01*
X65252380Y-70454819D02*
X65252380Y-69454819D01*
X65252380Y-69454819D02*
X65347618Y-69597676D01*
X65347618Y-69597676D02*
X65442856Y-69692914D01*
X65442856Y-69692914D02*
X65538094Y-69740533D01*
X64347618Y-69454819D02*
X64252380Y-69454819D01*
X64252380Y-69454819D02*
X64157142Y-69502438D01*
X64157142Y-69502438D02*
X64109523Y-69550057D01*
X64109523Y-69550057D02*
X64061904Y-69645295D01*
X64061904Y-69645295D02*
X64014285Y-69835771D01*
X64014285Y-69835771D02*
X64014285Y-70073866D01*
X64014285Y-70073866D02*
X64061904Y-70264342D01*
X64061904Y-70264342D02*
X64109523Y-70359580D01*
X64109523Y-70359580D02*
X64157142Y-70407200D01*
X64157142Y-70407200D02*
X64252380Y-70454819D01*
X64252380Y-70454819D02*
X64347618Y-70454819D01*
X64347618Y-70454819D02*
X64442856Y-70407200D01*
X64442856Y-70407200D02*
X64490475Y-70359580D01*
X64490475Y-70359580D02*
X64538094Y-70264342D01*
X64538094Y-70264342D02*
X64585713Y-70073866D01*
X64585713Y-70073866D02*
X64585713Y-69835771D01*
X64585713Y-69835771D02*
X64538094Y-69645295D01*
X64538094Y-69645295D02*
X64490475Y-69550057D01*
X64490475Y-69550057D02*
X64442856Y-69502438D01*
X64442856Y-69502438D02*
X64347618Y-69454819D01*
X63395237Y-69454819D02*
X63299999Y-69454819D01*
X63299999Y-69454819D02*
X63204761Y-69502438D01*
X63204761Y-69502438D02*
X63157142Y-69550057D01*
X63157142Y-69550057D02*
X63109523Y-69645295D01*
X63109523Y-69645295D02*
X63061904Y-69835771D01*
X63061904Y-69835771D02*
X63061904Y-70073866D01*
X63061904Y-70073866D02*
X63109523Y-70264342D01*
X63109523Y-70264342D02*
X63157142Y-70359580D01*
X63157142Y-70359580D02*
X63204761Y-70407200D01*
X63204761Y-70407200D02*
X63299999Y-70454819D01*
X63299999Y-70454819D02*
X63395237Y-70454819D01*
X63395237Y-70454819D02*
X63490475Y-70407200D01*
X63490475Y-70407200D02*
X63538094Y-70359580D01*
X63538094Y-70359580D02*
X63585713Y-70264342D01*
X63585713Y-70264342D02*
X63633332Y-70073866D01*
X63633332Y-70073866D02*
X63633332Y-69835771D01*
X63633332Y-69835771D02*
X63585713Y-69645295D01*
X63585713Y-69645295D02*
X63538094Y-69550057D01*
X63538094Y-69550057D02*
X63490475Y-69502438D01*
X63490475Y-69502438D02*
X63395237Y-69454819D01*
X62061904Y-70454819D02*
X62395237Y-69978628D01*
X62633332Y-70454819D02*
X62633332Y-69454819D01*
X62633332Y-69454819D02*
X62252380Y-69454819D01*
X62252380Y-69454819D02*
X62157142Y-69502438D01*
X62157142Y-69502438D02*
X62109523Y-69550057D01*
X62109523Y-69550057D02*
X62061904Y-69645295D01*
X62061904Y-69645295D02*
X62061904Y-69788152D01*
X62061904Y-69788152D02*
X62109523Y-69883390D01*
X62109523Y-69883390D02*
X62157142Y-69931009D01*
X62157142Y-69931009D02*
X62252380Y-69978628D01*
X62252380Y-69978628D02*
X62633332Y-69978628D01*
X56858564Y-69588287D02*
X56906183Y-69635907D01*
X56906183Y-69635907D02*
X57049040Y-69683526D01*
X57049040Y-69683526D02*
X57144278Y-69683526D01*
X57144278Y-69683526D02*
X57287135Y-69635907D01*
X57287135Y-69635907D02*
X57382373Y-69540668D01*
X57382373Y-69540668D02*
X57429992Y-69445430D01*
X57429992Y-69445430D02*
X57477611Y-69254954D01*
X57477611Y-69254954D02*
X57477611Y-69112097D01*
X57477611Y-69112097D02*
X57429992Y-68921621D01*
X57429992Y-68921621D02*
X57382373Y-68826383D01*
X57382373Y-68826383D02*
X57287135Y-68731145D01*
X57287135Y-68731145D02*
X57144278Y-68683526D01*
X57144278Y-68683526D02*
X57049040Y-68683526D01*
X57049040Y-68683526D02*
X56906183Y-68731145D01*
X56906183Y-68731145D02*
X56858564Y-68778764D01*
X55906183Y-69683526D02*
X56477611Y-69683526D01*
X56191897Y-69683526D02*
X56191897Y-68683526D01*
X56191897Y-68683526D02*
X56287135Y-68826383D01*
X56287135Y-68826383D02*
X56382373Y-68921621D01*
X56382373Y-68921621D02*
X56477611Y-68969240D01*
X55001421Y-68683526D02*
X55477611Y-68683526D01*
X55477611Y-68683526D02*
X55525230Y-69159716D01*
X55525230Y-69159716D02*
X55477611Y-69112097D01*
X55477611Y-69112097D02*
X55382373Y-69064478D01*
X55382373Y-69064478D02*
X55144278Y-69064478D01*
X55144278Y-69064478D02*
X55049040Y-69112097D01*
X55049040Y-69112097D02*
X55001421Y-69159716D01*
X55001421Y-69159716D02*
X54953802Y-69254954D01*
X54953802Y-69254954D02*
X54953802Y-69493049D01*
X54953802Y-69493049D02*
X55001421Y-69588287D01*
X55001421Y-69588287D02*
X55049040Y-69635907D01*
X55049040Y-69635907D02*
X55144278Y-69683526D01*
X55144278Y-69683526D02*
X55382373Y-69683526D01*
X55382373Y-69683526D02*
X55477611Y-69635907D01*
X55477611Y-69635907D02*
X55525230Y-69588287D01*
X60328571Y-67954819D02*
X60899999Y-67954819D01*
X60614285Y-67954819D02*
X60614285Y-66954819D01*
X60614285Y-66954819D02*
X60709523Y-67097676D01*
X60709523Y-67097676D02*
X60804761Y-67192914D01*
X60804761Y-67192914D02*
X60899999Y-67240533D01*
X59709523Y-66954819D02*
X59614285Y-66954819D01*
X59614285Y-66954819D02*
X59519047Y-67002438D01*
X59519047Y-67002438D02*
X59471428Y-67050057D01*
X59471428Y-67050057D02*
X59423809Y-67145295D01*
X59423809Y-67145295D02*
X59376190Y-67335771D01*
X59376190Y-67335771D02*
X59376190Y-67573866D01*
X59376190Y-67573866D02*
X59423809Y-67764342D01*
X59423809Y-67764342D02*
X59471428Y-67859580D01*
X59471428Y-67859580D02*
X59519047Y-67907200D01*
X59519047Y-67907200D02*
X59614285Y-67954819D01*
X59614285Y-67954819D02*
X59709523Y-67954819D01*
X59709523Y-67954819D02*
X59804761Y-67907200D01*
X59804761Y-67907200D02*
X59852380Y-67859580D01*
X59852380Y-67859580D02*
X59899999Y-67764342D01*
X59899999Y-67764342D02*
X59947618Y-67573866D01*
X59947618Y-67573866D02*
X59947618Y-67335771D01*
X59947618Y-67335771D02*
X59899999Y-67145295D01*
X59899999Y-67145295D02*
X59852380Y-67050057D01*
X59852380Y-67050057D02*
X59804761Y-67002438D01*
X59804761Y-67002438D02*
X59709523Y-66954819D01*
X58519047Y-67288152D02*
X58519047Y-67954819D01*
X58947618Y-67288152D02*
X58947618Y-67811961D01*
X58947618Y-67811961D02*
X58899999Y-67907200D01*
X58899999Y-67907200D02*
X58804761Y-67954819D01*
X58804761Y-67954819D02*
X58661904Y-67954819D01*
X58661904Y-67954819D02*
X58566666Y-67907200D01*
X58566666Y-67907200D02*
X58519047Y-67859580D01*
X58185713Y-67288152D02*
X57804761Y-67288152D01*
X58042856Y-67954819D02*
X58042856Y-67097676D01*
X58042856Y-67097676D02*
X57995237Y-67002438D01*
X57995237Y-67002438D02*
X57899999Y-66954819D01*
X57899999Y-66954819D02*
X57804761Y-66954819D01*
X59736904Y-83454819D02*
X59736904Y-84264342D01*
X59736904Y-84264342D02*
X59689285Y-84359580D01*
X59689285Y-84359580D02*
X59641666Y-84407200D01*
X59641666Y-84407200D02*
X59546428Y-84454819D01*
X59546428Y-84454819D02*
X59355952Y-84454819D01*
X59355952Y-84454819D02*
X59260714Y-84407200D01*
X59260714Y-84407200D02*
X59213095Y-84359580D01*
X59213095Y-84359580D02*
X59165476Y-84264342D01*
X59165476Y-84264342D02*
X59165476Y-83454819D01*
X58736904Y-83550057D02*
X58689285Y-83502438D01*
X58689285Y-83502438D02*
X58594047Y-83454819D01*
X58594047Y-83454819D02*
X58355952Y-83454819D01*
X58355952Y-83454819D02*
X58260714Y-83502438D01*
X58260714Y-83502438D02*
X58213095Y-83550057D01*
X58213095Y-83550057D02*
X58165476Y-83645295D01*
X58165476Y-83645295D02*
X58165476Y-83740533D01*
X58165476Y-83740533D02*
X58213095Y-83883390D01*
X58213095Y-83883390D02*
X58784523Y-84454819D01*
X58784523Y-84454819D02*
X58165476Y-84454819D01*
X54721428Y-86254819D02*
X55292856Y-86254819D01*
X55007142Y-86254819D02*
X55007142Y-85254819D01*
X55007142Y-85254819D02*
X55102380Y-85397676D01*
X55102380Y-85397676D02*
X55197618Y-85492914D01*
X55197618Y-85492914D02*
X55292856Y-85540533D01*
X54388094Y-85588152D02*
X54149999Y-86254819D01*
X54149999Y-86254819D02*
X53911904Y-85588152D01*
X53578570Y-85350057D02*
X53530951Y-85302438D01*
X53530951Y-85302438D02*
X53435713Y-85254819D01*
X53435713Y-85254819D02*
X53197618Y-85254819D01*
X53197618Y-85254819D02*
X53102380Y-85302438D01*
X53102380Y-85302438D02*
X53054761Y-85350057D01*
X53054761Y-85350057D02*
X53007142Y-85445295D01*
X53007142Y-85445295D02*
X53007142Y-85540533D01*
X53007142Y-85540533D02*
X53054761Y-85683390D01*
X53054761Y-85683390D02*
X53626189Y-86254819D01*
X53626189Y-86254819D02*
X53007142Y-86254819D01*
X61593357Y-92559580D02*
X61640976Y-92607200D01*
X61640976Y-92607200D02*
X61783833Y-92654819D01*
X61783833Y-92654819D02*
X61879071Y-92654819D01*
X61879071Y-92654819D02*
X62021928Y-92607200D01*
X62021928Y-92607200D02*
X62117166Y-92511961D01*
X62117166Y-92511961D02*
X62164785Y-92416723D01*
X62164785Y-92416723D02*
X62212404Y-92226247D01*
X62212404Y-92226247D02*
X62212404Y-92083390D01*
X62212404Y-92083390D02*
X62164785Y-91892914D01*
X62164785Y-91892914D02*
X62117166Y-91797676D01*
X62117166Y-91797676D02*
X62021928Y-91702438D01*
X62021928Y-91702438D02*
X61879071Y-91654819D01*
X61879071Y-91654819D02*
X61783833Y-91654819D01*
X61783833Y-91654819D02*
X61640976Y-91702438D01*
X61640976Y-91702438D02*
X61593357Y-91750057D01*
X61260023Y-91654819D02*
X60640976Y-91654819D01*
X60640976Y-91654819D02*
X60974309Y-92035771D01*
X60974309Y-92035771D02*
X60831452Y-92035771D01*
X60831452Y-92035771D02*
X60736214Y-92083390D01*
X60736214Y-92083390D02*
X60688595Y-92131009D01*
X60688595Y-92131009D02*
X60640976Y-92226247D01*
X60640976Y-92226247D02*
X60640976Y-92464342D01*
X60640976Y-92464342D02*
X60688595Y-92559580D01*
X60688595Y-92559580D02*
X60736214Y-92607200D01*
X60736214Y-92607200D02*
X60831452Y-92654819D01*
X60831452Y-92654819D02*
X61117166Y-92654819D01*
X61117166Y-92654819D02*
X61212404Y-92607200D01*
X61212404Y-92607200D02*
X61260023Y-92559580D01*
X60307642Y-91654819D02*
X59688595Y-91654819D01*
X59688595Y-91654819D02*
X60021928Y-92035771D01*
X60021928Y-92035771D02*
X59879071Y-92035771D01*
X59879071Y-92035771D02*
X59783833Y-92083390D01*
X59783833Y-92083390D02*
X59736214Y-92131009D01*
X59736214Y-92131009D02*
X59688595Y-92226247D01*
X59688595Y-92226247D02*
X59688595Y-92464342D01*
X59688595Y-92464342D02*
X59736214Y-92559580D01*
X59736214Y-92559580D02*
X59783833Y-92607200D01*
X59783833Y-92607200D02*
X59879071Y-92654819D01*
X59879071Y-92654819D02*
X60164785Y-92654819D01*
X60164785Y-92654819D02*
X60260023Y-92607200D01*
X60260023Y-92607200D02*
X60307642Y-92559580D01*
X111192857Y-91459580D02*
X111240476Y-91507200D01*
X111240476Y-91507200D02*
X111383333Y-91554819D01*
X111383333Y-91554819D02*
X111478571Y-91554819D01*
X111478571Y-91554819D02*
X111621428Y-91507200D01*
X111621428Y-91507200D02*
X111716666Y-91411961D01*
X111716666Y-91411961D02*
X111764285Y-91316723D01*
X111764285Y-91316723D02*
X111811904Y-91126247D01*
X111811904Y-91126247D02*
X111811904Y-90983390D01*
X111811904Y-90983390D02*
X111764285Y-90792914D01*
X111764285Y-90792914D02*
X111716666Y-90697676D01*
X111716666Y-90697676D02*
X111621428Y-90602438D01*
X111621428Y-90602438D02*
X111478571Y-90554819D01*
X111478571Y-90554819D02*
X111383333Y-90554819D01*
X111383333Y-90554819D02*
X111240476Y-90602438D01*
X111240476Y-90602438D02*
X111192857Y-90650057D01*
X110335714Y-90554819D02*
X110526190Y-90554819D01*
X110526190Y-90554819D02*
X110621428Y-90602438D01*
X110621428Y-90602438D02*
X110669047Y-90650057D01*
X110669047Y-90650057D02*
X110764285Y-90792914D01*
X110764285Y-90792914D02*
X110811904Y-90983390D01*
X110811904Y-90983390D02*
X110811904Y-91364342D01*
X110811904Y-91364342D02*
X110764285Y-91459580D01*
X110764285Y-91459580D02*
X110716666Y-91507200D01*
X110716666Y-91507200D02*
X110621428Y-91554819D01*
X110621428Y-91554819D02*
X110430952Y-91554819D01*
X110430952Y-91554819D02*
X110335714Y-91507200D01*
X110335714Y-91507200D02*
X110288095Y-91459580D01*
X110288095Y-91459580D02*
X110240476Y-91364342D01*
X110240476Y-91364342D02*
X110240476Y-91126247D01*
X110240476Y-91126247D02*
X110288095Y-91031009D01*
X110288095Y-91031009D02*
X110335714Y-90983390D01*
X110335714Y-90983390D02*
X110430952Y-90935771D01*
X110430952Y-90935771D02*
X110621428Y-90935771D01*
X110621428Y-90935771D02*
X110716666Y-90983390D01*
X110716666Y-90983390D02*
X110764285Y-91031009D01*
X110764285Y-91031009D02*
X110811904Y-91126247D01*
X109335714Y-90554819D02*
X109811904Y-90554819D01*
X109811904Y-90554819D02*
X109859523Y-91031009D01*
X109859523Y-91031009D02*
X109811904Y-90983390D01*
X109811904Y-90983390D02*
X109716666Y-90935771D01*
X109716666Y-90935771D02*
X109478571Y-90935771D01*
X109478571Y-90935771D02*
X109383333Y-90983390D01*
X109383333Y-90983390D02*
X109335714Y-91031009D01*
X109335714Y-91031009D02*
X109288095Y-91126247D01*
X109288095Y-91126247D02*
X109288095Y-91364342D01*
X109288095Y-91364342D02*
X109335714Y-91459580D01*
X109335714Y-91459580D02*
X109383333Y-91507200D01*
X109383333Y-91507200D02*
X109478571Y-91554819D01*
X109478571Y-91554819D02*
X109716666Y-91554819D01*
X109716666Y-91554819D02*
X109811904Y-91507200D01*
X109811904Y-91507200D02*
X109859523Y-91459580D01*
X120088152Y-87738095D02*
X120754819Y-87738095D01*
X119707200Y-87500000D02*
X120421485Y-87261905D01*
X120421485Y-87261905D02*
X120421485Y-87880952D01*
X120659580Y-88261905D02*
X120707200Y-88309524D01*
X120707200Y-88309524D02*
X120754819Y-88261905D01*
X120754819Y-88261905D02*
X120707200Y-88214286D01*
X120707200Y-88214286D02*
X120659580Y-88261905D01*
X120659580Y-88261905D02*
X120754819Y-88261905D01*
X119754819Y-88642857D02*
X119754819Y-89309523D01*
X119754819Y-89309523D02*
X120754819Y-88880952D01*
X120088152Y-90119047D02*
X120754819Y-90119047D01*
X120088152Y-89690476D02*
X120611961Y-89690476D01*
X120611961Y-89690476D02*
X120707200Y-89738095D01*
X120707200Y-89738095D02*
X120754819Y-89833333D01*
X120754819Y-89833333D02*
X120754819Y-89976190D01*
X120754819Y-89976190D02*
X120707200Y-90071428D01*
X120707200Y-90071428D02*
X120659580Y-90119047D01*
X120088152Y-90452381D02*
X120088152Y-90833333D01*
X120754819Y-90595238D02*
X119897676Y-90595238D01*
X119897676Y-90595238D02*
X119802438Y-90642857D01*
X119802438Y-90642857D02*
X119754819Y-90738095D01*
X119754819Y-90738095D02*
X119754819Y-90833333D01*
X49088373Y-89082287D02*
X49135992Y-89129907D01*
X49135992Y-89129907D02*
X49278849Y-89177526D01*
X49278849Y-89177526D02*
X49374087Y-89177526D01*
X49374087Y-89177526D02*
X49516944Y-89129907D01*
X49516944Y-89129907D02*
X49612182Y-89034668D01*
X49612182Y-89034668D02*
X49659801Y-88939430D01*
X49659801Y-88939430D02*
X49707420Y-88748954D01*
X49707420Y-88748954D02*
X49707420Y-88606097D01*
X49707420Y-88606097D02*
X49659801Y-88415621D01*
X49659801Y-88415621D02*
X49612182Y-88320383D01*
X49612182Y-88320383D02*
X49516944Y-88225145D01*
X49516944Y-88225145D02*
X49374087Y-88177526D01*
X49374087Y-88177526D02*
X49278849Y-88177526D01*
X49278849Y-88177526D02*
X49135992Y-88225145D01*
X49135992Y-88225145D02*
X49088373Y-88272764D01*
X48183611Y-88177526D02*
X48659801Y-88177526D01*
X48659801Y-88177526D02*
X48707420Y-88653716D01*
X48707420Y-88653716D02*
X48659801Y-88606097D01*
X48659801Y-88606097D02*
X48564563Y-88558478D01*
X48564563Y-88558478D02*
X48326468Y-88558478D01*
X48326468Y-88558478D02*
X48231230Y-88606097D01*
X48231230Y-88606097D02*
X48183611Y-88653716D01*
X48183611Y-88653716D02*
X48135992Y-88748954D01*
X48135992Y-88748954D02*
X48135992Y-88987049D01*
X48135992Y-88987049D02*
X48183611Y-89082287D01*
X48183611Y-89082287D02*
X48231230Y-89129907D01*
X48231230Y-89129907D02*
X48326468Y-89177526D01*
X48326468Y-89177526D02*
X48564563Y-89177526D01*
X48564563Y-89177526D02*
X48659801Y-89129907D01*
X48659801Y-89129907D02*
X48707420Y-89082287D01*
X107159580Y-94307142D02*
X107207200Y-94259523D01*
X107207200Y-94259523D02*
X107254819Y-94116666D01*
X107254819Y-94116666D02*
X107254819Y-94021428D01*
X107254819Y-94021428D02*
X107207200Y-93878571D01*
X107207200Y-93878571D02*
X107111961Y-93783333D01*
X107111961Y-93783333D02*
X107016723Y-93735714D01*
X107016723Y-93735714D02*
X106826247Y-93688095D01*
X106826247Y-93688095D02*
X106683390Y-93688095D01*
X106683390Y-93688095D02*
X106492914Y-93735714D01*
X106492914Y-93735714D02*
X106397676Y-93783333D01*
X106397676Y-93783333D02*
X106302438Y-93878571D01*
X106302438Y-93878571D02*
X106254819Y-94021428D01*
X106254819Y-94021428D02*
X106254819Y-94116666D01*
X106254819Y-94116666D02*
X106302438Y-94259523D01*
X106302438Y-94259523D02*
X106350057Y-94307142D01*
X106254819Y-95211904D02*
X106254819Y-94735714D01*
X106254819Y-94735714D02*
X106731009Y-94688095D01*
X106731009Y-94688095D02*
X106683390Y-94735714D01*
X106683390Y-94735714D02*
X106635771Y-94830952D01*
X106635771Y-94830952D02*
X106635771Y-95069047D01*
X106635771Y-95069047D02*
X106683390Y-95164285D01*
X106683390Y-95164285D02*
X106731009Y-95211904D01*
X106731009Y-95211904D02*
X106826247Y-95259523D01*
X106826247Y-95259523D02*
X107064342Y-95259523D01*
X107064342Y-95259523D02*
X107159580Y-95211904D01*
X107159580Y-95211904D02*
X107207200Y-95164285D01*
X107207200Y-95164285D02*
X107254819Y-95069047D01*
X107254819Y-95069047D02*
X107254819Y-94830952D01*
X107254819Y-94830952D02*
X107207200Y-94735714D01*
X107207200Y-94735714D02*
X107159580Y-94688095D01*
X106350057Y-95640476D02*
X106302438Y-95688095D01*
X106302438Y-95688095D02*
X106254819Y-95783333D01*
X106254819Y-95783333D02*
X106254819Y-96021428D01*
X106254819Y-96021428D02*
X106302438Y-96116666D01*
X106302438Y-96116666D02*
X106350057Y-96164285D01*
X106350057Y-96164285D02*
X106445295Y-96211904D01*
X106445295Y-96211904D02*
X106540533Y-96211904D01*
X106540533Y-96211904D02*
X106683390Y-96164285D01*
X106683390Y-96164285D02*
X107254819Y-95592857D01*
X107254819Y-95592857D02*
X107254819Y-96211904D01*
X68975582Y-79573142D02*
X69023202Y-79525523D01*
X69023202Y-79525523D02*
X69070821Y-79382666D01*
X69070821Y-79382666D02*
X69070821Y-79287428D01*
X69070821Y-79287428D02*
X69023202Y-79144571D01*
X69023202Y-79144571D02*
X68927963Y-79049333D01*
X68927963Y-79049333D02*
X68832725Y-79001714D01*
X68832725Y-79001714D02*
X68642249Y-78954095D01*
X68642249Y-78954095D02*
X68499392Y-78954095D01*
X68499392Y-78954095D02*
X68308916Y-79001714D01*
X68308916Y-79001714D02*
X68213678Y-79049333D01*
X68213678Y-79049333D02*
X68118440Y-79144571D01*
X68118440Y-79144571D02*
X68070821Y-79287428D01*
X68070821Y-79287428D02*
X68070821Y-79382666D01*
X68070821Y-79382666D02*
X68118440Y-79525523D01*
X68118440Y-79525523D02*
X68166059Y-79573142D01*
X68070821Y-79906476D02*
X68070821Y-80525523D01*
X68070821Y-80525523D02*
X68451773Y-80192190D01*
X68451773Y-80192190D02*
X68451773Y-80335047D01*
X68451773Y-80335047D02*
X68499392Y-80430285D01*
X68499392Y-80430285D02*
X68547011Y-80477904D01*
X68547011Y-80477904D02*
X68642249Y-80525523D01*
X68642249Y-80525523D02*
X68880344Y-80525523D01*
X68880344Y-80525523D02*
X68975582Y-80477904D01*
X68975582Y-80477904D02*
X69023202Y-80430285D01*
X69023202Y-80430285D02*
X69070821Y-80335047D01*
X69070821Y-80335047D02*
X69070821Y-80049333D01*
X69070821Y-80049333D02*
X69023202Y-79954095D01*
X69023202Y-79954095D02*
X68975582Y-79906476D01*
X68166059Y-80906476D02*
X68118440Y-80954095D01*
X68118440Y-80954095D02*
X68070821Y-81049333D01*
X68070821Y-81049333D02*
X68070821Y-81287428D01*
X68070821Y-81287428D02*
X68118440Y-81382666D01*
X68118440Y-81382666D02*
X68166059Y-81430285D01*
X68166059Y-81430285D02*
X68261297Y-81477904D01*
X68261297Y-81477904D02*
X68356535Y-81477904D01*
X68356535Y-81477904D02*
X68499392Y-81430285D01*
X68499392Y-81430285D02*
X69070821Y-80858857D01*
X69070821Y-80858857D02*
X69070821Y-81477904D01*
X116550057Y-86438095D02*
X116502438Y-86485714D01*
X116502438Y-86485714D02*
X116454819Y-86580952D01*
X116454819Y-86580952D02*
X116454819Y-86819047D01*
X116454819Y-86819047D02*
X116502438Y-86914285D01*
X116502438Y-86914285D02*
X116550057Y-86961904D01*
X116550057Y-86961904D02*
X116645295Y-87009523D01*
X116645295Y-87009523D02*
X116740533Y-87009523D01*
X116740533Y-87009523D02*
X116883390Y-86961904D01*
X116883390Y-86961904D02*
X117454819Y-86390476D01*
X117454819Y-86390476D02*
X117454819Y-87009523D01*
X116454819Y-87342857D02*
X116454819Y-88009523D01*
X116454819Y-88009523D02*
X117454819Y-87580952D01*
X117454819Y-88961904D02*
X116978628Y-88628571D01*
X117454819Y-88390476D02*
X116454819Y-88390476D01*
X116454819Y-88390476D02*
X116454819Y-88771428D01*
X116454819Y-88771428D02*
X116502438Y-88866666D01*
X116502438Y-88866666D02*
X116550057Y-88914285D01*
X116550057Y-88914285D02*
X116645295Y-88961904D01*
X116645295Y-88961904D02*
X116788152Y-88961904D01*
X116788152Y-88961904D02*
X116883390Y-88914285D01*
X116883390Y-88914285D02*
X116931009Y-88866666D01*
X116931009Y-88866666D02*
X116978628Y-88771428D01*
X116978628Y-88771428D02*
X116978628Y-88390476D01*
X113979580Y-88382142D02*
X114027200Y-88334523D01*
X114027200Y-88334523D02*
X114074819Y-88191666D01*
X114074819Y-88191666D02*
X114074819Y-88096428D01*
X114074819Y-88096428D02*
X114027200Y-87953571D01*
X114027200Y-87953571D02*
X113931961Y-87858333D01*
X113931961Y-87858333D02*
X113836723Y-87810714D01*
X113836723Y-87810714D02*
X113646247Y-87763095D01*
X113646247Y-87763095D02*
X113503390Y-87763095D01*
X113503390Y-87763095D02*
X113312914Y-87810714D01*
X113312914Y-87810714D02*
X113217676Y-87858333D01*
X113217676Y-87858333D02*
X113122438Y-87953571D01*
X113122438Y-87953571D02*
X113074819Y-88096428D01*
X113074819Y-88096428D02*
X113074819Y-88191666D01*
X113074819Y-88191666D02*
X113122438Y-88334523D01*
X113122438Y-88334523D02*
X113170057Y-88382142D01*
X113074819Y-89286904D02*
X113074819Y-88810714D01*
X113074819Y-88810714D02*
X113551009Y-88763095D01*
X113551009Y-88763095D02*
X113503390Y-88810714D01*
X113503390Y-88810714D02*
X113455771Y-88905952D01*
X113455771Y-88905952D02*
X113455771Y-89144047D01*
X113455771Y-89144047D02*
X113503390Y-89239285D01*
X113503390Y-89239285D02*
X113551009Y-89286904D01*
X113551009Y-89286904D02*
X113646247Y-89334523D01*
X113646247Y-89334523D02*
X113884342Y-89334523D01*
X113884342Y-89334523D02*
X113979580Y-89286904D01*
X113979580Y-89286904D02*
X114027200Y-89239285D01*
X114027200Y-89239285D02*
X114074819Y-89144047D01*
X114074819Y-89144047D02*
X114074819Y-88905952D01*
X114074819Y-88905952D02*
X114027200Y-88810714D01*
X114027200Y-88810714D02*
X113979580Y-88763095D01*
X113074819Y-89667857D02*
X113074819Y-90286904D01*
X113074819Y-90286904D02*
X113455771Y-89953571D01*
X113455771Y-89953571D02*
X113455771Y-90096428D01*
X113455771Y-90096428D02*
X113503390Y-90191666D01*
X113503390Y-90191666D02*
X113551009Y-90239285D01*
X113551009Y-90239285D02*
X113646247Y-90286904D01*
X113646247Y-90286904D02*
X113884342Y-90286904D01*
X113884342Y-90286904D02*
X113979580Y-90239285D01*
X113979580Y-90239285D02*
X114027200Y-90191666D01*
X114027200Y-90191666D02*
X114074819Y-90096428D01*
X114074819Y-90096428D02*
X114074819Y-89810714D01*
X114074819Y-89810714D02*
X114027200Y-89715476D01*
X114027200Y-89715476D02*
X113979580Y-89667857D01*
X56192857Y-100059580D02*
X56240476Y-100107200D01*
X56240476Y-100107200D02*
X56383333Y-100154819D01*
X56383333Y-100154819D02*
X56478571Y-100154819D01*
X56478571Y-100154819D02*
X56621428Y-100107200D01*
X56621428Y-100107200D02*
X56716666Y-100011961D01*
X56716666Y-100011961D02*
X56764285Y-99916723D01*
X56764285Y-99916723D02*
X56811904Y-99726247D01*
X56811904Y-99726247D02*
X56811904Y-99583390D01*
X56811904Y-99583390D02*
X56764285Y-99392914D01*
X56764285Y-99392914D02*
X56716666Y-99297676D01*
X56716666Y-99297676D02*
X56621428Y-99202438D01*
X56621428Y-99202438D02*
X56478571Y-99154819D01*
X56478571Y-99154819D02*
X56383333Y-99154819D01*
X56383333Y-99154819D02*
X56240476Y-99202438D01*
X56240476Y-99202438D02*
X56192857Y-99250057D01*
X55240476Y-100154819D02*
X55811904Y-100154819D01*
X55526190Y-100154819D02*
X55526190Y-99154819D01*
X55526190Y-99154819D02*
X55621428Y-99297676D01*
X55621428Y-99297676D02*
X55716666Y-99392914D01*
X55716666Y-99392914D02*
X55811904Y-99440533D01*
X54288095Y-100154819D02*
X54859523Y-100154819D01*
X54573809Y-100154819D02*
X54573809Y-99154819D01*
X54573809Y-99154819D02*
X54669047Y-99297676D01*
X54669047Y-99297676D02*
X54764285Y-99392914D01*
X54764285Y-99392914D02*
X54859523Y-99440533D01*
X69055373Y-86258287D02*
X69102992Y-86305907D01*
X69102992Y-86305907D02*
X69245849Y-86353526D01*
X69245849Y-86353526D02*
X69341087Y-86353526D01*
X69341087Y-86353526D02*
X69483944Y-86305907D01*
X69483944Y-86305907D02*
X69579182Y-86210668D01*
X69579182Y-86210668D02*
X69626801Y-86115430D01*
X69626801Y-86115430D02*
X69674420Y-85924954D01*
X69674420Y-85924954D02*
X69674420Y-85782097D01*
X69674420Y-85782097D02*
X69626801Y-85591621D01*
X69626801Y-85591621D02*
X69579182Y-85496383D01*
X69579182Y-85496383D02*
X69483944Y-85401145D01*
X69483944Y-85401145D02*
X69341087Y-85353526D01*
X69341087Y-85353526D02*
X69245849Y-85353526D01*
X69245849Y-85353526D02*
X69102992Y-85401145D01*
X69102992Y-85401145D02*
X69055373Y-85448764D01*
X68722039Y-85353526D02*
X68055373Y-85353526D01*
X68055373Y-85353526D02*
X68483944Y-86353526D01*
X56791857Y-76794287D02*
X56839476Y-76841907D01*
X56839476Y-76841907D02*
X56982333Y-76889526D01*
X56982333Y-76889526D02*
X57077571Y-76889526D01*
X57077571Y-76889526D02*
X57220428Y-76841907D01*
X57220428Y-76841907D02*
X57315666Y-76746668D01*
X57315666Y-76746668D02*
X57363285Y-76651430D01*
X57363285Y-76651430D02*
X57410904Y-76460954D01*
X57410904Y-76460954D02*
X57410904Y-76318097D01*
X57410904Y-76318097D02*
X57363285Y-76127621D01*
X57363285Y-76127621D02*
X57315666Y-76032383D01*
X57315666Y-76032383D02*
X57220428Y-75937145D01*
X57220428Y-75937145D02*
X57077571Y-75889526D01*
X57077571Y-75889526D02*
X56982333Y-75889526D01*
X56982333Y-75889526D02*
X56839476Y-75937145D01*
X56839476Y-75937145D02*
X56791857Y-75984764D01*
X56410904Y-75984764D02*
X56363285Y-75937145D01*
X56363285Y-75937145D02*
X56268047Y-75889526D01*
X56268047Y-75889526D02*
X56029952Y-75889526D01*
X56029952Y-75889526D02*
X55934714Y-75937145D01*
X55934714Y-75937145D02*
X55887095Y-75984764D01*
X55887095Y-75984764D02*
X55839476Y-76080002D01*
X55839476Y-76080002D02*
X55839476Y-76175240D01*
X55839476Y-76175240D02*
X55887095Y-76318097D01*
X55887095Y-76318097D02*
X56458523Y-76889526D01*
X56458523Y-76889526D02*
X55839476Y-76889526D01*
X55506142Y-75889526D02*
X54887095Y-75889526D01*
X54887095Y-75889526D02*
X55220428Y-76270478D01*
X55220428Y-76270478D02*
X55077571Y-76270478D01*
X55077571Y-76270478D02*
X54982333Y-76318097D01*
X54982333Y-76318097D02*
X54934714Y-76365716D01*
X54934714Y-76365716D02*
X54887095Y-76460954D01*
X54887095Y-76460954D02*
X54887095Y-76699049D01*
X54887095Y-76699049D02*
X54934714Y-76794287D01*
X54934714Y-76794287D02*
X54982333Y-76841907D01*
X54982333Y-76841907D02*
X55077571Y-76889526D01*
X55077571Y-76889526D02*
X55363285Y-76889526D01*
X55363285Y-76889526D02*
X55458523Y-76841907D01*
X55458523Y-76841907D02*
X55506142Y-76794287D01*
X61216666Y-97354819D02*
X61549999Y-96878628D01*
X61788094Y-97354819D02*
X61788094Y-96354819D01*
X61788094Y-96354819D02*
X61407142Y-96354819D01*
X61407142Y-96354819D02*
X61311904Y-96402438D01*
X61311904Y-96402438D02*
X61264285Y-96450057D01*
X61264285Y-96450057D02*
X61216666Y-96545295D01*
X61216666Y-96545295D02*
X61216666Y-96688152D01*
X61216666Y-96688152D02*
X61264285Y-96783390D01*
X61264285Y-96783390D02*
X61311904Y-96831009D01*
X61311904Y-96831009D02*
X61407142Y-96878628D01*
X61407142Y-96878628D02*
X61788094Y-96878628D01*
X60883332Y-96354819D02*
X60216666Y-96354819D01*
X60216666Y-96354819D02*
X60645237Y-97354819D01*
X59566666Y-95754819D02*
X60138094Y-95754819D01*
X59852380Y-95754819D02*
X59852380Y-94754819D01*
X59852380Y-94754819D02*
X59947618Y-94897676D01*
X59947618Y-94897676D02*
X60042856Y-94992914D01*
X60042856Y-94992914D02*
X60138094Y-95040533D01*
X58947618Y-94754819D02*
X58852380Y-94754819D01*
X58852380Y-94754819D02*
X58757142Y-94802438D01*
X58757142Y-94802438D02*
X58709523Y-94850057D01*
X58709523Y-94850057D02*
X58661904Y-94945295D01*
X58661904Y-94945295D02*
X58614285Y-95135771D01*
X58614285Y-95135771D02*
X58614285Y-95373866D01*
X58614285Y-95373866D02*
X58661904Y-95564342D01*
X58661904Y-95564342D02*
X58709523Y-95659580D01*
X58709523Y-95659580D02*
X58757142Y-95707200D01*
X58757142Y-95707200D02*
X58852380Y-95754819D01*
X58852380Y-95754819D02*
X58947618Y-95754819D01*
X58947618Y-95754819D02*
X59042856Y-95707200D01*
X59042856Y-95707200D02*
X59090475Y-95659580D01*
X59090475Y-95659580D02*
X59138094Y-95564342D01*
X59138094Y-95564342D02*
X59185713Y-95373866D01*
X59185713Y-95373866D02*
X59185713Y-95135771D01*
X59185713Y-95135771D02*
X59138094Y-94945295D01*
X59138094Y-94945295D02*
X59090475Y-94850057D01*
X59090475Y-94850057D02*
X59042856Y-94802438D01*
X59042856Y-94802438D02*
X58947618Y-94754819D01*
X57995237Y-94754819D02*
X57899999Y-94754819D01*
X57899999Y-94754819D02*
X57804761Y-94802438D01*
X57804761Y-94802438D02*
X57757142Y-94850057D01*
X57757142Y-94850057D02*
X57709523Y-94945295D01*
X57709523Y-94945295D02*
X57661904Y-95135771D01*
X57661904Y-95135771D02*
X57661904Y-95373866D01*
X57661904Y-95373866D02*
X57709523Y-95564342D01*
X57709523Y-95564342D02*
X57757142Y-95659580D01*
X57757142Y-95659580D02*
X57804761Y-95707200D01*
X57804761Y-95707200D02*
X57899999Y-95754819D01*
X57899999Y-95754819D02*
X57995237Y-95754819D01*
X57995237Y-95754819D02*
X58090475Y-95707200D01*
X58090475Y-95707200D02*
X58138094Y-95659580D01*
X58138094Y-95659580D02*
X58185713Y-95564342D01*
X58185713Y-95564342D02*
X58233332Y-95373866D01*
X58233332Y-95373866D02*
X58233332Y-95135771D01*
X58233332Y-95135771D02*
X58185713Y-94945295D01*
X58185713Y-94945295D02*
X58138094Y-94850057D01*
X58138094Y-94850057D02*
X58090475Y-94802438D01*
X58090475Y-94802438D02*
X57995237Y-94754819D01*
X56661904Y-95754819D02*
X56995237Y-95278628D01*
X57233332Y-95754819D02*
X57233332Y-94754819D01*
X57233332Y-94754819D02*
X56852380Y-94754819D01*
X56852380Y-94754819D02*
X56757142Y-94802438D01*
X56757142Y-94802438D02*
X56709523Y-94850057D01*
X56709523Y-94850057D02*
X56661904Y-94945295D01*
X56661904Y-94945295D02*
X56661904Y-95088152D01*
X56661904Y-95088152D02*
X56709523Y-95183390D01*
X56709523Y-95183390D02*
X56757142Y-95231009D01*
X56757142Y-95231009D02*
X56852380Y-95278628D01*
X56852380Y-95278628D02*
X57233332Y-95278628D01*
X106559580Y-86757142D02*
X106607200Y-86709523D01*
X106607200Y-86709523D02*
X106654819Y-86566666D01*
X106654819Y-86566666D02*
X106654819Y-86471428D01*
X106654819Y-86471428D02*
X106607200Y-86328571D01*
X106607200Y-86328571D02*
X106511961Y-86233333D01*
X106511961Y-86233333D02*
X106416723Y-86185714D01*
X106416723Y-86185714D02*
X106226247Y-86138095D01*
X106226247Y-86138095D02*
X106083390Y-86138095D01*
X106083390Y-86138095D02*
X105892914Y-86185714D01*
X105892914Y-86185714D02*
X105797676Y-86233333D01*
X105797676Y-86233333D02*
X105702438Y-86328571D01*
X105702438Y-86328571D02*
X105654819Y-86471428D01*
X105654819Y-86471428D02*
X105654819Y-86566666D01*
X105654819Y-86566666D02*
X105702438Y-86709523D01*
X105702438Y-86709523D02*
X105750057Y-86757142D01*
X105654819Y-87614285D02*
X105654819Y-87423809D01*
X105654819Y-87423809D02*
X105702438Y-87328571D01*
X105702438Y-87328571D02*
X105750057Y-87280952D01*
X105750057Y-87280952D02*
X105892914Y-87185714D01*
X105892914Y-87185714D02*
X106083390Y-87138095D01*
X106083390Y-87138095D02*
X106464342Y-87138095D01*
X106464342Y-87138095D02*
X106559580Y-87185714D01*
X106559580Y-87185714D02*
X106607200Y-87233333D01*
X106607200Y-87233333D02*
X106654819Y-87328571D01*
X106654819Y-87328571D02*
X106654819Y-87519047D01*
X106654819Y-87519047D02*
X106607200Y-87614285D01*
X106607200Y-87614285D02*
X106559580Y-87661904D01*
X106559580Y-87661904D02*
X106464342Y-87709523D01*
X106464342Y-87709523D02*
X106226247Y-87709523D01*
X106226247Y-87709523D02*
X106131009Y-87661904D01*
X106131009Y-87661904D02*
X106083390Y-87614285D01*
X106083390Y-87614285D02*
X106035771Y-87519047D01*
X106035771Y-87519047D02*
X106035771Y-87328571D01*
X106035771Y-87328571D02*
X106083390Y-87233333D01*
X106083390Y-87233333D02*
X106131009Y-87185714D01*
X106131009Y-87185714D02*
X106226247Y-87138095D01*
X105654819Y-88566666D02*
X105654819Y-88376190D01*
X105654819Y-88376190D02*
X105702438Y-88280952D01*
X105702438Y-88280952D02*
X105750057Y-88233333D01*
X105750057Y-88233333D02*
X105892914Y-88138095D01*
X105892914Y-88138095D02*
X106083390Y-88090476D01*
X106083390Y-88090476D02*
X106464342Y-88090476D01*
X106464342Y-88090476D02*
X106559580Y-88138095D01*
X106559580Y-88138095D02*
X106607200Y-88185714D01*
X106607200Y-88185714D02*
X106654819Y-88280952D01*
X106654819Y-88280952D02*
X106654819Y-88471428D01*
X106654819Y-88471428D02*
X106607200Y-88566666D01*
X106607200Y-88566666D02*
X106559580Y-88614285D01*
X106559580Y-88614285D02*
X106464342Y-88661904D01*
X106464342Y-88661904D02*
X106226247Y-88661904D01*
X106226247Y-88661904D02*
X106131009Y-88614285D01*
X106131009Y-88614285D02*
X106083390Y-88566666D01*
X106083390Y-88566666D02*
X106035771Y-88471428D01*
X106035771Y-88471428D02*
X106035771Y-88280952D01*
X106035771Y-88280952D02*
X106083390Y-88185714D01*
X106083390Y-88185714D02*
X106131009Y-88138095D01*
X106131009Y-88138095D02*
X106226247Y-88090476D01*
X53091287Y-78097142D02*
X53138907Y-78049523D01*
X53138907Y-78049523D02*
X53186526Y-77906666D01*
X53186526Y-77906666D02*
X53186526Y-77811428D01*
X53186526Y-77811428D02*
X53138907Y-77668571D01*
X53138907Y-77668571D02*
X53043668Y-77573333D01*
X53043668Y-77573333D02*
X52948430Y-77525714D01*
X52948430Y-77525714D02*
X52757954Y-77478095D01*
X52757954Y-77478095D02*
X52615097Y-77478095D01*
X52615097Y-77478095D02*
X52424621Y-77525714D01*
X52424621Y-77525714D02*
X52329383Y-77573333D01*
X52329383Y-77573333D02*
X52234145Y-77668571D01*
X52234145Y-77668571D02*
X52186526Y-77811428D01*
X52186526Y-77811428D02*
X52186526Y-77906666D01*
X52186526Y-77906666D02*
X52234145Y-78049523D01*
X52234145Y-78049523D02*
X52281764Y-78097142D01*
X52281764Y-78478095D02*
X52234145Y-78525714D01*
X52234145Y-78525714D02*
X52186526Y-78620952D01*
X52186526Y-78620952D02*
X52186526Y-78859047D01*
X52186526Y-78859047D02*
X52234145Y-78954285D01*
X52234145Y-78954285D02*
X52281764Y-79001904D01*
X52281764Y-79001904D02*
X52377002Y-79049523D01*
X52377002Y-79049523D02*
X52472240Y-79049523D01*
X52472240Y-79049523D02*
X52615097Y-79001904D01*
X52615097Y-79001904D02*
X53186526Y-78430476D01*
X53186526Y-78430476D02*
X53186526Y-79049523D01*
X53186526Y-79525714D02*
X53186526Y-79716190D01*
X53186526Y-79716190D02*
X53138907Y-79811428D01*
X53138907Y-79811428D02*
X53091287Y-79859047D01*
X53091287Y-79859047D02*
X52948430Y-79954285D01*
X52948430Y-79954285D02*
X52757954Y-80001904D01*
X52757954Y-80001904D02*
X52377002Y-80001904D01*
X52377002Y-80001904D02*
X52281764Y-79954285D01*
X52281764Y-79954285D02*
X52234145Y-79906666D01*
X52234145Y-79906666D02*
X52186526Y-79811428D01*
X52186526Y-79811428D02*
X52186526Y-79620952D01*
X52186526Y-79620952D02*
X52234145Y-79525714D01*
X52234145Y-79525714D02*
X52281764Y-79478095D01*
X52281764Y-79478095D02*
X52377002Y-79430476D01*
X52377002Y-79430476D02*
X52615097Y-79430476D01*
X52615097Y-79430476D02*
X52710335Y-79478095D01*
X52710335Y-79478095D02*
X52757954Y-79525714D01*
X52757954Y-79525714D02*
X52805573Y-79620952D01*
X52805573Y-79620952D02*
X52805573Y-79811428D01*
X52805573Y-79811428D02*
X52757954Y-79906666D01*
X52757954Y-79906666D02*
X52710335Y-79954285D01*
X52710335Y-79954285D02*
X52615097Y-80001904D01*
X74200594Y-73760526D02*
X74200594Y-72760526D01*
X74200594Y-72760526D02*
X73962499Y-72760526D01*
X73962499Y-72760526D02*
X73819642Y-72808145D01*
X73819642Y-72808145D02*
X73724404Y-72903383D01*
X73724404Y-72903383D02*
X73676785Y-72998621D01*
X73676785Y-72998621D02*
X73629166Y-73189097D01*
X73629166Y-73189097D02*
X73629166Y-73331954D01*
X73629166Y-73331954D02*
X73676785Y-73522430D01*
X73676785Y-73522430D02*
X73724404Y-73617668D01*
X73724404Y-73617668D02*
X73819642Y-73712907D01*
X73819642Y-73712907D02*
X73962499Y-73760526D01*
X73962499Y-73760526D02*
X74200594Y-73760526D01*
X73248213Y-72855764D02*
X73200594Y-72808145D01*
X73200594Y-72808145D02*
X73105356Y-72760526D01*
X73105356Y-72760526D02*
X72867261Y-72760526D01*
X72867261Y-72760526D02*
X72772023Y-72808145D01*
X72772023Y-72808145D02*
X72724404Y-72855764D01*
X72724404Y-72855764D02*
X72676785Y-72951002D01*
X72676785Y-72951002D02*
X72676785Y-73046240D01*
X72676785Y-73046240D02*
X72724404Y-73189097D01*
X72724404Y-73189097D02*
X73295832Y-73760526D01*
X73295832Y-73760526D02*
X72676785Y-73760526D01*
X117192857Y-83659580D02*
X117240476Y-83707200D01*
X117240476Y-83707200D02*
X117383333Y-83754819D01*
X117383333Y-83754819D02*
X117478571Y-83754819D01*
X117478571Y-83754819D02*
X117621428Y-83707200D01*
X117621428Y-83707200D02*
X117716666Y-83611961D01*
X117716666Y-83611961D02*
X117764285Y-83516723D01*
X117764285Y-83516723D02*
X117811904Y-83326247D01*
X117811904Y-83326247D02*
X117811904Y-83183390D01*
X117811904Y-83183390D02*
X117764285Y-82992914D01*
X117764285Y-82992914D02*
X117716666Y-82897676D01*
X117716666Y-82897676D02*
X117621428Y-82802438D01*
X117621428Y-82802438D02*
X117478571Y-82754819D01*
X117478571Y-82754819D02*
X117383333Y-82754819D01*
X117383333Y-82754819D02*
X117240476Y-82802438D01*
X117240476Y-82802438D02*
X117192857Y-82850057D01*
X116288095Y-82754819D02*
X116764285Y-82754819D01*
X116764285Y-82754819D02*
X116811904Y-83231009D01*
X116811904Y-83231009D02*
X116764285Y-83183390D01*
X116764285Y-83183390D02*
X116669047Y-83135771D01*
X116669047Y-83135771D02*
X116430952Y-83135771D01*
X116430952Y-83135771D02*
X116335714Y-83183390D01*
X116335714Y-83183390D02*
X116288095Y-83231009D01*
X116288095Y-83231009D02*
X116240476Y-83326247D01*
X116240476Y-83326247D02*
X116240476Y-83564342D01*
X116240476Y-83564342D02*
X116288095Y-83659580D01*
X116288095Y-83659580D02*
X116335714Y-83707200D01*
X116335714Y-83707200D02*
X116430952Y-83754819D01*
X116430952Y-83754819D02*
X116669047Y-83754819D01*
X116669047Y-83754819D02*
X116764285Y-83707200D01*
X116764285Y-83707200D02*
X116811904Y-83659580D01*
X115335714Y-82754819D02*
X115811904Y-82754819D01*
X115811904Y-82754819D02*
X115859523Y-83231009D01*
X115859523Y-83231009D02*
X115811904Y-83183390D01*
X115811904Y-83183390D02*
X115716666Y-83135771D01*
X115716666Y-83135771D02*
X115478571Y-83135771D01*
X115478571Y-83135771D02*
X115383333Y-83183390D01*
X115383333Y-83183390D02*
X115335714Y-83231009D01*
X115335714Y-83231009D02*
X115288095Y-83326247D01*
X115288095Y-83326247D02*
X115288095Y-83564342D01*
X115288095Y-83564342D02*
X115335714Y-83659580D01*
X115335714Y-83659580D02*
X115383333Y-83707200D01*
X115383333Y-83707200D02*
X115478571Y-83754819D01*
X115478571Y-83754819D02*
X115716666Y-83754819D01*
X115716666Y-83754819D02*
X115811904Y-83707200D01*
X115811904Y-83707200D02*
X115859523Y-83659580D01*
X63342857Y-76759580D02*
X63390476Y-76807200D01*
X63390476Y-76807200D02*
X63533333Y-76854819D01*
X63533333Y-76854819D02*
X63628571Y-76854819D01*
X63628571Y-76854819D02*
X63771428Y-76807200D01*
X63771428Y-76807200D02*
X63866666Y-76711961D01*
X63866666Y-76711961D02*
X63914285Y-76616723D01*
X63914285Y-76616723D02*
X63961904Y-76426247D01*
X63961904Y-76426247D02*
X63961904Y-76283390D01*
X63961904Y-76283390D02*
X63914285Y-76092914D01*
X63914285Y-76092914D02*
X63866666Y-75997676D01*
X63866666Y-75997676D02*
X63771428Y-75902438D01*
X63771428Y-75902438D02*
X63628571Y-75854819D01*
X63628571Y-75854819D02*
X63533333Y-75854819D01*
X63533333Y-75854819D02*
X63390476Y-75902438D01*
X63390476Y-75902438D02*
X63342857Y-75950057D01*
X62961904Y-75950057D02*
X62914285Y-75902438D01*
X62914285Y-75902438D02*
X62819047Y-75854819D01*
X62819047Y-75854819D02*
X62580952Y-75854819D01*
X62580952Y-75854819D02*
X62485714Y-75902438D01*
X62485714Y-75902438D02*
X62438095Y-75950057D01*
X62438095Y-75950057D02*
X62390476Y-76045295D01*
X62390476Y-76045295D02*
X62390476Y-76140533D01*
X62390476Y-76140533D02*
X62438095Y-76283390D01*
X62438095Y-76283390D02*
X63009523Y-76854819D01*
X63009523Y-76854819D02*
X62390476Y-76854819D01*
X62009523Y-75950057D02*
X61961904Y-75902438D01*
X61961904Y-75902438D02*
X61866666Y-75854819D01*
X61866666Y-75854819D02*
X61628571Y-75854819D01*
X61628571Y-75854819D02*
X61533333Y-75902438D01*
X61533333Y-75902438D02*
X61485714Y-75950057D01*
X61485714Y-75950057D02*
X61438095Y-76045295D01*
X61438095Y-76045295D02*
X61438095Y-76140533D01*
X61438095Y-76140533D02*
X61485714Y-76283390D01*
X61485714Y-76283390D02*
X62057142Y-76854819D01*
X62057142Y-76854819D02*
X61438095Y-76854819D01*
X56956564Y-71938580D02*
X57004183Y-71986200D01*
X57004183Y-71986200D02*
X57147040Y-72033819D01*
X57147040Y-72033819D02*
X57242278Y-72033819D01*
X57242278Y-72033819D02*
X57385135Y-71986200D01*
X57385135Y-71986200D02*
X57480373Y-71890961D01*
X57480373Y-71890961D02*
X57527992Y-71795723D01*
X57527992Y-71795723D02*
X57575611Y-71605247D01*
X57575611Y-71605247D02*
X57575611Y-71462390D01*
X57575611Y-71462390D02*
X57527992Y-71271914D01*
X57527992Y-71271914D02*
X57480373Y-71176676D01*
X57480373Y-71176676D02*
X57385135Y-71081438D01*
X57385135Y-71081438D02*
X57242278Y-71033819D01*
X57242278Y-71033819D02*
X57147040Y-71033819D01*
X57147040Y-71033819D02*
X57004183Y-71081438D01*
X57004183Y-71081438D02*
X56956564Y-71129057D01*
X56004183Y-72033819D02*
X56575611Y-72033819D01*
X56289897Y-72033819D02*
X56289897Y-71033819D01*
X56289897Y-71033819D02*
X56385135Y-71176676D01*
X56385135Y-71176676D02*
X56480373Y-71271914D01*
X56480373Y-71271914D02*
X56575611Y-71319533D01*
X55147040Y-71367152D02*
X55147040Y-72033819D01*
X55385135Y-70986200D02*
X55623230Y-71700485D01*
X55623230Y-71700485D02*
X55004183Y-71700485D01*
X56242857Y-92559580D02*
X56290476Y-92607200D01*
X56290476Y-92607200D02*
X56433333Y-92654819D01*
X56433333Y-92654819D02*
X56528571Y-92654819D01*
X56528571Y-92654819D02*
X56671428Y-92607200D01*
X56671428Y-92607200D02*
X56766666Y-92511961D01*
X56766666Y-92511961D02*
X56814285Y-92416723D01*
X56814285Y-92416723D02*
X56861904Y-92226247D01*
X56861904Y-92226247D02*
X56861904Y-92083390D01*
X56861904Y-92083390D02*
X56814285Y-91892914D01*
X56814285Y-91892914D02*
X56766666Y-91797676D01*
X56766666Y-91797676D02*
X56671428Y-91702438D01*
X56671428Y-91702438D02*
X56528571Y-91654819D01*
X56528571Y-91654819D02*
X56433333Y-91654819D01*
X56433333Y-91654819D02*
X56290476Y-91702438D01*
X56290476Y-91702438D02*
X56242857Y-91750057D01*
X55909523Y-91654819D02*
X55290476Y-91654819D01*
X55290476Y-91654819D02*
X55623809Y-92035771D01*
X55623809Y-92035771D02*
X55480952Y-92035771D01*
X55480952Y-92035771D02*
X55385714Y-92083390D01*
X55385714Y-92083390D02*
X55338095Y-92131009D01*
X55338095Y-92131009D02*
X55290476Y-92226247D01*
X55290476Y-92226247D02*
X55290476Y-92464342D01*
X55290476Y-92464342D02*
X55338095Y-92559580D01*
X55338095Y-92559580D02*
X55385714Y-92607200D01*
X55385714Y-92607200D02*
X55480952Y-92654819D01*
X55480952Y-92654819D02*
X55766666Y-92654819D01*
X55766666Y-92654819D02*
X55861904Y-92607200D01*
X55861904Y-92607200D02*
X55909523Y-92559580D01*
X54433333Y-91988152D02*
X54433333Y-92654819D01*
X54671428Y-91607200D02*
X54909523Y-92321485D01*
X54909523Y-92321485D02*
X54290476Y-92321485D01*
X55429580Y-82511040D02*
X55477200Y-82463421D01*
X55477200Y-82463421D02*
X55524819Y-82320564D01*
X55524819Y-82320564D02*
X55524819Y-82225326D01*
X55524819Y-82225326D02*
X55477200Y-82082469D01*
X55477200Y-82082469D02*
X55381961Y-81987231D01*
X55381961Y-81987231D02*
X55286723Y-81939612D01*
X55286723Y-81939612D02*
X55096247Y-81891993D01*
X55096247Y-81891993D02*
X54953390Y-81891993D01*
X54953390Y-81891993D02*
X54762914Y-81939612D01*
X54762914Y-81939612D02*
X54667676Y-81987231D01*
X54667676Y-81987231D02*
X54572438Y-82082469D01*
X54572438Y-82082469D02*
X54524819Y-82225326D01*
X54524819Y-82225326D02*
X54524819Y-82320564D01*
X54524819Y-82320564D02*
X54572438Y-82463421D01*
X54572438Y-82463421D02*
X54620057Y-82511040D01*
X54858152Y-83368183D02*
X55524819Y-83368183D01*
X54477200Y-83130088D02*
X55191485Y-82891993D01*
X55191485Y-82891993D02*
X55191485Y-83511040D01*
X104804819Y-91407142D02*
X104328628Y-91073809D01*
X104804819Y-90835714D02*
X103804819Y-90835714D01*
X103804819Y-90835714D02*
X103804819Y-91216666D01*
X103804819Y-91216666D02*
X103852438Y-91311904D01*
X103852438Y-91311904D02*
X103900057Y-91359523D01*
X103900057Y-91359523D02*
X103995295Y-91407142D01*
X103995295Y-91407142D02*
X104138152Y-91407142D01*
X104138152Y-91407142D02*
X104233390Y-91359523D01*
X104233390Y-91359523D02*
X104281009Y-91311904D01*
X104281009Y-91311904D02*
X104328628Y-91216666D01*
X104328628Y-91216666D02*
X104328628Y-90835714D01*
X103804819Y-92264285D02*
X103804819Y-92073809D01*
X103804819Y-92073809D02*
X103852438Y-91978571D01*
X103852438Y-91978571D02*
X103900057Y-91930952D01*
X103900057Y-91930952D02*
X104042914Y-91835714D01*
X104042914Y-91835714D02*
X104233390Y-91788095D01*
X104233390Y-91788095D02*
X104614342Y-91788095D01*
X104614342Y-91788095D02*
X104709580Y-91835714D01*
X104709580Y-91835714D02*
X104757200Y-91883333D01*
X104757200Y-91883333D02*
X104804819Y-91978571D01*
X104804819Y-91978571D02*
X104804819Y-92169047D01*
X104804819Y-92169047D02*
X104757200Y-92264285D01*
X104757200Y-92264285D02*
X104709580Y-92311904D01*
X104709580Y-92311904D02*
X104614342Y-92359523D01*
X104614342Y-92359523D02*
X104376247Y-92359523D01*
X104376247Y-92359523D02*
X104281009Y-92311904D01*
X104281009Y-92311904D02*
X104233390Y-92264285D01*
X104233390Y-92264285D02*
X104185771Y-92169047D01*
X104185771Y-92169047D02*
X104185771Y-91978571D01*
X104185771Y-91978571D02*
X104233390Y-91883333D01*
X104233390Y-91883333D02*
X104281009Y-91835714D01*
X104281009Y-91835714D02*
X104376247Y-91788095D01*
X103900057Y-92740476D02*
X103852438Y-92788095D01*
X103852438Y-92788095D02*
X103804819Y-92883333D01*
X103804819Y-92883333D02*
X103804819Y-93121428D01*
X103804819Y-93121428D02*
X103852438Y-93216666D01*
X103852438Y-93216666D02*
X103900057Y-93264285D01*
X103900057Y-93264285D02*
X103995295Y-93311904D01*
X103995295Y-93311904D02*
X104090533Y-93311904D01*
X104090533Y-93311904D02*
X104233390Y-93264285D01*
X104233390Y-93264285D02*
X104804819Y-92692857D01*
X104804819Y-92692857D02*
X104804819Y-93311904D01*
X113742857Y-84559580D02*
X113790476Y-84607200D01*
X113790476Y-84607200D02*
X113933333Y-84654819D01*
X113933333Y-84654819D02*
X114028571Y-84654819D01*
X114028571Y-84654819D02*
X114171428Y-84607200D01*
X114171428Y-84607200D02*
X114266666Y-84511961D01*
X114266666Y-84511961D02*
X114314285Y-84416723D01*
X114314285Y-84416723D02*
X114361904Y-84226247D01*
X114361904Y-84226247D02*
X114361904Y-84083390D01*
X114361904Y-84083390D02*
X114314285Y-83892914D01*
X114314285Y-83892914D02*
X114266666Y-83797676D01*
X114266666Y-83797676D02*
X114171428Y-83702438D01*
X114171428Y-83702438D02*
X114028571Y-83654819D01*
X114028571Y-83654819D02*
X113933333Y-83654819D01*
X113933333Y-83654819D02*
X113790476Y-83702438D01*
X113790476Y-83702438D02*
X113742857Y-83750057D01*
X112838095Y-83654819D02*
X113314285Y-83654819D01*
X113314285Y-83654819D02*
X113361904Y-84131009D01*
X113361904Y-84131009D02*
X113314285Y-84083390D01*
X113314285Y-84083390D02*
X113219047Y-84035771D01*
X113219047Y-84035771D02*
X112980952Y-84035771D01*
X112980952Y-84035771D02*
X112885714Y-84083390D01*
X112885714Y-84083390D02*
X112838095Y-84131009D01*
X112838095Y-84131009D02*
X112790476Y-84226247D01*
X112790476Y-84226247D02*
X112790476Y-84464342D01*
X112790476Y-84464342D02*
X112838095Y-84559580D01*
X112838095Y-84559580D02*
X112885714Y-84607200D01*
X112885714Y-84607200D02*
X112980952Y-84654819D01*
X112980952Y-84654819D02*
X113219047Y-84654819D01*
X113219047Y-84654819D02*
X113314285Y-84607200D01*
X113314285Y-84607200D02*
X113361904Y-84559580D01*
X112171428Y-83654819D02*
X112076190Y-83654819D01*
X112076190Y-83654819D02*
X111980952Y-83702438D01*
X111980952Y-83702438D02*
X111933333Y-83750057D01*
X111933333Y-83750057D02*
X111885714Y-83845295D01*
X111885714Y-83845295D02*
X111838095Y-84035771D01*
X111838095Y-84035771D02*
X111838095Y-84273866D01*
X111838095Y-84273866D02*
X111885714Y-84464342D01*
X111885714Y-84464342D02*
X111933333Y-84559580D01*
X111933333Y-84559580D02*
X111980952Y-84607200D01*
X111980952Y-84607200D02*
X112076190Y-84654819D01*
X112076190Y-84654819D02*
X112171428Y-84654819D01*
X112171428Y-84654819D02*
X112266666Y-84607200D01*
X112266666Y-84607200D02*
X112314285Y-84559580D01*
X112314285Y-84559580D02*
X112361904Y-84464342D01*
X112361904Y-84464342D02*
X112409523Y-84273866D01*
X112409523Y-84273866D02*
X112409523Y-84035771D01*
X112409523Y-84035771D02*
X112361904Y-83845295D01*
X112361904Y-83845295D02*
X112314285Y-83750057D01*
X112314285Y-83750057D02*
X112266666Y-83702438D01*
X112266666Y-83702438D02*
X112171428Y-83654819D01*
X56092857Y-102299580D02*
X56140476Y-102347200D01*
X56140476Y-102347200D02*
X56283333Y-102394819D01*
X56283333Y-102394819D02*
X56378571Y-102394819D01*
X56378571Y-102394819D02*
X56521428Y-102347200D01*
X56521428Y-102347200D02*
X56616666Y-102251961D01*
X56616666Y-102251961D02*
X56664285Y-102156723D01*
X56664285Y-102156723D02*
X56711904Y-101966247D01*
X56711904Y-101966247D02*
X56711904Y-101823390D01*
X56711904Y-101823390D02*
X56664285Y-101632914D01*
X56664285Y-101632914D02*
X56616666Y-101537676D01*
X56616666Y-101537676D02*
X56521428Y-101442438D01*
X56521428Y-101442438D02*
X56378571Y-101394819D01*
X56378571Y-101394819D02*
X56283333Y-101394819D01*
X56283333Y-101394819D02*
X56140476Y-101442438D01*
X56140476Y-101442438D02*
X56092857Y-101490057D01*
X55140476Y-102394819D02*
X55711904Y-102394819D01*
X55426190Y-102394819D02*
X55426190Y-101394819D01*
X55426190Y-101394819D02*
X55521428Y-101537676D01*
X55521428Y-101537676D02*
X55616666Y-101632914D01*
X55616666Y-101632914D02*
X55711904Y-101680533D01*
X54759523Y-101490057D02*
X54711904Y-101442438D01*
X54711904Y-101442438D02*
X54616666Y-101394819D01*
X54616666Y-101394819D02*
X54378571Y-101394819D01*
X54378571Y-101394819D02*
X54283333Y-101442438D01*
X54283333Y-101442438D02*
X54235714Y-101490057D01*
X54235714Y-101490057D02*
X54188095Y-101585295D01*
X54188095Y-101585295D02*
X54188095Y-101680533D01*
X54188095Y-101680533D02*
X54235714Y-101823390D01*
X54235714Y-101823390D02*
X54807142Y-102394819D01*
X54807142Y-102394819D02*
X54188095Y-102394819D01*
X59528571Y-103954819D02*
X60099999Y-103954819D01*
X59814285Y-103954819D02*
X59814285Y-102954819D01*
X59814285Y-102954819D02*
X59909523Y-103097676D01*
X59909523Y-103097676D02*
X60004761Y-103192914D01*
X60004761Y-103192914D02*
X60099999Y-103240533D01*
X58909523Y-102954819D02*
X58814285Y-102954819D01*
X58814285Y-102954819D02*
X58719047Y-103002438D01*
X58719047Y-103002438D02*
X58671428Y-103050057D01*
X58671428Y-103050057D02*
X58623809Y-103145295D01*
X58623809Y-103145295D02*
X58576190Y-103335771D01*
X58576190Y-103335771D02*
X58576190Y-103573866D01*
X58576190Y-103573866D02*
X58623809Y-103764342D01*
X58623809Y-103764342D02*
X58671428Y-103859580D01*
X58671428Y-103859580D02*
X58719047Y-103907200D01*
X58719047Y-103907200D02*
X58814285Y-103954819D01*
X58814285Y-103954819D02*
X58909523Y-103954819D01*
X58909523Y-103954819D02*
X59004761Y-103907200D01*
X59004761Y-103907200D02*
X59052380Y-103859580D01*
X59052380Y-103859580D02*
X59099999Y-103764342D01*
X59099999Y-103764342D02*
X59147618Y-103573866D01*
X59147618Y-103573866D02*
X59147618Y-103335771D01*
X59147618Y-103335771D02*
X59099999Y-103145295D01*
X59099999Y-103145295D02*
X59052380Y-103050057D01*
X59052380Y-103050057D02*
X59004761Y-103002438D01*
X59004761Y-103002438D02*
X58909523Y-102954819D01*
X57719047Y-103288152D02*
X57719047Y-103954819D01*
X58147618Y-103288152D02*
X58147618Y-103811961D01*
X58147618Y-103811961D02*
X58099999Y-103907200D01*
X58099999Y-103907200D02*
X58004761Y-103954819D01*
X58004761Y-103954819D02*
X57861904Y-103954819D01*
X57861904Y-103954819D02*
X57766666Y-103907200D01*
X57766666Y-103907200D02*
X57719047Y-103859580D01*
X57385713Y-103288152D02*
X57004761Y-103288152D01*
X57242856Y-103954819D02*
X57242856Y-103097676D01*
X57242856Y-103097676D02*
X57195237Y-103002438D01*
X57195237Y-103002438D02*
X57099999Y-102954819D01*
X57099999Y-102954819D02*
X57004761Y-102954819D01*
X66115582Y-86873142D02*
X66163202Y-86825523D01*
X66163202Y-86825523D02*
X66210821Y-86682666D01*
X66210821Y-86682666D02*
X66210821Y-86587428D01*
X66210821Y-86587428D02*
X66163202Y-86444571D01*
X66163202Y-86444571D02*
X66067963Y-86349333D01*
X66067963Y-86349333D02*
X65972725Y-86301714D01*
X65972725Y-86301714D02*
X65782249Y-86254095D01*
X65782249Y-86254095D02*
X65639392Y-86254095D01*
X65639392Y-86254095D02*
X65448916Y-86301714D01*
X65448916Y-86301714D02*
X65353678Y-86349333D01*
X65353678Y-86349333D02*
X65258440Y-86444571D01*
X65258440Y-86444571D02*
X65210821Y-86587428D01*
X65210821Y-86587428D02*
X65210821Y-86682666D01*
X65210821Y-86682666D02*
X65258440Y-86825523D01*
X65258440Y-86825523D02*
X65306059Y-86873142D01*
X65210821Y-87206476D02*
X65210821Y-87825523D01*
X65210821Y-87825523D02*
X65591773Y-87492190D01*
X65591773Y-87492190D02*
X65591773Y-87635047D01*
X65591773Y-87635047D02*
X65639392Y-87730285D01*
X65639392Y-87730285D02*
X65687011Y-87777904D01*
X65687011Y-87777904D02*
X65782249Y-87825523D01*
X65782249Y-87825523D02*
X66020344Y-87825523D01*
X66020344Y-87825523D02*
X66115582Y-87777904D01*
X66115582Y-87777904D02*
X66163202Y-87730285D01*
X66163202Y-87730285D02*
X66210821Y-87635047D01*
X66210821Y-87635047D02*
X66210821Y-87349333D01*
X66210821Y-87349333D02*
X66163202Y-87254095D01*
X66163202Y-87254095D02*
X66115582Y-87206476D01*
X66210821Y-88777904D02*
X66210821Y-88206476D01*
X66210821Y-88492190D02*
X65210821Y-88492190D01*
X65210821Y-88492190D02*
X65353678Y-88396952D01*
X65353678Y-88396952D02*
X65448916Y-88301714D01*
X65448916Y-88301714D02*
X65496535Y-88206476D01*
X50459580Y-95933333D02*
X50507200Y-95885714D01*
X50507200Y-95885714D02*
X50554819Y-95742857D01*
X50554819Y-95742857D02*
X50554819Y-95647619D01*
X50554819Y-95647619D02*
X50507200Y-95504762D01*
X50507200Y-95504762D02*
X50411961Y-95409524D01*
X50411961Y-95409524D02*
X50316723Y-95361905D01*
X50316723Y-95361905D02*
X50126247Y-95314286D01*
X50126247Y-95314286D02*
X49983390Y-95314286D01*
X49983390Y-95314286D02*
X49792914Y-95361905D01*
X49792914Y-95361905D02*
X49697676Y-95409524D01*
X49697676Y-95409524D02*
X49602438Y-95504762D01*
X49602438Y-95504762D02*
X49554819Y-95647619D01*
X49554819Y-95647619D02*
X49554819Y-95742857D01*
X49554819Y-95742857D02*
X49602438Y-95885714D01*
X49602438Y-95885714D02*
X49650057Y-95933333D01*
X49554819Y-96790476D02*
X49554819Y-96600000D01*
X49554819Y-96600000D02*
X49602438Y-96504762D01*
X49602438Y-96504762D02*
X49650057Y-96457143D01*
X49650057Y-96457143D02*
X49792914Y-96361905D01*
X49792914Y-96361905D02*
X49983390Y-96314286D01*
X49983390Y-96314286D02*
X50364342Y-96314286D01*
X50364342Y-96314286D02*
X50459580Y-96361905D01*
X50459580Y-96361905D02*
X50507200Y-96409524D01*
X50507200Y-96409524D02*
X50554819Y-96504762D01*
X50554819Y-96504762D02*
X50554819Y-96695238D01*
X50554819Y-96695238D02*
X50507200Y-96790476D01*
X50507200Y-96790476D02*
X50459580Y-96838095D01*
X50459580Y-96838095D02*
X50364342Y-96885714D01*
X50364342Y-96885714D02*
X50126247Y-96885714D01*
X50126247Y-96885714D02*
X50031009Y-96838095D01*
X50031009Y-96838095D02*
X49983390Y-96790476D01*
X49983390Y-96790476D02*
X49935771Y-96695238D01*
X49935771Y-96695238D02*
X49935771Y-96504762D01*
X49935771Y-96504762D02*
X49983390Y-96409524D01*
X49983390Y-96409524D02*
X50031009Y-96361905D01*
X50031009Y-96361905D02*
X50126247Y-96314286D01*
X68344855Y-95347580D02*
X68392474Y-95395200D01*
X68392474Y-95395200D02*
X68535331Y-95442819D01*
X68535331Y-95442819D02*
X68630569Y-95442819D01*
X68630569Y-95442819D02*
X68773426Y-95395200D01*
X68773426Y-95395200D02*
X68868664Y-95299961D01*
X68868664Y-95299961D02*
X68916283Y-95204723D01*
X68916283Y-95204723D02*
X68963902Y-95014247D01*
X68963902Y-95014247D02*
X68963902Y-94871390D01*
X68963902Y-94871390D02*
X68916283Y-94680914D01*
X68916283Y-94680914D02*
X68868664Y-94585676D01*
X68868664Y-94585676D02*
X68773426Y-94490438D01*
X68773426Y-94490438D02*
X68630569Y-94442819D01*
X68630569Y-94442819D02*
X68535331Y-94442819D01*
X68535331Y-94442819D02*
X68392474Y-94490438D01*
X68392474Y-94490438D02*
X68344855Y-94538057D01*
X67392474Y-95442819D02*
X67963902Y-95442819D01*
X67678188Y-95442819D02*
X67678188Y-94442819D01*
X67678188Y-94442819D02*
X67773426Y-94585676D01*
X67773426Y-94585676D02*
X67868664Y-94680914D01*
X67868664Y-94680914D02*
X67963902Y-94728533D01*
X66773426Y-94442819D02*
X66678188Y-94442819D01*
X66678188Y-94442819D02*
X66582950Y-94490438D01*
X66582950Y-94490438D02*
X66535331Y-94538057D01*
X66535331Y-94538057D02*
X66487712Y-94633295D01*
X66487712Y-94633295D02*
X66440093Y-94823771D01*
X66440093Y-94823771D02*
X66440093Y-95061866D01*
X66440093Y-95061866D02*
X66487712Y-95252342D01*
X66487712Y-95252342D02*
X66535331Y-95347580D01*
X66535331Y-95347580D02*
X66582950Y-95395200D01*
X66582950Y-95395200D02*
X66678188Y-95442819D01*
X66678188Y-95442819D02*
X66773426Y-95442819D01*
X66773426Y-95442819D02*
X66868664Y-95395200D01*
X66868664Y-95395200D02*
X66916283Y-95347580D01*
X66916283Y-95347580D02*
X66963902Y-95252342D01*
X66963902Y-95252342D02*
X67011521Y-95061866D01*
X67011521Y-95061866D02*
X67011521Y-94823771D01*
X67011521Y-94823771D02*
X66963902Y-94633295D01*
X66963902Y-94633295D02*
X66916283Y-94538057D01*
X66916283Y-94538057D02*
X66868664Y-94490438D01*
X66868664Y-94490438D02*
X66773426Y-94442819D01*
X110417857Y-83029580D02*
X110465476Y-83077200D01*
X110465476Y-83077200D02*
X110608333Y-83124819D01*
X110608333Y-83124819D02*
X110703571Y-83124819D01*
X110703571Y-83124819D02*
X110846428Y-83077200D01*
X110846428Y-83077200D02*
X110941666Y-82981961D01*
X110941666Y-82981961D02*
X110989285Y-82886723D01*
X110989285Y-82886723D02*
X111036904Y-82696247D01*
X111036904Y-82696247D02*
X111036904Y-82553390D01*
X111036904Y-82553390D02*
X110989285Y-82362914D01*
X110989285Y-82362914D02*
X110941666Y-82267676D01*
X110941666Y-82267676D02*
X110846428Y-82172438D01*
X110846428Y-82172438D02*
X110703571Y-82124819D01*
X110703571Y-82124819D02*
X110608333Y-82124819D01*
X110608333Y-82124819D02*
X110465476Y-82172438D01*
X110465476Y-82172438D02*
X110417857Y-82220057D01*
X109513095Y-82124819D02*
X109989285Y-82124819D01*
X109989285Y-82124819D02*
X110036904Y-82601009D01*
X110036904Y-82601009D02*
X109989285Y-82553390D01*
X109989285Y-82553390D02*
X109894047Y-82505771D01*
X109894047Y-82505771D02*
X109655952Y-82505771D01*
X109655952Y-82505771D02*
X109560714Y-82553390D01*
X109560714Y-82553390D02*
X109513095Y-82601009D01*
X109513095Y-82601009D02*
X109465476Y-82696247D01*
X109465476Y-82696247D02*
X109465476Y-82934342D01*
X109465476Y-82934342D02*
X109513095Y-83029580D01*
X109513095Y-83029580D02*
X109560714Y-83077200D01*
X109560714Y-83077200D02*
X109655952Y-83124819D01*
X109655952Y-83124819D02*
X109894047Y-83124819D01*
X109894047Y-83124819D02*
X109989285Y-83077200D01*
X109989285Y-83077200D02*
X110036904Y-83029580D01*
X108608333Y-82458152D02*
X108608333Y-83124819D01*
X108846428Y-82077200D02*
X109084523Y-82791485D01*
X109084523Y-82791485D02*
X108465476Y-82791485D01*
X51539564Y-91857287D02*
X51587183Y-91904907D01*
X51587183Y-91904907D02*
X51730040Y-91952526D01*
X51730040Y-91952526D02*
X51825278Y-91952526D01*
X51825278Y-91952526D02*
X51968135Y-91904907D01*
X51968135Y-91904907D02*
X52063373Y-91809668D01*
X52063373Y-91809668D02*
X52110992Y-91714430D01*
X52110992Y-91714430D02*
X52158611Y-91523954D01*
X52158611Y-91523954D02*
X52158611Y-91381097D01*
X52158611Y-91381097D02*
X52110992Y-91190621D01*
X52110992Y-91190621D02*
X52063373Y-91095383D01*
X52063373Y-91095383D02*
X51968135Y-91000145D01*
X51968135Y-91000145D02*
X51825278Y-90952526D01*
X51825278Y-90952526D02*
X51730040Y-90952526D01*
X51730040Y-90952526D02*
X51587183Y-91000145D01*
X51587183Y-91000145D02*
X51539564Y-91047764D01*
X51206230Y-90952526D02*
X50587183Y-90952526D01*
X50587183Y-90952526D02*
X50920516Y-91333478D01*
X50920516Y-91333478D02*
X50777659Y-91333478D01*
X50777659Y-91333478D02*
X50682421Y-91381097D01*
X50682421Y-91381097D02*
X50634802Y-91428716D01*
X50634802Y-91428716D02*
X50587183Y-91523954D01*
X50587183Y-91523954D02*
X50587183Y-91762049D01*
X50587183Y-91762049D02*
X50634802Y-91857287D01*
X50634802Y-91857287D02*
X50682421Y-91904907D01*
X50682421Y-91904907D02*
X50777659Y-91952526D01*
X50777659Y-91952526D02*
X51063373Y-91952526D01*
X51063373Y-91952526D02*
X51158611Y-91904907D01*
X51158611Y-91904907D02*
X51206230Y-91857287D01*
X49968135Y-90952526D02*
X49872897Y-90952526D01*
X49872897Y-90952526D02*
X49777659Y-91000145D01*
X49777659Y-91000145D02*
X49730040Y-91047764D01*
X49730040Y-91047764D02*
X49682421Y-91143002D01*
X49682421Y-91143002D02*
X49634802Y-91333478D01*
X49634802Y-91333478D02*
X49634802Y-91571573D01*
X49634802Y-91571573D02*
X49682421Y-91762049D01*
X49682421Y-91762049D02*
X49730040Y-91857287D01*
X49730040Y-91857287D02*
X49777659Y-91904907D01*
X49777659Y-91904907D02*
X49872897Y-91952526D01*
X49872897Y-91952526D02*
X49968135Y-91952526D01*
X49968135Y-91952526D02*
X50063373Y-91904907D01*
X50063373Y-91904907D02*
X50110992Y-91857287D01*
X50110992Y-91857287D02*
X50158611Y-91762049D01*
X50158611Y-91762049D02*
X50206230Y-91571573D01*
X50206230Y-91571573D02*
X50206230Y-91333478D01*
X50206230Y-91333478D02*
X50158611Y-91143002D01*
X50158611Y-91143002D02*
X50110992Y-91047764D01*
X50110992Y-91047764D02*
X50063373Y-91000145D01*
X50063373Y-91000145D02*
X49968135Y-90952526D01*
X67666666Y-73559580D02*
X67714285Y-73607200D01*
X67714285Y-73607200D02*
X67857142Y-73654819D01*
X67857142Y-73654819D02*
X67952380Y-73654819D01*
X67952380Y-73654819D02*
X68095237Y-73607200D01*
X68095237Y-73607200D02*
X68190475Y-73511961D01*
X68190475Y-73511961D02*
X68238094Y-73416723D01*
X68238094Y-73416723D02*
X68285713Y-73226247D01*
X68285713Y-73226247D02*
X68285713Y-73083390D01*
X68285713Y-73083390D02*
X68238094Y-72892914D01*
X68238094Y-72892914D02*
X68190475Y-72797676D01*
X68190475Y-72797676D02*
X68095237Y-72702438D01*
X68095237Y-72702438D02*
X67952380Y-72654819D01*
X67952380Y-72654819D02*
X67857142Y-72654819D01*
X67857142Y-72654819D02*
X67714285Y-72702438D01*
X67714285Y-72702438D02*
X67666666Y-72750057D01*
X67095237Y-73083390D02*
X67190475Y-73035771D01*
X67190475Y-73035771D02*
X67238094Y-72988152D01*
X67238094Y-72988152D02*
X67285713Y-72892914D01*
X67285713Y-72892914D02*
X67285713Y-72845295D01*
X67285713Y-72845295D02*
X67238094Y-72750057D01*
X67238094Y-72750057D02*
X67190475Y-72702438D01*
X67190475Y-72702438D02*
X67095237Y-72654819D01*
X67095237Y-72654819D02*
X66904761Y-72654819D01*
X66904761Y-72654819D02*
X66809523Y-72702438D01*
X66809523Y-72702438D02*
X66761904Y-72750057D01*
X66761904Y-72750057D02*
X66714285Y-72845295D01*
X66714285Y-72845295D02*
X66714285Y-72892914D01*
X66714285Y-72892914D02*
X66761904Y-72988152D01*
X66761904Y-72988152D02*
X66809523Y-73035771D01*
X66809523Y-73035771D02*
X66904761Y-73083390D01*
X66904761Y-73083390D02*
X67095237Y-73083390D01*
X67095237Y-73083390D02*
X67190475Y-73131009D01*
X67190475Y-73131009D02*
X67238094Y-73178628D01*
X67238094Y-73178628D02*
X67285713Y-73273866D01*
X67285713Y-73273866D02*
X67285713Y-73464342D01*
X67285713Y-73464342D02*
X67238094Y-73559580D01*
X67238094Y-73559580D02*
X67190475Y-73607200D01*
X67190475Y-73607200D02*
X67095237Y-73654819D01*
X67095237Y-73654819D02*
X66904761Y-73654819D01*
X66904761Y-73654819D02*
X66809523Y-73607200D01*
X66809523Y-73607200D02*
X66761904Y-73559580D01*
X66761904Y-73559580D02*
X66714285Y-73464342D01*
X66714285Y-73464342D02*
X66714285Y-73273866D01*
X66714285Y-73273866D02*
X66761904Y-73178628D01*
X66761904Y-73178628D02*
X66809523Y-73131009D01*
X66809523Y-73131009D02*
X66904761Y-73083390D01*
X113067857Y-96759580D02*
X113115476Y-96807200D01*
X113115476Y-96807200D02*
X113258333Y-96854819D01*
X113258333Y-96854819D02*
X113353571Y-96854819D01*
X113353571Y-96854819D02*
X113496428Y-96807200D01*
X113496428Y-96807200D02*
X113591666Y-96711961D01*
X113591666Y-96711961D02*
X113639285Y-96616723D01*
X113639285Y-96616723D02*
X113686904Y-96426247D01*
X113686904Y-96426247D02*
X113686904Y-96283390D01*
X113686904Y-96283390D02*
X113639285Y-96092914D01*
X113639285Y-96092914D02*
X113591666Y-95997676D01*
X113591666Y-95997676D02*
X113496428Y-95902438D01*
X113496428Y-95902438D02*
X113353571Y-95854819D01*
X113353571Y-95854819D02*
X113258333Y-95854819D01*
X113258333Y-95854819D02*
X113115476Y-95902438D01*
X113115476Y-95902438D02*
X113067857Y-95950057D01*
X112163095Y-95854819D02*
X112639285Y-95854819D01*
X112639285Y-95854819D02*
X112686904Y-96331009D01*
X112686904Y-96331009D02*
X112639285Y-96283390D01*
X112639285Y-96283390D02*
X112544047Y-96235771D01*
X112544047Y-96235771D02*
X112305952Y-96235771D01*
X112305952Y-96235771D02*
X112210714Y-96283390D01*
X112210714Y-96283390D02*
X112163095Y-96331009D01*
X112163095Y-96331009D02*
X112115476Y-96426247D01*
X112115476Y-96426247D02*
X112115476Y-96664342D01*
X112115476Y-96664342D02*
X112163095Y-96759580D01*
X112163095Y-96759580D02*
X112210714Y-96807200D01*
X112210714Y-96807200D02*
X112305952Y-96854819D01*
X112305952Y-96854819D02*
X112544047Y-96854819D01*
X112544047Y-96854819D02*
X112639285Y-96807200D01*
X112639285Y-96807200D02*
X112686904Y-96759580D01*
X111163095Y-96854819D02*
X111734523Y-96854819D01*
X111448809Y-96854819D02*
X111448809Y-95854819D01*
X111448809Y-95854819D02*
X111544047Y-95997676D01*
X111544047Y-95997676D02*
X111639285Y-96092914D01*
X111639285Y-96092914D02*
X111734523Y-96140533D01*
X114842857Y-92009580D02*
X114890476Y-92057200D01*
X114890476Y-92057200D02*
X115033333Y-92104819D01*
X115033333Y-92104819D02*
X115128571Y-92104819D01*
X115128571Y-92104819D02*
X115271428Y-92057200D01*
X115271428Y-92057200D02*
X115366666Y-91961961D01*
X115366666Y-91961961D02*
X115414285Y-91866723D01*
X115414285Y-91866723D02*
X115461904Y-91676247D01*
X115461904Y-91676247D02*
X115461904Y-91533390D01*
X115461904Y-91533390D02*
X115414285Y-91342914D01*
X115414285Y-91342914D02*
X115366666Y-91247676D01*
X115366666Y-91247676D02*
X115271428Y-91152438D01*
X115271428Y-91152438D02*
X115128571Y-91104819D01*
X115128571Y-91104819D02*
X115033333Y-91104819D01*
X115033333Y-91104819D02*
X114890476Y-91152438D01*
X114890476Y-91152438D02*
X114842857Y-91200057D01*
X113938095Y-91104819D02*
X114414285Y-91104819D01*
X114414285Y-91104819D02*
X114461904Y-91581009D01*
X114461904Y-91581009D02*
X114414285Y-91533390D01*
X114414285Y-91533390D02*
X114319047Y-91485771D01*
X114319047Y-91485771D02*
X114080952Y-91485771D01*
X114080952Y-91485771D02*
X113985714Y-91533390D01*
X113985714Y-91533390D02*
X113938095Y-91581009D01*
X113938095Y-91581009D02*
X113890476Y-91676247D01*
X113890476Y-91676247D02*
X113890476Y-91914342D01*
X113890476Y-91914342D02*
X113938095Y-92009580D01*
X113938095Y-92009580D02*
X113985714Y-92057200D01*
X113985714Y-92057200D02*
X114080952Y-92104819D01*
X114080952Y-92104819D02*
X114319047Y-92104819D01*
X114319047Y-92104819D02*
X114414285Y-92057200D01*
X114414285Y-92057200D02*
X114461904Y-92009580D01*
X113033333Y-91104819D02*
X113223809Y-91104819D01*
X113223809Y-91104819D02*
X113319047Y-91152438D01*
X113319047Y-91152438D02*
X113366666Y-91200057D01*
X113366666Y-91200057D02*
X113461904Y-91342914D01*
X113461904Y-91342914D02*
X113509523Y-91533390D01*
X113509523Y-91533390D02*
X113509523Y-91914342D01*
X113509523Y-91914342D02*
X113461904Y-92009580D01*
X113461904Y-92009580D02*
X113414285Y-92057200D01*
X113414285Y-92057200D02*
X113319047Y-92104819D01*
X113319047Y-92104819D02*
X113128571Y-92104819D01*
X113128571Y-92104819D02*
X113033333Y-92057200D01*
X113033333Y-92057200D02*
X112985714Y-92009580D01*
X112985714Y-92009580D02*
X112938095Y-91914342D01*
X112938095Y-91914342D02*
X112938095Y-91676247D01*
X112938095Y-91676247D02*
X112985714Y-91581009D01*
X112985714Y-91581009D02*
X113033333Y-91533390D01*
X113033333Y-91533390D02*
X113128571Y-91485771D01*
X113128571Y-91485771D02*
X113319047Y-91485771D01*
X113319047Y-91485771D02*
X113414285Y-91533390D01*
X113414285Y-91533390D02*
X113461904Y-91581009D01*
X113461904Y-91581009D02*
X113509523Y-91676247D01*
D11*
X63510449Y-70977500D02*
X63984965Y-70977500D01*
X63510449Y-72022500D02*
X63984965Y-72022500D01*
X59661252Y-68493707D02*
X59138748Y-68493707D01*
X59661252Y-69963707D02*
X59138748Y-69963707D01*
X56727500Y-85190000D02*
X56727500Y-85240000D01*
X56727500Y-86360000D02*
X56727500Y-87140000D01*
X56727500Y-88260000D02*
X56727500Y-88310000D01*
X56727500Y-88310000D02*
X58547500Y-88310000D01*
X58547500Y-85190000D02*
X56727500Y-85190000D01*
X58547500Y-85240000D02*
X58547500Y-85190000D01*
X58547500Y-88310000D02*
X58547500Y-88260000D01*
X59087500Y-85240000D02*
X59327500Y-84910000D01*
X58847500Y-84910000D01*
X59087500Y-85240000D01*
G36*
X59087500Y-85240000D02*
G01*
X58847500Y-84910000D01*
X59327500Y-84910000D01*
X59087500Y-85240000D01*
G37*
X60809920Y-93102000D02*
X61091080Y-93102000D01*
X60809920Y-94122000D02*
X61091080Y-94122000D01*
X110784420Y-91940000D02*
X111065580Y-91940000D01*
X110784420Y-92960000D02*
X111065580Y-92960000D01*
X118340000Y-88884420D02*
X118340000Y-89165580D01*
X119360000Y-88884420D02*
X119360000Y-89165580D01*
X48757422Y-89546000D02*
X49038582Y-89546000D01*
X48757422Y-90566000D02*
X49038582Y-90566000D01*
X107640000Y-93615580D02*
X107640000Y-93334420D01*
X108660000Y-93615580D02*
X108660000Y-93334420D01*
X66676002Y-80356580D02*
X66676002Y-80075420D01*
X67696002Y-80356580D02*
X67696002Y-80075420D01*
X116427500Y-90387742D02*
X116427500Y-90862258D01*
X117472500Y-90387742D02*
X117472500Y-90862258D01*
X114540000Y-88884420D02*
X114540000Y-89165580D01*
X115560000Y-88884420D02*
X115560000Y-89165580D01*
X58740580Y-99190000D02*
X58459420Y-99190000D01*
X58740580Y-100210000D02*
X58459420Y-100210000D01*
X68748127Y-83958707D02*
X69029287Y-83958707D01*
X68748127Y-84978707D02*
X69029287Y-84978707D01*
X56289580Y-77354707D02*
X56008420Y-77354707D01*
X56289580Y-78374707D02*
X56008420Y-78374707D01*
X58612258Y-96277500D02*
X58137742Y-96277500D01*
X58612258Y-97322500D02*
X58137742Y-97322500D01*
X107090000Y-88046920D02*
X107090000Y-88328080D01*
X108110000Y-88046920D02*
X108110000Y-88328080D01*
X50791707Y-78880580D02*
X50791707Y-78599420D01*
X51811707Y-78880580D02*
X51811707Y-78599420D01*
X72702500Y-74145707D02*
X72702500Y-75145707D01*
X72702500Y-76265707D02*
X72702500Y-77265707D01*
X72702500Y-77265707D02*
X74222500Y-77265707D01*
X74222500Y-74145707D02*
X72702500Y-74145707D01*
X74222500Y-74195707D02*
X74222500Y-74145707D01*
X74222500Y-76095707D02*
X74222500Y-75315707D01*
X74222500Y-77265707D02*
X74222500Y-77215707D01*
X74762500Y-75325707D02*
X74522500Y-75655707D01*
X75002500Y-75655707D01*
X74762500Y-75325707D01*
G36*
X75002500Y-75655707D02*
G01*
X74522500Y-75655707D01*
X74762500Y-75325707D01*
X75002500Y-75655707D01*
G37*
X116715580Y-84090000D02*
X116434420Y-84090000D01*
X116715580Y-85110000D02*
X116434420Y-85110000D01*
X61568017Y-77354707D02*
X61849177Y-77354707D01*
X61568017Y-78374707D02*
X61849177Y-78374707D01*
X59540580Y-70990000D02*
X59259420Y-70990000D01*
X59540580Y-72010000D02*
X59259420Y-72010000D01*
X55558420Y-93102000D02*
X55839580Y-93102000D01*
X55558420Y-94122000D02*
X55839580Y-94122000D01*
X55990000Y-82537127D02*
X55990000Y-82818287D01*
X57010000Y-82537127D02*
X57010000Y-82818287D01*
X105227500Y-92345523D02*
X105227500Y-91871007D01*
X106272500Y-92345523D02*
X106272500Y-91871007D01*
X111184420Y-85140000D02*
X111465580Y-85140000D01*
X111184420Y-86160000D02*
X111465580Y-86160000D01*
X58861252Y-101065000D02*
X58338748Y-101065000D01*
X58861252Y-102535000D02*
X58338748Y-102535000D01*
X66676002Y-87375420D02*
X66676002Y-87656580D01*
X67696002Y-87375420D02*
X67696002Y-87656580D01*
X51050001Y-96165580D02*
X51050001Y-95884420D01*
X52070001Y-96165580D02*
X52070001Y-95884420D01*
X67659420Y-95890000D02*
X67940580Y-95890000D01*
X67659420Y-96910000D02*
X67940580Y-96910000D01*
X109915580Y-83590000D02*
X109634420Y-83590000D01*
X109915580Y-84610000D02*
X109634420Y-84610000D01*
X50614422Y-92340000D02*
X50895582Y-92340000D01*
X50614422Y-93360000D02*
X50895582Y-93360000D01*
X67444328Y-74052707D02*
X67725488Y-74052707D01*
X67444328Y-75072707D02*
X67725488Y-75072707D01*
X112515580Y-94440000D02*
X112234420Y-94440000D01*
X112515580Y-95460000D02*
X112234420Y-95460000D01*
X114690580Y-92490000D02*
X114409420Y-92490000D01*
X114690580Y-93510000D02*
X114409420Y-93510000D01*
%LPC*%
D12*
X112300000Y-87962500D03*
X111300000Y-87962500D03*
X110300000Y-87962500D03*
X112300000Y-88962500D03*
X111300000Y-88962500D03*
X110300000Y-88962500D03*
X112300000Y-89962500D03*
X111300000Y-89962500D03*
X110300000Y-89962500D03*
D13*
X92636000Y-76680000D03*
D14*
X90096000Y-76680000D03*
X92636000Y-74140000D03*
X90096000Y-74140000D03*
X92636000Y-71600000D03*
X90096000Y-71600000D03*
X92636000Y-69060000D03*
X90096000Y-69060000D03*
X92636000Y-66520000D03*
X90096000Y-66520000D03*
D15*
X114100000Y-56450000D03*
D16*
X114100000Y-58740000D03*
X114100000Y-61030000D03*
X114100000Y-63320000D03*
X114100000Y-65610000D03*
X116200000Y-55310000D03*
X116200000Y-57600000D03*
X116200000Y-59890000D03*
X116200000Y-62180000D03*
X116200000Y-64470000D03*
X118280000Y-56450000D03*
X118280000Y-58740000D03*
X118280000Y-61030000D03*
X118280000Y-63320000D03*
X118280000Y-65610000D03*
D17*
X116200000Y-73260000D03*
X116200000Y-48270000D03*
D18*
X42500000Y-131386000D03*
X36000000Y-131386000D03*
X42500000Y-126886000D03*
X36000000Y-126886000D03*
D13*
X55364000Y-41335000D03*
D14*
X55364000Y-38795000D03*
X57904000Y-41335000D03*
X57904000Y-38795000D03*
X60444000Y-41335000D03*
X60444000Y-38795000D03*
X62984000Y-41335000D03*
X62984000Y-38795000D03*
D13*
X118500000Y-119000000D03*
D14*
X118500000Y-116460000D03*
X118500000Y-113920000D03*
D13*
X68947333Y-41335000D03*
D14*
X68947333Y-38795000D03*
X71487333Y-41335000D03*
X71487333Y-38795000D03*
X74027333Y-41335000D03*
X74027333Y-38795000D03*
X76567333Y-41335000D03*
X76567333Y-38795000D03*
D13*
X29527000Y-122890000D03*
D14*
X26987000Y-122890000D03*
X29527000Y-120350000D03*
X26987000Y-120350000D03*
X29527000Y-117810000D03*
X26987000Y-117810000D03*
D13*
X26987000Y-95898000D03*
D14*
X29527000Y-95898000D03*
X26987000Y-98438000D03*
X29527000Y-98438000D03*
X26987000Y-100978000D03*
X29527000Y-100978000D03*
X26987000Y-103518000D03*
X29527000Y-103518000D03*
X26987000Y-106058000D03*
X29527000Y-106058000D03*
D19*
X26340000Y-39840000D03*
D13*
X82045000Y-131386000D03*
D14*
X84585000Y-131386000D03*
X87125000Y-131386000D03*
X89665000Y-131386000D03*
X92205000Y-131386000D03*
X94745000Y-131386000D03*
X97285000Y-131386000D03*
X99825000Y-131386000D03*
D13*
X92636000Y-90818000D03*
D14*
X90096000Y-90818000D03*
X92636000Y-88278000D03*
X90096000Y-88278000D03*
X92636000Y-85738000D03*
X90096000Y-85738000D03*
X92636000Y-83198000D03*
X90096000Y-83198000D03*
X92636000Y-80658000D03*
X90096000Y-80658000D03*
D20*
X89850000Y-40600000D03*
D21*
X89850000Y-38100000D03*
D19*
X26340000Y-130900000D03*
D13*
X99060000Y-40640000D03*
D14*
X99060000Y-38100000D03*
X101600000Y-40640000D03*
X101600000Y-38100000D03*
X104140000Y-40640000D03*
X104140000Y-38100000D03*
X106680000Y-40640000D03*
X106680000Y-38100000D03*
D13*
X26987000Y-80658000D03*
D14*
X29527000Y-80658000D03*
X26987000Y-83198000D03*
X29527000Y-83198000D03*
X26987000Y-85738000D03*
X29527000Y-85738000D03*
X26987000Y-88278000D03*
X29527000Y-88278000D03*
X26987000Y-90818000D03*
X29527000Y-90818000D03*
D13*
X92636000Y-105260000D03*
D14*
X90096000Y-105260000D03*
X92636000Y-102720000D03*
X90096000Y-102720000D03*
X92636000Y-100180000D03*
X90096000Y-100180000D03*
X92636000Y-97640000D03*
X90096000Y-97640000D03*
X92636000Y-95100000D03*
X90096000Y-95100000D03*
D13*
X26987000Y-65418000D03*
D14*
X29527000Y-65418000D03*
X26987000Y-67958000D03*
X29527000Y-67958000D03*
X26987000Y-70498000D03*
X29527000Y-70498000D03*
X26987000Y-73038000D03*
X29527000Y-73038000D03*
X26987000Y-75578000D03*
X29527000Y-75578000D03*
D19*
X117400000Y-130900000D03*
D13*
X92636000Y-58900000D03*
D14*
X90096000Y-58900000D03*
D13*
X41780667Y-41335000D03*
D14*
X41780667Y-38795000D03*
X44320667Y-41335000D03*
X44320667Y-38795000D03*
X46860667Y-41335000D03*
X46860667Y-38795000D03*
X49400667Y-41335000D03*
X49400667Y-38795000D03*
D19*
X117400000Y-39840000D03*
D13*
X68984000Y-128846000D03*
D14*
X68984000Y-131386000D03*
X66444000Y-128846000D03*
X66444000Y-131386000D03*
X63904000Y-128846000D03*
X63904000Y-131386000D03*
X61364000Y-128846000D03*
X61364000Y-131386000D03*
D22*
X119300000Y-104500000D03*
D23*
X116300000Y-104190000D03*
X116300000Y-99350000D03*
D22*
X119300000Y-99040000D03*
D13*
X56984000Y-128846000D03*
D14*
X56984000Y-131386000D03*
X54444000Y-128846000D03*
X54444000Y-131386000D03*
X51904000Y-128846000D03*
X51904000Y-131386000D03*
X49364000Y-128846000D03*
X49364000Y-131386000D03*
D24*
X62922707Y-71500000D03*
X64572707Y-71500000D03*
D25*
X60350000Y-69228707D03*
X58450000Y-69228707D03*
D26*
X58775000Y-85800000D03*
X58775000Y-86750000D03*
X58775000Y-87700000D03*
X56500000Y-87700000D03*
X56500000Y-85800000D03*
D27*
X60175500Y-93612000D03*
X61725500Y-93612000D03*
X110150000Y-92450000D03*
X111700000Y-92450000D03*
D28*
X118850000Y-88250000D03*
X118850000Y-89800000D03*
D27*
X48123002Y-90056000D03*
X49673002Y-90056000D03*
D29*
X108150000Y-94250000D03*
X108150000Y-92700000D03*
X67186002Y-80991000D03*
X67186002Y-79441000D03*
D30*
X116950000Y-89800000D03*
X116950000Y-91450000D03*
D28*
X115050000Y-88250000D03*
X115050000Y-89800000D03*
D31*
X59375000Y-99700000D03*
X57825000Y-99700000D03*
D27*
X68113707Y-84468707D03*
X69663707Y-84468707D03*
D31*
X56924000Y-77864707D03*
X55374000Y-77864707D03*
D32*
X59200000Y-96800000D03*
X57550000Y-96800000D03*
D28*
X107600000Y-87412500D03*
X107600000Y-88962500D03*
D29*
X51301707Y-79515000D03*
X51301707Y-77965000D03*
D33*
X74400000Y-74755707D03*
X74400000Y-76655707D03*
X72525000Y-75705707D03*
D31*
X117350000Y-84600000D03*
X115800000Y-84600000D03*
D27*
X60933597Y-77864707D03*
X62483597Y-77864707D03*
D31*
X60175000Y-71500000D03*
X58625000Y-71500000D03*
D27*
X54924000Y-93612000D03*
X56474000Y-93612000D03*
D28*
X56500000Y-81902707D03*
X56500000Y-83452707D03*
D34*
X105750000Y-92933265D03*
X105750000Y-91283265D03*
D27*
X110550000Y-85650000D03*
X112100000Y-85650000D03*
D25*
X59550000Y-101800000D03*
X57650000Y-101800000D03*
D28*
X67186002Y-86741000D03*
X67186002Y-88291000D03*
D29*
X51560001Y-96800000D03*
X51560001Y-95250000D03*
D27*
X67025000Y-96400000D03*
X68575000Y-96400000D03*
D31*
X110550000Y-84100000D03*
X109000000Y-84100000D03*
D27*
X49980002Y-92850000D03*
X51530002Y-92850000D03*
X66809908Y-74562707D03*
X68359908Y-74562707D03*
D31*
X113150000Y-94950000D03*
X111600000Y-94950000D03*
X115325000Y-93000000D03*
X113775000Y-93000000D03*
%LPD*%
M02*
