%TF.GenerationSoftware,KiCad,Pcbnew,10.0.4-150-gc4750059f9*%
%TF.CreationDate,2026-07-09T16:37:27+10:00*%
%TF.ProjectId,Ice40hx4k_tq144,49636534-3068-4783-946b-5f7471313434,B*%
%TF.SameCoordinates,Original*%
%TF.FileFunction,Drillmap*%
%TF.FilePolarity,Positive*%
%FSLAX45Y45*%
G04 Gerber Fmt 4.5, Leading zero omitted, Abs format (unit mm)*
G04 Created by KiCad (PCBNEW 10.0.4-150-gc4750059f9) date 2026-07-09 16:37:27*
%MOMM*%
%LPD*%
G01*
G04 APERTURE LIST*
%ADD10C,0.100000*%
%ADD11C,0.200000*%
%ADD12C,0.110000*%
%ADD13C,0.119000*%
%ADD14C,0.318000*%
G04 APERTURE END LIST*
D10*
X2234000Y-3584000D02*
X12140000Y-3584000D01*
X12140000Y-13490000D01*
X2234000Y-13490000D01*
X2234000Y-3584000D01*
D11*
D10*
X3545000Y-5175000D02*
X3575000Y-5205000D01*
X3575000Y-5175000D02*
X3545000Y-5205000D01*
X3545000Y-6035000D02*
X3575000Y-6065000D01*
X3575000Y-6035000D02*
X3545000Y-6065000D01*
X3555000Y-11860000D02*
X3585000Y-11890000D01*
X3585000Y-11860000D02*
X3555000Y-11890000D01*
X3720000Y-12025000D02*
X3750000Y-12055000D01*
X3750000Y-12025000D02*
X3720000Y-12055000D01*
X3725000Y-5175000D02*
X3755000Y-5205000D01*
X3755000Y-5175000D02*
X3725000Y-5205000D01*
X3725000Y-6035000D02*
X3755000Y-6065000D01*
X3755000Y-6035000D02*
X3725000Y-6065000D01*
X3842500Y-10865000D02*
X3872500Y-10895000D01*
X3872500Y-10865000D02*
X3842500Y-10895000D01*
X3900000Y-4235000D02*
X3930000Y-4265000D01*
X3930000Y-4235000D02*
X3900000Y-4265000D01*
X3940000Y-6725000D02*
X3970000Y-6755000D01*
X3970000Y-6725000D02*
X3940000Y-6755000D01*
X3940000Y-7095000D02*
X3970000Y-7125000D01*
X3970000Y-7095000D02*
X3940000Y-7125000D01*
X3940000Y-7815000D02*
X3970000Y-7845000D01*
X3970000Y-7815000D02*
X3940000Y-7845000D01*
X3940000Y-8195000D02*
X3970000Y-8225000D01*
X3970000Y-8195000D02*
X3940000Y-8225000D01*
X3940000Y-8935000D02*
X3970000Y-8965000D01*
X3970000Y-8935000D02*
X3940000Y-8965000D01*
X3940000Y-9295000D02*
X3970000Y-9325000D01*
X3970000Y-9295000D02*
X3940000Y-9325000D01*
X3963067Y-4528500D02*
X3993067Y-4558500D01*
X3993067Y-4528500D02*
X3963067Y-4558500D01*
X3963067Y-6122750D02*
X3993067Y-6152750D01*
X3993067Y-6122750D02*
X3963067Y-6152750D01*
X4080000Y-4860000D02*
X4110000Y-4890000D01*
X4110000Y-4860000D02*
X4080000Y-4890000D01*
X4095000Y-7019500D02*
X4125000Y-7049500D01*
X4125000Y-7019500D02*
X4095000Y-7049500D01*
X4095000Y-8122162D02*
X4125000Y-8152162D01*
X4125000Y-8122162D02*
X4095000Y-8152162D01*
X4095000Y-9225213D02*
X4125000Y-9255213D01*
X4125000Y-9225213D02*
X4095000Y-9255213D01*
X4098067Y-5316250D02*
X4128067Y-5346250D01*
X4128067Y-5316250D02*
X4098067Y-5346250D01*
X4251567Y-5480000D02*
X4281567Y-5510000D01*
X4281567Y-5480000D02*
X4251567Y-5510000D01*
X4260000Y-10970000D02*
X4290000Y-11000000D01*
X4290000Y-10970000D02*
X4260000Y-11000000D01*
X4265000Y-10305000D02*
X4295000Y-10335000D01*
X4295000Y-10305000D02*
X4265000Y-10335000D01*
X4265000Y-10765000D02*
X4295000Y-10795000D01*
X4295000Y-10765000D02*
X4265000Y-10795000D01*
X4295400Y-4528500D02*
X4325400Y-4558500D01*
X4325400Y-4528500D02*
X4295400Y-4558500D01*
X4295400Y-6122750D02*
X4325400Y-6152750D01*
X4325400Y-6122750D02*
X4295400Y-6152750D01*
X4300000Y-6775000D02*
X4330000Y-6805000D01*
X4330000Y-6775000D02*
X4300000Y-6805000D01*
X4300000Y-7936829D02*
X4330000Y-7966829D01*
X4330000Y-7936829D02*
X4300000Y-7966829D01*
X4300000Y-9015000D02*
X4330000Y-9045000D01*
X4330000Y-9015000D02*
X4300000Y-9045000D01*
X4360000Y-12030000D02*
X4390000Y-12060000D01*
X4390000Y-12030000D02*
X4360000Y-12060000D01*
X4365000Y-6375000D02*
X4395000Y-6405000D01*
X4395000Y-6375000D02*
X4365000Y-6405000D01*
X4370000Y-12250000D02*
X4400000Y-12280000D01*
X4400000Y-12250000D02*
X4370000Y-12280000D01*
X4375000Y-10165000D02*
X4405000Y-10195000D01*
X4405000Y-10165000D02*
X4375000Y-10195000D01*
X4420000Y-7220000D02*
X4450000Y-7250000D01*
X4450000Y-7220000D02*
X4420000Y-7250000D01*
X4422913Y-8140622D02*
X4452913Y-8170622D01*
X4452913Y-8140622D02*
X4422913Y-8170622D01*
X4475000Y-10305000D02*
X4505000Y-10335000D01*
X4505000Y-10305000D02*
X4475000Y-10335000D01*
X4475000Y-12115000D02*
X4505000Y-12145000D01*
X4505000Y-12115000D02*
X4475000Y-12145000D01*
X4505000Y-11295000D02*
X4535000Y-11325000D01*
X4535000Y-11295000D02*
X4505000Y-11325000D01*
X4520000Y-12375000D02*
X4550000Y-12405000D01*
X4550000Y-12375000D02*
X4520000Y-12405000D01*
X4590000Y-12030000D02*
X4620000Y-12060000D01*
X4620000Y-12030000D02*
X4590000Y-12060000D01*
X4627733Y-4528500D02*
X4657733Y-4558500D01*
X4657733Y-4528500D02*
X4627733Y-4558500D01*
X4627733Y-6122750D02*
X4657733Y-6152750D01*
X4657733Y-6122750D02*
X4627733Y-6152750D01*
X4671600Y-8990600D02*
X4701600Y-9020600D01*
X4701600Y-8990600D02*
X4671600Y-9020600D01*
X4675000Y-6375000D02*
X4705000Y-6405000D01*
X4705000Y-6375000D02*
X4675000Y-6405000D01*
X4690704Y-7899296D02*
X4720704Y-7929296D01*
X4720704Y-7899296D02*
X4690704Y-7929296D01*
X4766679Y-9662530D02*
X4796679Y-9692530D01*
X4796679Y-9662530D02*
X4766679Y-9692530D01*
X4775000Y-11385000D02*
X4805000Y-11415000D01*
X4805000Y-11385000D02*
X4775000Y-11415000D01*
X4851400Y-10865350D02*
X4881400Y-10895350D01*
X4881400Y-10865350D02*
X4851400Y-10895350D01*
X4851400Y-12459600D02*
X4881400Y-12489600D01*
X4881400Y-12459600D02*
X4851400Y-12489600D01*
X4865000Y-10605000D02*
X4895000Y-10635000D01*
X4895000Y-10605000D02*
X4865000Y-10635000D01*
X4895000Y-12010000D02*
X4925000Y-12040000D01*
X4925000Y-12010000D02*
X4895000Y-12040000D01*
X4960067Y-4528500D02*
X4990067Y-4558500D01*
X4990067Y-4528500D02*
X4960067Y-4558500D01*
X4960067Y-6122750D02*
X4990067Y-6152750D01*
X4990067Y-6122750D02*
X4960067Y-6152750D01*
X4963700Y-7936500D02*
X4993700Y-7966500D01*
X4993700Y-7936500D02*
X4963700Y-7966500D01*
X4965000Y-4935000D02*
X4995000Y-4965000D01*
X4995000Y-4935000D02*
X4965000Y-4965000D01*
X4972291Y-9457250D02*
X5002291Y-9487250D01*
X5002291Y-9457250D02*
X4972291Y-9487250D01*
X4982171Y-7817271D02*
X5012171Y-7847271D01*
X5012171Y-7817271D02*
X4982171Y-7847271D01*
X4983000Y-9140400D02*
X5013000Y-9170400D01*
X5013000Y-9140400D02*
X4983000Y-9170400D01*
X4988171Y-7644471D02*
X5018171Y-7674471D01*
X5018171Y-7644471D02*
X4988171Y-7674471D01*
X5025000Y-6375000D02*
X5055000Y-6405000D01*
X5055000Y-6375000D02*
X5025000Y-6405000D01*
X5051671Y-8139771D02*
X5081671Y-8169771D01*
X5081671Y-8139771D02*
X5051671Y-8169771D01*
X5051671Y-8419171D02*
X5081671Y-8449171D01*
X5081671Y-8419171D02*
X5051671Y-8449171D01*
X5078000Y-8990600D02*
X5108000Y-9020600D01*
X5108000Y-8990600D02*
X5078000Y-9020600D01*
X5130000Y-9957121D02*
X5160000Y-9987121D01*
X5160000Y-9957121D02*
X5130000Y-9987121D01*
X5141000Y-9816600D02*
X5171000Y-9846600D01*
X5171000Y-9816600D02*
X5141000Y-9846600D01*
X5183733Y-10865350D02*
X5213733Y-10895350D01*
X5213733Y-10865350D02*
X5183733Y-10895350D01*
X5183733Y-12459600D02*
X5213733Y-12489600D01*
X5213733Y-12459600D02*
X5183733Y-12489600D01*
X5185000Y-10605000D02*
X5215000Y-10635000D01*
X5215000Y-10605000D02*
X5185000Y-10635000D01*
X5195000Y-5810000D02*
X5225000Y-5840000D01*
X5225000Y-5810000D02*
X5195000Y-5840000D01*
X5255000Y-4235000D02*
X5285000Y-4265000D01*
X5285000Y-4235000D02*
X5255000Y-4265000D01*
X5280271Y-7733371D02*
X5310271Y-7763371D01*
X5310271Y-7733371D02*
X5280271Y-7763371D01*
X5292400Y-4528500D02*
X5322400Y-4558500D01*
X5322400Y-4528500D02*
X5292400Y-4558500D01*
X5292400Y-6122750D02*
X5322400Y-6152750D01*
X5322400Y-6122750D02*
X5292400Y-6152750D01*
X5306600Y-9270000D02*
X5336600Y-9300000D01*
X5336600Y-9270000D02*
X5306600Y-9300000D01*
X5325000Y-6375000D02*
X5355000Y-6405000D01*
X5355000Y-6375000D02*
X5325000Y-6405000D01*
X5419971Y-8139771D02*
X5449971Y-8169771D01*
X5449971Y-8139771D02*
X5419971Y-8169771D01*
X5419971Y-8419171D02*
X5449971Y-8449171D01*
X5449971Y-8419171D02*
X5419971Y-8449171D01*
X5450000Y-4860000D02*
X5480000Y-4890000D01*
X5480000Y-4860000D02*
X5450000Y-4890000D01*
X5460067Y-5316250D02*
X5490067Y-5346250D01*
X5490067Y-5316250D02*
X5460067Y-5346250D01*
X5477400Y-9473200D02*
X5507400Y-9503200D01*
X5507400Y-9473200D02*
X5477400Y-9503200D01*
X5515000Y-10605000D02*
X5545000Y-10635000D01*
X5545000Y-10605000D02*
X5515000Y-10635000D01*
X5516067Y-10865350D02*
X5546067Y-10895350D01*
X5546067Y-10865350D02*
X5516067Y-10895350D01*
X5516067Y-12459600D02*
X5546067Y-12489600D01*
X5546067Y-12459600D02*
X5516067Y-12489600D01*
X5583700Y-5466300D02*
X5613700Y-5496300D01*
X5613700Y-5466300D02*
X5583700Y-5496300D01*
X5624733Y-4528500D02*
X5654733Y-4558500D01*
X5654733Y-4528500D02*
X5624733Y-4558500D01*
X5624733Y-6122750D02*
X5654733Y-6152750D01*
X5654733Y-6122750D02*
X5624733Y-6152750D01*
X5625000Y-6375000D02*
X5655000Y-6405000D01*
X5655000Y-6375000D02*
X5625000Y-6405000D01*
X5627400Y-7317271D02*
X5657400Y-7347271D01*
X5657400Y-7317271D02*
X5627400Y-7347271D01*
X5632400Y-9177400D02*
X5662400Y-9207400D01*
X5662400Y-9177400D02*
X5632400Y-9207400D01*
X5677400Y-7665000D02*
X5707400Y-7695000D01*
X5707400Y-7665000D02*
X5677400Y-7695000D01*
X5705000Y-8660000D02*
X5735000Y-8690000D01*
X5735000Y-8660000D02*
X5705000Y-8690000D01*
X5750000Y-12155000D02*
X5780000Y-12185000D01*
X5780000Y-12155000D02*
X5750000Y-12185000D01*
X5795000Y-9835000D02*
X5825000Y-9865000D01*
X5825000Y-9835000D02*
X5795000Y-9865000D01*
X5805000Y-10605000D02*
X5835000Y-10635000D01*
X5835000Y-10605000D02*
X5805000Y-10635000D01*
X5813671Y-8139771D02*
X5843671Y-8169771D01*
X5843671Y-8139771D02*
X5813671Y-8169771D01*
X5813671Y-8419171D02*
X5843671Y-8449171D01*
X5843671Y-8419171D02*
X5813671Y-8449171D01*
X5825000Y-6410000D02*
X5855000Y-6440000D01*
X5855000Y-6410000D02*
X5825000Y-6440000D01*
X5848400Y-10865350D02*
X5878400Y-10895350D01*
X5878400Y-10865350D02*
X5848400Y-10895350D01*
X5848400Y-12459600D02*
X5878400Y-12489600D01*
X5878400Y-12459600D02*
X5848400Y-12489600D01*
X5874887Y-7265591D02*
X5904887Y-7295591D01*
X5904887Y-7265591D02*
X5874887Y-7295591D01*
X5905000Y-9835000D02*
X5935000Y-9865000D01*
X5935000Y-9835000D02*
X5905000Y-9865000D01*
X5905000Y-12730000D02*
X5935000Y-12760000D01*
X5935000Y-12730000D02*
X5905000Y-12760000D01*
X5910000Y-9055000D02*
X5940000Y-9085000D01*
X5940000Y-9055000D02*
X5910000Y-9085000D01*
X5945000Y-10355000D02*
X5975000Y-10385000D01*
X5975000Y-10355000D02*
X5945000Y-10385000D01*
X5957067Y-4528500D02*
X5987067Y-4558500D01*
X5987067Y-4528500D02*
X5957067Y-4558500D01*
X5957067Y-6122750D02*
X5987067Y-6152750D01*
X5987067Y-6122750D02*
X5957067Y-6152750D01*
X5960000Y-11220000D02*
X5990000Y-11250000D01*
X5990000Y-11220000D02*
X5960000Y-11250000D01*
X5964885Y-7264984D02*
X5994885Y-7294984D01*
X5994885Y-7264984D02*
X5964885Y-7294984D01*
X6002550Y-8565000D02*
X6032550Y-8595000D01*
X6032550Y-8565000D02*
X6002550Y-8595000D01*
X6002550Y-9473200D02*
X6032550Y-9503200D01*
X6032550Y-9473200D02*
X6002550Y-9503200D01*
X6035000Y-6375000D02*
X6065000Y-6405000D01*
X6065000Y-6375000D02*
X6035000Y-6405000D01*
X6060000Y-8139771D02*
X6090000Y-8169771D01*
X6090000Y-8139771D02*
X6060000Y-8169771D01*
X6078360Y-7634271D02*
X6108360Y-7664271D01*
X6108360Y-7634271D02*
X6078360Y-7664271D01*
X6095000Y-8760000D02*
X6125000Y-8790000D01*
X6125000Y-8760000D02*
X6095000Y-8790000D01*
X6100000Y-9045000D02*
X6130000Y-9075000D01*
X6130000Y-9045000D02*
X6100000Y-9075000D01*
X6105000Y-10605000D02*
X6135000Y-10635000D01*
X6135000Y-10605000D02*
X6105000Y-10635000D01*
X6157550Y-9460000D02*
X6187550Y-9490000D01*
X6187550Y-9460000D02*
X6157550Y-9490000D01*
X6180733Y-10865350D02*
X6210733Y-10895350D01*
X6210733Y-10865350D02*
X6180733Y-10895350D01*
X6180733Y-12459600D02*
X6210733Y-12489600D01*
X6210733Y-12459600D02*
X6180733Y-12489600D01*
X6244100Y-8084100D02*
X6274100Y-8114100D01*
X6274100Y-8084100D02*
X6244100Y-8114100D01*
X6250000Y-8235000D02*
X6280000Y-8265000D01*
X6280000Y-8235000D02*
X6250000Y-8265000D01*
X6250000Y-8430000D02*
X6280000Y-8460000D01*
X6280000Y-8430000D02*
X6250000Y-8460000D01*
X6265000Y-11135000D02*
X6295000Y-11165000D01*
X6295000Y-11135000D02*
X6265000Y-11165000D01*
X6270000Y-7945000D02*
X6300000Y-7975000D01*
X6300000Y-7945000D02*
X6270000Y-7975000D01*
X6289400Y-4528500D02*
X6319400Y-4558500D01*
X6319400Y-4528500D02*
X6289400Y-4558500D01*
X6289400Y-6122750D02*
X6319400Y-6152750D01*
X6319400Y-6122750D02*
X6289400Y-6152750D01*
X6325000Y-4960000D02*
X6355000Y-4990000D01*
X6355000Y-4960000D02*
X6325000Y-4990000D01*
X6335000Y-6375000D02*
X6365000Y-6405000D01*
X6365000Y-6375000D02*
X6335000Y-6405000D01*
X6397871Y-7885771D02*
X6427871Y-7915771D01*
X6427871Y-7885771D02*
X6397871Y-7915771D01*
X6397871Y-8330271D02*
X6427871Y-8360271D01*
X6427871Y-8330271D02*
X6397871Y-8360271D01*
X6410571Y-7733371D02*
X6440571Y-7763371D01*
X6440571Y-7733371D02*
X6410571Y-7763371D01*
X6425000Y-10605000D02*
X6455000Y-10635000D01*
X6455000Y-10605000D02*
X6425000Y-10635000D01*
X6495000Y-9355000D02*
X6525000Y-9385000D01*
X6525000Y-9355000D02*
X6495000Y-9385000D01*
X6505000Y-11125000D02*
X6535000Y-11155000D01*
X6535000Y-11125000D02*
X6505000Y-11155000D01*
X6513067Y-10865350D02*
X6543067Y-10895350D01*
X6543067Y-10865350D02*
X6513067Y-10895350D01*
X6513067Y-12459600D02*
X6543067Y-12489600D01*
X6543067Y-12459600D02*
X6513067Y-12489600D01*
X6530000Y-5815000D02*
X6560000Y-5845000D01*
X6560000Y-5815000D02*
X6530000Y-5845000D01*
X6545000Y-7929100D02*
X6575000Y-7959100D01*
X6575000Y-7929100D02*
X6545000Y-7959100D01*
X6575000Y-4235000D02*
X6605000Y-4265000D01*
X6605000Y-4235000D02*
X6575000Y-4265000D01*
X6575000Y-10435000D02*
X6605000Y-10465000D01*
X6605000Y-10435000D02*
X6575000Y-10465000D01*
X6594900Y-9800000D02*
X6624900Y-9830000D01*
X6624900Y-9800000D02*
X6594900Y-9830000D01*
X6595000Y-10135000D02*
X6625000Y-10165000D01*
X6625000Y-10135000D02*
X6595000Y-10165000D01*
X6613771Y-8520771D02*
X6643771Y-8550771D01*
X6643771Y-8520771D02*
X6613771Y-8550771D01*
X6621733Y-4528500D02*
X6651733Y-4558500D01*
X6651733Y-4528500D02*
X6621733Y-4558500D01*
X6621733Y-6122750D02*
X6651733Y-6152750D01*
X6651733Y-6122750D02*
X6621733Y-6152750D01*
X6645000Y-9205000D02*
X6675000Y-9235000D01*
X6675000Y-9205000D02*
X6645000Y-9235000D01*
X6655000Y-6375000D02*
X6685000Y-6405000D01*
X6685000Y-6375000D02*
X6655000Y-6405000D01*
X6664571Y-8419171D02*
X6694571Y-8449171D01*
X6694571Y-8419171D02*
X6664571Y-8449171D01*
X6665991Y-7617651D02*
X6695991Y-7647651D01*
X6695991Y-7617651D02*
X6665991Y-7647651D01*
X6703600Y-8965200D02*
X6733600Y-8995200D01*
X6733600Y-8965200D02*
X6703600Y-8995200D01*
X6715000Y-8315000D02*
X6745000Y-8345000D01*
X6745000Y-8315000D02*
X6715000Y-8345000D01*
X6777400Y-9485000D02*
X6807400Y-9515000D01*
X6807400Y-9485000D02*
X6777400Y-9515000D01*
X6780000Y-4890000D02*
X6810000Y-4920000D01*
X6810000Y-4890000D02*
X6780000Y-4920000D01*
X6814671Y-8659100D02*
X6844671Y-8689100D01*
X6844671Y-8659100D02*
X6814671Y-8689100D01*
X6822400Y-5316250D02*
X6852400Y-5346250D01*
X6852400Y-5316250D02*
X6822400Y-5346250D01*
X6829671Y-7631771D02*
X6859671Y-7661771D01*
X6859671Y-7631771D02*
X6829671Y-7661771D01*
X6830600Y-8083800D02*
X6860600Y-8113800D01*
X6860600Y-8083800D02*
X6830600Y-8113800D01*
X6845400Y-10865350D02*
X6875400Y-10895350D01*
X6875400Y-10865350D02*
X6845400Y-10895350D01*
X6845400Y-12459600D02*
X6875400Y-12489600D01*
X6875400Y-12459600D02*
X6845400Y-12489600D01*
X6954066Y-4528500D02*
X6984066Y-4558500D01*
X6984066Y-4528500D02*
X6954066Y-4558500D01*
X6954066Y-6122750D02*
X6984066Y-6152750D01*
X6984066Y-6122750D02*
X6954066Y-6152750D01*
X6965000Y-6375000D02*
X6995000Y-6405000D01*
X6995000Y-6375000D02*
X6965000Y-6405000D01*
X6985000Y-7255000D02*
X7015000Y-7285000D01*
X7015000Y-7255000D02*
X6985000Y-7285000D01*
X6990000Y-7095000D02*
X7020000Y-7125000D01*
X7020000Y-7095000D02*
X6990000Y-7125000D01*
X6990000Y-9625000D02*
X7020000Y-9655000D01*
X7020000Y-9625000D02*
X6990000Y-9655000D01*
X6990000Y-12100000D02*
X7020000Y-12130000D01*
X7020000Y-12100000D02*
X6990000Y-12130000D01*
X7058271Y-7555571D02*
X7088271Y-7585571D01*
X7088271Y-7555571D02*
X7058271Y-7585571D01*
X7072500Y-11197500D02*
X7102500Y-11227500D01*
X7102500Y-11197500D02*
X7072500Y-11227500D01*
X7080000Y-11360000D02*
X7110000Y-11390000D01*
X7110000Y-11360000D02*
X7080000Y-11390000D01*
X7125000Y-12755000D02*
X7155000Y-12785000D01*
X7155000Y-12755000D02*
X7125000Y-12785000D01*
X7177733Y-10865350D02*
X7207733Y-10895350D01*
X7207733Y-10865350D02*
X7177733Y-10895350D01*
X7177733Y-12459600D02*
X7207733Y-12489600D01*
X7207733Y-12459600D02*
X7177733Y-12489600D01*
X7235000Y-11200000D02*
X7265000Y-11230000D01*
X7265000Y-11200000D02*
X7235000Y-11230000D01*
X7286400Y-4528500D02*
X7316400Y-4558500D01*
X7316400Y-4528500D02*
X7286400Y-4558500D01*
X7286400Y-6122750D02*
X7316400Y-6152750D01*
X7316400Y-6122750D02*
X7286400Y-6152750D01*
X7295000Y-6375000D02*
X7325000Y-6405000D01*
X7325000Y-6375000D02*
X7295000Y-6405000D01*
X7330000Y-6925000D02*
X7360000Y-6955000D01*
X7360000Y-6925000D02*
X7330000Y-6955000D01*
X7330000Y-7080000D02*
X7360000Y-7110000D01*
X7360000Y-7080000D02*
X7330000Y-7110000D01*
X7495683Y-10945683D02*
X7525683Y-10975683D01*
X7525683Y-10945683D02*
X7495683Y-10975683D01*
X7500000Y-10605000D02*
X7530000Y-10635000D01*
X7530000Y-10605000D02*
X7500000Y-10635000D01*
X7505000Y-7245000D02*
X7535000Y-7275000D01*
X7535000Y-7245000D02*
X7505000Y-7275000D01*
X7515000Y-6785000D02*
X7545000Y-6815000D01*
X7545000Y-6785000D02*
X7515000Y-6815000D01*
X7570000Y-11390000D02*
X7600000Y-11420000D01*
X7600000Y-11390000D02*
X7570000Y-11420000D01*
X7570000Y-11580000D02*
X7600000Y-11610000D01*
X7600000Y-11580000D02*
X7570000Y-11610000D01*
X7615000Y-6375000D02*
X7645000Y-6405000D01*
X7645000Y-6375000D02*
X7615000Y-6405000D01*
X7618733Y-4528500D02*
X7648733Y-4558500D01*
X7648733Y-4528500D02*
X7618733Y-4558500D01*
X7618733Y-6122750D02*
X7648733Y-6152750D01*
X7648733Y-6122750D02*
X7618733Y-6152750D01*
X7680000Y-4945000D02*
X7710000Y-4975000D01*
X7710000Y-4945000D02*
X7680000Y-4975000D01*
X7781520Y-10918480D02*
X7811520Y-10948480D01*
X7811520Y-10918480D02*
X7781520Y-10948480D01*
X7790000Y-5810000D02*
X7820000Y-5840000D01*
X7820000Y-5810000D02*
X7790000Y-5840000D01*
X7840000Y-7370000D02*
X7870000Y-7400000D01*
X7870000Y-7370000D02*
X7840000Y-7400000D01*
X7840000Y-7550000D02*
X7870000Y-7580000D01*
X7870000Y-7550000D02*
X7840000Y-7580000D01*
X7855000Y-12285000D02*
X7885000Y-12315000D01*
X7885000Y-12285000D02*
X7855000Y-12315000D01*
X7900000Y-4825000D02*
X7930000Y-4855000D01*
X7930000Y-4825000D02*
X7900000Y-4855000D01*
X7900000Y-5455000D02*
X7930000Y-5485000D01*
X7930000Y-5455000D02*
X7900000Y-5485000D01*
X7980000Y-11190000D02*
X8010000Y-11220000D01*
X8010000Y-11190000D02*
X7980000Y-11220000D01*
X7990000Y-8175000D02*
X8020000Y-8205000D01*
X8020000Y-8175000D02*
X7990000Y-8205000D01*
X7995000Y-8935000D02*
X8025000Y-8965000D01*
X8025000Y-8935000D02*
X7995000Y-8965000D01*
X8000000Y-4528500D02*
X8030000Y-4558500D01*
X8030000Y-4528500D02*
X8000000Y-4558500D01*
X8000000Y-7100000D02*
X8030000Y-7130000D01*
X8030000Y-7100000D02*
X8000000Y-7130000D01*
X8000000Y-7850000D02*
X8030000Y-7880000D01*
X8030000Y-7850000D02*
X8000000Y-7880000D01*
X8005000Y-7370000D02*
X8035000Y-7400000D01*
X8035000Y-7370000D02*
X8005000Y-7400000D01*
X8005000Y-7550000D02*
X8035000Y-7580000D01*
X8035000Y-7550000D02*
X8005000Y-7580000D01*
X8015000Y-9310000D02*
X8045000Y-9340000D01*
X8045000Y-9310000D02*
X8015000Y-9340000D01*
X8035000Y-12090000D02*
X8065000Y-12120000D01*
X8065000Y-12090000D02*
X8035000Y-12120000D01*
X8070000Y-12855000D02*
X8100000Y-12885000D01*
X8100000Y-12855000D02*
X8070000Y-12885000D01*
X8100000Y-4825000D02*
X8130000Y-4855000D01*
X8130000Y-4825000D02*
X8100000Y-4855000D01*
X8100000Y-5455000D02*
X8130000Y-5485000D01*
X8130000Y-5455000D02*
X8100000Y-5485000D01*
X8130000Y-5905000D02*
X8160000Y-5935000D01*
X8160000Y-5905000D02*
X8130000Y-5935000D01*
X8130000Y-6290000D02*
X8160000Y-6320000D01*
X8160000Y-6290000D02*
X8130000Y-6320000D01*
X8130000Y-6675000D02*
X8160000Y-6705000D01*
X8160000Y-6675000D02*
X8130000Y-6705000D01*
X8147500Y-11482500D02*
X8177500Y-11512500D01*
X8177500Y-11482500D02*
X8147500Y-11512500D01*
X8160000Y-11130000D02*
X8190000Y-11160000D01*
X8190000Y-11130000D02*
X8160000Y-11160000D01*
X8170000Y-4355000D02*
X8200000Y-4385000D01*
X8200000Y-4355000D02*
X8170000Y-4385000D01*
X8190000Y-10883500D02*
X8220000Y-10913500D01*
X8220000Y-10883500D02*
X8190000Y-10913500D01*
X8221959Y-10761500D02*
X8251959Y-10791500D01*
X8251959Y-10761500D02*
X8221959Y-10791500D01*
X8225000Y-11890000D02*
X8255000Y-11920000D01*
X8255000Y-11890000D02*
X8225000Y-11920000D01*
X8310000Y-4490000D02*
X8340000Y-4520000D01*
X8340000Y-4490000D02*
X8310000Y-4520000D01*
X8320833Y-12855000D02*
X8350833Y-12885000D01*
X8350833Y-12855000D02*
X8320833Y-12885000D01*
X8335000Y-5905000D02*
X8365000Y-5935000D01*
X8365000Y-5905000D02*
X8335000Y-5935000D01*
X8335000Y-6295000D02*
X8365000Y-6325000D01*
X8365000Y-6295000D02*
X8335000Y-6325000D01*
X8335000Y-6675000D02*
X8365000Y-6705000D01*
X8365000Y-6675000D02*
X8335000Y-6705000D01*
X8355000Y-10538500D02*
X8385000Y-10568500D01*
X8385000Y-10538500D02*
X8355000Y-10568500D01*
X8425000Y-7900000D02*
X8455000Y-7930000D01*
X8455000Y-7900000D02*
X8425000Y-7930000D01*
X8425000Y-9005000D02*
X8455000Y-9035000D01*
X8455000Y-9005000D02*
X8425000Y-9035000D01*
X8525000Y-11495000D02*
X8555000Y-11525000D01*
X8555000Y-11495000D02*
X8525000Y-11525000D01*
X8565000Y-10895000D02*
X8595000Y-10925000D01*
X8595000Y-10895000D02*
X8565000Y-10925000D01*
X8571667Y-12855000D02*
X8601667Y-12885000D01*
X8601667Y-12855000D02*
X8571667Y-12885000D01*
X8690000Y-11495000D02*
X8720000Y-11525000D01*
X8720000Y-11495000D02*
X8690000Y-11525000D01*
X8822500Y-11965000D02*
X8852500Y-11995000D01*
X8852500Y-11965000D02*
X8822500Y-11995000D01*
X8822500Y-12855000D02*
X8852500Y-12885000D01*
X8852500Y-12855000D02*
X8822500Y-12885000D01*
X9065000Y-11475000D02*
X9095000Y-11505000D01*
X9095000Y-11475000D02*
X9065000Y-11505000D01*
X9065000Y-11700000D02*
X9095000Y-11730000D01*
X9095000Y-11700000D02*
X9065000Y-11730000D01*
X9073333Y-11965000D02*
X9103333Y-11995000D01*
X9103333Y-11965000D02*
X9073333Y-11995000D01*
X9073333Y-12855000D02*
X9103333Y-12885000D01*
X9103333Y-12855000D02*
X9073333Y-12885000D01*
X9324167Y-11965000D02*
X9354167Y-11995000D01*
X9354167Y-11965000D02*
X9324167Y-11995000D01*
X9324167Y-12855000D02*
X9354167Y-12885000D01*
X9354167Y-12855000D02*
X9324167Y-12885000D01*
X9475000Y-8015000D02*
X9505000Y-8045000D01*
X9505000Y-8015000D02*
X9475000Y-8045000D01*
X9480000Y-10630000D02*
X9510000Y-10660000D01*
X9510000Y-10630000D02*
X9480000Y-10660000D01*
X9480000Y-10870000D02*
X9510000Y-10900000D01*
X9510000Y-10870000D02*
X9480000Y-10900000D01*
X9485000Y-8615000D02*
X9515000Y-8645000D01*
X9515000Y-8615000D02*
X9485000Y-8645000D01*
X9575000Y-11965000D02*
X9605000Y-11995000D01*
X9605000Y-11965000D02*
X9575000Y-11995000D01*
X9575000Y-12855000D02*
X9605000Y-12885000D01*
X9605000Y-12855000D02*
X9575000Y-12885000D01*
X9640000Y-8910000D02*
X9670000Y-8940000D01*
X9670000Y-8910000D02*
X9640000Y-8940000D01*
X9655000Y-7745000D02*
X9685000Y-7775000D01*
X9685000Y-7745000D02*
X9655000Y-7775000D01*
X9810000Y-8280000D02*
X9840000Y-8310000D01*
X9840000Y-8280000D02*
X9810000Y-8310000D01*
X9845000Y-7520000D02*
X9875000Y-7550000D01*
X9875000Y-7520000D02*
X9845000Y-7550000D01*
X9900000Y-9160000D02*
X9930000Y-9190000D01*
X9930000Y-9160000D02*
X9900000Y-9190000D01*
X9955000Y-5790000D02*
X9985000Y-5820000D01*
X9985000Y-5790000D02*
X9955000Y-5820000D01*
X9955000Y-5960000D02*
X9985000Y-5990000D01*
X9985000Y-5960000D02*
X9955000Y-5990000D01*
X10140000Y-6495000D02*
X10170000Y-6525000D01*
X10170000Y-6495000D02*
X10140000Y-6525000D01*
X10255000Y-8310000D02*
X10285000Y-8340000D01*
X10285000Y-8310000D02*
X10255000Y-8340000D01*
X10260784Y-7667500D02*
X10290784Y-7697500D01*
X10290784Y-7667500D02*
X10260784Y-7697500D01*
X10295000Y-9625000D02*
X10325000Y-9655000D01*
X10325000Y-9625000D02*
X10295000Y-9655000D01*
X10295000Y-9865000D02*
X10325000Y-9895000D01*
X10325000Y-9865000D02*
X10295000Y-9895000D01*
X10295000Y-10105000D02*
X10325000Y-10135000D01*
X10325000Y-10105000D02*
X10295000Y-10135000D01*
X10295000Y-10345000D02*
X10325000Y-10375000D01*
X10325000Y-10345000D02*
X10295000Y-10375000D01*
X10295000Y-10635000D02*
X10325000Y-10665000D01*
X10325000Y-10635000D02*
X10295000Y-10665000D01*
X10295000Y-10890000D02*
X10325000Y-10920000D01*
X10325000Y-10890000D02*
X10295000Y-10920000D01*
X10305000Y-6637000D02*
X10335000Y-6667000D01*
X10335000Y-6637000D02*
X10305000Y-6667000D01*
X10310000Y-8560000D02*
X10340000Y-8590000D01*
X10340000Y-8560000D02*
X10310000Y-8590000D01*
X10330000Y-9160000D02*
X10360000Y-9190000D01*
X10360000Y-9160000D02*
X10330000Y-9190000D01*
X10335000Y-9000000D02*
X10365000Y-9030000D01*
X10365000Y-9000000D02*
X10335000Y-9030000D01*
X10352500Y-6812500D02*
X10382500Y-6842500D01*
X10382500Y-6812500D02*
X10352500Y-6842500D01*
X10396000Y-5859000D02*
X10426000Y-5889000D01*
X10426000Y-5859000D02*
X10396000Y-5889000D01*
X10400000Y-5630000D02*
X10430000Y-5660000D01*
X10430000Y-5630000D02*
X10400000Y-5660000D01*
X10465000Y-8535000D02*
X10495000Y-8565000D01*
X10495000Y-8535000D02*
X10465000Y-8565000D01*
X10490000Y-9625000D02*
X10520000Y-9655000D01*
X10520000Y-9625000D02*
X10490000Y-9655000D01*
X10490000Y-9865000D02*
X10520000Y-9895000D01*
X10520000Y-9865000D02*
X10490000Y-9895000D01*
X10535000Y-10450000D02*
X10565000Y-10480000D01*
X10565000Y-10450000D02*
X10535000Y-10480000D01*
X10605000Y-8910000D02*
X10635000Y-8940000D01*
X10635000Y-8910000D02*
X10605000Y-8940000D01*
X10608131Y-8999946D02*
X10638131Y-9029946D01*
X10638131Y-8999946D02*
X10608131Y-9029946D01*
X10610000Y-7640000D02*
X10640000Y-7670000D01*
X10640000Y-7640000D02*
X10610000Y-7670000D01*
X10676169Y-9209454D02*
X10706169Y-9239454D01*
X10706169Y-9209454D02*
X10676169Y-9239454D01*
X10707500Y-10932500D02*
X10737500Y-10962500D01*
X10737500Y-10932500D02*
X10707500Y-10962500D01*
X10720000Y-6390000D02*
X10750000Y-6420000D01*
X10750000Y-6390000D02*
X10720000Y-6420000D01*
X10720000Y-10685000D02*
X10750000Y-10715000D01*
X10750000Y-10685000D02*
X10720000Y-10715000D01*
X10750000Y-8470000D02*
X10780000Y-8500000D01*
X10780000Y-8470000D02*
X10750000Y-8500000D01*
X10765000Y-10230000D02*
X10795000Y-10260000D01*
X10795000Y-10230000D02*
X10765000Y-10260000D01*
X10785000Y-7770000D02*
X10815000Y-7800000D01*
X10815000Y-7770000D02*
X10785000Y-7800000D01*
X10863532Y-8881250D02*
X10893532Y-8911250D01*
X10893532Y-8881250D02*
X10863532Y-8911250D01*
X10870000Y-8636250D02*
X10900000Y-8666250D01*
X10900000Y-8636250D02*
X10870000Y-8666250D01*
X10870000Y-9113327D02*
X10900000Y-9143327D01*
X10900000Y-9113327D02*
X10870000Y-9143327D01*
X10915000Y-7770000D02*
X10945000Y-7800000D01*
X10945000Y-7770000D02*
X10915000Y-7800000D01*
X10965000Y-10675000D02*
X10995000Y-10705000D01*
X10995000Y-10675000D02*
X10965000Y-10705000D01*
X11045000Y-7770000D02*
X11075000Y-7800000D01*
X11075000Y-7770000D02*
X11045000Y-7800000D01*
X11140000Y-7995000D02*
X11170000Y-8025000D01*
X11170000Y-7995000D02*
X11140000Y-8025000D01*
X11145000Y-9385000D02*
X11175000Y-9415000D01*
X11175000Y-9385000D02*
X11145000Y-9415000D01*
X11155431Y-9134875D02*
X11185431Y-9164875D01*
X11185431Y-9134875D02*
X11155431Y-9164875D01*
X11195000Y-8645000D02*
X11225000Y-8675000D01*
X11225000Y-8645000D02*
X11195000Y-8675000D01*
X11205000Y-9845000D02*
X11235000Y-9875000D01*
X11235000Y-9845000D02*
X11205000Y-9875000D01*
X11260000Y-10335000D02*
X11290000Y-10365000D01*
X11290000Y-10335000D02*
X11260000Y-10365000D01*
X11260000Y-10590000D02*
X11290000Y-10620000D01*
X11290000Y-10590000D02*
X11260000Y-10620000D01*
X11285000Y-7995000D02*
X11315000Y-8025000D01*
X11315000Y-7995000D02*
X11285000Y-8025000D01*
X11340000Y-6910000D02*
X11370000Y-6940000D01*
X11370000Y-6910000D02*
X11340000Y-6940000D01*
X11360000Y-8965000D02*
X11390000Y-8995000D01*
X11390000Y-8965000D02*
X11360000Y-8995000D01*
X11360000Y-9125000D02*
X11390000Y-9155000D01*
X11390000Y-9125000D02*
X11360000Y-9155000D01*
X11445000Y-8445000D02*
X11475000Y-8475000D01*
X11475000Y-8445000D02*
X11445000Y-8475000D01*
X11450000Y-9845000D02*
X11480000Y-9875000D01*
X11480000Y-9845000D02*
X11450000Y-9875000D01*
X11450000Y-10030000D02*
X11480000Y-10060000D01*
X11480000Y-10030000D02*
X11450000Y-10060000D01*
X11455000Y-9495000D02*
X11485000Y-9525000D01*
X11485000Y-9495000D02*
X11455000Y-9525000D01*
X11529375Y-7970000D02*
X11559375Y-8000000D01*
X11559375Y-7970000D02*
X11529375Y-8000000D01*
X11530000Y-7710000D02*
X11560000Y-7740000D01*
X11560000Y-7710000D02*
X11530000Y-7740000D01*
X11550000Y-9160000D02*
X11580000Y-9190000D01*
X11580000Y-9160000D02*
X11550000Y-9190000D01*
X11620000Y-9670000D02*
X11650000Y-9700000D01*
X11650000Y-9670000D02*
X11620000Y-9700000D01*
X11725000Y-9225000D02*
X11755000Y-9255000D01*
X11755000Y-9225000D02*
X11725000Y-9255000D01*
X11735625Y-8080000D02*
X11765625Y-8110000D01*
X11765625Y-8080000D02*
X11735625Y-8110000D01*
X11900000Y-9395000D02*
X11930000Y-9425000D01*
X11930000Y-9395000D02*
X11900000Y-9425000D01*
X11920000Y-8375000D02*
X11950000Y-8405000D01*
X11950000Y-8375000D02*
X11920000Y-8405000D01*
X11945000Y-8685000D02*
X11975000Y-8715000D01*
X11975000Y-8685000D02*
X11945000Y-8715000D01*
X11950000Y-6915000D02*
X11980000Y-6945000D01*
X11980000Y-6915000D02*
X11950000Y-6945000D01*
X11045000Y-8796250D02*
G75*
G02*
X11015000Y-8796250I-15000J0D01*
G01*
X11015000Y-8796250D02*
G75*
G02*
X11045000Y-8796250I15000J0D01*
G01*
X11045000Y-8896250D02*
G75*
G02*
X11015000Y-8896250I-15000J0D01*
G01*
X11015000Y-8896250D02*
G75*
G02*
X11045000Y-8896250I15000J0D01*
G01*
X11045000Y-8996250D02*
G75*
G02*
X11015000Y-8996250I-15000J0D01*
G01*
X11015000Y-8996250D02*
G75*
G02*
X11045000Y-8996250I15000J0D01*
G01*
X11145000Y-8796250D02*
G75*
G02*
X11115000Y-8796250I-15000J0D01*
G01*
X11115000Y-8796250D02*
G75*
G02*
X11145000Y-8796250I15000J0D01*
G01*
X11145000Y-8896250D02*
G75*
G02*
X11115000Y-8896250I-15000J0D01*
G01*
X11115000Y-8896250D02*
G75*
G02*
X11145000Y-8896250I15000J0D01*
G01*
X11145000Y-8996250D02*
G75*
G02*
X11115000Y-8996250I-15000J0D01*
G01*
X11115000Y-8996250D02*
G75*
G02*
X11145000Y-8996250I15000J0D01*
G01*
X11245000Y-8796250D02*
G75*
G02*
X11215000Y-8796250I-15000J0D01*
G01*
X11215000Y-8796250D02*
G75*
G02*
X11245000Y-8796250I15000J0D01*
G01*
X11245000Y-8896250D02*
G75*
G02*
X11215000Y-8896250I-15000J0D01*
G01*
X11215000Y-8896250D02*
G75*
G02*
X11245000Y-8896250I15000J0D01*
G01*
X11245000Y-8996250D02*
G75*
G02*
X11215000Y-8996250I-15000J0D01*
G01*
X11215000Y-8996250D02*
G75*
G02*
X11245000Y-8996250I15000J0D01*
G01*
X11630000Y-9902500D02*
X11630000Y-9967500D01*
X11597500Y-9935000D02*
X11662500Y-9935000D01*
X11650000Y-9902500D02*
X11610000Y-9902500D01*
X11610000Y-9967500D02*
G75*
G02*
X11610000Y-9902500I0J32500D01*
G01*
X11610000Y-9967500D02*
X11650000Y-9967500D01*
X11650000Y-9967500D02*
G75*
G03*
X11650000Y-9902500I0J32500D01*
G01*
X11630000Y-10386500D02*
X11630000Y-10451500D01*
X11597500Y-10419000D02*
X11662500Y-10419000D01*
X11650000Y-10386500D02*
X11610000Y-10386500D01*
X11610000Y-10451500D02*
G75*
G02*
X11610000Y-10386500I0J32500D01*
G01*
X11610000Y-10451500D02*
X11650000Y-10451500D01*
X11650000Y-10451500D02*
G75*
G03*
X11650000Y-10386500I0J32500D01*
G01*
X11954749Y-9928749D02*
X11954749Y-9879251D01*
X11905251Y-9879251D01*
X11905251Y-9928749D01*
X11954749Y-9928749D01*
X11955000Y-9869000D02*
X11905000Y-9869000D01*
X11905000Y-9939000D02*
G75*
G02*
X11905000Y-9869000I0J35000D01*
G01*
X11905000Y-9939000D02*
X11955000Y-9939000D01*
X11955000Y-9939000D02*
G75*
G03*
X11955000Y-9869000I0J35000D01*
G01*
X11954749Y-10474749D02*
X11954749Y-10425251D01*
X11905251Y-10425251D01*
X11905251Y-10474749D01*
X11954749Y-10474749D01*
X11955000Y-10415000D02*
X11905000Y-10415000D01*
X11905000Y-10485000D02*
G75*
G02*
X11905000Y-10415000I0J35000D01*
G01*
X11905000Y-10485000D02*
X11955000Y-10485000D01*
X11955000Y-10485000D02*
G75*
G03*
X11955000Y-10415000I0J35000D01*
G01*
X8985000Y-3850000D02*
X9025000Y-3810000D01*
X8985000Y-3770000D01*
X8945000Y-3810000D01*
X8985000Y-3850000D01*
X8985000Y-4100000D02*
X9025000Y-4060000D01*
X8985000Y-4020000D01*
X8945000Y-4060000D01*
X8985000Y-4100000D01*
X2648700Y-6491800D02*
X2748700Y-6591800D01*
X2748700Y-6491800D02*
X2648700Y-6591800D01*
X2748700Y-6541800D02*
G75*
G02*
X2648700Y-6541800I-50000J0D01*
G01*
X2648700Y-6541800D02*
G75*
G02*
X2748700Y-6541800I50000J0D01*
G01*
X2648700Y-6745800D02*
X2748700Y-6845800D01*
X2748700Y-6745800D02*
X2648700Y-6845800D01*
X2748700Y-6795800D02*
G75*
G02*
X2648700Y-6795800I-50000J0D01*
G01*
X2648700Y-6795800D02*
G75*
G02*
X2748700Y-6795800I50000J0D01*
G01*
X2648700Y-6999800D02*
X2748700Y-7099800D01*
X2748700Y-6999800D02*
X2648700Y-7099800D01*
X2748700Y-7049800D02*
G75*
G02*
X2648700Y-7049800I-50000J0D01*
G01*
X2648700Y-7049800D02*
G75*
G02*
X2748700Y-7049800I50000J0D01*
G01*
X2648700Y-7253800D02*
X2748700Y-7353800D01*
X2748700Y-7253800D02*
X2648700Y-7353800D01*
X2748700Y-7303800D02*
G75*
G02*
X2648700Y-7303800I-50000J0D01*
G01*
X2648700Y-7303800D02*
G75*
G02*
X2748700Y-7303800I50000J0D01*
G01*
X2648700Y-7507800D02*
X2748700Y-7607800D01*
X2748700Y-7507800D02*
X2648700Y-7607800D01*
X2748700Y-7557800D02*
G75*
G02*
X2648700Y-7557800I-50000J0D01*
G01*
X2648700Y-7557800D02*
G75*
G02*
X2748700Y-7557800I50000J0D01*
G01*
X2648700Y-8015800D02*
X2748700Y-8115800D01*
X2748700Y-8015800D02*
X2648700Y-8115800D01*
X2748700Y-8065800D02*
G75*
G02*
X2648700Y-8065800I-50000J0D01*
G01*
X2648700Y-8065800D02*
G75*
G02*
X2748700Y-8065800I50000J0D01*
G01*
X2648700Y-8269800D02*
X2748700Y-8369800D01*
X2748700Y-8269800D02*
X2648700Y-8369800D01*
X2748700Y-8319800D02*
G75*
G02*
X2648700Y-8319800I-50000J0D01*
G01*
X2648700Y-8319800D02*
G75*
G02*
X2748700Y-8319800I50000J0D01*
G01*
X2648700Y-8523800D02*
X2748700Y-8623800D01*
X2748700Y-8523800D02*
X2648700Y-8623800D01*
X2748700Y-8573800D02*
G75*
G02*
X2648700Y-8573800I-50000J0D01*
G01*
X2648700Y-8573800D02*
G75*
G02*
X2748700Y-8573800I50000J0D01*
G01*
X2648700Y-8777800D02*
X2748700Y-8877800D01*
X2748700Y-8777800D02*
X2648700Y-8877800D01*
X2748700Y-8827800D02*
G75*
G02*
X2648700Y-8827800I-50000J0D01*
G01*
X2648700Y-8827800D02*
G75*
G02*
X2748700Y-8827800I50000J0D01*
G01*
X2648700Y-9031800D02*
X2748700Y-9131800D01*
X2748700Y-9031800D02*
X2648700Y-9131800D01*
X2748700Y-9081800D02*
G75*
G02*
X2648700Y-9081800I-50000J0D01*
G01*
X2648700Y-9081800D02*
G75*
G02*
X2748700Y-9081800I50000J0D01*
G01*
X2648700Y-9539800D02*
X2748700Y-9639800D01*
X2748700Y-9539800D02*
X2648700Y-9639800D01*
X2748700Y-9589800D02*
G75*
G02*
X2648700Y-9589800I-50000J0D01*
G01*
X2648700Y-9589800D02*
G75*
G02*
X2748700Y-9589800I50000J0D01*
G01*
X2648700Y-9793800D02*
X2748700Y-9893800D01*
X2748700Y-9793800D02*
X2648700Y-9893800D01*
X2748700Y-9843800D02*
G75*
G02*
X2648700Y-9843800I-50000J0D01*
G01*
X2648700Y-9843800D02*
G75*
G02*
X2748700Y-9843800I50000J0D01*
G01*
X2648700Y-10047800D02*
X2748700Y-10147800D01*
X2748700Y-10047800D02*
X2648700Y-10147800D01*
X2748700Y-10097800D02*
G75*
G02*
X2648700Y-10097800I-50000J0D01*
G01*
X2648700Y-10097800D02*
G75*
G02*
X2748700Y-10097800I50000J0D01*
G01*
X2648700Y-10301800D02*
X2748700Y-10401800D01*
X2748700Y-10301800D02*
X2648700Y-10401800D01*
X2748700Y-10351800D02*
G75*
G02*
X2648700Y-10351800I-50000J0D01*
G01*
X2648700Y-10351800D02*
G75*
G02*
X2748700Y-10351800I50000J0D01*
G01*
X2648700Y-10555800D02*
X2748700Y-10655800D01*
X2748700Y-10555800D02*
X2648700Y-10655800D01*
X2748700Y-10605800D02*
G75*
G02*
X2648700Y-10605800I-50000J0D01*
G01*
X2648700Y-10605800D02*
G75*
G02*
X2748700Y-10605800I50000J0D01*
G01*
X2648700Y-11731000D02*
X2748700Y-11831000D01*
X2748700Y-11731000D02*
X2648700Y-11831000D01*
X2748700Y-11781000D02*
G75*
G02*
X2648700Y-11781000I-50000J0D01*
G01*
X2648700Y-11781000D02*
G75*
G02*
X2748700Y-11781000I50000J0D01*
G01*
X2648700Y-11985000D02*
X2748700Y-12085000D01*
X2748700Y-11985000D02*
X2648700Y-12085000D01*
X2748700Y-12035000D02*
G75*
G02*
X2648700Y-12035000I-50000J0D01*
G01*
X2648700Y-12035000D02*
G75*
G02*
X2748700Y-12035000I50000J0D01*
G01*
X2648700Y-12239000D02*
X2748700Y-12339000D01*
X2748700Y-12239000D02*
X2648700Y-12339000D01*
X2748700Y-12289000D02*
G75*
G02*
X2648700Y-12289000I-50000J0D01*
G01*
X2648700Y-12289000D02*
G75*
G02*
X2748700Y-12289000I50000J0D01*
G01*
X2902700Y-6491800D02*
X3002700Y-6591800D01*
X3002700Y-6491800D02*
X2902700Y-6591800D01*
X3002700Y-6541800D02*
G75*
G02*
X2902700Y-6541800I-50000J0D01*
G01*
X2902700Y-6541800D02*
G75*
G02*
X3002700Y-6541800I50000J0D01*
G01*
X2902700Y-6745800D02*
X3002700Y-6845800D01*
X3002700Y-6745800D02*
X2902700Y-6845800D01*
X3002700Y-6795800D02*
G75*
G02*
X2902700Y-6795800I-50000J0D01*
G01*
X2902700Y-6795800D02*
G75*
G02*
X3002700Y-6795800I50000J0D01*
G01*
X2902700Y-6999800D02*
X3002700Y-7099800D01*
X3002700Y-6999800D02*
X2902700Y-7099800D01*
X3002700Y-7049800D02*
G75*
G02*
X2902700Y-7049800I-50000J0D01*
G01*
X2902700Y-7049800D02*
G75*
G02*
X3002700Y-7049800I50000J0D01*
G01*
X2902700Y-7253800D02*
X3002700Y-7353800D01*
X3002700Y-7253800D02*
X2902700Y-7353800D01*
X3002700Y-7303800D02*
G75*
G02*
X2902700Y-7303800I-50000J0D01*
G01*
X2902700Y-7303800D02*
G75*
G02*
X3002700Y-7303800I50000J0D01*
G01*
X2902700Y-7507800D02*
X3002700Y-7607800D01*
X3002700Y-7507800D02*
X2902700Y-7607800D01*
X3002700Y-7557800D02*
G75*
G02*
X2902700Y-7557800I-50000J0D01*
G01*
X2902700Y-7557800D02*
G75*
G02*
X3002700Y-7557800I50000J0D01*
G01*
X2902700Y-8015800D02*
X3002700Y-8115800D01*
X3002700Y-8015800D02*
X2902700Y-8115800D01*
X3002700Y-8065800D02*
G75*
G02*
X2902700Y-8065800I-50000J0D01*
G01*
X2902700Y-8065800D02*
G75*
G02*
X3002700Y-8065800I50000J0D01*
G01*
X2902700Y-8269800D02*
X3002700Y-8369800D01*
X3002700Y-8269800D02*
X2902700Y-8369800D01*
X3002700Y-8319800D02*
G75*
G02*
X2902700Y-8319800I-50000J0D01*
G01*
X2902700Y-8319800D02*
G75*
G02*
X3002700Y-8319800I50000J0D01*
G01*
X2902700Y-8523800D02*
X3002700Y-8623800D01*
X3002700Y-8523800D02*
X2902700Y-8623800D01*
X3002700Y-8573800D02*
G75*
G02*
X2902700Y-8573800I-50000J0D01*
G01*
X2902700Y-8573800D02*
G75*
G02*
X3002700Y-8573800I50000J0D01*
G01*
X2902700Y-8777800D02*
X3002700Y-8877800D01*
X3002700Y-8777800D02*
X2902700Y-8877800D01*
X3002700Y-8827800D02*
G75*
G02*
X2902700Y-8827800I-50000J0D01*
G01*
X2902700Y-8827800D02*
G75*
G02*
X3002700Y-8827800I50000J0D01*
G01*
X2902700Y-9031800D02*
X3002700Y-9131800D01*
X3002700Y-9031800D02*
X2902700Y-9131800D01*
X3002700Y-9081800D02*
G75*
G02*
X2902700Y-9081800I-50000J0D01*
G01*
X2902700Y-9081800D02*
G75*
G02*
X3002700Y-9081800I50000J0D01*
G01*
X2902700Y-9539800D02*
X3002700Y-9639800D01*
X3002700Y-9539800D02*
X2902700Y-9639800D01*
X3002700Y-9589800D02*
G75*
G02*
X2902700Y-9589800I-50000J0D01*
G01*
X2902700Y-9589800D02*
G75*
G02*
X3002700Y-9589800I50000J0D01*
G01*
X2902700Y-9793800D02*
X3002700Y-9893800D01*
X3002700Y-9793800D02*
X2902700Y-9893800D01*
X3002700Y-9843800D02*
G75*
G02*
X2902700Y-9843800I-50000J0D01*
G01*
X2902700Y-9843800D02*
G75*
G02*
X3002700Y-9843800I50000J0D01*
G01*
X2902700Y-10047800D02*
X3002700Y-10147800D01*
X3002700Y-10047800D02*
X2902700Y-10147800D01*
X3002700Y-10097800D02*
G75*
G02*
X2902700Y-10097800I-50000J0D01*
G01*
X2902700Y-10097800D02*
G75*
G02*
X3002700Y-10097800I50000J0D01*
G01*
X2902700Y-10301800D02*
X3002700Y-10401800D01*
X3002700Y-10301800D02*
X2902700Y-10401800D01*
X3002700Y-10351800D02*
G75*
G02*
X2902700Y-10351800I-50000J0D01*
G01*
X2902700Y-10351800D02*
G75*
G02*
X3002700Y-10351800I50000J0D01*
G01*
X2902700Y-10555800D02*
X3002700Y-10655800D01*
X3002700Y-10555800D02*
X2902700Y-10655800D01*
X3002700Y-10605800D02*
G75*
G02*
X2902700Y-10605800I-50000J0D01*
G01*
X2902700Y-10605800D02*
G75*
G02*
X3002700Y-10605800I50000J0D01*
G01*
X2902700Y-11731000D02*
X3002700Y-11831000D01*
X3002700Y-11731000D02*
X2902700Y-11831000D01*
X3002700Y-11781000D02*
G75*
G02*
X2902700Y-11781000I-50000J0D01*
G01*
X2902700Y-11781000D02*
G75*
G02*
X3002700Y-11781000I50000J0D01*
G01*
X2902700Y-11985000D02*
X3002700Y-12085000D01*
X3002700Y-11985000D02*
X2902700Y-12085000D01*
X3002700Y-12035000D02*
G75*
G02*
X2902700Y-12035000I-50000J0D01*
G01*
X2902700Y-12035000D02*
G75*
G02*
X3002700Y-12035000I50000J0D01*
G01*
X2902700Y-12239000D02*
X3002700Y-12339000D01*
X3002700Y-12239000D02*
X2902700Y-12339000D01*
X3002700Y-12289000D02*
G75*
G02*
X2902700Y-12289000I-50000J0D01*
G01*
X2902700Y-12289000D02*
G75*
G02*
X3002700Y-12289000I50000J0D01*
G01*
X4128067Y-3829500D02*
X4228067Y-3929500D01*
X4228067Y-3829500D02*
X4128067Y-3929500D01*
X4228067Y-3879500D02*
G75*
G02*
X4128067Y-3879500I-50000J0D01*
G01*
X4128067Y-3879500D02*
G75*
G02*
X4228067Y-3879500I50000J0D01*
G01*
X4128067Y-4083500D02*
X4228067Y-4183500D01*
X4228067Y-4083500D02*
X4128067Y-4183500D01*
X4228067Y-4133500D02*
G75*
G02*
X4128067Y-4133500I-50000J0D01*
G01*
X4128067Y-4133500D02*
G75*
G02*
X4228067Y-4133500I50000J0D01*
G01*
X4382067Y-3829500D02*
X4482067Y-3929500D01*
X4482067Y-3829500D02*
X4382067Y-3929500D01*
X4482067Y-3879500D02*
G75*
G02*
X4382067Y-3879500I-50000J0D01*
G01*
X4382067Y-3879500D02*
G75*
G02*
X4482067Y-3879500I50000J0D01*
G01*
X4382067Y-4083500D02*
X4482067Y-4183500D01*
X4482067Y-4083500D02*
X4382067Y-4183500D01*
X4482067Y-4133500D02*
G75*
G02*
X4382067Y-4133500I-50000J0D01*
G01*
X4382067Y-4133500D02*
G75*
G02*
X4482067Y-4133500I50000J0D01*
G01*
X4636067Y-3829500D02*
X4736067Y-3929500D01*
X4736067Y-3829500D02*
X4636067Y-3929500D01*
X4736067Y-3879500D02*
G75*
G02*
X4636067Y-3879500I-50000J0D01*
G01*
X4636067Y-3879500D02*
G75*
G02*
X4736067Y-3879500I50000J0D01*
G01*
X4636067Y-4083500D02*
X4736067Y-4183500D01*
X4736067Y-4083500D02*
X4636067Y-4183500D01*
X4736067Y-4133500D02*
G75*
G02*
X4636067Y-4133500I-50000J0D01*
G01*
X4636067Y-4133500D02*
G75*
G02*
X4736067Y-4133500I50000J0D01*
G01*
X4886400Y-12834600D02*
X4986400Y-12934600D01*
X4986400Y-12834600D02*
X4886400Y-12934600D01*
X4986400Y-12884600D02*
G75*
G02*
X4886400Y-12884600I-50000J0D01*
G01*
X4886400Y-12884600D02*
G75*
G02*
X4986400Y-12884600I50000J0D01*
G01*
X4886400Y-13088600D02*
X4986400Y-13188600D01*
X4986400Y-13088600D02*
X4886400Y-13188600D01*
X4986400Y-13138600D02*
G75*
G02*
X4886400Y-13138600I-50000J0D01*
G01*
X4886400Y-13138600D02*
G75*
G02*
X4986400Y-13138600I50000J0D01*
G01*
X4890067Y-3829500D02*
X4990067Y-3929500D01*
X4990067Y-3829500D02*
X4890067Y-3929500D01*
X4990067Y-3879500D02*
G75*
G02*
X4890067Y-3879500I-50000J0D01*
G01*
X4890067Y-3879500D02*
G75*
G02*
X4990067Y-3879500I50000J0D01*
G01*
X4890067Y-4083500D02*
X4990067Y-4183500D01*
X4990067Y-4083500D02*
X4890067Y-4183500D01*
X4990067Y-4133500D02*
G75*
G02*
X4890067Y-4133500I-50000J0D01*
G01*
X4890067Y-4133500D02*
G75*
G02*
X4990067Y-4133500I50000J0D01*
G01*
X5140400Y-12834600D02*
X5240400Y-12934600D01*
X5240400Y-12834600D02*
X5140400Y-12934600D01*
X5240400Y-12884600D02*
G75*
G02*
X5140400Y-12884600I-50000J0D01*
G01*
X5140400Y-12884600D02*
G75*
G02*
X5240400Y-12884600I50000J0D01*
G01*
X5140400Y-13088600D02*
X5240400Y-13188600D01*
X5240400Y-13088600D02*
X5140400Y-13188600D01*
X5240400Y-13138600D02*
G75*
G02*
X5140400Y-13138600I-50000J0D01*
G01*
X5140400Y-13138600D02*
G75*
G02*
X5240400Y-13138600I50000J0D01*
G01*
X5394400Y-12834600D02*
X5494400Y-12934600D01*
X5494400Y-12834600D02*
X5394400Y-12934600D01*
X5494400Y-12884600D02*
G75*
G02*
X5394400Y-12884600I-50000J0D01*
G01*
X5394400Y-12884600D02*
G75*
G02*
X5494400Y-12884600I50000J0D01*
G01*
X5394400Y-13088600D02*
X5494400Y-13188600D01*
X5494400Y-13088600D02*
X5394400Y-13188600D01*
X5494400Y-13138600D02*
G75*
G02*
X5394400Y-13138600I-50000J0D01*
G01*
X5394400Y-13138600D02*
G75*
G02*
X5494400Y-13138600I50000J0D01*
G01*
X5486400Y-3829500D02*
X5586400Y-3929500D01*
X5586400Y-3829500D02*
X5486400Y-3929500D01*
X5586400Y-3879500D02*
G75*
G02*
X5486400Y-3879500I-50000J0D01*
G01*
X5486400Y-3879500D02*
G75*
G02*
X5586400Y-3879500I50000J0D01*
G01*
X5486400Y-4083500D02*
X5586400Y-4183500D01*
X5586400Y-4083500D02*
X5486400Y-4183500D01*
X5586400Y-4133500D02*
G75*
G02*
X5486400Y-4133500I-50000J0D01*
G01*
X5486400Y-4133500D02*
G75*
G02*
X5586400Y-4133500I50000J0D01*
G01*
X5648400Y-12834600D02*
X5748400Y-12934600D01*
X5748400Y-12834600D02*
X5648400Y-12934600D01*
X5748400Y-12884600D02*
G75*
G02*
X5648400Y-12884600I-50000J0D01*
G01*
X5648400Y-12884600D02*
G75*
G02*
X5748400Y-12884600I50000J0D01*
G01*
X5648400Y-13088600D02*
X5748400Y-13188600D01*
X5748400Y-13088600D02*
X5648400Y-13188600D01*
X5748400Y-13138600D02*
G75*
G02*
X5648400Y-13138600I-50000J0D01*
G01*
X5648400Y-13138600D02*
G75*
G02*
X5748400Y-13138600I50000J0D01*
G01*
X5740400Y-3829500D02*
X5840400Y-3929500D01*
X5840400Y-3829500D02*
X5740400Y-3929500D01*
X5840400Y-3879500D02*
G75*
G02*
X5740400Y-3879500I-50000J0D01*
G01*
X5740400Y-3879500D02*
G75*
G02*
X5840400Y-3879500I50000J0D01*
G01*
X5740400Y-4083500D02*
X5840400Y-4183500D01*
X5840400Y-4083500D02*
X5740400Y-4183500D01*
X5840400Y-4133500D02*
G75*
G02*
X5740400Y-4133500I-50000J0D01*
G01*
X5740400Y-4133500D02*
G75*
G02*
X5840400Y-4133500I50000J0D01*
G01*
X5994400Y-3829500D02*
X6094400Y-3929500D01*
X6094400Y-3829500D02*
X5994400Y-3929500D01*
X6094400Y-3879500D02*
G75*
G02*
X5994400Y-3879500I-50000J0D01*
G01*
X5994400Y-3879500D02*
G75*
G02*
X6094400Y-3879500I50000J0D01*
G01*
X5994400Y-4083500D02*
X6094400Y-4183500D01*
X6094400Y-4083500D02*
X5994400Y-4183500D01*
X6094400Y-4133500D02*
G75*
G02*
X5994400Y-4133500I-50000J0D01*
G01*
X5994400Y-4133500D02*
G75*
G02*
X6094400Y-4133500I50000J0D01*
G01*
X6086400Y-12834600D02*
X6186400Y-12934600D01*
X6186400Y-12834600D02*
X6086400Y-12934600D01*
X6186400Y-12884600D02*
G75*
G02*
X6086400Y-12884600I-50000J0D01*
G01*
X6086400Y-12884600D02*
G75*
G02*
X6186400Y-12884600I50000J0D01*
G01*
X6086400Y-13088600D02*
X6186400Y-13188600D01*
X6186400Y-13088600D02*
X6086400Y-13188600D01*
X6186400Y-13138600D02*
G75*
G02*
X6086400Y-13138600I-50000J0D01*
G01*
X6086400Y-13138600D02*
G75*
G02*
X6186400Y-13138600I50000J0D01*
G01*
X6248400Y-3829500D02*
X6348400Y-3929500D01*
X6348400Y-3829500D02*
X6248400Y-3929500D01*
X6348400Y-3879500D02*
G75*
G02*
X6248400Y-3879500I-50000J0D01*
G01*
X6248400Y-3879500D02*
G75*
G02*
X6348400Y-3879500I50000J0D01*
G01*
X6248400Y-4083500D02*
X6348400Y-4183500D01*
X6348400Y-4083500D02*
X6248400Y-4183500D01*
X6348400Y-4133500D02*
G75*
G02*
X6248400Y-4133500I-50000J0D01*
G01*
X6248400Y-4133500D02*
G75*
G02*
X6348400Y-4133500I50000J0D01*
G01*
X6340400Y-12834600D02*
X6440400Y-12934600D01*
X6440400Y-12834600D02*
X6340400Y-12934600D01*
X6440400Y-12884600D02*
G75*
G02*
X6340400Y-12884600I-50000J0D01*
G01*
X6340400Y-12884600D02*
G75*
G02*
X6440400Y-12884600I50000J0D01*
G01*
X6340400Y-13088600D02*
X6440400Y-13188600D01*
X6440400Y-13088600D02*
X6340400Y-13188600D01*
X6440400Y-13138600D02*
G75*
G02*
X6340400Y-13138600I-50000J0D01*
G01*
X6340400Y-13138600D02*
G75*
G02*
X6440400Y-13138600I50000J0D01*
G01*
X6594400Y-12834600D02*
X6694400Y-12934600D01*
X6694400Y-12834600D02*
X6594400Y-12934600D01*
X6694400Y-12884600D02*
G75*
G02*
X6594400Y-12884600I-50000J0D01*
G01*
X6594400Y-12884600D02*
G75*
G02*
X6694400Y-12884600I50000J0D01*
G01*
X6594400Y-13088600D02*
X6694400Y-13188600D01*
X6694400Y-13088600D02*
X6594400Y-13188600D01*
X6694400Y-13138600D02*
G75*
G02*
X6594400Y-13138600I-50000J0D01*
G01*
X6594400Y-13138600D02*
G75*
G02*
X6694400Y-13138600I50000J0D01*
G01*
X6844733Y-3829500D02*
X6944733Y-3929500D01*
X6944733Y-3829500D02*
X6844733Y-3929500D01*
X6944733Y-3879500D02*
G75*
G02*
X6844733Y-3879500I-50000J0D01*
G01*
X6844733Y-3879500D02*
G75*
G02*
X6944733Y-3879500I50000J0D01*
G01*
X6844733Y-4083500D02*
X6944733Y-4183500D01*
X6944733Y-4083500D02*
X6844733Y-4183500D01*
X6944733Y-4133500D02*
G75*
G02*
X6844733Y-4133500I-50000J0D01*
G01*
X6844733Y-4133500D02*
G75*
G02*
X6944733Y-4133500I50000J0D01*
G01*
X6848400Y-12834600D02*
X6948400Y-12934600D01*
X6948400Y-12834600D02*
X6848400Y-12934600D01*
X6948400Y-12884600D02*
G75*
G02*
X6848400Y-12884600I-50000J0D01*
G01*
X6848400Y-12884600D02*
G75*
G02*
X6948400Y-12884600I50000J0D01*
G01*
X6848400Y-13088600D02*
X6948400Y-13188600D01*
X6948400Y-13088600D02*
X6848400Y-13188600D01*
X6948400Y-13138600D02*
G75*
G02*
X6848400Y-13138600I-50000J0D01*
G01*
X6848400Y-13138600D02*
G75*
G02*
X6948400Y-13138600I50000J0D01*
G01*
X7098733Y-3829500D02*
X7198733Y-3929500D01*
X7198733Y-3829500D02*
X7098733Y-3929500D01*
X7198733Y-3879500D02*
G75*
G02*
X7098733Y-3879500I-50000J0D01*
G01*
X7098733Y-3879500D02*
G75*
G02*
X7198733Y-3879500I50000J0D01*
G01*
X7098733Y-4083500D02*
X7198733Y-4183500D01*
X7198733Y-4083500D02*
X7098733Y-4183500D01*
X7198733Y-4133500D02*
G75*
G02*
X7098733Y-4133500I-50000J0D01*
G01*
X7098733Y-4133500D02*
G75*
G02*
X7198733Y-4133500I50000J0D01*
G01*
X7352733Y-3829500D02*
X7452733Y-3929500D01*
X7452733Y-3829500D02*
X7352733Y-3929500D01*
X7452733Y-3879500D02*
G75*
G02*
X7352733Y-3879500I-50000J0D01*
G01*
X7352733Y-3879500D02*
G75*
G02*
X7452733Y-3879500I50000J0D01*
G01*
X7352733Y-4083500D02*
X7452733Y-4183500D01*
X7452733Y-4083500D02*
X7352733Y-4183500D01*
X7452733Y-4133500D02*
G75*
G02*
X7352733Y-4133500I-50000J0D01*
G01*
X7352733Y-4133500D02*
G75*
G02*
X7452733Y-4133500I50000J0D01*
G01*
X7606733Y-3829500D02*
X7706733Y-3929500D01*
X7706733Y-3829500D02*
X7606733Y-3929500D01*
X7706733Y-3879500D02*
G75*
G02*
X7606733Y-3879500I-50000J0D01*
G01*
X7606733Y-3879500D02*
G75*
G02*
X7706733Y-3879500I50000J0D01*
G01*
X7606733Y-4083500D02*
X7706733Y-4183500D01*
X7706733Y-4083500D02*
X7606733Y-4183500D01*
X7706733Y-4133500D02*
G75*
G02*
X7606733Y-4133500I-50000J0D01*
G01*
X7606733Y-4133500D02*
G75*
G02*
X7706733Y-4133500I50000J0D01*
G01*
X8154500Y-13088600D02*
X8254500Y-13188600D01*
X8254500Y-13088600D02*
X8154500Y-13188600D01*
X8254500Y-13138600D02*
G75*
G02*
X8154500Y-13138600I-50000J0D01*
G01*
X8154500Y-13138600D02*
G75*
G02*
X8254500Y-13138600I50000J0D01*
G01*
X8408500Y-13088600D02*
X8508500Y-13188600D01*
X8508500Y-13088600D02*
X8408500Y-13188600D01*
X8508500Y-13138600D02*
G75*
G02*
X8408500Y-13138600I-50000J0D01*
G01*
X8408500Y-13138600D02*
G75*
G02*
X8508500Y-13138600I50000J0D01*
G01*
X8662500Y-13088600D02*
X8762500Y-13188600D01*
X8762500Y-13088600D02*
X8662500Y-13188600D01*
X8762500Y-13138600D02*
G75*
G02*
X8662500Y-13138600I-50000J0D01*
G01*
X8662500Y-13138600D02*
G75*
G02*
X8762500Y-13138600I50000J0D01*
G01*
X8916500Y-13088600D02*
X9016500Y-13188600D01*
X9016500Y-13088600D02*
X8916500Y-13188600D01*
X9016500Y-13138600D02*
G75*
G02*
X8916500Y-13138600I-50000J0D01*
G01*
X8916500Y-13138600D02*
G75*
G02*
X9016500Y-13138600I50000J0D01*
G01*
X8959600Y-5840000D02*
X9059600Y-5940000D01*
X9059600Y-5840000D02*
X8959600Y-5940000D01*
X9059600Y-5890000D02*
G75*
G02*
X8959600Y-5890000I-50000J0D01*
G01*
X8959600Y-5890000D02*
G75*
G02*
X9059600Y-5890000I50000J0D01*
G01*
X8959600Y-6602000D02*
X9059600Y-6702000D01*
X9059600Y-6602000D02*
X8959600Y-6702000D01*
X9059600Y-6652000D02*
G75*
G02*
X8959600Y-6652000I-50000J0D01*
G01*
X8959600Y-6652000D02*
G75*
G02*
X9059600Y-6652000I50000J0D01*
G01*
X8959600Y-6856000D02*
X9059600Y-6956000D01*
X9059600Y-6856000D02*
X8959600Y-6956000D01*
X9059600Y-6906000D02*
G75*
G02*
X8959600Y-6906000I-50000J0D01*
G01*
X8959600Y-6906000D02*
G75*
G02*
X9059600Y-6906000I50000J0D01*
G01*
X8959600Y-7110000D02*
X9059600Y-7210000D01*
X9059600Y-7110000D02*
X8959600Y-7210000D01*
X9059600Y-7160000D02*
G75*
G02*
X8959600Y-7160000I-50000J0D01*
G01*
X8959600Y-7160000D02*
G75*
G02*
X9059600Y-7160000I50000J0D01*
G01*
X8959600Y-7364000D02*
X9059600Y-7464000D01*
X9059600Y-7364000D02*
X8959600Y-7464000D01*
X9059600Y-7414000D02*
G75*
G02*
X8959600Y-7414000I-50000J0D01*
G01*
X8959600Y-7414000D02*
G75*
G02*
X9059600Y-7414000I50000J0D01*
G01*
X8959600Y-7618000D02*
X9059600Y-7718000D01*
X9059600Y-7618000D02*
X8959600Y-7718000D01*
X9059600Y-7668000D02*
G75*
G02*
X8959600Y-7668000I-50000J0D01*
G01*
X8959600Y-7668000D02*
G75*
G02*
X9059600Y-7668000I50000J0D01*
G01*
X8959600Y-8015800D02*
X9059600Y-8115800D01*
X9059600Y-8015800D02*
X8959600Y-8115800D01*
X9059600Y-8065800D02*
G75*
G02*
X8959600Y-8065800I-50000J0D01*
G01*
X8959600Y-8065800D02*
G75*
G02*
X9059600Y-8065800I50000J0D01*
G01*
X8959600Y-8269800D02*
X9059600Y-8369800D01*
X9059600Y-8269800D02*
X8959600Y-8369800D01*
X9059600Y-8319800D02*
G75*
G02*
X8959600Y-8319800I-50000J0D01*
G01*
X8959600Y-8319800D02*
G75*
G02*
X9059600Y-8319800I50000J0D01*
G01*
X8959600Y-8523800D02*
X9059600Y-8623800D01*
X9059600Y-8523800D02*
X8959600Y-8623800D01*
X9059600Y-8573800D02*
G75*
G02*
X8959600Y-8573800I-50000J0D01*
G01*
X8959600Y-8573800D02*
G75*
G02*
X9059600Y-8573800I50000J0D01*
G01*
X8959600Y-8777800D02*
X9059600Y-8877800D01*
X9059600Y-8777800D02*
X8959600Y-8877800D01*
X9059600Y-8827800D02*
G75*
G02*
X8959600Y-8827800I-50000J0D01*
G01*
X8959600Y-8827800D02*
G75*
G02*
X9059600Y-8827800I50000J0D01*
G01*
X8959600Y-9031800D02*
X9059600Y-9131800D01*
X9059600Y-9031800D02*
X8959600Y-9131800D01*
X9059600Y-9081800D02*
G75*
G02*
X8959600Y-9081800I-50000J0D01*
G01*
X8959600Y-9081800D02*
G75*
G02*
X9059600Y-9081800I50000J0D01*
G01*
X8959600Y-9460000D02*
X9059600Y-9560000D01*
X9059600Y-9460000D02*
X8959600Y-9560000D01*
X9059600Y-9510000D02*
G75*
G02*
X8959600Y-9510000I-50000J0D01*
G01*
X8959600Y-9510000D02*
G75*
G02*
X9059600Y-9510000I50000J0D01*
G01*
X8959600Y-9714000D02*
X9059600Y-9814000D01*
X9059600Y-9714000D02*
X8959600Y-9814000D01*
X9059600Y-9764000D02*
G75*
G02*
X8959600Y-9764000I-50000J0D01*
G01*
X8959600Y-9764000D02*
G75*
G02*
X9059600Y-9764000I50000J0D01*
G01*
X8959600Y-9968000D02*
X9059600Y-10068000D01*
X9059600Y-9968000D02*
X8959600Y-10068000D01*
X9059600Y-10018000D02*
G75*
G02*
X8959600Y-10018000I-50000J0D01*
G01*
X8959600Y-10018000D02*
G75*
G02*
X9059600Y-10018000I50000J0D01*
G01*
X8959600Y-10222000D02*
X9059600Y-10322000D01*
X9059600Y-10222000D02*
X8959600Y-10322000D01*
X9059600Y-10272000D02*
G75*
G02*
X8959600Y-10272000I-50000J0D01*
G01*
X8959600Y-10272000D02*
G75*
G02*
X9059600Y-10272000I50000J0D01*
G01*
X8959600Y-10476000D02*
X9059600Y-10576000D01*
X9059600Y-10476000D02*
X8959600Y-10576000D01*
X9059600Y-10526000D02*
G75*
G02*
X8959600Y-10526000I-50000J0D01*
G01*
X8959600Y-10526000D02*
G75*
G02*
X9059600Y-10526000I50000J0D01*
G01*
X9170500Y-13088600D02*
X9270500Y-13188600D01*
X9270500Y-13088600D02*
X9170500Y-13188600D01*
X9270500Y-13138600D02*
G75*
G02*
X9170500Y-13138600I-50000J0D01*
G01*
X9170500Y-13138600D02*
G75*
G02*
X9270500Y-13138600I50000J0D01*
G01*
X9213600Y-5840000D02*
X9313600Y-5940000D01*
X9313600Y-5840000D02*
X9213600Y-5940000D01*
X9313600Y-5890000D02*
G75*
G02*
X9213600Y-5890000I-50000J0D01*
G01*
X9213600Y-5890000D02*
G75*
G02*
X9313600Y-5890000I50000J0D01*
G01*
X9213600Y-6602000D02*
X9313600Y-6702000D01*
X9313600Y-6602000D02*
X9213600Y-6702000D01*
X9313600Y-6652000D02*
G75*
G02*
X9213600Y-6652000I-50000J0D01*
G01*
X9213600Y-6652000D02*
G75*
G02*
X9313600Y-6652000I50000J0D01*
G01*
X9213600Y-6856000D02*
X9313600Y-6956000D01*
X9313600Y-6856000D02*
X9213600Y-6956000D01*
X9313600Y-6906000D02*
G75*
G02*
X9213600Y-6906000I-50000J0D01*
G01*
X9213600Y-6906000D02*
G75*
G02*
X9313600Y-6906000I50000J0D01*
G01*
X9213600Y-7110000D02*
X9313600Y-7210000D01*
X9313600Y-7110000D02*
X9213600Y-7210000D01*
X9313600Y-7160000D02*
G75*
G02*
X9213600Y-7160000I-50000J0D01*
G01*
X9213600Y-7160000D02*
G75*
G02*
X9313600Y-7160000I50000J0D01*
G01*
X9213600Y-7364000D02*
X9313600Y-7464000D01*
X9313600Y-7364000D02*
X9213600Y-7464000D01*
X9313600Y-7414000D02*
G75*
G02*
X9213600Y-7414000I-50000J0D01*
G01*
X9213600Y-7414000D02*
G75*
G02*
X9313600Y-7414000I50000J0D01*
G01*
X9213600Y-7618000D02*
X9313600Y-7718000D01*
X9313600Y-7618000D02*
X9213600Y-7718000D01*
X9313600Y-7668000D02*
G75*
G02*
X9213600Y-7668000I-50000J0D01*
G01*
X9213600Y-7668000D02*
G75*
G02*
X9313600Y-7668000I50000J0D01*
G01*
X9213600Y-8015800D02*
X9313600Y-8115800D01*
X9313600Y-8015800D02*
X9213600Y-8115800D01*
X9313600Y-8065800D02*
G75*
G02*
X9213600Y-8065800I-50000J0D01*
G01*
X9213600Y-8065800D02*
G75*
G02*
X9313600Y-8065800I50000J0D01*
G01*
X9213600Y-8269800D02*
X9313600Y-8369800D01*
X9313600Y-8269800D02*
X9213600Y-8369800D01*
X9313600Y-8319800D02*
G75*
G02*
X9213600Y-8319800I-50000J0D01*
G01*
X9213600Y-8319800D02*
G75*
G02*
X9313600Y-8319800I50000J0D01*
G01*
X9213600Y-8523800D02*
X9313600Y-8623800D01*
X9313600Y-8523800D02*
X9213600Y-8623800D01*
X9313600Y-8573800D02*
G75*
G02*
X9213600Y-8573800I-50000J0D01*
G01*
X9213600Y-8573800D02*
G75*
G02*
X9313600Y-8573800I50000J0D01*
G01*
X9213600Y-8777800D02*
X9313600Y-8877800D01*
X9313600Y-8777800D02*
X9213600Y-8877800D01*
X9313600Y-8827800D02*
G75*
G02*
X9213600Y-8827800I-50000J0D01*
G01*
X9213600Y-8827800D02*
G75*
G02*
X9313600Y-8827800I50000J0D01*
G01*
X9213600Y-9031800D02*
X9313600Y-9131800D01*
X9313600Y-9031800D02*
X9213600Y-9131800D01*
X9313600Y-9081800D02*
G75*
G02*
X9213600Y-9081800I-50000J0D01*
G01*
X9213600Y-9081800D02*
G75*
G02*
X9313600Y-9081800I50000J0D01*
G01*
X9213600Y-9460000D02*
X9313600Y-9560000D01*
X9313600Y-9460000D02*
X9213600Y-9560000D01*
X9313600Y-9510000D02*
G75*
G02*
X9213600Y-9510000I-50000J0D01*
G01*
X9213600Y-9510000D02*
G75*
G02*
X9313600Y-9510000I50000J0D01*
G01*
X9213600Y-9714000D02*
X9313600Y-9814000D01*
X9313600Y-9714000D02*
X9213600Y-9814000D01*
X9313600Y-9764000D02*
G75*
G02*
X9213600Y-9764000I-50000J0D01*
G01*
X9213600Y-9764000D02*
G75*
G02*
X9313600Y-9764000I50000J0D01*
G01*
X9213600Y-9968000D02*
X9313600Y-10068000D01*
X9313600Y-9968000D02*
X9213600Y-10068000D01*
X9313600Y-10018000D02*
G75*
G02*
X9213600Y-10018000I-50000J0D01*
G01*
X9213600Y-10018000D02*
G75*
G02*
X9313600Y-10018000I50000J0D01*
G01*
X9213600Y-10222000D02*
X9313600Y-10322000D01*
X9313600Y-10222000D02*
X9213600Y-10322000D01*
X9313600Y-10272000D02*
G75*
G02*
X9213600Y-10272000I-50000J0D01*
G01*
X9213600Y-10272000D02*
G75*
G02*
X9313600Y-10272000I50000J0D01*
G01*
X9213600Y-10476000D02*
X9313600Y-10576000D01*
X9313600Y-10476000D02*
X9213600Y-10576000D01*
X9313600Y-10526000D02*
G75*
G02*
X9213600Y-10526000I-50000J0D01*
G01*
X9213600Y-10526000D02*
G75*
G02*
X9313600Y-10526000I50000J0D01*
G01*
X9424500Y-13088600D02*
X9524500Y-13188600D01*
X9524500Y-13088600D02*
X9424500Y-13188600D01*
X9524500Y-13138600D02*
G75*
G02*
X9424500Y-13138600I-50000J0D01*
G01*
X9424500Y-13138600D02*
G75*
G02*
X9524500Y-13138600I50000J0D01*
G01*
X9678500Y-13088600D02*
X9778500Y-13188600D01*
X9778500Y-13088600D02*
X9678500Y-13188600D01*
X9778500Y-13138600D02*
G75*
G02*
X9678500Y-13138600I-50000J0D01*
G01*
X9678500Y-13138600D02*
G75*
G02*
X9778500Y-13138600I50000J0D01*
G01*
X9856000Y-3760000D02*
X9956000Y-3860000D01*
X9956000Y-3760000D02*
X9856000Y-3860000D01*
X9956000Y-3810000D02*
G75*
G02*
X9856000Y-3810000I-50000J0D01*
G01*
X9856000Y-3810000D02*
G75*
G02*
X9956000Y-3810000I50000J0D01*
G01*
X9856000Y-4014000D02*
X9956000Y-4114000D01*
X9956000Y-4014000D02*
X9856000Y-4114000D01*
X9956000Y-4064000D02*
G75*
G02*
X9856000Y-4064000I-50000J0D01*
G01*
X9856000Y-4064000D02*
G75*
G02*
X9956000Y-4064000I50000J0D01*
G01*
X9932500Y-13088600D02*
X10032500Y-13188600D01*
X10032500Y-13088600D02*
X9932500Y-13188600D01*
X10032500Y-13138600D02*
G75*
G02*
X9932500Y-13138600I-50000J0D01*
G01*
X9932500Y-13138600D02*
G75*
G02*
X10032500Y-13138600I50000J0D01*
G01*
X10110000Y-3760000D02*
X10210000Y-3860000D01*
X10210000Y-3760000D02*
X10110000Y-3860000D01*
X10210000Y-3810000D02*
G75*
G02*
X10110000Y-3810000I-50000J0D01*
G01*
X10110000Y-3810000D02*
G75*
G02*
X10210000Y-3810000I50000J0D01*
G01*
X10110000Y-4014000D02*
X10210000Y-4114000D01*
X10210000Y-4014000D02*
X10110000Y-4114000D01*
X10210000Y-4064000D02*
G75*
G02*
X10110000Y-4064000I-50000J0D01*
G01*
X10110000Y-4064000D02*
G75*
G02*
X10210000Y-4064000I50000J0D01*
G01*
X10364000Y-3760000D02*
X10464000Y-3860000D01*
X10464000Y-3760000D02*
X10364000Y-3860000D01*
X10464000Y-3810000D02*
G75*
G02*
X10364000Y-3810000I-50000J0D01*
G01*
X10364000Y-3810000D02*
G75*
G02*
X10464000Y-3810000I50000J0D01*
G01*
X10364000Y-4014000D02*
X10464000Y-4114000D01*
X10464000Y-4014000D02*
X10364000Y-4114000D01*
X10464000Y-4064000D02*
G75*
G02*
X10364000Y-4064000I-50000J0D01*
G01*
X10364000Y-4064000D02*
G75*
G02*
X10464000Y-4064000I50000J0D01*
G01*
X10618000Y-3760000D02*
X10718000Y-3860000D01*
X10718000Y-3760000D02*
X10618000Y-3860000D01*
X10718000Y-3810000D02*
G75*
G02*
X10618000Y-3810000I-50000J0D01*
G01*
X10618000Y-3810000D02*
G75*
G02*
X10718000Y-3810000I50000J0D01*
G01*
X10618000Y-4014000D02*
X10718000Y-4114000D01*
X10718000Y-4014000D02*
X10618000Y-4114000D01*
X10718000Y-4064000D02*
G75*
G02*
X10618000Y-4064000I-50000J0D01*
G01*
X10618000Y-4064000D02*
G75*
G02*
X10718000Y-4064000I50000J0D01*
G01*
X11800000Y-11342000D02*
X11900000Y-11442000D01*
X11900000Y-11342000D02*
X11800000Y-11442000D01*
X11900000Y-11392000D02*
G75*
G02*
X11800000Y-11392000I-50000J0D01*
G01*
X11800000Y-11392000D02*
G75*
G02*
X11900000Y-11392000I50000J0D01*
G01*
X11800000Y-11596000D02*
X11900000Y-11696000D01*
X11900000Y-11596000D02*
X11800000Y-11696000D01*
X11900000Y-11646000D02*
G75*
G02*
X11800000Y-11646000I-50000J0D01*
G01*
X11800000Y-11646000D02*
G75*
G02*
X11900000Y-11646000I50000J0D01*
G01*
X11800000Y-11850000D02*
X11900000Y-11950000D01*
X11900000Y-11850000D02*
X11800000Y-11950000D01*
X11900000Y-11900000D02*
G75*
G02*
X11800000Y-11900000I-50000J0D01*
G01*
X11800000Y-11900000D02*
G75*
G02*
X11900000Y-11900000I50000J0D01*
G01*
D12*
X3545000Y-12633600D02*
X3655000Y-12743600D01*
X3655000Y-12633600D02*
X3545000Y-12743600D01*
X3600000Y-12633600D02*
X3600000Y-12743600D01*
X3545000Y-12688600D02*
X3655000Y-12688600D01*
X3545000Y-13083600D02*
X3655000Y-13193600D01*
X3655000Y-13083600D02*
X3545000Y-13193600D01*
X3600000Y-13083600D02*
X3600000Y-13193600D01*
X3545000Y-13138600D02*
X3655000Y-13138600D01*
X4195000Y-12633600D02*
X4305000Y-12743600D01*
X4305000Y-12633600D02*
X4195000Y-12743600D01*
X4250000Y-12633600D02*
X4250000Y-12743600D01*
X4195000Y-12688600D02*
X4305000Y-12688600D01*
X4195000Y-13083600D02*
X4305000Y-13193600D01*
X4305000Y-13083600D02*
X4195000Y-13193600D01*
X4250000Y-13083600D02*
X4250000Y-13193600D01*
X4195000Y-13138600D02*
X4305000Y-13138600D01*
D13*
X11350500Y-5585500D02*
X11469500Y-5704500D01*
X11469500Y-5585500D02*
X11350500Y-5704500D01*
X11452073Y-5687073D02*
X11452073Y-5602927D01*
X11367927Y-5602927D01*
X11367927Y-5687073D01*
X11452073Y-5687073D01*
X11350500Y-5814500D02*
X11469500Y-5933500D01*
X11469500Y-5814500D02*
X11350500Y-5933500D01*
X11452073Y-5916073D02*
X11452073Y-5831927D01*
X11367927Y-5831927D01*
X11367927Y-5916073D01*
X11452073Y-5916073D01*
X11350500Y-6043500D02*
X11469500Y-6162500D01*
X11469500Y-6043500D02*
X11350500Y-6162500D01*
X11452073Y-6145073D02*
X11452073Y-6060927D01*
X11367927Y-6060927D01*
X11367927Y-6145073D01*
X11452073Y-6145073D01*
X11350500Y-6272500D02*
X11469500Y-6391500D01*
X11469500Y-6272500D02*
X11350500Y-6391500D01*
X11452073Y-6374073D02*
X11452073Y-6289927D01*
X11367927Y-6289927D01*
X11367927Y-6374073D01*
X11452073Y-6374073D01*
X11350500Y-6501500D02*
X11469500Y-6620500D01*
X11469500Y-6501500D02*
X11350500Y-6620500D01*
X11452073Y-6603073D02*
X11452073Y-6518927D01*
X11367927Y-6518927D01*
X11367927Y-6603073D01*
X11452073Y-6603073D01*
X11560500Y-5471500D02*
X11679500Y-5590500D01*
X11679500Y-5471500D02*
X11560500Y-5590500D01*
X11662073Y-5573073D02*
X11662073Y-5488927D01*
X11577927Y-5488927D01*
X11577927Y-5573073D01*
X11662073Y-5573073D01*
X11560500Y-5700500D02*
X11679500Y-5819500D01*
X11679500Y-5700500D02*
X11560500Y-5819500D01*
X11662073Y-5802073D02*
X11662073Y-5717927D01*
X11577927Y-5717927D01*
X11577927Y-5802073D01*
X11662073Y-5802073D01*
X11560500Y-5929500D02*
X11679500Y-6048500D01*
X11679500Y-5929500D02*
X11560500Y-6048500D01*
X11662073Y-6031073D02*
X11662073Y-5946927D01*
X11577927Y-5946927D01*
X11577927Y-6031073D01*
X11662073Y-6031073D01*
X11560500Y-6158500D02*
X11679500Y-6277500D01*
X11679500Y-6158500D02*
X11560500Y-6277500D01*
X11662073Y-6260073D02*
X11662073Y-6175927D01*
X11577927Y-6175927D01*
X11577927Y-6260073D01*
X11662073Y-6260073D01*
X11560500Y-6387500D02*
X11679500Y-6506500D01*
X11679500Y-6387500D02*
X11560500Y-6506500D01*
X11662073Y-6489073D02*
X11662073Y-6404927D01*
X11577927Y-6404927D01*
X11577927Y-6489073D01*
X11662073Y-6489073D01*
X11768500Y-5585500D02*
X11887500Y-5704500D01*
X11887500Y-5585500D02*
X11768500Y-5704500D01*
X11870073Y-5687073D02*
X11870073Y-5602927D01*
X11785927Y-5602927D01*
X11785927Y-5687073D01*
X11870073Y-5687073D01*
X11768500Y-5814500D02*
X11887500Y-5933500D01*
X11887500Y-5814500D02*
X11768500Y-5933500D01*
X11870073Y-5916073D02*
X11870073Y-5831927D01*
X11785927Y-5831927D01*
X11785927Y-5916073D01*
X11870073Y-5916073D01*
X11768500Y-6043500D02*
X11887500Y-6162500D01*
X11887500Y-6043500D02*
X11768500Y-6162500D01*
X11870073Y-6145073D02*
X11870073Y-6060927D01*
X11785927Y-6060927D01*
X11785927Y-6145073D01*
X11870073Y-6145073D01*
X11768500Y-6272500D02*
X11887500Y-6391500D01*
X11887500Y-6272500D02*
X11768500Y-6391500D01*
X11870073Y-6374073D02*
X11870073Y-6289927D01*
X11785927Y-6289927D01*
X11785927Y-6374073D01*
X11870073Y-6374073D01*
X11768500Y-6501500D02*
X11887500Y-6620500D01*
X11887500Y-6501500D02*
X11768500Y-6620500D01*
X11870073Y-6603073D02*
X11870073Y-6518927D01*
X11785927Y-6518927D01*
X11785927Y-6603073D01*
X11870073Y-6603073D01*
D14*
X11461000Y-4668000D02*
X11779000Y-4986000D01*
X11779000Y-4668000D02*
X11461000Y-4986000D01*
X11620000Y-4986000D02*
X11779000Y-4827000D01*
X11620000Y-4668000D01*
X11461000Y-4827000D01*
X11620000Y-4986000D01*
X11461000Y-7167000D02*
X11779000Y-7485000D01*
X11779000Y-7167000D02*
X11461000Y-7485000D01*
X11620000Y-7485000D02*
X11779000Y-7326000D01*
X11620000Y-7167000D01*
X11461000Y-7326000D01*
X11620000Y-7485000D01*
D11*
X2489777Y-13806484D02*
X2489777Y-13606484D01*
X2489777Y-13606484D02*
X2537396Y-13606484D01*
X2537396Y-13606484D02*
X2565967Y-13616008D01*
X2565967Y-13616008D02*
X2585015Y-13635055D01*
X2585015Y-13635055D02*
X2594539Y-13654103D01*
X2594539Y-13654103D02*
X2604063Y-13692198D01*
X2604063Y-13692198D02*
X2604063Y-13720769D01*
X2604063Y-13720769D02*
X2594539Y-13758865D01*
X2594539Y-13758865D02*
X2585015Y-13777912D01*
X2585015Y-13777912D02*
X2565967Y-13796960D01*
X2565967Y-13796960D02*
X2537396Y-13806484D01*
X2537396Y-13806484D02*
X2489777Y-13806484D01*
X2689777Y-13806484D02*
X2689777Y-13673150D01*
X2689777Y-13711246D02*
X2699301Y-13692198D01*
X2699301Y-13692198D02*
X2708824Y-13682674D01*
X2708824Y-13682674D02*
X2727872Y-13673150D01*
X2727872Y-13673150D02*
X2746920Y-13673150D01*
X2813586Y-13806484D02*
X2813586Y-13673150D01*
X2813586Y-13606484D02*
X2804062Y-13616008D01*
X2804062Y-13616008D02*
X2813586Y-13625531D01*
X2813586Y-13625531D02*
X2823110Y-13616008D01*
X2823110Y-13616008D02*
X2813586Y-13606484D01*
X2813586Y-13606484D02*
X2813586Y-13625531D01*
X2937396Y-13806484D02*
X2918348Y-13796960D01*
X2918348Y-13796960D02*
X2908824Y-13777912D01*
X2908824Y-13777912D02*
X2908824Y-13606484D01*
X3042158Y-13806484D02*
X3023110Y-13796960D01*
X3023110Y-13796960D02*
X3013586Y-13777912D01*
X3013586Y-13777912D02*
X3013586Y-13606484D01*
X3270729Y-13806484D02*
X3270729Y-13606484D01*
X3270729Y-13606484D02*
X3337396Y-13749341D01*
X3337396Y-13749341D02*
X3404062Y-13606484D01*
X3404062Y-13606484D02*
X3404062Y-13806484D01*
X3585015Y-13806484D02*
X3585015Y-13701722D01*
X3585015Y-13701722D02*
X3575491Y-13682674D01*
X3575491Y-13682674D02*
X3556443Y-13673150D01*
X3556443Y-13673150D02*
X3518348Y-13673150D01*
X3518348Y-13673150D02*
X3499301Y-13682674D01*
X3585015Y-13796960D02*
X3565967Y-13806484D01*
X3565967Y-13806484D02*
X3518348Y-13806484D01*
X3518348Y-13806484D02*
X3499301Y-13796960D01*
X3499301Y-13796960D02*
X3489777Y-13777912D01*
X3489777Y-13777912D02*
X3489777Y-13758865D01*
X3489777Y-13758865D02*
X3499301Y-13739817D01*
X3499301Y-13739817D02*
X3518348Y-13730293D01*
X3518348Y-13730293D02*
X3565967Y-13730293D01*
X3565967Y-13730293D02*
X3585015Y-13720769D01*
X3680253Y-13673150D02*
X3680253Y-13873150D01*
X3680253Y-13682674D02*
X3699301Y-13673150D01*
X3699301Y-13673150D02*
X3737396Y-13673150D01*
X3737396Y-13673150D02*
X3756443Y-13682674D01*
X3756443Y-13682674D02*
X3765967Y-13692198D01*
X3765967Y-13692198D02*
X3775491Y-13711246D01*
X3775491Y-13711246D02*
X3775491Y-13768388D01*
X3775491Y-13768388D02*
X3765967Y-13787436D01*
X3765967Y-13787436D02*
X3756443Y-13796960D01*
X3756443Y-13796960D02*
X3737396Y-13806484D01*
X3737396Y-13806484D02*
X3699301Y-13806484D01*
X3699301Y-13806484D02*
X3680253Y-13796960D01*
X3861205Y-13787436D02*
X3870729Y-13796960D01*
X3870729Y-13796960D02*
X3861205Y-13806484D01*
X3861205Y-13806484D02*
X3851682Y-13796960D01*
X3851682Y-13796960D02*
X3861205Y-13787436D01*
X3861205Y-13787436D02*
X3861205Y-13806484D01*
X3861205Y-13682674D02*
X3870729Y-13692198D01*
X3870729Y-13692198D02*
X3861205Y-13701722D01*
X3861205Y-13701722D02*
X3851682Y-13692198D01*
X3851682Y-13692198D02*
X3861205Y-13682674D01*
X3861205Y-13682674D02*
X3861205Y-13701722D01*
D10*
X2199000Y-14120000D02*
X2229000Y-14150000D01*
X2229000Y-14120000D02*
X2199000Y-14150000D01*
D11*
X2527872Y-14026484D02*
X2546920Y-14026484D01*
X2546920Y-14026484D02*
X2565967Y-14036008D01*
X2565967Y-14036008D02*
X2575491Y-14045531D01*
X2575491Y-14045531D02*
X2585015Y-14064579D01*
X2585015Y-14064579D02*
X2594539Y-14102674D01*
X2594539Y-14102674D02*
X2594539Y-14150293D01*
X2594539Y-14150293D02*
X2585015Y-14188388D01*
X2585015Y-14188388D02*
X2575491Y-14207436D01*
X2575491Y-14207436D02*
X2565967Y-14216960D01*
X2565967Y-14216960D02*
X2546920Y-14226484D01*
X2546920Y-14226484D02*
X2527872Y-14226484D01*
X2527872Y-14226484D02*
X2508824Y-14216960D01*
X2508824Y-14216960D02*
X2499301Y-14207436D01*
X2499301Y-14207436D02*
X2489777Y-14188388D01*
X2489777Y-14188388D02*
X2480253Y-14150293D01*
X2480253Y-14150293D02*
X2480253Y-14102674D01*
X2480253Y-14102674D02*
X2489777Y-14064579D01*
X2489777Y-14064579D02*
X2499301Y-14045531D01*
X2499301Y-14045531D02*
X2508824Y-14036008D01*
X2508824Y-14036008D02*
X2527872Y-14026484D01*
X2680253Y-14207436D02*
X2689777Y-14216960D01*
X2689777Y-14216960D02*
X2680253Y-14226484D01*
X2680253Y-14226484D02*
X2670729Y-14216960D01*
X2670729Y-14216960D02*
X2680253Y-14207436D01*
X2680253Y-14207436D02*
X2680253Y-14226484D01*
X2756444Y-14026484D02*
X2880253Y-14026484D01*
X2880253Y-14026484D02*
X2813586Y-14102674D01*
X2813586Y-14102674D02*
X2842158Y-14102674D01*
X2842158Y-14102674D02*
X2861205Y-14112198D01*
X2861205Y-14112198D02*
X2870729Y-14121722D01*
X2870729Y-14121722D02*
X2880253Y-14140769D01*
X2880253Y-14140769D02*
X2880253Y-14188388D01*
X2880253Y-14188388D02*
X2870729Y-14207436D01*
X2870729Y-14207436D02*
X2861205Y-14216960D01*
X2861205Y-14216960D02*
X2842158Y-14226484D01*
X2842158Y-14226484D02*
X2785015Y-14226484D01*
X2785015Y-14226484D02*
X2765967Y-14216960D01*
X2765967Y-14216960D02*
X2756444Y-14207436D01*
X3004062Y-14026484D02*
X3023110Y-14026484D01*
X3023110Y-14026484D02*
X3042158Y-14036008D01*
X3042158Y-14036008D02*
X3051682Y-14045531D01*
X3051682Y-14045531D02*
X3061205Y-14064579D01*
X3061205Y-14064579D02*
X3070729Y-14102674D01*
X3070729Y-14102674D02*
X3070729Y-14150293D01*
X3070729Y-14150293D02*
X3061205Y-14188388D01*
X3061205Y-14188388D02*
X3051682Y-14207436D01*
X3051682Y-14207436D02*
X3042158Y-14216960D01*
X3042158Y-14216960D02*
X3023110Y-14226484D01*
X3023110Y-14226484D02*
X3004062Y-14226484D01*
X3004062Y-14226484D02*
X2985015Y-14216960D01*
X2985015Y-14216960D02*
X2975491Y-14207436D01*
X2975491Y-14207436D02*
X2965967Y-14188388D01*
X2965967Y-14188388D02*
X2956443Y-14150293D01*
X2956443Y-14150293D02*
X2956443Y-14102674D01*
X2956443Y-14102674D02*
X2965967Y-14064579D01*
X2965967Y-14064579D02*
X2975491Y-14045531D01*
X2975491Y-14045531D02*
X2985015Y-14036008D01*
X2985015Y-14036008D02*
X3004062Y-14026484D01*
X3194539Y-14026484D02*
X3213586Y-14026484D01*
X3213586Y-14026484D02*
X3232634Y-14036008D01*
X3232634Y-14036008D02*
X3242158Y-14045531D01*
X3242158Y-14045531D02*
X3251682Y-14064579D01*
X3251682Y-14064579D02*
X3261205Y-14102674D01*
X3261205Y-14102674D02*
X3261205Y-14150293D01*
X3261205Y-14150293D02*
X3251682Y-14188388D01*
X3251682Y-14188388D02*
X3242158Y-14207436D01*
X3242158Y-14207436D02*
X3232634Y-14216960D01*
X3232634Y-14216960D02*
X3213586Y-14226484D01*
X3213586Y-14226484D02*
X3194539Y-14226484D01*
X3194539Y-14226484D02*
X3175491Y-14216960D01*
X3175491Y-14216960D02*
X3165967Y-14207436D01*
X3165967Y-14207436D02*
X3156443Y-14188388D01*
X3156443Y-14188388D02*
X3146920Y-14150293D01*
X3146920Y-14150293D02*
X3146920Y-14102674D01*
X3146920Y-14102674D02*
X3156443Y-14064579D01*
X3156443Y-14064579D02*
X3165967Y-14045531D01*
X3165967Y-14045531D02*
X3175491Y-14036008D01*
X3175491Y-14036008D02*
X3194539Y-14026484D01*
X3346920Y-14226484D02*
X3346920Y-14093150D01*
X3346920Y-14112198D02*
X3356443Y-14102674D01*
X3356443Y-14102674D02*
X3375491Y-14093150D01*
X3375491Y-14093150D02*
X3404063Y-14093150D01*
X3404063Y-14093150D02*
X3423110Y-14102674D01*
X3423110Y-14102674D02*
X3432634Y-14121722D01*
X3432634Y-14121722D02*
X3432634Y-14226484D01*
X3432634Y-14121722D02*
X3442158Y-14102674D01*
X3442158Y-14102674D02*
X3461205Y-14093150D01*
X3461205Y-14093150D02*
X3489777Y-14093150D01*
X3489777Y-14093150D02*
X3508824Y-14102674D01*
X3508824Y-14102674D02*
X3518348Y-14121722D01*
X3518348Y-14121722D02*
X3518348Y-14226484D01*
X3613586Y-14226484D02*
X3613586Y-14093150D01*
X3613586Y-14112198D02*
X3623110Y-14102674D01*
X3623110Y-14102674D02*
X3642158Y-14093150D01*
X3642158Y-14093150D02*
X3670729Y-14093150D01*
X3670729Y-14093150D02*
X3689777Y-14102674D01*
X3689777Y-14102674D02*
X3699301Y-14121722D01*
X3699301Y-14121722D02*
X3699301Y-14226484D01*
X3699301Y-14121722D02*
X3708824Y-14102674D01*
X3708824Y-14102674D02*
X3727872Y-14093150D01*
X3727872Y-14093150D02*
X3756443Y-14093150D01*
X3756443Y-14093150D02*
X3775491Y-14102674D01*
X3775491Y-14102674D02*
X3785015Y-14121722D01*
X3785015Y-14121722D02*
X3785015Y-14226484D01*
X4175491Y-14016960D02*
X4004063Y-14274103D01*
X4432634Y-14026484D02*
X4451682Y-14026484D01*
X4451682Y-14026484D02*
X4470729Y-14036008D01*
X4470729Y-14036008D02*
X4480253Y-14045531D01*
X4480253Y-14045531D02*
X4489777Y-14064579D01*
X4489777Y-14064579D02*
X4499301Y-14102674D01*
X4499301Y-14102674D02*
X4499301Y-14150293D01*
X4499301Y-14150293D02*
X4489777Y-14188388D01*
X4489777Y-14188388D02*
X4480253Y-14207436D01*
X4480253Y-14207436D02*
X4470729Y-14216960D01*
X4470729Y-14216960D02*
X4451682Y-14226484D01*
X4451682Y-14226484D02*
X4432634Y-14226484D01*
X4432634Y-14226484D02*
X4413587Y-14216960D01*
X4413587Y-14216960D02*
X4404063Y-14207436D01*
X4404063Y-14207436D02*
X4394539Y-14188388D01*
X4394539Y-14188388D02*
X4385015Y-14150293D01*
X4385015Y-14150293D02*
X4385015Y-14102674D01*
X4385015Y-14102674D02*
X4394539Y-14064579D01*
X4394539Y-14064579D02*
X4404063Y-14045531D01*
X4404063Y-14045531D02*
X4413587Y-14036008D01*
X4413587Y-14036008D02*
X4432634Y-14026484D01*
X4585015Y-14207436D02*
X4594539Y-14216960D01*
X4594539Y-14216960D02*
X4585015Y-14226484D01*
X4585015Y-14226484D02*
X4575491Y-14216960D01*
X4575491Y-14216960D02*
X4585015Y-14207436D01*
X4585015Y-14207436D02*
X4585015Y-14226484D01*
X4718348Y-14026484D02*
X4737396Y-14026484D01*
X4737396Y-14026484D02*
X4756444Y-14036008D01*
X4756444Y-14036008D02*
X4765968Y-14045531D01*
X4765968Y-14045531D02*
X4775491Y-14064579D01*
X4775491Y-14064579D02*
X4785015Y-14102674D01*
X4785015Y-14102674D02*
X4785015Y-14150293D01*
X4785015Y-14150293D02*
X4775491Y-14188388D01*
X4775491Y-14188388D02*
X4765968Y-14207436D01*
X4765968Y-14207436D02*
X4756444Y-14216960D01*
X4756444Y-14216960D02*
X4737396Y-14226484D01*
X4737396Y-14226484D02*
X4718348Y-14226484D01*
X4718348Y-14226484D02*
X4699301Y-14216960D01*
X4699301Y-14216960D02*
X4689777Y-14207436D01*
X4689777Y-14207436D02*
X4680253Y-14188388D01*
X4680253Y-14188388D02*
X4670729Y-14150293D01*
X4670729Y-14150293D02*
X4670729Y-14102674D01*
X4670729Y-14102674D02*
X4680253Y-14064579D01*
X4680253Y-14064579D02*
X4689777Y-14045531D01*
X4689777Y-14045531D02*
X4699301Y-14036008D01*
X4699301Y-14036008D02*
X4718348Y-14026484D01*
X4975491Y-14226484D02*
X4861206Y-14226484D01*
X4918348Y-14226484D02*
X4918348Y-14026484D01*
X4918348Y-14026484D02*
X4899301Y-14055055D01*
X4899301Y-14055055D02*
X4880253Y-14074103D01*
X4880253Y-14074103D02*
X4861206Y-14083627D01*
X5165968Y-14226484D02*
X5051682Y-14226484D01*
X5108825Y-14226484D02*
X5108825Y-14026484D01*
X5108825Y-14026484D02*
X5089777Y-14055055D01*
X5089777Y-14055055D02*
X5070729Y-14074103D01*
X5070729Y-14074103D02*
X5051682Y-14083627D01*
X5280253Y-14112198D02*
X5261206Y-14102674D01*
X5261206Y-14102674D02*
X5251682Y-14093150D01*
X5251682Y-14093150D02*
X5242158Y-14074103D01*
X5242158Y-14074103D02*
X5242158Y-14064579D01*
X5242158Y-14064579D02*
X5251682Y-14045531D01*
X5251682Y-14045531D02*
X5261206Y-14036008D01*
X5261206Y-14036008D02*
X5280253Y-14026484D01*
X5280253Y-14026484D02*
X5318349Y-14026484D01*
X5318349Y-14026484D02*
X5337396Y-14036008D01*
X5337396Y-14036008D02*
X5346920Y-14045531D01*
X5346920Y-14045531D02*
X5356444Y-14064579D01*
X5356444Y-14064579D02*
X5356444Y-14074103D01*
X5356444Y-14074103D02*
X5346920Y-14093150D01*
X5346920Y-14093150D02*
X5337396Y-14102674D01*
X5337396Y-14102674D02*
X5318349Y-14112198D01*
X5318349Y-14112198D02*
X5280253Y-14112198D01*
X5280253Y-14112198D02*
X5261206Y-14121722D01*
X5261206Y-14121722D02*
X5251682Y-14131246D01*
X5251682Y-14131246D02*
X5242158Y-14150293D01*
X5242158Y-14150293D02*
X5242158Y-14188388D01*
X5242158Y-14188388D02*
X5251682Y-14207436D01*
X5251682Y-14207436D02*
X5261206Y-14216960D01*
X5261206Y-14216960D02*
X5280253Y-14226484D01*
X5280253Y-14226484D02*
X5318349Y-14226484D01*
X5318349Y-14226484D02*
X5337396Y-14216960D01*
X5337396Y-14216960D02*
X5346920Y-14207436D01*
X5346920Y-14207436D02*
X5356444Y-14188388D01*
X5356444Y-14188388D02*
X5356444Y-14150293D01*
X5356444Y-14150293D02*
X5346920Y-14131246D01*
X5346920Y-14131246D02*
X5337396Y-14121722D01*
X5337396Y-14121722D02*
X5318349Y-14112198D01*
X5432634Y-14026484D02*
X5432634Y-14064579D01*
X5508825Y-14026484D02*
X5508825Y-14064579D01*
X5804063Y-14302674D02*
X5794539Y-14293150D01*
X5794539Y-14293150D02*
X5775491Y-14264579D01*
X5775491Y-14264579D02*
X5765968Y-14245531D01*
X5765968Y-14245531D02*
X5756444Y-14216960D01*
X5756444Y-14216960D02*
X5746920Y-14169341D01*
X5746920Y-14169341D02*
X5746920Y-14131246D01*
X5746920Y-14131246D02*
X5756444Y-14083627D01*
X5756444Y-14083627D02*
X5765968Y-14055055D01*
X5765968Y-14055055D02*
X5775491Y-14036008D01*
X5775491Y-14036008D02*
X5794539Y-14007436D01*
X5794539Y-14007436D02*
X5804063Y-13997912D01*
X5861206Y-14026484D02*
X5985015Y-14026484D01*
X5985015Y-14026484D02*
X5918348Y-14102674D01*
X5918348Y-14102674D02*
X5946920Y-14102674D01*
X5946920Y-14102674D02*
X5965968Y-14112198D01*
X5965968Y-14112198D02*
X5975491Y-14121722D01*
X5975491Y-14121722D02*
X5985015Y-14140769D01*
X5985015Y-14140769D02*
X5985015Y-14188388D01*
X5985015Y-14188388D02*
X5975491Y-14207436D01*
X5975491Y-14207436D02*
X5965968Y-14216960D01*
X5965968Y-14216960D02*
X5946920Y-14226484D01*
X5946920Y-14226484D02*
X5889777Y-14226484D01*
X5889777Y-14226484D02*
X5870729Y-14216960D01*
X5870729Y-14216960D02*
X5861206Y-14207436D01*
X6175491Y-14226484D02*
X6061206Y-14226484D01*
X6118348Y-14226484D02*
X6118348Y-14026484D01*
X6118348Y-14026484D02*
X6099301Y-14055055D01*
X6099301Y-14055055D02*
X6080253Y-14074103D01*
X6080253Y-14074103D02*
X6061206Y-14083627D01*
X6251682Y-14045531D02*
X6261206Y-14036008D01*
X6261206Y-14036008D02*
X6280253Y-14026484D01*
X6280253Y-14026484D02*
X6327872Y-14026484D01*
X6327872Y-14026484D02*
X6346920Y-14036008D01*
X6346920Y-14036008D02*
X6356444Y-14045531D01*
X6356444Y-14045531D02*
X6365968Y-14064579D01*
X6365968Y-14064579D02*
X6365968Y-14083627D01*
X6365968Y-14083627D02*
X6356444Y-14112198D01*
X6356444Y-14112198D02*
X6242158Y-14226484D01*
X6242158Y-14226484D02*
X6365968Y-14226484D01*
X6604063Y-14226484D02*
X6604063Y-14026484D01*
X6689777Y-14226484D02*
X6689777Y-14121722D01*
X6689777Y-14121722D02*
X6680253Y-14102674D01*
X6680253Y-14102674D02*
X6661206Y-14093150D01*
X6661206Y-14093150D02*
X6632634Y-14093150D01*
X6632634Y-14093150D02*
X6613587Y-14102674D01*
X6613587Y-14102674D02*
X6604063Y-14112198D01*
X6813587Y-14226484D02*
X6794539Y-14216960D01*
X6794539Y-14216960D02*
X6785015Y-14207436D01*
X6785015Y-14207436D02*
X6775491Y-14188388D01*
X6775491Y-14188388D02*
X6775491Y-14131246D01*
X6775491Y-14131246D02*
X6785015Y-14112198D01*
X6785015Y-14112198D02*
X6794539Y-14102674D01*
X6794539Y-14102674D02*
X6813587Y-14093150D01*
X6813587Y-14093150D02*
X6842158Y-14093150D01*
X6842158Y-14093150D02*
X6861206Y-14102674D01*
X6861206Y-14102674D02*
X6870730Y-14112198D01*
X6870730Y-14112198D02*
X6880253Y-14131246D01*
X6880253Y-14131246D02*
X6880253Y-14188388D01*
X6880253Y-14188388D02*
X6870730Y-14207436D01*
X6870730Y-14207436D02*
X6861206Y-14216960D01*
X6861206Y-14216960D02*
X6842158Y-14226484D01*
X6842158Y-14226484D02*
X6813587Y-14226484D01*
X6994539Y-14226484D02*
X6975491Y-14216960D01*
X6975491Y-14216960D02*
X6965968Y-14197912D01*
X6965968Y-14197912D02*
X6965968Y-14026484D01*
X7146920Y-14216960D02*
X7127872Y-14226484D01*
X7127872Y-14226484D02*
X7089777Y-14226484D01*
X7089777Y-14226484D02*
X7070730Y-14216960D01*
X7070730Y-14216960D02*
X7061206Y-14197912D01*
X7061206Y-14197912D02*
X7061206Y-14121722D01*
X7061206Y-14121722D02*
X7070730Y-14102674D01*
X7070730Y-14102674D02*
X7089777Y-14093150D01*
X7089777Y-14093150D02*
X7127872Y-14093150D01*
X7127872Y-14093150D02*
X7146920Y-14102674D01*
X7146920Y-14102674D02*
X7156444Y-14121722D01*
X7156444Y-14121722D02*
X7156444Y-14140769D01*
X7156444Y-14140769D02*
X7061206Y-14159817D01*
X7232634Y-14216960D02*
X7251682Y-14226484D01*
X7251682Y-14226484D02*
X7289777Y-14226484D01*
X7289777Y-14226484D02*
X7308825Y-14216960D01*
X7308825Y-14216960D02*
X7318349Y-14197912D01*
X7318349Y-14197912D02*
X7318349Y-14188388D01*
X7318349Y-14188388D02*
X7308825Y-14169341D01*
X7308825Y-14169341D02*
X7289777Y-14159817D01*
X7289777Y-14159817D02*
X7261206Y-14159817D01*
X7261206Y-14159817D02*
X7242158Y-14150293D01*
X7242158Y-14150293D02*
X7232634Y-14131246D01*
X7232634Y-14131246D02*
X7232634Y-14121722D01*
X7232634Y-14121722D02*
X7242158Y-14102674D01*
X7242158Y-14102674D02*
X7261206Y-14093150D01*
X7261206Y-14093150D02*
X7289777Y-14093150D01*
X7289777Y-14093150D02*
X7308825Y-14102674D01*
X7385015Y-14302674D02*
X7394539Y-14293150D01*
X7394539Y-14293150D02*
X7413587Y-14264579D01*
X7413587Y-14264579D02*
X7423111Y-14245531D01*
X7423111Y-14245531D02*
X7432634Y-14216960D01*
X7432634Y-14216960D02*
X7442158Y-14169341D01*
X7442158Y-14169341D02*
X7442158Y-14131246D01*
X7442158Y-14131246D02*
X7432634Y-14083627D01*
X7432634Y-14083627D02*
X7423111Y-14055055D01*
X7423111Y-14055055D02*
X7413587Y-14036008D01*
X7413587Y-14036008D02*
X7394539Y-14007436D01*
X7394539Y-14007436D02*
X7385015Y-13997912D01*
D10*
X2229000Y-14399000D02*
G75*
G02*
X2199000Y-14399000I-15000J0D01*
G01*
X2199000Y-14399000D02*
G75*
G02*
X2229000Y-14399000I15000J0D01*
G01*
D11*
X2527872Y-14290484D02*
X2546920Y-14290484D01*
X2546920Y-14290484D02*
X2565967Y-14300008D01*
X2565967Y-14300008D02*
X2575491Y-14309531D01*
X2575491Y-14309531D02*
X2585015Y-14328579D01*
X2585015Y-14328579D02*
X2594539Y-14366674D01*
X2594539Y-14366674D02*
X2594539Y-14414293D01*
X2594539Y-14414293D02*
X2585015Y-14452388D01*
X2585015Y-14452388D02*
X2575491Y-14471436D01*
X2575491Y-14471436D02*
X2565967Y-14480960D01*
X2565967Y-14480960D02*
X2546920Y-14490484D01*
X2546920Y-14490484D02*
X2527872Y-14490484D01*
X2527872Y-14490484D02*
X2508824Y-14480960D01*
X2508824Y-14480960D02*
X2499301Y-14471436D01*
X2499301Y-14471436D02*
X2489777Y-14452388D01*
X2489777Y-14452388D02*
X2480253Y-14414293D01*
X2480253Y-14414293D02*
X2480253Y-14366674D01*
X2480253Y-14366674D02*
X2489777Y-14328579D01*
X2489777Y-14328579D02*
X2499301Y-14309531D01*
X2499301Y-14309531D02*
X2508824Y-14300008D01*
X2508824Y-14300008D02*
X2527872Y-14290484D01*
X2680253Y-14471436D02*
X2689777Y-14480960D01*
X2689777Y-14480960D02*
X2680253Y-14490484D01*
X2680253Y-14490484D02*
X2670729Y-14480960D01*
X2670729Y-14480960D02*
X2680253Y-14471436D01*
X2680253Y-14471436D02*
X2680253Y-14490484D01*
X2756444Y-14290484D02*
X2880253Y-14290484D01*
X2880253Y-14290484D02*
X2813586Y-14366674D01*
X2813586Y-14366674D02*
X2842158Y-14366674D01*
X2842158Y-14366674D02*
X2861205Y-14376198D01*
X2861205Y-14376198D02*
X2870729Y-14385722D01*
X2870729Y-14385722D02*
X2880253Y-14404769D01*
X2880253Y-14404769D02*
X2880253Y-14452388D01*
X2880253Y-14452388D02*
X2870729Y-14471436D01*
X2870729Y-14471436D02*
X2861205Y-14480960D01*
X2861205Y-14480960D02*
X2842158Y-14490484D01*
X2842158Y-14490484D02*
X2785015Y-14490484D01*
X2785015Y-14490484D02*
X2765967Y-14480960D01*
X2765967Y-14480960D02*
X2756444Y-14471436D01*
X3004062Y-14290484D02*
X3023110Y-14290484D01*
X3023110Y-14290484D02*
X3042158Y-14300008D01*
X3042158Y-14300008D02*
X3051682Y-14309531D01*
X3051682Y-14309531D02*
X3061205Y-14328579D01*
X3061205Y-14328579D02*
X3070729Y-14366674D01*
X3070729Y-14366674D02*
X3070729Y-14414293D01*
X3070729Y-14414293D02*
X3061205Y-14452388D01*
X3061205Y-14452388D02*
X3051682Y-14471436D01*
X3051682Y-14471436D02*
X3042158Y-14480960D01*
X3042158Y-14480960D02*
X3023110Y-14490484D01*
X3023110Y-14490484D02*
X3004062Y-14490484D01*
X3004062Y-14490484D02*
X2985015Y-14480960D01*
X2985015Y-14480960D02*
X2975491Y-14471436D01*
X2975491Y-14471436D02*
X2965967Y-14452388D01*
X2965967Y-14452388D02*
X2956443Y-14414293D01*
X2956443Y-14414293D02*
X2956443Y-14366674D01*
X2956443Y-14366674D02*
X2965967Y-14328579D01*
X2965967Y-14328579D02*
X2975491Y-14309531D01*
X2975491Y-14309531D02*
X2985015Y-14300008D01*
X2985015Y-14300008D02*
X3004062Y-14290484D01*
X3194539Y-14290484D02*
X3213586Y-14290484D01*
X3213586Y-14290484D02*
X3232634Y-14300008D01*
X3232634Y-14300008D02*
X3242158Y-14309531D01*
X3242158Y-14309531D02*
X3251682Y-14328579D01*
X3251682Y-14328579D02*
X3261205Y-14366674D01*
X3261205Y-14366674D02*
X3261205Y-14414293D01*
X3261205Y-14414293D02*
X3251682Y-14452388D01*
X3251682Y-14452388D02*
X3242158Y-14471436D01*
X3242158Y-14471436D02*
X3232634Y-14480960D01*
X3232634Y-14480960D02*
X3213586Y-14490484D01*
X3213586Y-14490484D02*
X3194539Y-14490484D01*
X3194539Y-14490484D02*
X3175491Y-14480960D01*
X3175491Y-14480960D02*
X3165967Y-14471436D01*
X3165967Y-14471436D02*
X3156443Y-14452388D01*
X3156443Y-14452388D02*
X3146920Y-14414293D01*
X3146920Y-14414293D02*
X3146920Y-14366674D01*
X3146920Y-14366674D02*
X3156443Y-14328579D01*
X3156443Y-14328579D02*
X3165967Y-14309531D01*
X3165967Y-14309531D02*
X3175491Y-14300008D01*
X3175491Y-14300008D02*
X3194539Y-14290484D01*
X3346920Y-14490484D02*
X3346920Y-14357150D01*
X3346920Y-14376198D02*
X3356443Y-14366674D01*
X3356443Y-14366674D02*
X3375491Y-14357150D01*
X3375491Y-14357150D02*
X3404063Y-14357150D01*
X3404063Y-14357150D02*
X3423110Y-14366674D01*
X3423110Y-14366674D02*
X3432634Y-14385722D01*
X3432634Y-14385722D02*
X3432634Y-14490484D01*
X3432634Y-14385722D02*
X3442158Y-14366674D01*
X3442158Y-14366674D02*
X3461205Y-14357150D01*
X3461205Y-14357150D02*
X3489777Y-14357150D01*
X3489777Y-14357150D02*
X3508824Y-14366674D01*
X3508824Y-14366674D02*
X3518348Y-14385722D01*
X3518348Y-14385722D02*
X3518348Y-14490484D01*
X3613586Y-14490484D02*
X3613586Y-14357150D01*
X3613586Y-14376198D02*
X3623110Y-14366674D01*
X3623110Y-14366674D02*
X3642158Y-14357150D01*
X3642158Y-14357150D02*
X3670729Y-14357150D01*
X3670729Y-14357150D02*
X3689777Y-14366674D01*
X3689777Y-14366674D02*
X3699301Y-14385722D01*
X3699301Y-14385722D02*
X3699301Y-14490484D01*
X3699301Y-14385722D02*
X3708824Y-14366674D01*
X3708824Y-14366674D02*
X3727872Y-14357150D01*
X3727872Y-14357150D02*
X3756443Y-14357150D01*
X3756443Y-14357150D02*
X3775491Y-14366674D01*
X3775491Y-14366674D02*
X3785015Y-14385722D01*
X3785015Y-14385722D02*
X3785015Y-14490484D01*
X4175491Y-14280960D02*
X4004063Y-14538103D01*
X4432634Y-14290484D02*
X4451682Y-14290484D01*
X4451682Y-14290484D02*
X4470729Y-14300008D01*
X4470729Y-14300008D02*
X4480253Y-14309531D01*
X4480253Y-14309531D02*
X4489777Y-14328579D01*
X4489777Y-14328579D02*
X4499301Y-14366674D01*
X4499301Y-14366674D02*
X4499301Y-14414293D01*
X4499301Y-14414293D02*
X4489777Y-14452388D01*
X4489777Y-14452388D02*
X4480253Y-14471436D01*
X4480253Y-14471436D02*
X4470729Y-14480960D01*
X4470729Y-14480960D02*
X4451682Y-14490484D01*
X4451682Y-14490484D02*
X4432634Y-14490484D01*
X4432634Y-14490484D02*
X4413587Y-14480960D01*
X4413587Y-14480960D02*
X4404063Y-14471436D01*
X4404063Y-14471436D02*
X4394539Y-14452388D01*
X4394539Y-14452388D02*
X4385015Y-14414293D01*
X4385015Y-14414293D02*
X4385015Y-14366674D01*
X4385015Y-14366674D02*
X4394539Y-14328579D01*
X4394539Y-14328579D02*
X4404063Y-14309531D01*
X4404063Y-14309531D02*
X4413587Y-14300008D01*
X4413587Y-14300008D02*
X4432634Y-14290484D01*
X4585015Y-14471436D02*
X4594539Y-14480960D01*
X4594539Y-14480960D02*
X4585015Y-14490484D01*
X4585015Y-14490484D02*
X4575491Y-14480960D01*
X4575491Y-14480960D02*
X4585015Y-14471436D01*
X4585015Y-14471436D02*
X4585015Y-14490484D01*
X4718348Y-14290484D02*
X4737396Y-14290484D01*
X4737396Y-14290484D02*
X4756444Y-14300008D01*
X4756444Y-14300008D02*
X4765968Y-14309531D01*
X4765968Y-14309531D02*
X4775491Y-14328579D01*
X4775491Y-14328579D02*
X4785015Y-14366674D01*
X4785015Y-14366674D02*
X4785015Y-14414293D01*
X4785015Y-14414293D02*
X4775491Y-14452388D01*
X4775491Y-14452388D02*
X4765968Y-14471436D01*
X4765968Y-14471436D02*
X4756444Y-14480960D01*
X4756444Y-14480960D02*
X4737396Y-14490484D01*
X4737396Y-14490484D02*
X4718348Y-14490484D01*
X4718348Y-14490484D02*
X4699301Y-14480960D01*
X4699301Y-14480960D02*
X4689777Y-14471436D01*
X4689777Y-14471436D02*
X4680253Y-14452388D01*
X4680253Y-14452388D02*
X4670729Y-14414293D01*
X4670729Y-14414293D02*
X4670729Y-14366674D01*
X4670729Y-14366674D02*
X4680253Y-14328579D01*
X4680253Y-14328579D02*
X4689777Y-14309531D01*
X4689777Y-14309531D02*
X4699301Y-14300008D01*
X4699301Y-14300008D02*
X4718348Y-14290484D01*
X4975491Y-14490484D02*
X4861206Y-14490484D01*
X4918348Y-14490484D02*
X4918348Y-14290484D01*
X4918348Y-14290484D02*
X4899301Y-14319055D01*
X4899301Y-14319055D02*
X4880253Y-14338103D01*
X4880253Y-14338103D02*
X4861206Y-14347627D01*
X5165968Y-14490484D02*
X5051682Y-14490484D01*
X5108825Y-14490484D02*
X5108825Y-14290484D01*
X5108825Y-14290484D02*
X5089777Y-14319055D01*
X5089777Y-14319055D02*
X5070729Y-14338103D01*
X5070729Y-14338103D02*
X5051682Y-14347627D01*
X5280253Y-14376198D02*
X5261206Y-14366674D01*
X5261206Y-14366674D02*
X5251682Y-14357150D01*
X5251682Y-14357150D02*
X5242158Y-14338103D01*
X5242158Y-14338103D02*
X5242158Y-14328579D01*
X5242158Y-14328579D02*
X5251682Y-14309531D01*
X5251682Y-14309531D02*
X5261206Y-14300008D01*
X5261206Y-14300008D02*
X5280253Y-14290484D01*
X5280253Y-14290484D02*
X5318349Y-14290484D01*
X5318349Y-14290484D02*
X5337396Y-14300008D01*
X5337396Y-14300008D02*
X5346920Y-14309531D01*
X5346920Y-14309531D02*
X5356444Y-14328579D01*
X5356444Y-14328579D02*
X5356444Y-14338103D01*
X5356444Y-14338103D02*
X5346920Y-14357150D01*
X5346920Y-14357150D02*
X5337396Y-14366674D01*
X5337396Y-14366674D02*
X5318349Y-14376198D01*
X5318349Y-14376198D02*
X5280253Y-14376198D01*
X5280253Y-14376198D02*
X5261206Y-14385722D01*
X5261206Y-14385722D02*
X5251682Y-14395246D01*
X5251682Y-14395246D02*
X5242158Y-14414293D01*
X5242158Y-14414293D02*
X5242158Y-14452388D01*
X5242158Y-14452388D02*
X5251682Y-14471436D01*
X5251682Y-14471436D02*
X5261206Y-14480960D01*
X5261206Y-14480960D02*
X5280253Y-14490484D01*
X5280253Y-14490484D02*
X5318349Y-14490484D01*
X5318349Y-14490484D02*
X5337396Y-14480960D01*
X5337396Y-14480960D02*
X5346920Y-14471436D01*
X5346920Y-14471436D02*
X5356444Y-14452388D01*
X5356444Y-14452388D02*
X5356444Y-14414293D01*
X5356444Y-14414293D02*
X5346920Y-14395246D01*
X5346920Y-14395246D02*
X5337396Y-14385722D01*
X5337396Y-14385722D02*
X5318349Y-14376198D01*
X5432634Y-14290484D02*
X5432634Y-14328579D01*
X5508825Y-14290484D02*
X5508825Y-14328579D01*
X5804063Y-14566674D02*
X5794539Y-14557150D01*
X5794539Y-14557150D02*
X5775491Y-14528579D01*
X5775491Y-14528579D02*
X5765968Y-14509531D01*
X5765968Y-14509531D02*
X5756444Y-14480960D01*
X5756444Y-14480960D02*
X5746920Y-14433341D01*
X5746920Y-14433341D02*
X5746920Y-14395246D01*
X5746920Y-14395246D02*
X5756444Y-14347627D01*
X5756444Y-14347627D02*
X5765968Y-14319055D01*
X5765968Y-14319055D02*
X5775491Y-14300008D01*
X5775491Y-14300008D02*
X5794539Y-14271436D01*
X5794539Y-14271436D02*
X5804063Y-14261912D01*
X5889777Y-14490484D02*
X5927872Y-14490484D01*
X5927872Y-14490484D02*
X5946920Y-14480960D01*
X5946920Y-14480960D02*
X5956444Y-14471436D01*
X5956444Y-14471436D02*
X5975491Y-14442865D01*
X5975491Y-14442865D02*
X5985015Y-14404769D01*
X5985015Y-14404769D02*
X5985015Y-14328579D01*
X5985015Y-14328579D02*
X5975491Y-14309531D01*
X5975491Y-14309531D02*
X5965968Y-14300008D01*
X5965968Y-14300008D02*
X5946920Y-14290484D01*
X5946920Y-14290484D02*
X5908825Y-14290484D01*
X5908825Y-14290484D02*
X5889777Y-14300008D01*
X5889777Y-14300008D02*
X5880253Y-14309531D01*
X5880253Y-14309531D02*
X5870729Y-14328579D01*
X5870729Y-14328579D02*
X5870729Y-14376198D01*
X5870729Y-14376198D02*
X5880253Y-14395246D01*
X5880253Y-14395246D02*
X5889777Y-14404769D01*
X5889777Y-14404769D02*
X5908825Y-14414293D01*
X5908825Y-14414293D02*
X5946920Y-14414293D01*
X5946920Y-14414293D02*
X5965968Y-14404769D01*
X5965968Y-14404769D02*
X5975491Y-14395246D01*
X5975491Y-14395246D02*
X5985015Y-14376198D01*
X6223110Y-14490484D02*
X6223110Y-14290484D01*
X6308825Y-14490484D02*
X6308825Y-14385722D01*
X6308825Y-14385722D02*
X6299301Y-14366674D01*
X6299301Y-14366674D02*
X6280253Y-14357150D01*
X6280253Y-14357150D02*
X6251682Y-14357150D01*
X6251682Y-14357150D02*
X6232634Y-14366674D01*
X6232634Y-14366674D02*
X6223110Y-14376198D01*
X6432634Y-14490484D02*
X6413587Y-14480960D01*
X6413587Y-14480960D02*
X6404063Y-14471436D01*
X6404063Y-14471436D02*
X6394539Y-14452388D01*
X6394539Y-14452388D02*
X6394539Y-14395246D01*
X6394539Y-14395246D02*
X6404063Y-14376198D01*
X6404063Y-14376198D02*
X6413587Y-14366674D01*
X6413587Y-14366674D02*
X6432634Y-14357150D01*
X6432634Y-14357150D02*
X6461206Y-14357150D01*
X6461206Y-14357150D02*
X6480253Y-14366674D01*
X6480253Y-14366674D02*
X6489777Y-14376198D01*
X6489777Y-14376198D02*
X6499301Y-14395246D01*
X6499301Y-14395246D02*
X6499301Y-14452388D01*
X6499301Y-14452388D02*
X6489777Y-14471436D01*
X6489777Y-14471436D02*
X6480253Y-14480960D01*
X6480253Y-14480960D02*
X6461206Y-14490484D01*
X6461206Y-14490484D02*
X6432634Y-14490484D01*
X6613587Y-14490484D02*
X6594539Y-14480960D01*
X6594539Y-14480960D02*
X6585015Y-14461912D01*
X6585015Y-14461912D02*
X6585015Y-14290484D01*
X6765968Y-14480960D02*
X6746920Y-14490484D01*
X6746920Y-14490484D02*
X6708825Y-14490484D01*
X6708825Y-14490484D02*
X6689777Y-14480960D01*
X6689777Y-14480960D02*
X6680253Y-14461912D01*
X6680253Y-14461912D02*
X6680253Y-14385722D01*
X6680253Y-14385722D02*
X6689777Y-14366674D01*
X6689777Y-14366674D02*
X6708825Y-14357150D01*
X6708825Y-14357150D02*
X6746920Y-14357150D01*
X6746920Y-14357150D02*
X6765968Y-14366674D01*
X6765968Y-14366674D02*
X6775491Y-14385722D01*
X6775491Y-14385722D02*
X6775491Y-14404769D01*
X6775491Y-14404769D02*
X6680253Y-14423817D01*
X6851682Y-14480960D02*
X6870730Y-14490484D01*
X6870730Y-14490484D02*
X6908825Y-14490484D01*
X6908825Y-14490484D02*
X6927872Y-14480960D01*
X6927872Y-14480960D02*
X6937396Y-14461912D01*
X6937396Y-14461912D02*
X6937396Y-14452388D01*
X6937396Y-14452388D02*
X6927872Y-14433341D01*
X6927872Y-14433341D02*
X6908825Y-14423817D01*
X6908825Y-14423817D02*
X6880253Y-14423817D01*
X6880253Y-14423817D02*
X6861206Y-14414293D01*
X6861206Y-14414293D02*
X6851682Y-14395246D01*
X6851682Y-14395246D02*
X6851682Y-14385722D01*
X6851682Y-14385722D02*
X6861206Y-14366674D01*
X6861206Y-14366674D02*
X6880253Y-14357150D01*
X6880253Y-14357150D02*
X6908825Y-14357150D01*
X6908825Y-14357150D02*
X6927872Y-14366674D01*
X7004063Y-14566674D02*
X7013587Y-14557150D01*
X7013587Y-14557150D02*
X7032634Y-14528579D01*
X7032634Y-14528579D02*
X7042158Y-14509531D01*
X7042158Y-14509531D02*
X7051682Y-14480960D01*
X7051682Y-14480960D02*
X7061206Y-14433341D01*
X7061206Y-14433341D02*
X7061206Y-14395246D01*
X7061206Y-14395246D02*
X7051682Y-14347627D01*
X7051682Y-14347627D02*
X7042158Y-14319055D01*
X7042158Y-14319055D02*
X7032634Y-14300008D01*
X7032634Y-14300008D02*
X7013587Y-14271436D01*
X7013587Y-14271436D02*
X7004063Y-14261912D01*
D10*
X2196500Y-14630500D02*
X2196500Y-14695500D01*
X2164000Y-14663000D02*
X2229000Y-14663000D01*
D11*
X2527872Y-14554484D02*
X2546920Y-14554484D01*
X2546920Y-14554484D02*
X2565967Y-14564008D01*
X2565967Y-14564008D02*
X2575491Y-14573531D01*
X2575491Y-14573531D02*
X2585015Y-14592579D01*
X2585015Y-14592579D02*
X2594539Y-14630674D01*
X2594539Y-14630674D02*
X2594539Y-14678293D01*
X2594539Y-14678293D02*
X2585015Y-14716388D01*
X2585015Y-14716388D02*
X2575491Y-14735436D01*
X2575491Y-14735436D02*
X2565967Y-14744960D01*
X2565967Y-14744960D02*
X2546920Y-14754484D01*
X2546920Y-14754484D02*
X2527872Y-14754484D01*
X2527872Y-14754484D02*
X2508824Y-14744960D01*
X2508824Y-14744960D02*
X2499301Y-14735436D01*
X2499301Y-14735436D02*
X2489777Y-14716388D01*
X2489777Y-14716388D02*
X2480253Y-14678293D01*
X2480253Y-14678293D02*
X2480253Y-14630674D01*
X2480253Y-14630674D02*
X2489777Y-14592579D01*
X2489777Y-14592579D02*
X2499301Y-14573531D01*
X2499301Y-14573531D02*
X2508824Y-14564008D01*
X2508824Y-14564008D02*
X2527872Y-14554484D01*
X2680253Y-14735436D02*
X2689777Y-14744960D01*
X2689777Y-14744960D02*
X2680253Y-14754484D01*
X2680253Y-14754484D02*
X2670729Y-14744960D01*
X2670729Y-14744960D02*
X2680253Y-14735436D01*
X2680253Y-14735436D02*
X2680253Y-14754484D01*
X2861205Y-14554484D02*
X2823110Y-14554484D01*
X2823110Y-14554484D02*
X2804062Y-14564008D01*
X2804062Y-14564008D02*
X2794539Y-14573531D01*
X2794539Y-14573531D02*
X2775491Y-14602103D01*
X2775491Y-14602103D02*
X2765967Y-14640198D01*
X2765967Y-14640198D02*
X2765967Y-14716388D01*
X2765967Y-14716388D02*
X2775491Y-14735436D01*
X2775491Y-14735436D02*
X2785015Y-14744960D01*
X2785015Y-14744960D02*
X2804062Y-14754484D01*
X2804062Y-14754484D02*
X2842158Y-14754484D01*
X2842158Y-14754484D02*
X2861205Y-14744960D01*
X2861205Y-14744960D02*
X2870729Y-14735436D01*
X2870729Y-14735436D02*
X2880253Y-14716388D01*
X2880253Y-14716388D02*
X2880253Y-14668769D01*
X2880253Y-14668769D02*
X2870729Y-14649722D01*
X2870729Y-14649722D02*
X2861205Y-14640198D01*
X2861205Y-14640198D02*
X2842158Y-14630674D01*
X2842158Y-14630674D02*
X2804062Y-14630674D01*
X2804062Y-14630674D02*
X2785015Y-14640198D01*
X2785015Y-14640198D02*
X2775491Y-14649722D01*
X2775491Y-14649722D02*
X2765967Y-14668769D01*
X3061205Y-14554484D02*
X2965967Y-14554484D01*
X2965967Y-14554484D02*
X2956443Y-14649722D01*
X2956443Y-14649722D02*
X2965967Y-14640198D01*
X2965967Y-14640198D02*
X2985015Y-14630674D01*
X2985015Y-14630674D02*
X3032634Y-14630674D01*
X3032634Y-14630674D02*
X3051682Y-14640198D01*
X3051682Y-14640198D02*
X3061205Y-14649722D01*
X3061205Y-14649722D02*
X3070729Y-14668769D01*
X3070729Y-14668769D02*
X3070729Y-14716388D01*
X3070729Y-14716388D02*
X3061205Y-14735436D01*
X3061205Y-14735436D02*
X3051682Y-14744960D01*
X3051682Y-14744960D02*
X3032634Y-14754484D01*
X3032634Y-14754484D02*
X2985015Y-14754484D01*
X2985015Y-14754484D02*
X2965967Y-14744960D01*
X2965967Y-14744960D02*
X2956443Y-14735436D01*
X3194539Y-14554484D02*
X3213586Y-14554484D01*
X3213586Y-14554484D02*
X3232634Y-14564008D01*
X3232634Y-14564008D02*
X3242158Y-14573531D01*
X3242158Y-14573531D02*
X3251682Y-14592579D01*
X3251682Y-14592579D02*
X3261205Y-14630674D01*
X3261205Y-14630674D02*
X3261205Y-14678293D01*
X3261205Y-14678293D02*
X3251682Y-14716388D01*
X3251682Y-14716388D02*
X3242158Y-14735436D01*
X3242158Y-14735436D02*
X3232634Y-14744960D01*
X3232634Y-14744960D02*
X3213586Y-14754484D01*
X3213586Y-14754484D02*
X3194539Y-14754484D01*
X3194539Y-14754484D02*
X3175491Y-14744960D01*
X3175491Y-14744960D02*
X3165967Y-14735436D01*
X3165967Y-14735436D02*
X3156443Y-14716388D01*
X3156443Y-14716388D02*
X3146920Y-14678293D01*
X3146920Y-14678293D02*
X3146920Y-14630674D01*
X3146920Y-14630674D02*
X3156443Y-14592579D01*
X3156443Y-14592579D02*
X3165967Y-14573531D01*
X3165967Y-14573531D02*
X3175491Y-14564008D01*
X3175491Y-14564008D02*
X3194539Y-14554484D01*
X3346920Y-14754484D02*
X3346920Y-14621150D01*
X3346920Y-14640198D02*
X3356443Y-14630674D01*
X3356443Y-14630674D02*
X3375491Y-14621150D01*
X3375491Y-14621150D02*
X3404063Y-14621150D01*
X3404063Y-14621150D02*
X3423110Y-14630674D01*
X3423110Y-14630674D02*
X3432634Y-14649722D01*
X3432634Y-14649722D02*
X3432634Y-14754484D01*
X3432634Y-14649722D02*
X3442158Y-14630674D01*
X3442158Y-14630674D02*
X3461205Y-14621150D01*
X3461205Y-14621150D02*
X3489777Y-14621150D01*
X3489777Y-14621150D02*
X3508824Y-14630674D01*
X3508824Y-14630674D02*
X3518348Y-14649722D01*
X3518348Y-14649722D02*
X3518348Y-14754484D01*
X3613586Y-14754484D02*
X3613586Y-14621150D01*
X3613586Y-14640198D02*
X3623110Y-14630674D01*
X3623110Y-14630674D02*
X3642158Y-14621150D01*
X3642158Y-14621150D02*
X3670729Y-14621150D01*
X3670729Y-14621150D02*
X3689777Y-14630674D01*
X3689777Y-14630674D02*
X3699301Y-14649722D01*
X3699301Y-14649722D02*
X3699301Y-14754484D01*
X3699301Y-14649722D02*
X3708824Y-14630674D01*
X3708824Y-14630674D02*
X3727872Y-14621150D01*
X3727872Y-14621150D02*
X3756443Y-14621150D01*
X3756443Y-14621150D02*
X3775491Y-14630674D01*
X3775491Y-14630674D02*
X3785015Y-14649722D01*
X3785015Y-14649722D02*
X3785015Y-14754484D01*
X4175491Y-14544960D02*
X4004063Y-14802103D01*
X4432634Y-14554484D02*
X4451682Y-14554484D01*
X4451682Y-14554484D02*
X4470729Y-14564008D01*
X4470729Y-14564008D02*
X4480253Y-14573531D01*
X4480253Y-14573531D02*
X4489777Y-14592579D01*
X4489777Y-14592579D02*
X4499301Y-14630674D01*
X4499301Y-14630674D02*
X4499301Y-14678293D01*
X4499301Y-14678293D02*
X4489777Y-14716388D01*
X4489777Y-14716388D02*
X4480253Y-14735436D01*
X4480253Y-14735436D02*
X4470729Y-14744960D01*
X4470729Y-14744960D02*
X4451682Y-14754484D01*
X4451682Y-14754484D02*
X4432634Y-14754484D01*
X4432634Y-14754484D02*
X4413587Y-14744960D01*
X4413587Y-14744960D02*
X4404063Y-14735436D01*
X4404063Y-14735436D02*
X4394539Y-14716388D01*
X4394539Y-14716388D02*
X4385015Y-14678293D01*
X4385015Y-14678293D02*
X4385015Y-14630674D01*
X4385015Y-14630674D02*
X4394539Y-14592579D01*
X4394539Y-14592579D02*
X4404063Y-14573531D01*
X4404063Y-14573531D02*
X4413587Y-14564008D01*
X4413587Y-14564008D02*
X4432634Y-14554484D01*
X4585015Y-14735436D02*
X4594539Y-14744960D01*
X4594539Y-14744960D02*
X4585015Y-14754484D01*
X4585015Y-14754484D02*
X4575491Y-14744960D01*
X4575491Y-14744960D02*
X4585015Y-14735436D01*
X4585015Y-14735436D02*
X4585015Y-14754484D01*
X4718348Y-14554484D02*
X4737396Y-14554484D01*
X4737396Y-14554484D02*
X4756444Y-14564008D01*
X4756444Y-14564008D02*
X4765968Y-14573531D01*
X4765968Y-14573531D02*
X4775491Y-14592579D01*
X4775491Y-14592579D02*
X4785015Y-14630674D01*
X4785015Y-14630674D02*
X4785015Y-14678293D01*
X4785015Y-14678293D02*
X4775491Y-14716388D01*
X4775491Y-14716388D02*
X4765968Y-14735436D01*
X4765968Y-14735436D02*
X4756444Y-14744960D01*
X4756444Y-14744960D02*
X4737396Y-14754484D01*
X4737396Y-14754484D02*
X4718348Y-14754484D01*
X4718348Y-14754484D02*
X4699301Y-14744960D01*
X4699301Y-14744960D02*
X4689777Y-14735436D01*
X4689777Y-14735436D02*
X4680253Y-14716388D01*
X4680253Y-14716388D02*
X4670729Y-14678293D01*
X4670729Y-14678293D02*
X4670729Y-14630674D01*
X4670729Y-14630674D02*
X4680253Y-14592579D01*
X4680253Y-14592579D02*
X4689777Y-14573531D01*
X4689777Y-14573531D02*
X4699301Y-14564008D01*
X4699301Y-14564008D02*
X4718348Y-14554484D01*
X4861206Y-14573531D02*
X4870729Y-14564008D01*
X4870729Y-14564008D02*
X4889777Y-14554484D01*
X4889777Y-14554484D02*
X4937396Y-14554484D01*
X4937396Y-14554484D02*
X4956444Y-14564008D01*
X4956444Y-14564008D02*
X4965968Y-14573531D01*
X4965968Y-14573531D02*
X4975491Y-14592579D01*
X4975491Y-14592579D02*
X4975491Y-14611627D01*
X4975491Y-14611627D02*
X4965968Y-14640198D01*
X4965968Y-14640198D02*
X4851682Y-14754484D01*
X4851682Y-14754484D02*
X4975491Y-14754484D01*
X5156444Y-14554484D02*
X5061206Y-14554484D01*
X5061206Y-14554484D02*
X5051682Y-14649722D01*
X5051682Y-14649722D02*
X5061206Y-14640198D01*
X5061206Y-14640198D02*
X5080253Y-14630674D01*
X5080253Y-14630674D02*
X5127872Y-14630674D01*
X5127872Y-14630674D02*
X5146920Y-14640198D01*
X5146920Y-14640198D02*
X5156444Y-14649722D01*
X5156444Y-14649722D02*
X5165968Y-14668769D01*
X5165968Y-14668769D02*
X5165968Y-14716388D01*
X5165968Y-14716388D02*
X5156444Y-14735436D01*
X5156444Y-14735436D02*
X5146920Y-14744960D01*
X5146920Y-14744960D02*
X5127872Y-14754484D01*
X5127872Y-14754484D02*
X5080253Y-14754484D01*
X5080253Y-14754484D02*
X5061206Y-14744960D01*
X5061206Y-14744960D02*
X5051682Y-14735436D01*
X5337396Y-14554484D02*
X5299301Y-14554484D01*
X5299301Y-14554484D02*
X5280253Y-14564008D01*
X5280253Y-14564008D02*
X5270729Y-14573531D01*
X5270729Y-14573531D02*
X5251682Y-14602103D01*
X5251682Y-14602103D02*
X5242158Y-14640198D01*
X5242158Y-14640198D02*
X5242158Y-14716388D01*
X5242158Y-14716388D02*
X5251682Y-14735436D01*
X5251682Y-14735436D02*
X5261206Y-14744960D01*
X5261206Y-14744960D02*
X5280253Y-14754484D01*
X5280253Y-14754484D02*
X5318349Y-14754484D01*
X5318349Y-14754484D02*
X5337396Y-14744960D01*
X5337396Y-14744960D02*
X5346920Y-14735436D01*
X5346920Y-14735436D02*
X5356444Y-14716388D01*
X5356444Y-14716388D02*
X5356444Y-14668769D01*
X5356444Y-14668769D02*
X5346920Y-14649722D01*
X5346920Y-14649722D02*
X5337396Y-14640198D01*
X5337396Y-14640198D02*
X5318349Y-14630674D01*
X5318349Y-14630674D02*
X5280253Y-14630674D01*
X5280253Y-14630674D02*
X5261206Y-14640198D01*
X5261206Y-14640198D02*
X5251682Y-14649722D01*
X5251682Y-14649722D02*
X5242158Y-14668769D01*
X5432634Y-14554484D02*
X5432634Y-14592579D01*
X5508825Y-14554484D02*
X5508825Y-14592579D01*
X5804063Y-14830674D02*
X5794539Y-14821150D01*
X5794539Y-14821150D02*
X5775491Y-14792579D01*
X5775491Y-14792579D02*
X5765968Y-14773531D01*
X5765968Y-14773531D02*
X5756444Y-14744960D01*
X5756444Y-14744960D02*
X5746920Y-14697341D01*
X5746920Y-14697341D02*
X5746920Y-14659246D01*
X5746920Y-14659246D02*
X5756444Y-14611627D01*
X5756444Y-14611627D02*
X5765968Y-14583055D01*
X5765968Y-14583055D02*
X5775491Y-14564008D01*
X5775491Y-14564008D02*
X5794539Y-14535436D01*
X5794539Y-14535436D02*
X5804063Y-14525912D01*
X5918348Y-14554484D02*
X5937396Y-14554484D01*
X5937396Y-14554484D02*
X5956444Y-14564008D01*
X5956444Y-14564008D02*
X5965968Y-14573531D01*
X5965968Y-14573531D02*
X5975491Y-14592579D01*
X5975491Y-14592579D02*
X5985015Y-14630674D01*
X5985015Y-14630674D02*
X5985015Y-14678293D01*
X5985015Y-14678293D02*
X5975491Y-14716388D01*
X5975491Y-14716388D02*
X5965968Y-14735436D01*
X5965968Y-14735436D02*
X5956444Y-14744960D01*
X5956444Y-14744960D02*
X5937396Y-14754484D01*
X5937396Y-14754484D02*
X5918348Y-14754484D01*
X5918348Y-14754484D02*
X5899301Y-14744960D01*
X5899301Y-14744960D02*
X5889777Y-14735436D01*
X5889777Y-14735436D02*
X5880253Y-14716388D01*
X5880253Y-14716388D02*
X5870729Y-14678293D01*
X5870729Y-14678293D02*
X5870729Y-14630674D01*
X5870729Y-14630674D02*
X5880253Y-14592579D01*
X5880253Y-14592579D02*
X5889777Y-14573531D01*
X5889777Y-14573531D02*
X5899301Y-14564008D01*
X5899301Y-14564008D02*
X5918348Y-14554484D01*
X6223110Y-14754484D02*
X6223110Y-14554484D01*
X6308825Y-14754484D02*
X6308825Y-14649722D01*
X6308825Y-14649722D02*
X6299301Y-14630674D01*
X6299301Y-14630674D02*
X6280253Y-14621150D01*
X6280253Y-14621150D02*
X6251682Y-14621150D01*
X6251682Y-14621150D02*
X6232634Y-14630674D01*
X6232634Y-14630674D02*
X6223110Y-14640198D01*
X6432634Y-14754484D02*
X6413587Y-14744960D01*
X6413587Y-14744960D02*
X6404063Y-14735436D01*
X6404063Y-14735436D02*
X6394539Y-14716388D01*
X6394539Y-14716388D02*
X6394539Y-14659246D01*
X6394539Y-14659246D02*
X6404063Y-14640198D01*
X6404063Y-14640198D02*
X6413587Y-14630674D01*
X6413587Y-14630674D02*
X6432634Y-14621150D01*
X6432634Y-14621150D02*
X6461206Y-14621150D01*
X6461206Y-14621150D02*
X6480253Y-14630674D01*
X6480253Y-14630674D02*
X6489777Y-14640198D01*
X6489777Y-14640198D02*
X6499301Y-14659246D01*
X6499301Y-14659246D02*
X6499301Y-14716388D01*
X6499301Y-14716388D02*
X6489777Y-14735436D01*
X6489777Y-14735436D02*
X6480253Y-14744960D01*
X6480253Y-14744960D02*
X6461206Y-14754484D01*
X6461206Y-14754484D02*
X6432634Y-14754484D01*
X6613587Y-14754484D02*
X6594539Y-14744960D01*
X6594539Y-14744960D02*
X6585015Y-14725912D01*
X6585015Y-14725912D02*
X6585015Y-14554484D01*
X6765968Y-14744960D02*
X6746920Y-14754484D01*
X6746920Y-14754484D02*
X6708825Y-14754484D01*
X6708825Y-14754484D02*
X6689777Y-14744960D01*
X6689777Y-14744960D02*
X6680253Y-14725912D01*
X6680253Y-14725912D02*
X6680253Y-14649722D01*
X6680253Y-14649722D02*
X6689777Y-14630674D01*
X6689777Y-14630674D02*
X6708825Y-14621150D01*
X6708825Y-14621150D02*
X6746920Y-14621150D01*
X6746920Y-14621150D02*
X6765968Y-14630674D01*
X6765968Y-14630674D02*
X6775491Y-14649722D01*
X6775491Y-14649722D02*
X6775491Y-14668769D01*
X6775491Y-14668769D02*
X6680253Y-14687817D01*
X6851682Y-14744960D02*
X6870730Y-14754484D01*
X6870730Y-14754484D02*
X6908825Y-14754484D01*
X6908825Y-14754484D02*
X6927872Y-14744960D01*
X6927872Y-14744960D02*
X6937396Y-14725912D01*
X6937396Y-14725912D02*
X6937396Y-14716388D01*
X6937396Y-14716388D02*
X6927872Y-14697341D01*
X6927872Y-14697341D02*
X6908825Y-14687817D01*
X6908825Y-14687817D02*
X6880253Y-14687817D01*
X6880253Y-14687817D02*
X6861206Y-14678293D01*
X6861206Y-14678293D02*
X6851682Y-14659246D01*
X6851682Y-14659246D02*
X6851682Y-14649722D01*
X6851682Y-14649722D02*
X6861206Y-14630674D01*
X6861206Y-14630674D02*
X6880253Y-14621150D01*
X6880253Y-14621150D02*
X6908825Y-14621150D01*
X6908825Y-14621150D02*
X6927872Y-14630674D01*
X7175492Y-14678293D02*
X7327873Y-14678293D01*
X7251682Y-14754484D02*
X7251682Y-14602103D01*
X7565968Y-14573531D02*
X7575492Y-14564008D01*
X7575492Y-14564008D02*
X7594539Y-14554484D01*
X7594539Y-14554484D02*
X7642158Y-14554484D01*
X7642158Y-14554484D02*
X7661206Y-14564008D01*
X7661206Y-14564008D02*
X7670730Y-14573531D01*
X7670730Y-14573531D02*
X7680253Y-14592579D01*
X7680253Y-14592579D02*
X7680253Y-14611627D01*
X7680253Y-14611627D02*
X7670730Y-14640198D01*
X7670730Y-14640198D02*
X7556444Y-14754484D01*
X7556444Y-14754484D02*
X7680253Y-14754484D01*
X7908825Y-14744960D02*
X7927873Y-14754484D01*
X7927873Y-14754484D02*
X7965968Y-14754484D01*
X7965968Y-14754484D02*
X7985015Y-14744960D01*
X7985015Y-14744960D02*
X7994539Y-14725912D01*
X7994539Y-14725912D02*
X7994539Y-14716388D01*
X7994539Y-14716388D02*
X7985015Y-14697341D01*
X7985015Y-14697341D02*
X7965968Y-14687817D01*
X7965968Y-14687817D02*
X7937396Y-14687817D01*
X7937396Y-14687817D02*
X7918349Y-14678293D01*
X7918349Y-14678293D02*
X7908825Y-14659246D01*
X7908825Y-14659246D02*
X7908825Y-14649722D01*
X7908825Y-14649722D02*
X7918349Y-14630674D01*
X7918349Y-14630674D02*
X7937396Y-14621150D01*
X7937396Y-14621150D02*
X7965968Y-14621150D01*
X7965968Y-14621150D02*
X7985015Y-14630674D01*
X8108825Y-14754484D02*
X8089777Y-14744960D01*
X8089777Y-14744960D02*
X8080254Y-14725912D01*
X8080254Y-14725912D02*
X8080254Y-14554484D01*
X8213587Y-14754484D02*
X8194539Y-14744960D01*
X8194539Y-14744960D02*
X8185015Y-14735436D01*
X8185015Y-14735436D02*
X8175492Y-14716388D01*
X8175492Y-14716388D02*
X8175492Y-14659246D01*
X8175492Y-14659246D02*
X8185015Y-14640198D01*
X8185015Y-14640198D02*
X8194539Y-14630674D01*
X8194539Y-14630674D02*
X8213587Y-14621150D01*
X8213587Y-14621150D02*
X8242158Y-14621150D01*
X8242158Y-14621150D02*
X8261206Y-14630674D01*
X8261206Y-14630674D02*
X8270730Y-14640198D01*
X8270730Y-14640198D02*
X8280254Y-14659246D01*
X8280254Y-14659246D02*
X8280254Y-14716388D01*
X8280254Y-14716388D02*
X8270730Y-14735436D01*
X8270730Y-14735436D02*
X8261206Y-14744960D01*
X8261206Y-14744960D02*
X8242158Y-14754484D01*
X8242158Y-14754484D02*
X8213587Y-14754484D01*
X8337396Y-14621150D02*
X8413587Y-14621150D01*
X8365968Y-14554484D02*
X8365968Y-14725912D01*
X8365968Y-14725912D02*
X8375492Y-14744960D01*
X8375492Y-14744960D02*
X8394539Y-14754484D01*
X8394539Y-14754484D02*
X8413587Y-14754484D01*
X8470730Y-14744960D02*
X8489777Y-14754484D01*
X8489777Y-14754484D02*
X8527873Y-14754484D01*
X8527873Y-14754484D02*
X8546920Y-14744960D01*
X8546920Y-14744960D02*
X8556444Y-14725912D01*
X8556444Y-14725912D02*
X8556444Y-14716388D01*
X8556444Y-14716388D02*
X8546920Y-14697341D01*
X8546920Y-14697341D02*
X8527873Y-14687817D01*
X8527873Y-14687817D02*
X8499301Y-14687817D01*
X8499301Y-14687817D02*
X8480254Y-14678293D01*
X8480254Y-14678293D02*
X8470730Y-14659246D01*
X8470730Y-14659246D02*
X8470730Y-14649722D01*
X8470730Y-14649722D02*
X8480254Y-14630674D01*
X8480254Y-14630674D02*
X8499301Y-14621150D01*
X8499301Y-14621150D02*
X8527873Y-14621150D01*
X8527873Y-14621150D02*
X8546920Y-14630674D01*
X8623111Y-14830674D02*
X8632635Y-14821150D01*
X8632635Y-14821150D02*
X8651682Y-14792579D01*
X8651682Y-14792579D02*
X8661206Y-14773531D01*
X8661206Y-14773531D02*
X8670730Y-14744960D01*
X8670730Y-14744960D02*
X8680254Y-14697341D01*
X8680254Y-14697341D02*
X8680254Y-14659246D01*
X8680254Y-14659246D02*
X8670730Y-14611627D01*
X8670730Y-14611627D02*
X8661206Y-14583055D01*
X8661206Y-14583055D02*
X8651682Y-14564008D01*
X8651682Y-14564008D02*
X8632635Y-14535436D01*
X8632635Y-14535436D02*
X8623111Y-14525912D01*
D10*
X2218749Y-14951749D02*
X2218749Y-14902251D01*
X2169251Y-14902251D01*
X2169251Y-14951749D01*
X2218749Y-14951749D01*
D11*
X2527872Y-14818484D02*
X2546920Y-14818484D01*
X2546920Y-14818484D02*
X2565967Y-14828008D01*
X2565967Y-14828008D02*
X2575491Y-14837531D01*
X2575491Y-14837531D02*
X2585015Y-14856579D01*
X2585015Y-14856579D02*
X2594539Y-14894674D01*
X2594539Y-14894674D02*
X2594539Y-14942293D01*
X2594539Y-14942293D02*
X2585015Y-14980388D01*
X2585015Y-14980388D02*
X2575491Y-14999436D01*
X2575491Y-14999436D02*
X2565967Y-15008960D01*
X2565967Y-15008960D02*
X2546920Y-15018484D01*
X2546920Y-15018484D02*
X2527872Y-15018484D01*
X2527872Y-15018484D02*
X2508824Y-15008960D01*
X2508824Y-15008960D02*
X2499301Y-14999436D01*
X2499301Y-14999436D02*
X2489777Y-14980388D01*
X2489777Y-14980388D02*
X2480253Y-14942293D01*
X2480253Y-14942293D02*
X2480253Y-14894674D01*
X2480253Y-14894674D02*
X2489777Y-14856579D01*
X2489777Y-14856579D02*
X2499301Y-14837531D01*
X2499301Y-14837531D02*
X2508824Y-14828008D01*
X2508824Y-14828008D02*
X2527872Y-14818484D01*
X2680253Y-14999436D02*
X2689777Y-15008960D01*
X2689777Y-15008960D02*
X2680253Y-15018484D01*
X2680253Y-15018484D02*
X2670729Y-15008960D01*
X2670729Y-15008960D02*
X2680253Y-14999436D01*
X2680253Y-14999436D02*
X2680253Y-15018484D01*
X2756444Y-14818484D02*
X2889777Y-14818484D01*
X2889777Y-14818484D02*
X2804062Y-15018484D01*
X3004062Y-14818484D02*
X3023110Y-14818484D01*
X3023110Y-14818484D02*
X3042158Y-14828008D01*
X3042158Y-14828008D02*
X3051682Y-14837531D01*
X3051682Y-14837531D02*
X3061205Y-14856579D01*
X3061205Y-14856579D02*
X3070729Y-14894674D01*
X3070729Y-14894674D02*
X3070729Y-14942293D01*
X3070729Y-14942293D02*
X3061205Y-14980388D01*
X3061205Y-14980388D02*
X3051682Y-14999436D01*
X3051682Y-14999436D02*
X3042158Y-15008960D01*
X3042158Y-15008960D02*
X3023110Y-15018484D01*
X3023110Y-15018484D02*
X3004062Y-15018484D01*
X3004062Y-15018484D02*
X2985015Y-15008960D01*
X2985015Y-15008960D02*
X2975491Y-14999436D01*
X2975491Y-14999436D02*
X2965967Y-14980388D01*
X2965967Y-14980388D02*
X2956443Y-14942293D01*
X2956443Y-14942293D02*
X2956443Y-14894674D01*
X2956443Y-14894674D02*
X2965967Y-14856579D01*
X2965967Y-14856579D02*
X2975491Y-14837531D01*
X2975491Y-14837531D02*
X2985015Y-14828008D01*
X2985015Y-14828008D02*
X3004062Y-14818484D01*
X3194539Y-14818484D02*
X3213586Y-14818484D01*
X3213586Y-14818484D02*
X3232634Y-14828008D01*
X3232634Y-14828008D02*
X3242158Y-14837531D01*
X3242158Y-14837531D02*
X3251682Y-14856579D01*
X3251682Y-14856579D02*
X3261205Y-14894674D01*
X3261205Y-14894674D02*
X3261205Y-14942293D01*
X3261205Y-14942293D02*
X3251682Y-14980388D01*
X3251682Y-14980388D02*
X3242158Y-14999436D01*
X3242158Y-14999436D02*
X3232634Y-15008960D01*
X3232634Y-15008960D02*
X3213586Y-15018484D01*
X3213586Y-15018484D02*
X3194539Y-15018484D01*
X3194539Y-15018484D02*
X3175491Y-15008960D01*
X3175491Y-15008960D02*
X3165967Y-14999436D01*
X3165967Y-14999436D02*
X3156443Y-14980388D01*
X3156443Y-14980388D02*
X3146920Y-14942293D01*
X3146920Y-14942293D02*
X3146920Y-14894674D01*
X3146920Y-14894674D02*
X3156443Y-14856579D01*
X3156443Y-14856579D02*
X3165967Y-14837531D01*
X3165967Y-14837531D02*
X3175491Y-14828008D01*
X3175491Y-14828008D02*
X3194539Y-14818484D01*
X3346920Y-15018484D02*
X3346920Y-14885150D01*
X3346920Y-14904198D02*
X3356443Y-14894674D01*
X3356443Y-14894674D02*
X3375491Y-14885150D01*
X3375491Y-14885150D02*
X3404063Y-14885150D01*
X3404063Y-14885150D02*
X3423110Y-14894674D01*
X3423110Y-14894674D02*
X3432634Y-14913722D01*
X3432634Y-14913722D02*
X3432634Y-15018484D01*
X3432634Y-14913722D02*
X3442158Y-14894674D01*
X3442158Y-14894674D02*
X3461205Y-14885150D01*
X3461205Y-14885150D02*
X3489777Y-14885150D01*
X3489777Y-14885150D02*
X3508824Y-14894674D01*
X3508824Y-14894674D02*
X3518348Y-14913722D01*
X3518348Y-14913722D02*
X3518348Y-15018484D01*
X3613586Y-15018484D02*
X3613586Y-14885150D01*
X3613586Y-14904198D02*
X3623110Y-14894674D01*
X3623110Y-14894674D02*
X3642158Y-14885150D01*
X3642158Y-14885150D02*
X3670729Y-14885150D01*
X3670729Y-14885150D02*
X3689777Y-14894674D01*
X3689777Y-14894674D02*
X3699301Y-14913722D01*
X3699301Y-14913722D02*
X3699301Y-15018484D01*
X3699301Y-14913722D02*
X3708824Y-14894674D01*
X3708824Y-14894674D02*
X3727872Y-14885150D01*
X3727872Y-14885150D02*
X3756443Y-14885150D01*
X3756443Y-14885150D02*
X3775491Y-14894674D01*
X3775491Y-14894674D02*
X3785015Y-14913722D01*
X3785015Y-14913722D02*
X3785015Y-15018484D01*
X4175491Y-14808960D02*
X4004063Y-15066103D01*
X4432634Y-14818484D02*
X4451682Y-14818484D01*
X4451682Y-14818484D02*
X4470729Y-14828008D01*
X4470729Y-14828008D02*
X4480253Y-14837531D01*
X4480253Y-14837531D02*
X4489777Y-14856579D01*
X4489777Y-14856579D02*
X4499301Y-14894674D01*
X4499301Y-14894674D02*
X4499301Y-14942293D01*
X4499301Y-14942293D02*
X4489777Y-14980388D01*
X4489777Y-14980388D02*
X4480253Y-14999436D01*
X4480253Y-14999436D02*
X4470729Y-15008960D01*
X4470729Y-15008960D02*
X4451682Y-15018484D01*
X4451682Y-15018484D02*
X4432634Y-15018484D01*
X4432634Y-15018484D02*
X4413587Y-15008960D01*
X4413587Y-15008960D02*
X4404063Y-14999436D01*
X4404063Y-14999436D02*
X4394539Y-14980388D01*
X4394539Y-14980388D02*
X4385015Y-14942293D01*
X4385015Y-14942293D02*
X4385015Y-14894674D01*
X4385015Y-14894674D02*
X4394539Y-14856579D01*
X4394539Y-14856579D02*
X4404063Y-14837531D01*
X4404063Y-14837531D02*
X4413587Y-14828008D01*
X4413587Y-14828008D02*
X4432634Y-14818484D01*
X4585015Y-14999436D02*
X4594539Y-15008960D01*
X4594539Y-15008960D02*
X4585015Y-15018484D01*
X4585015Y-15018484D02*
X4575491Y-15008960D01*
X4575491Y-15008960D02*
X4585015Y-14999436D01*
X4585015Y-14999436D02*
X4585015Y-15018484D01*
X4718348Y-14818484D02*
X4737396Y-14818484D01*
X4737396Y-14818484D02*
X4756444Y-14828008D01*
X4756444Y-14828008D02*
X4765968Y-14837531D01*
X4765968Y-14837531D02*
X4775491Y-14856579D01*
X4775491Y-14856579D02*
X4785015Y-14894674D01*
X4785015Y-14894674D02*
X4785015Y-14942293D01*
X4785015Y-14942293D02*
X4775491Y-14980388D01*
X4775491Y-14980388D02*
X4765968Y-14999436D01*
X4765968Y-14999436D02*
X4756444Y-15008960D01*
X4756444Y-15008960D02*
X4737396Y-15018484D01*
X4737396Y-15018484D02*
X4718348Y-15018484D01*
X4718348Y-15018484D02*
X4699301Y-15008960D01*
X4699301Y-15008960D02*
X4689777Y-14999436D01*
X4689777Y-14999436D02*
X4680253Y-14980388D01*
X4680253Y-14980388D02*
X4670729Y-14942293D01*
X4670729Y-14942293D02*
X4670729Y-14894674D01*
X4670729Y-14894674D02*
X4680253Y-14856579D01*
X4680253Y-14856579D02*
X4689777Y-14837531D01*
X4689777Y-14837531D02*
X4699301Y-14828008D01*
X4699301Y-14828008D02*
X4718348Y-14818484D01*
X4861206Y-14837531D02*
X4870729Y-14828008D01*
X4870729Y-14828008D02*
X4889777Y-14818484D01*
X4889777Y-14818484D02*
X4937396Y-14818484D01*
X4937396Y-14818484D02*
X4956444Y-14828008D01*
X4956444Y-14828008D02*
X4965968Y-14837531D01*
X4965968Y-14837531D02*
X4975491Y-14856579D01*
X4975491Y-14856579D02*
X4975491Y-14875627D01*
X4975491Y-14875627D02*
X4965968Y-14904198D01*
X4965968Y-14904198D02*
X4851682Y-15018484D01*
X4851682Y-15018484D02*
X4975491Y-15018484D01*
X5042158Y-14818484D02*
X5175491Y-14818484D01*
X5175491Y-14818484D02*
X5089777Y-15018484D01*
X5337396Y-14818484D02*
X5299301Y-14818484D01*
X5299301Y-14818484D02*
X5280253Y-14828008D01*
X5280253Y-14828008D02*
X5270729Y-14837531D01*
X5270729Y-14837531D02*
X5251682Y-14866103D01*
X5251682Y-14866103D02*
X5242158Y-14904198D01*
X5242158Y-14904198D02*
X5242158Y-14980388D01*
X5242158Y-14980388D02*
X5251682Y-14999436D01*
X5251682Y-14999436D02*
X5261206Y-15008960D01*
X5261206Y-15008960D02*
X5280253Y-15018484D01*
X5280253Y-15018484D02*
X5318349Y-15018484D01*
X5318349Y-15018484D02*
X5337396Y-15008960D01*
X5337396Y-15008960D02*
X5346920Y-14999436D01*
X5346920Y-14999436D02*
X5356444Y-14980388D01*
X5356444Y-14980388D02*
X5356444Y-14932769D01*
X5356444Y-14932769D02*
X5346920Y-14913722D01*
X5346920Y-14913722D02*
X5337396Y-14904198D01*
X5337396Y-14904198D02*
X5318349Y-14894674D01*
X5318349Y-14894674D02*
X5280253Y-14894674D01*
X5280253Y-14894674D02*
X5261206Y-14904198D01*
X5261206Y-14904198D02*
X5251682Y-14913722D01*
X5251682Y-14913722D02*
X5242158Y-14932769D01*
X5432634Y-14818484D02*
X5432634Y-14856579D01*
X5508825Y-14818484D02*
X5508825Y-14856579D01*
X5804063Y-15094674D02*
X5794539Y-15085150D01*
X5794539Y-15085150D02*
X5775491Y-15056579D01*
X5775491Y-15056579D02*
X5765968Y-15037531D01*
X5765968Y-15037531D02*
X5756444Y-15008960D01*
X5756444Y-15008960D02*
X5746920Y-14961341D01*
X5746920Y-14961341D02*
X5746920Y-14923246D01*
X5746920Y-14923246D02*
X5756444Y-14875627D01*
X5756444Y-14875627D02*
X5765968Y-14847055D01*
X5765968Y-14847055D02*
X5775491Y-14828008D01*
X5775491Y-14828008D02*
X5794539Y-14799436D01*
X5794539Y-14799436D02*
X5804063Y-14789912D01*
X5918348Y-14818484D02*
X5937396Y-14818484D01*
X5937396Y-14818484D02*
X5956444Y-14828008D01*
X5956444Y-14828008D02*
X5965968Y-14837531D01*
X5965968Y-14837531D02*
X5975491Y-14856579D01*
X5975491Y-14856579D02*
X5985015Y-14894674D01*
X5985015Y-14894674D02*
X5985015Y-14942293D01*
X5985015Y-14942293D02*
X5975491Y-14980388D01*
X5975491Y-14980388D02*
X5965968Y-14999436D01*
X5965968Y-14999436D02*
X5956444Y-15008960D01*
X5956444Y-15008960D02*
X5937396Y-15018484D01*
X5937396Y-15018484D02*
X5918348Y-15018484D01*
X5918348Y-15018484D02*
X5899301Y-15008960D01*
X5899301Y-15008960D02*
X5889777Y-14999436D01*
X5889777Y-14999436D02*
X5880253Y-14980388D01*
X5880253Y-14980388D02*
X5870729Y-14942293D01*
X5870729Y-14942293D02*
X5870729Y-14894674D01*
X5870729Y-14894674D02*
X5880253Y-14856579D01*
X5880253Y-14856579D02*
X5889777Y-14837531D01*
X5889777Y-14837531D02*
X5899301Y-14828008D01*
X5899301Y-14828008D02*
X5918348Y-14818484D01*
X6223110Y-15018484D02*
X6223110Y-14818484D01*
X6308825Y-15018484D02*
X6308825Y-14913722D01*
X6308825Y-14913722D02*
X6299301Y-14894674D01*
X6299301Y-14894674D02*
X6280253Y-14885150D01*
X6280253Y-14885150D02*
X6251682Y-14885150D01*
X6251682Y-14885150D02*
X6232634Y-14894674D01*
X6232634Y-14894674D02*
X6223110Y-14904198D01*
X6432634Y-15018484D02*
X6413587Y-15008960D01*
X6413587Y-15008960D02*
X6404063Y-14999436D01*
X6404063Y-14999436D02*
X6394539Y-14980388D01*
X6394539Y-14980388D02*
X6394539Y-14923246D01*
X6394539Y-14923246D02*
X6404063Y-14904198D01*
X6404063Y-14904198D02*
X6413587Y-14894674D01*
X6413587Y-14894674D02*
X6432634Y-14885150D01*
X6432634Y-14885150D02*
X6461206Y-14885150D01*
X6461206Y-14885150D02*
X6480253Y-14894674D01*
X6480253Y-14894674D02*
X6489777Y-14904198D01*
X6489777Y-14904198D02*
X6499301Y-14923246D01*
X6499301Y-14923246D02*
X6499301Y-14980388D01*
X6499301Y-14980388D02*
X6489777Y-14999436D01*
X6489777Y-14999436D02*
X6480253Y-15008960D01*
X6480253Y-15008960D02*
X6461206Y-15018484D01*
X6461206Y-15018484D02*
X6432634Y-15018484D01*
X6613587Y-15018484D02*
X6594539Y-15008960D01*
X6594539Y-15008960D02*
X6585015Y-14989912D01*
X6585015Y-14989912D02*
X6585015Y-14818484D01*
X6765968Y-15008960D02*
X6746920Y-15018484D01*
X6746920Y-15018484D02*
X6708825Y-15018484D01*
X6708825Y-15018484D02*
X6689777Y-15008960D01*
X6689777Y-15008960D02*
X6680253Y-14989912D01*
X6680253Y-14989912D02*
X6680253Y-14913722D01*
X6680253Y-14913722D02*
X6689777Y-14894674D01*
X6689777Y-14894674D02*
X6708825Y-14885150D01*
X6708825Y-14885150D02*
X6746920Y-14885150D01*
X6746920Y-14885150D02*
X6765968Y-14894674D01*
X6765968Y-14894674D02*
X6775491Y-14913722D01*
X6775491Y-14913722D02*
X6775491Y-14932769D01*
X6775491Y-14932769D02*
X6680253Y-14951817D01*
X6851682Y-15008960D02*
X6870730Y-15018484D01*
X6870730Y-15018484D02*
X6908825Y-15018484D01*
X6908825Y-15018484D02*
X6927872Y-15008960D01*
X6927872Y-15008960D02*
X6937396Y-14989912D01*
X6937396Y-14989912D02*
X6937396Y-14980388D01*
X6937396Y-14980388D02*
X6927872Y-14961341D01*
X6927872Y-14961341D02*
X6908825Y-14951817D01*
X6908825Y-14951817D02*
X6880253Y-14951817D01*
X6880253Y-14951817D02*
X6861206Y-14942293D01*
X6861206Y-14942293D02*
X6851682Y-14923246D01*
X6851682Y-14923246D02*
X6851682Y-14913722D01*
X6851682Y-14913722D02*
X6861206Y-14894674D01*
X6861206Y-14894674D02*
X6880253Y-14885150D01*
X6880253Y-14885150D02*
X6908825Y-14885150D01*
X6908825Y-14885150D02*
X6927872Y-14894674D01*
X7175492Y-14942293D02*
X7327873Y-14942293D01*
X7251682Y-15018484D02*
X7251682Y-14866103D01*
X7565968Y-14837531D02*
X7575492Y-14828008D01*
X7575492Y-14828008D02*
X7594539Y-14818484D01*
X7594539Y-14818484D02*
X7642158Y-14818484D01*
X7642158Y-14818484D02*
X7661206Y-14828008D01*
X7661206Y-14828008D02*
X7670730Y-14837531D01*
X7670730Y-14837531D02*
X7680253Y-14856579D01*
X7680253Y-14856579D02*
X7680253Y-14875627D01*
X7680253Y-14875627D02*
X7670730Y-14904198D01*
X7670730Y-14904198D02*
X7556444Y-15018484D01*
X7556444Y-15018484D02*
X7680253Y-15018484D01*
X7908825Y-15008960D02*
X7927873Y-15018484D01*
X7927873Y-15018484D02*
X7965968Y-15018484D01*
X7965968Y-15018484D02*
X7985015Y-15008960D01*
X7985015Y-15008960D02*
X7994539Y-14989912D01*
X7994539Y-14989912D02*
X7994539Y-14980388D01*
X7994539Y-14980388D02*
X7985015Y-14961341D01*
X7985015Y-14961341D02*
X7965968Y-14951817D01*
X7965968Y-14951817D02*
X7937396Y-14951817D01*
X7937396Y-14951817D02*
X7918349Y-14942293D01*
X7918349Y-14942293D02*
X7908825Y-14923246D01*
X7908825Y-14923246D02*
X7908825Y-14913722D01*
X7908825Y-14913722D02*
X7918349Y-14894674D01*
X7918349Y-14894674D02*
X7937396Y-14885150D01*
X7937396Y-14885150D02*
X7965968Y-14885150D01*
X7965968Y-14885150D02*
X7985015Y-14894674D01*
X8108825Y-15018484D02*
X8089777Y-15008960D01*
X8089777Y-15008960D02*
X8080254Y-14989912D01*
X8080254Y-14989912D02*
X8080254Y-14818484D01*
X8213587Y-15018484D02*
X8194539Y-15008960D01*
X8194539Y-15008960D02*
X8185015Y-14999436D01*
X8185015Y-14999436D02*
X8175492Y-14980388D01*
X8175492Y-14980388D02*
X8175492Y-14923246D01*
X8175492Y-14923246D02*
X8185015Y-14904198D01*
X8185015Y-14904198D02*
X8194539Y-14894674D01*
X8194539Y-14894674D02*
X8213587Y-14885150D01*
X8213587Y-14885150D02*
X8242158Y-14885150D01*
X8242158Y-14885150D02*
X8261206Y-14894674D01*
X8261206Y-14894674D02*
X8270730Y-14904198D01*
X8270730Y-14904198D02*
X8280254Y-14923246D01*
X8280254Y-14923246D02*
X8280254Y-14980388D01*
X8280254Y-14980388D02*
X8270730Y-14999436D01*
X8270730Y-14999436D02*
X8261206Y-15008960D01*
X8261206Y-15008960D02*
X8242158Y-15018484D01*
X8242158Y-15018484D02*
X8213587Y-15018484D01*
X8337396Y-14885150D02*
X8413587Y-14885150D01*
X8365968Y-14818484D02*
X8365968Y-14989912D01*
X8365968Y-14989912D02*
X8375492Y-15008960D01*
X8375492Y-15008960D02*
X8394539Y-15018484D01*
X8394539Y-15018484D02*
X8413587Y-15018484D01*
X8470730Y-15008960D02*
X8489777Y-15018484D01*
X8489777Y-15018484D02*
X8527873Y-15018484D01*
X8527873Y-15018484D02*
X8546920Y-15008960D01*
X8546920Y-15008960D02*
X8556444Y-14989912D01*
X8556444Y-14989912D02*
X8556444Y-14980388D01*
X8556444Y-14980388D02*
X8546920Y-14961341D01*
X8546920Y-14961341D02*
X8527873Y-14951817D01*
X8527873Y-14951817D02*
X8499301Y-14951817D01*
X8499301Y-14951817D02*
X8480254Y-14942293D01*
X8480254Y-14942293D02*
X8470730Y-14923246D01*
X8470730Y-14923246D02*
X8470730Y-14913722D01*
X8470730Y-14913722D02*
X8480254Y-14894674D01*
X8480254Y-14894674D02*
X8499301Y-14885150D01*
X8499301Y-14885150D02*
X8527873Y-14885150D01*
X8527873Y-14885150D02*
X8546920Y-14894674D01*
X8623111Y-15094674D02*
X8632635Y-15085150D01*
X8632635Y-15085150D02*
X8651682Y-15056579D01*
X8651682Y-15056579D02*
X8661206Y-15037531D01*
X8661206Y-15037531D02*
X8670730Y-15008960D01*
X8670730Y-15008960D02*
X8680254Y-14961341D01*
X8680254Y-14961341D02*
X8680254Y-14923246D01*
X8680254Y-14923246D02*
X8670730Y-14875627D01*
X8670730Y-14875627D02*
X8661206Y-14847055D01*
X8661206Y-14847055D02*
X8651682Y-14828008D01*
X8651682Y-14828008D02*
X8632635Y-14799436D01*
X8632635Y-14799436D02*
X8623111Y-14789912D01*
D10*
X2189000Y-15231000D02*
X2229000Y-15191000D01*
X2189000Y-15151000D01*
X2149000Y-15191000D01*
X2189000Y-15231000D01*
D11*
X2527872Y-15082484D02*
X2546920Y-15082484D01*
X2546920Y-15082484D02*
X2565967Y-15092008D01*
X2565967Y-15092008D02*
X2575491Y-15101531D01*
X2575491Y-15101531D02*
X2585015Y-15120579D01*
X2585015Y-15120579D02*
X2594539Y-15158674D01*
X2594539Y-15158674D02*
X2594539Y-15206293D01*
X2594539Y-15206293D02*
X2585015Y-15244388D01*
X2585015Y-15244388D02*
X2575491Y-15263436D01*
X2575491Y-15263436D02*
X2565967Y-15272960D01*
X2565967Y-15272960D02*
X2546920Y-15282484D01*
X2546920Y-15282484D02*
X2527872Y-15282484D01*
X2527872Y-15282484D02*
X2508824Y-15272960D01*
X2508824Y-15272960D02*
X2499301Y-15263436D01*
X2499301Y-15263436D02*
X2489777Y-15244388D01*
X2489777Y-15244388D02*
X2480253Y-15206293D01*
X2480253Y-15206293D02*
X2480253Y-15158674D01*
X2480253Y-15158674D02*
X2489777Y-15120579D01*
X2489777Y-15120579D02*
X2499301Y-15101531D01*
X2499301Y-15101531D02*
X2508824Y-15092008D01*
X2508824Y-15092008D02*
X2527872Y-15082484D01*
X2680253Y-15263436D02*
X2689777Y-15272960D01*
X2689777Y-15272960D02*
X2680253Y-15282484D01*
X2680253Y-15282484D02*
X2670729Y-15272960D01*
X2670729Y-15272960D02*
X2680253Y-15263436D01*
X2680253Y-15263436D02*
X2680253Y-15282484D01*
X2804062Y-15168198D02*
X2785015Y-15158674D01*
X2785015Y-15158674D02*
X2775491Y-15149150D01*
X2775491Y-15149150D02*
X2765967Y-15130103D01*
X2765967Y-15130103D02*
X2765967Y-15120579D01*
X2765967Y-15120579D02*
X2775491Y-15101531D01*
X2775491Y-15101531D02*
X2785015Y-15092008D01*
X2785015Y-15092008D02*
X2804062Y-15082484D01*
X2804062Y-15082484D02*
X2842158Y-15082484D01*
X2842158Y-15082484D02*
X2861205Y-15092008D01*
X2861205Y-15092008D02*
X2870729Y-15101531D01*
X2870729Y-15101531D02*
X2880253Y-15120579D01*
X2880253Y-15120579D02*
X2880253Y-15130103D01*
X2880253Y-15130103D02*
X2870729Y-15149150D01*
X2870729Y-15149150D02*
X2861205Y-15158674D01*
X2861205Y-15158674D02*
X2842158Y-15168198D01*
X2842158Y-15168198D02*
X2804062Y-15168198D01*
X2804062Y-15168198D02*
X2785015Y-15177722D01*
X2785015Y-15177722D02*
X2775491Y-15187246D01*
X2775491Y-15187246D02*
X2765967Y-15206293D01*
X2765967Y-15206293D02*
X2765967Y-15244388D01*
X2765967Y-15244388D02*
X2775491Y-15263436D01*
X2775491Y-15263436D02*
X2785015Y-15272960D01*
X2785015Y-15272960D02*
X2804062Y-15282484D01*
X2804062Y-15282484D02*
X2842158Y-15282484D01*
X2842158Y-15282484D02*
X2861205Y-15272960D01*
X2861205Y-15272960D02*
X2870729Y-15263436D01*
X2870729Y-15263436D02*
X2880253Y-15244388D01*
X2880253Y-15244388D02*
X2880253Y-15206293D01*
X2880253Y-15206293D02*
X2870729Y-15187246D01*
X2870729Y-15187246D02*
X2861205Y-15177722D01*
X2861205Y-15177722D02*
X2842158Y-15168198D01*
X3004062Y-15082484D02*
X3023110Y-15082484D01*
X3023110Y-15082484D02*
X3042158Y-15092008D01*
X3042158Y-15092008D02*
X3051682Y-15101531D01*
X3051682Y-15101531D02*
X3061205Y-15120579D01*
X3061205Y-15120579D02*
X3070729Y-15158674D01*
X3070729Y-15158674D02*
X3070729Y-15206293D01*
X3070729Y-15206293D02*
X3061205Y-15244388D01*
X3061205Y-15244388D02*
X3051682Y-15263436D01*
X3051682Y-15263436D02*
X3042158Y-15272960D01*
X3042158Y-15272960D02*
X3023110Y-15282484D01*
X3023110Y-15282484D02*
X3004062Y-15282484D01*
X3004062Y-15282484D02*
X2985015Y-15272960D01*
X2985015Y-15272960D02*
X2975491Y-15263436D01*
X2975491Y-15263436D02*
X2965967Y-15244388D01*
X2965967Y-15244388D02*
X2956443Y-15206293D01*
X2956443Y-15206293D02*
X2956443Y-15158674D01*
X2956443Y-15158674D02*
X2965967Y-15120579D01*
X2965967Y-15120579D02*
X2975491Y-15101531D01*
X2975491Y-15101531D02*
X2985015Y-15092008D01*
X2985015Y-15092008D02*
X3004062Y-15082484D01*
X3194539Y-15082484D02*
X3213586Y-15082484D01*
X3213586Y-15082484D02*
X3232634Y-15092008D01*
X3232634Y-15092008D02*
X3242158Y-15101531D01*
X3242158Y-15101531D02*
X3251682Y-15120579D01*
X3251682Y-15120579D02*
X3261205Y-15158674D01*
X3261205Y-15158674D02*
X3261205Y-15206293D01*
X3261205Y-15206293D02*
X3251682Y-15244388D01*
X3251682Y-15244388D02*
X3242158Y-15263436D01*
X3242158Y-15263436D02*
X3232634Y-15272960D01*
X3232634Y-15272960D02*
X3213586Y-15282484D01*
X3213586Y-15282484D02*
X3194539Y-15282484D01*
X3194539Y-15282484D02*
X3175491Y-15272960D01*
X3175491Y-15272960D02*
X3165967Y-15263436D01*
X3165967Y-15263436D02*
X3156443Y-15244388D01*
X3156443Y-15244388D02*
X3146920Y-15206293D01*
X3146920Y-15206293D02*
X3146920Y-15158674D01*
X3146920Y-15158674D02*
X3156443Y-15120579D01*
X3156443Y-15120579D02*
X3165967Y-15101531D01*
X3165967Y-15101531D02*
X3175491Y-15092008D01*
X3175491Y-15092008D02*
X3194539Y-15082484D01*
X3346920Y-15282484D02*
X3346920Y-15149150D01*
X3346920Y-15168198D02*
X3356443Y-15158674D01*
X3356443Y-15158674D02*
X3375491Y-15149150D01*
X3375491Y-15149150D02*
X3404063Y-15149150D01*
X3404063Y-15149150D02*
X3423110Y-15158674D01*
X3423110Y-15158674D02*
X3432634Y-15177722D01*
X3432634Y-15177722D02*
X3432634Y-15282484D01*
X3432634Y-15177722D02*
X3442158Y-15158674D01*
X3442158Y-15158674D02*
X3461205Y-15149150D01*
X3461205Y-15149150D02*
X3489777Y-15149150D01*
X3489777Y-15149150D02*
X3508824Y-15158674D01*
X3508824Y-15158674D02*
X3518348Y-15177722D01*
X3518348Y-15177722D02*
X3518348Y-15282484D01*
X3613586Y-15282484D02*
X3613586Y-15149150D01*
X3613586Y-15168198D02*
X3623110Y-15158674D01*
X3623110Y-15158674D02*
X3642158Y-15149150D01*
X3642158Y-15149150D02*
X3670729Y-15149150D01*
X3670729Y-15149150D02*
X3689777Y-15158674D01*
X3689777Y-15158674D02*
X3699301Y-15177722D01*
X3699301Y-15177722D02*
X3699301Y-15282484D01*
X3699301Y-15177722D02*
X3708824Y-15158674D01*
X3708824Y-15158674D02*
X3727872Y-15149150D01*
X3727872Y-15149150D02*
X3756443Y-15149150D01*
X3756443Y-15149150D02*
X3775491Y-15158674D01*
X3775491Y-15158674D02*
X3785015Y-15177722D01*
X3785015Y-15177722D02*
X3785015Y-15282484D01*
X4175491Y-15072960D02*
X4004063Y-15330103D01*
X4432634Y-15082484D02*
X4451682Y-15082484D01*
X4451682Y-15082484D02*
X4470729Y-15092008D01*
X4470729Y-15092008D02*
X4480253Y-15101531D01*
X4480253Y-15101531D02*
X4489777Y-15120579D01*
X4489777Y-15120579D02*
X4499301Y-15158674D01*
X4499301Y-15158674D02*
X4499301Y-15206293D01*
X4499301Y-15206293D02*
X4489777Y-15244388D01*
X4489777Y-15244388D02*
X4480253Y-15263436D01*
X4480253Y-15263436D02*
X4470729Y-15272960D01*
X4470729Y-15272960D02*
X4451682Y-15282484D01*
X4451682Y-15282484D02*
X4432634Y-15282484D01*
X4432634Y-15282484D02*
X4413587Y-15272960D01*
X4413587Y-15272960D02*
X4404063Y-15263436D01*
X4404063Y-15263436D02*
X4394539Y-15244388D01*
X4394539Y-15244388D02*
X4385015Y-15206293D01*
X4385015Y-15206293D02*
X4385015Y-15158674D01*
X4385015Y-15158674D02*
X4394539Y-15120579D01*
X4394539Y-15120579D02*
X4404063Y-15101531D01*
X4404063Y-15101531D02*
X4413587Y-15092008D01*
X4413587Y-15092008D02*
X4432634Y-15082484D01*
X4585015Y-15263436D02*
X4594539Y-15272960D01*
X4594539Y-15272960D02*
X4585015Y-15282484D01*
X4585015Y-15282484D02*
X4575491Y-15272960D01*
X4575491Y-15272960D02*
X4585015Y-15263436D01*
X4585015Y-15263436D02*
X4585015Y-15282484D01*
X4718348Y-15082484D02*
X4737396Y-15082484D01*
X4737396Y-15082484D02*
X4756444Y-15092008D01*
X4756444Y-15092008D02*
X4765968Y-15101531D01*
X4765968Y-15101531D02*
X4775491Y-15120579D01*
X4775491Y-15120579D02*
X4785015Y-15158674D01*
X4785015Y-15158674D02*
X4785015Y-15206293D01*
X4785015Y-15206293D02*
X4775491Y-15244388D01*
X4775491Y-15244388D02*
X4765968Y-15263436D01*
X4765968Y-15263436D02*
X4756444Y-15272960D01*
X4756444Y-15272960D02*
X4737396Y-15282484D01*
X4737396Y-15282484D02*
X4718348Y-15282484D01*
X4718348Y-15282484D02*
X4699301Y-15272960D01*
X4699301Y-15272960D02*
X4689777Y-15263436D01*
X4689777Y-15263436D02*
X4680253Y-15244388D01*
X4680253Y-15244388D02*
X4670729Y-15206293D01*
X4670729Y-15206293D02*
X4670729Y-15158674D01*
X4670729Y-15158674D02*
X4680253Y-15120579D01*
X4680253Y-15120579D02*
X4689777Y-15101531D01*
X4689777Y-15101531D02*
X4699301Y-15092008D01*
X4699301Y-15092008D02*
X4718348Y-15082484D01*
X4851682Y-15082484D02*
X4975491Y-15082484D01*
X4975491Y-15082484D02*
X4908825Y-15158674D01*
X4908825Y-15158674D02*
X4937396Y-15158674D01*
X4937396Y-15158674D02*
X4956444Y-15168198D01*
X4956444Y-15168198D02*
X4965968Y-15177722D01*
X4965968Y-15177722D02*
X4975491Y-15196769D01*
X4975491Y-15196769D02*
X4975491Y-15244388D01*
X4975491Y-15244388D02*
X4965968Y-15263436D01*
X4965968Y-15263436D02*
X4956444Y-15272960D01*
X4956444Y-15272960D02*
X4937396Y-15282484D01*
X4937396Y-15282484D02*
X4880253Y-15282484D01*
X4880253Y-15282484D02*
X4861206Y-15272960D01*
X4861206Y-15272960D02*
X4851682Y-15263436D01*
X5165968Y-15282484D02*
X5051682Y-15282484D01*
X5108825Y-15282484D02*
X5108825Y-15082484D01*
X5108825Y-15082484D02*
X5089777Y-15111055D01*
X5089777Y-15111055D02*
X5070729Y-15130103D01*
X5070729Y-15130103D02*
X5051682Y-15139627D01*
X5346920Y-15082484D02*
X5251682Y-15082484D01*
X5251682Y-15082484D02*
X5242158Y-15177722D01*
X5242158Y-15177722D02*
X5251682Y-15168198D01*
X5251682Y-15168198D02*
X5270729Y-15158674D01*
X5270729Y-15158674D02*
X5318349Y-15158674D01*
X5318349Y-15158674D02*
X5337396Y-15168198D01*
X5337396Y-15168198D02*
X5346920Y-15177722D01*
X5346920Y-15177722D02*
X5356444Y-15196769D01*
X5356444Y-15196769D02*
X5356444Y-15244388D01*
X5356444Y-15244388D02*
X5346920Y-15263436D01*
X5346920Y-15263436D02*
X5337396Y-15272960D01*
X5337396Y-15272960D02*
X5318349Y-15282484D01*
X5318349Y-15282484D02*
X5270729Y-15282484D01*
X5270729Y-15282484D02*
X5251682Y-15272960D01*
X5251682Y-15272960D02*
X5242158Y-15263436D01*
X5432634Y-15082484D02*
X5432634Y-15120579D01*
X5508825Y-15082484D02*
X5508825Y-15120579D01*
X5804063Y-15358674D02*
X5794539Y-15349150D01*
X5794539Y-15349150D02*
X5775491Y-15320579D01*
X5775491Y-15320579D02*
X5765968Y-15301531D01*
X5765968Y-15301531D02*
X5756444Y-15272960D01*
X5756444Y-15272960D02*
X5746920Y-15225341D01*
X5746920Y-15225341D02*
X5746920Y-15187246D01*
X5746920Y-15187246D02*
X5756444Y-15139627D01*
X5756444Y-15139627D02*
X5765968Y-15111055D01*
X5765968Y-15111055D02*
X5775491Y-15092008D01*
X5775491Y-15092008D02*
X5794539Y-15063436D01*
X5794539Y-15063436D02*
X5804063Y-15053912D01*
X5870729Y-15101531D02*
X5880253Y-15092008D01*
X5880253Y-15092008D02*
X5899301Y-15082484D01*
X5899301Y-15082484D02*
X5946920Y-15082484D01*
X5946920Y-15082484D02*
X5965968Y-15092008D01*
X5965968Y-15092008D02*
X5975491Y-15101531D01*
X5975491Y-15101531D02*
X5985015Y-15120579D01*
X5985015Y-15120579D02*
X5985015Y-15139627D01*
X5985015Y-15139627D02*
X5975491Y-15168198D01*
X5975491Y-15168198D02*
X5861206Y-15282484D01*
X5861206Y-15282484D02*
X5985015Y-15282484D01*
X6223110Y-15282484D02*
X6223110Y-15082484D01*
X6308825Y-15282484D02*
X6308825Y-15177722D01*
X6308825Y-15177722D02*
X6299301Y-15158674D01*
X6299301Y-15158674D02*
X6280253Y-15149150D01*
X6280253Y-15149150D02*
X6251682Y-15149150D01*
X6251682Y-15149150D02*
X6232634Y-15158674D01*
X6232634Y-15158674D02*
X6223110Y-15168198D01*
X6432634Y-15282484D02*
X6413587Y-15272960D01*
X6413587Y-15272960D02*
X6404063Y-15263436D01*
X6404063Y-15263436D02*
X6394539Y-15244388D01*
X6394539Y-15244388D02*
X6394539Y-15187246D01*
X6394539Y-15187246D02*
X6404063Y-15168198D01*
X6404063Y-15168198D02*
X6413587Y-15158674D01*
X6413587Y-15158674D02*
X6432634Y-15149150D01*
X6432634Y-15149150D02*
X6461206Y-15149150D01*
X6461206Y-15149150D02*
X6480253Y-15158674D01*
X6480253Y-15158674D02*
X6489777Y-15168198D01*
X6489777Y-15168198D02*
X6499301Y-15187246D01*
X6499301Y-15187246D02*
X6499301Y-15244388D01*
X6499301Y-15244388D02*
X6489777Y-15263436D01*
X6489777Y-15263436D02*
X6480253Y-15272960D01*
X6480253Y-15272960D02*
X6461206Y-15282484D01*
X6461206Y-15282484D02*
X6432634Y-15282484D01*
X6613587Y-15282484D02*
X6594539Y-15272960D01*
X6594539Y-15272960D02*
X6585015Y-15253912D01*
X6585015Y-15253912D02*
X6585015Y-15082484D01*
X6765968Y-15272960D02*
X6746920Y-15282484D01*
X6746920Y-15282484D02*
X6708825Y-15282484D01*
X6708825Y-15282484D02*
X6689777Y-15272960D01*
X6689777Y-15272960D02*
X6680253Y-15253912D01*
X6680253Y-15253912D02*
X6680253Y-15177722D01*
X6680253Y-15177722D02*
X6689777Y-15158674D01*
X6689777Y-15158674D02*
X6708825Y-15149150D01*
X6708825Y-15149150D02*
X6746920Y-15149150D01*
X6746920Y-15149150D02*
X6765968Y-15158674D01*
X6765968Y-15158674D02*
X6775491Y-15177722D01*
X6775491Y-15177722D02*
X6775491Y-15196769D01*
X6775491Y-15196769D02*
X6680253Y-15215817D01*
X6851682Y-15272960D02*
X6870730Y-15282484D01*
X6870730Y-15282484D02*
X6908825Y-15282484D01*
X6908825Y-15282484D02*
X6927872Y-15272960D01*
X6927872Y-15272960D02*
X6937396Y-15253912D01*
X6937396Y-15253912D02*
X6937396Y-15244388D01*
X6937396Y-15244388D02*
X6927872Y-15225341D01*
X6927872Y-15225341D02*
X6908825Y-15215817D01*
X6908825Y-15215817D02*
X6880253Y-15215817D01*
X6880253Y-15215817D02*
X6861206Y-15206293D01*
X6861206Y-15206293D02*
X6851682Y-15187246D01*
X6851682Y-15187246D02*
X6851682Y-15177722D01*
X6851682Y-15177722D02*
X6861206Y-15158674D01*
X6861206Y-15158674D02*
X6880253Y-15149150D01*
X6880253Y-15149150D02*
X6908825Y-15149150D01*
X6908825Y-15149150D02*
X6927872Y-15158674D01*
X7004063Y-15358674D02*
X7013587Y-15349150D01*
X7013587Y-15349150D02*
X7032634Y-15320579D01*
X7032634Y-15320579D02*
X7042158Y-15301531D01*
X7042158Y-15301531D02*
X7051682Y-15272960D01*
X7051682Y-15272960D02*
X7061206Y-15225341D01*
X7061206Y-15225341D02*
X7061206Y-15187246D01*
X7061206Y-15187246D02*
X7051682Y-15139627D01*
X7051682Y-15139627D02*
X7042158Y-15111055D01*
X7042158Y-15111055D02*
X7032634Y-15092008D01*
X7032634Y-15092008D02*
X7013587Y-15063436D01*
X7013587Y-15063436D02*
X7004063Y-15053912D01*
D10*
X2129000Y-15405000D02*
X2229000Y-15505000D01*
X2229000Y-15405000D02*
X2129000Y-15505000D01*
X2229000Y-15455000D02*
G75*
G02*
X2129000Y-15455000I-50000J0D01*
G01*
X2129000Y-15455000D02*
G75*
G02*
X2229000Y-15455000I50000J0D01*
G01*
D11*
X2594539Y-15546484D02*
X2480253Y-15546484D01*
X2537396Y-15546484D02*
X2537396Y-15346484D01*
X2537396Y-15346484D02*
X2518348Y-15375055D01*
X2518348Y-15375055D02*
X2499301Y-15394103D01*
X2499301Y-15394103D02*
X2480253Y-15403627D01*
X2680253Y-15527436D02*
X2689777Y-15536960D01*
X2689777Y-15536960D02*
X2680253Y-15546484D01*
X2680253Y-15546484D02*
X2670729Y-15536960D01*
X2670729Y-15536960D02*
X2680253Y-15527436D01*
X2680253Y-15527436D02*
X2680253Y-15546484D01*
X2813586Y-15346484D02*
X2832634Y-15346484D01*
X2832634Y-15346484D02*
X2851682Y-15356008D01*
X2851682Y-15356008D02*
X2861205Y-15365531D01*
X2861205Y-15365531D02*
X2870729Y-15384579D01*
X2870729Y-15384579D02*
X2880253Y-15422674D01*
X2880253Y-15422674D02*
X2880253Y-15470293D01*
X2880253Y-15470293D02*
X2870729Y-15508388D01*
X2870729Y-15508388D02*
X2861205Y-15527436D01*
X2861205Y-15527436D02*
X2851682Y-15536960D01*
X2851682Y-15536960D02*
X2832634Y-15546484D01*
X2832634Y-15546484D02*
X2813586Y-15546484D01*
X2813586Y-15546484D02*
X2794539Y-15536960D01*
X2794539Y-15536960D02*
X2785015Y-15527436D01*
X2785015Y-15527436D02*
X2775491Y-15508388D01*
X2775491Y-15508388D02*
X2765967Y-15470293D01*
X2765967Y-15470293D02*
X2765967Y-15422674D01*
X2765967Y-15422674D02*
X2775491Y-15384579D01*
X2775491Y-15384579D02*
X2785015Y-15365531D01*
X2785015Y-15365531D02*
X2794539Y-15356008D01*
X2794539Y-15356008D02*
X2813586Y-15346484D01*
X3004062Y-15346484D02*
X3023110Y-15346484D01*
X3023110Y-15346484D02*
X3042158Y-15356008D01*
X3042158Y-15356008D02*
X3051682Y-15365531D01*
X3051682Y-15365531D02*
X3061205Y-15384579D01*
X3061205Y-15384579D02*
X3070729Y-15422674D01*
X3070729Y-15422674D02*
X3070729Y-15470293D01*
X3070729Y-15470293D02*
X3061205Y-15508388D01*
X3061205Y-15508388D02*
X3051682Y-15527436D01*
X3051682Y-15527436D02*
X3042158Y-15536960D01*
X3042158Y-15536960D02*
X3023110Y-15546484D01*
X3023110Y-15546484D02*
X3004062Y-15546484D01*
X3004062Y-15546484D02*
X2985015Y-15536960D01*
X2985015Y-15536960D02*
X2975491Y-15527436D01*
X2975491Y-15527436D02*
X2965967Y-15508388D01*
X2965967Y-15508388D02*
X2956443Y-15470293D01*
X2956443Y-15470293D02*
X2956443Y-15422674D01*
X2956443Y-15422674D02*
X2965967Y-15384579D01*
X2965967Y-15384579D02*
X2975491Y-15365531D01*
X2975491Y-15365531D02*
X2985015Y-15356008D01*
X2985015Y-15356008D02*
X3004062Y-15346484D01*
X3194539Y-15346484D02*
X3213586Y-15346484D01*
X3213586Y-15346484D02*
X3232634Y-15356008D01*
X3232634Y-15356008D02*
X3242158Y-15365531D01*
X3242158Y-15365531D02*
X3251682Y-15384579D01*
X3251682Y-15384579D02*
X3261205Y-15422674D01*
X3261205Y-15422674D02*
X3261205Y-15470293D01*
X3261205Y-15470293D02*
X3251682Y-15508388D01*
X3251682Y-15508388D02*
X3242158Y-15527436D01*
X3242158Y-15527436D02*
X3232634Y-15536960D01*
X3232634Y-15536960D02*
X3213586Y-15546484D01*
X3213586Y-15546484D02*
X3194539Y-15546484D01*
X3194539Y-15546484D02*
X3175491Y-15536960D01*
X3175491Y-15536960D02*
X3165967Y-15527436D01*
X3165967Y-15527436D02*
X3156443Y-15508388D01*
X3156443Y-15508388D02*
X3146920Y-15470293D01*
X3146920Y-15470293D02*
X3146920Y-15422674D01*
X3146920Y-15422674D02*
X3156443Y-15384579D01*
X3156443Y-15384579D02*
X3165967Y-15365531D01*
X3165967Y-15365531D02*
X3175491Y-15356008D01*
X3175491Y-15356008D02*
X3194539Y-15346484D01*
X3346920Y-15546484D02*
X3346920Y-15413150D01*
X3346920Y-15432198D02*
X3356443Y-15422674D01*
X3356443Y-15422674D02*
X3375491Y-15413150D01*
X3375491Y-15413150D02*
X3404063Y-15413150D01*
X3404063Y-15413150D02*
X3423110Y-15422674D01*
X3423110Y-15422674D02*
X3432634Y-15441722D01*
X3432634Y-15441722D02*
X3432634Y-15546484D01*
X3432634Y-15441722D02*
X3442158Y-15422674D01*
X3442158Y-15422674D02*
X3461205Y-15413150D01*
X3461205Y-15413150D02*
X3489777Y-15413150D01*
X3489777Y-15413150D02*
X3508824Y-15422674D01*
X3508824Y-15422674D02*
X3518348Y-15441722D01*
X3518348Y-15441722D02*
X3518348Y-15546484D01*
X3613586Y-15546484D02*
X3613586Y-15413150D01*
X3613586Y-15432198D02*
X3623110Y-15422674D01*
X3623110Y-15422674D02*
X3642158Y-15413150D01*
X3642158Y-15413150D02*
X3670729Y-15413150D01*
X3670729Y-15413150D02*
X3689777Y-15422674D01*
X3689777Y-15422674D02*
X3699301Y-15441722D01*
X3699301Y-15441722D02*
X3699301Y-15546484D01*
X3699301Y-15441722D02*
X3708824Y-15422674D01*
X3708824Y-15422674D02*
X3727872Y-15413150D01*
X3727872Y-15413150D02*
X3756443Y-15413150D01*
X3756443Y-15413150D02*
X3775491Y-15422674D01*
X3775491Y-15422674D02*
X3785015Y-15441722D01*
X3785015Y-15441722D02*
X3785015Y-15546484D01*
X4175491Y-15336960D02*
X4004063Y-15594103D01*
X4432634Y-15346484D02*
X4451682Y-15346484D01*
X4451682Y-15346484D02*
X4470729Y-15356008D01*
X4470729Y-15356008D02*
X4480253Y-15365531D01*
X4480253Y-15365531D02*
X4489777Y-15384579D01*
X4489777Y-15384579D02*
X4499301Y-15422674D01*
X4499301Y-15422674D02*
X4499301Y-15470293D01*
X4499301Y-15470293D02*
X4489777Y-15508388D01*
X4489777Y-15508388D02*
X4480253Y-15527436D01*
X4480253Y-15527436D02*
X4470729Y-15536960D01*
X4470729Y-15536960D02*
X4451682Y-15546484D01*
X4451682Y-15546484D02*
X4432634Y-15546484D01*
X4432634Y-15546484D02*
X4413587Y-15536960D01*
X4413587Y-15536960D02*
X4404063Y-15527436D01*
X4404063Y-15527436D02*
X4394539Y-15508388D01*
X4394539Y-15508388D02*
X4385015Y-15470293D01*
X4385015Y-15470293D02*
X4385015Y-15422674D01*
X4385015Y-15422674D02*
X4394539Y-15384579D01*
X4394539Y-15384579D02*
X4404063Y-15365531D01*
X4404063Y-15365531D02*
X4413587Y-15356008D01*
X4413587Y-15356008D02*
X4432634Y-15346484D01*
X4585015Y-15527436D02*
X4594539Y-15536960D01*
X4594539Y-15536960D02*
X4585015Y-15546484D01*
X4585015Y-15546484D02*
X4575491Y-15536960D01*
X4575491Y-15536960D02*
X4585015Y-15527436D01*
X4585015Y-15527436D02*
X4585015Y-15546484D01*
X4718348Y-15346484D02*
X4737396Y-15346484D01*
X4737396Y-15346484D02*
X4756444Y-15356008D01*
X4756444Y-15356008D02*
X4765968Y-15365531D01*
X4765968Y-15365531D02*
X4775491Y-15384579D01*
X4775491Y-15384579D02*
X4785015Y-15422674D01*
X4785015Y-15422674D02*
X4785015Y-15470293D01*
X4785015Y-15470293D02*
X4775491Y-15508388D01*
X4775491Y-15508388D02*
X4765968Y-15527436D01*
X4765968Y-15527436D02*
X4756444Y-15536960D01*
X4756444Y-15536960D02*
X4737396Y-15546484D01*
X4737396Y-15546484D02*
X4718348Y-15546484D01*
X4718348Y-15546484D02*
X4699301Y-15536960D01*
X4699301Y-15536960D02*
X4689777Y-15527436D01*
X4689777Y-15527436D02*
X4680253Y-15508388D01*
X4680253Y-15508388D02*
X4670729Y-15470293D01*
X4670729Y-15470293D02*
X4670729Y-15422674D01*
X4670729Y-15422674D02*
X4680253Y-15384579D01*
X4680253Y-15384579D02*
X4689777Y-15365531D01*
X4689777Y-15365531D02*
X4699301Y-15356008D01*
X4699301Y-15356008D02*
X4718348Y-15346484D01*
X4851682Y-15346484D02*
X4975491Y-15346484D01*
X4975491Y-15346484D02*
X4908825Y-15422674D01*
X4908825Y-15422674D02*
X4937396Y-15422674D01*
X4937396Y-15422674D02*
X4956444Y-15432198D01*
X4956444Y-15432198D02*
X4965968Y-15441722D01*
X4965968Y-15441722D02*
X4975491Y-15460769D01*
X4975491Y-15460769D02*
X4975491Y-15508388D01*
X4975491Y-15508388D02*
X4965968Y-15527436D01*
X4965968Y-15527436D02*
X4956444Y-15536960D01*
X4956444Y-15536960D02*
X4937396Y-15546484D01*
X4937396Y-15546484D02*
X4880253Y-15546484D01*
X4880253Y-15546484D02*
X4861206Y-15536960D01*
X4861206Y-15536960D02*
X4851682Y-15527436D01*
X5070729Y-15546484D02*
X5108825Y-15546484D01*
X5108825Y-15546484D02*
X5127872Y-15536960D01*
X5127872Y-15536960D02*
X5137396Y-15527436D01*
X5137396Y-15527436D02*
X5156444Y-15498865D01*
X5156444Y-15498865D02*
X5165968Y-15460769D01*
X5165968Y-15460769D02*
X5165968Y-15384579D01*
X5165968Y-15384579D02*
X5156444Y-15365531D01*
X5156444Y-15365531D02*
X5146920Y-15356008D01*
X5146920Y-15356008D02*
X5127872Y-15346484D01*
X5127872Y-15346484D02*
X5089777Y-15346484D01*
X5089777Y-15346484D02*
X5070729Y-15356008D01*
X5070729Y-15356008D02*
X5061206Y-15365531D01*
X5061206Y-15365531D02*
X5051682Y-15384579D01*
X5051682Y-15384579D02*
X5051682Y-15432198D01*
X5051682Y-15432198D02*
X5061206Y-15451246D01*
X5061206Y-15451246D02*
X5070729Y-15460769D01*
X5070729Y-15460769D02*
X5089777Y-15470293D01*
X5089777Y-15470293D02*
X5127872Y-15470293D01*
X5127872Y-15470293D02*
X5146920Y-15460769D01*
X5146920Y-15460769D02*
X5156444Y-15451246D01*
X5156444Y-15451246D02*
X5165968Y-15432198D01*
X5337396Y-15413150D02*
X5337396Y-15546484D01*
X5289777Y-15336960D02*
X5242158Y-15479817D01*
X5242158Y-15479817D02*
X5365968Y-15479817D01*
X5432634Y-15346484D02*
X5432634Y-15384579D01*
X5508825Y-15346484D02*
X5508825Y-15384579D01*
X5804063Y-15622674D02*
X5794539Y-15613150D01*
X5794539Y-15613150D02*
X5775491Y-15584579D01*
X5775491Y-15584579D02*
X5765968Y-15565531D01*
X5765968Y-15565531D02*
X5756444Y-15536960D01*
X5756444Y-15536960D02*
X5746920Y-15489341D01*
X5746920Y-15489341D02*
X5746920Y-15451246D01*
X5746920Y-15451246D02*
X5756444Y-15403627D01*
X5756444Y-15403627D02*
X5765968Y-15375055D01*
X5765968Y-15375055D02*
X5775491Y-15356008D01*
X5775491Y-15356008D02*
X5794539Y-15327436D01*
X5794539Y-15327436D02*
X5804063Y-15317912D01*
X5985015Y-15546484D02*
X5870729Y-15546484D01*
X5927872Y-15546484D02*
X5927872Y-15346484D01*
X5927872Y-15346484D02*
X5908825Y-15375055D01*
X5908825Y-15375055D02*
X5889777Y-15394103D01*
X5889777Y-15394103D02*
X5870729Y-15403627D01*
X6061206Y-15365531D02*
X6070729Y-15356008D01*
X6070729Y-15356008D02*
X6089777Y-15346484D01*
X6089777Y-15346484D02*
X6137396Y-15346484D01*
X6137396Y-15346484D02*
X6156444Y-15356008D01*
X6156444Y-15356008D02*
X6165968Y-15365531D01*
X6165968Y-15365531D02*
X6175491Y-15384579D01*
X6175491Y-15384579D02*
X6175491Y-15403627D01*
X6175491Y-15403627D02*
X6165968Y-15432198D01*
X6165968Y-15432198D02*
X6051682Y-15546484D01*
X6051682Y-15546484D02*
X6175491Y-15546484D01*
X6242158Y-15346484D02*
X6375491Y-15346484D01*
X6375491Y-15346484D02*
X6289777Y-15546484D01*
X6604063Y-15546484D02*
X6604063Y-15346484D01*
X6689777Y-15546484D02*
X6689777Y-15441722D01*
X6689777Y-15441722D02*
X6680253Y-15422674D01*
X6680253Y-15422674D02*
X6661206Y-15413150D01*
X6661206Y-15413150D02*
X6632634Y-15413150D01*
X6632634Y-15413150D02*
X6613587Y-15422674D01*
X6613587Y-15422674D02*
X6604063Y-15432198D01*
X6813587Y-15546484D02*
X6794539Y-15536960D01*
X6794539Y-15536960D02*
X6785015Y-15527436D01*
X6785015Y-15527436D02*
X6775491Y-15508388D01*
X6775491Y-15508388D02*
X6775491Y-15451246D01*
X6775491Y-15451246D02*
X6785015Y-15432198D01*
X6785015Y-15432198D02*
X6794539Y-15422674D01*
X6794539Y-15422674D02*
X6813587Y-15413150D01*
X6813587Y-15413150D02*
X6842158Y-15413150D01*
X6842158Y-15413150D02*
X6861206Y-15422674D01*
X6861206Y-15422674D02*
X6870730Y-15432198D01*
X6870730Y-15432198D02*
X6880253Y-15451246D01*
X6880253Y-15451246D02*
X6880253Y-15508388D01*
X6880253Y-15508388D02*
X6870730Y-15527436D01*
X6870730Y-15527436D02*
X6861206Y-15536960D01*
X6861206Y-15536960D02*
X6842158Y-15546484D01*
X6842158Y-15546484D02*
X6813587Y-15546484D01*
X6994539Y-15546484D02*
X6975491Y-15536960D01*
X6975491Y-15536960D02*
X6965968Y-15517912D01*
X6965968Y-15517912D02*
X6965968Y-15346484D01*
X7146920Y-15536960D02*
X7127872Y-15546484D01*
X7127872Y-15546484D02*
X7089777Y-15546484D01*
X7089777Y-15546484D02*
X7070730Y-15536960D01*
X7070730Y-15536960D02*
X7061206Y-15517912D01*
X7061206Y-15517912D02*
X7061206Y-15441722D01*
X7061206Y-15441722D02*
X7070730Y-15422674D01*
X7070730Y-15422674D02*
X7089777Y-15413150D01*
X7089777Y-15413150D02*
X7127872Y-15413150D01*
X7127872Y-15413150D02*
X7146920Y-15422674D01*
X7146920Y-15422674D02*
X7156444Y-15441722D01*
X7156444Y-15441722D02*
X7156444Y-15460769D01*
X7156444Y-15460769D02*
X7061206Y-15479817D01*
X7232634Y-15536960D02*
X7251682Y-15546484D01*
X7251682Y-15546484D02*
X7289777Y-15546484D01*
X7289777Y-15546484D02*
X7308825Y-15536960D01*
X7308825Y-15536960D02*
X7318349Y-15517912D01*
X7318349Y-15517912D02*
X7318349Y-15508388D01*
X7318349Y-15508388D02*
X7308825Y-15489341D01*
X7308825Y-15489341D02*
X7289777Y-15479817D01*
X7289777Y-15479817D02*
X7261206Y-15479817D01*
X7261206Y-15479817D02*
X7242158Y-15470293D01*
X7242158Y-15470293D02*
X7232634Y-15451246D01*
X7232634Y-15451246D02*
X7232634Y-15441722D01*
X7232634Y-15441722D02*
X7242158Y-15422674D01*
X7242158Y-15422674D02*
X7261206Y-15413150D01*
X7261206Y-15413150D02*
X7289777Y-15413150D01*
X7289777Y-15413150D02*
X7308825Y-15422674D01*
X7385015Y-15622674D02*
X7394539Y-15613150D01*
X7394539Y-15613150D02*
X7413587Y-15584579D01*
X7413587Y-15584579D02*
X7423111Y-15565531D01*
X7423111Y-15565531D02*
X7432634Y-15536960D01*
X7432634Y-15536960D02*
X7442158Y-15489341D01*
X7442158Y-15489341D02*
X7442158Y-15451246D01*
X7442158Y-15451246D02*
X7432634Y-15403627D01*
X7432634Y-15403627D02*
X7423111Y-15375055D01*
X7423111Y-15375055D02*
X7413587Y-15356008D01*
X7413587Y-15356008D02*
X7394539Y-15327436D01*
X7394539Y-15327436D02*
X7385015Y-15317912D01*
D12*
X2119000Y-15664000D02*
X2229000Y-15774000D01*
X2229000Y-15664000D02*
X2119000Y-15774000D01*
X2174000Y-15664000D02*
X2174000Y-15774000D01*
X2119000Y-15719000D02*
X2229000Y-15719000D01*
D11*
X2594539Y-15810484D02*
X2480253Y-15810484D01*
X2537396Y-15810484D02*
X2537396Y-15610484D01*
X2537396Y-15610484D02*
X2518348Y-15639055D01*
X2518348Y-15639055D02*
X2499301Y-15658103D01*
X2499301Y-15658103D02*
X2480253Y-15667627D01*
X2680253Y-15791436D02*
X2689777Y-15800960D01*
X2689777Y-15800960D02*
X2680253Y-15810484D01*
X2680253Y-15810484D02*
X2670729Y-15800960D01*
X2670729Y-15800960D02*
X2680253Y-15791436D01*
X2680253Y-15791436D02*
X2680253Y-15810484D01*
X2880253Y-15810484D02*
X2765967Y-15810484D01*
X2823110Y-15810484D02*
X2823110Y-15610484D01*
X2823110Y-15610484D02*
X2804062Y-15639055D01*
X2804062Y-15639055D02*
X2785015Y-15658103D01*
X2785015Y-15658103D02*
X2765967Y-15667627D01*
X3004062Y-15610484D02*
X3023110Y-15610484D01*
X3023110Y-15610484D02*
X3042158Y-15620008D01*
X3042158Y-15620008D02*
X3051682Y-15629531D01*
X3051682Y-15629531D02*
X3061205Y-15648579D01*
X3061205Y-15648579D02*
X3070729Y-15686674D01*
X3070729Y-15686674D02*
X3070729Y-15734293D01*
X3070729Y-15734293D02*
X3061205Y-15772388D01*
X3061205Y-15772388D02*
X3051682Y-15791436D01*
X3051682Y-15791436D02*
X3042158Y-15800960D01*
X3042158Y-15800960D02*
X3023110Y-15810484D01*
X3023110Y-15810484D02*
X3004062Y-15810484D01*
X3004062Y-15810484D02*
X2985015Y-15800960D01*
X2985015Y-15800960D02*
X2975491Y-15791436D01*
X2975491Y-15791436D02*
X2965967Y-15772388D01*
X2965967Y-15772388D02*
X2956443Y-15734293D01*
X2956443Y-15734293D02*
X2956443Y-15686674D01*
X2956443Y-15686674D02*
X2965967Y-15648579D01*
X2965967Y-15648579D02*
X2975491Y-15629531D01*
X2975491Y-15629531D02*
X2985015Y-15620008D01*
X2985015Y-15620008D02*
X3004062Y-15610484D01*
X3194539Y-15610484D02*
X3213586Y-15610484D01*
X3213586Y-15610484D02*
X3232634Y-15620008D01*
X3232634Y-15620008D02*
X3242158Y-15629531D01*
X3242158Y-15629531D02*
X3251682Y-15648579D01*
X3251682Y-15648579D02*
X3261205Y-15686674D01*
X3261205Y-15686674D02*
X3261205Y-15734293D01*
X3261205Y-15734293D02*
X3251682Y-15772388D01*
X3251682Y-15772388D02*
X3242158Y-15791436D01*
X3242158Y-15791436D02*
X3232634Y-15800960D01*
X3232634Y-15800960D02*
X3213586Y-15810484D01*
X3213586Y-15810484D02*
X3194539Y-15810484D01*
X3194539Y-15810484D02*
X3175491Y-15800960D01*
X3175491Y-15800960D02*
X3165967Y-15791436D01*
X3165967Y-15791436D02*
X3156443Y-15772388D01*
X3156443Y-15772388D02*
X3146920Y-15734293D01*
X3146920Y-15734293D02*
X3146920Y-15686674D01*
X3146920Y-15686674D02*
X3156443Y-15648579D01*
X3156443Y-15648579D02*
X3165967Y-15629531D01*
X3165967Y-15629531D02*
X3175491Y-15620008D01*
X3175491Y-15620008D02*
X3194539Y-15610484D01*
X3346920Y-15810484D02*
X3346920Y-15677150D01*
X3346920Y-15696198D02*
X3356443Y-15686674D01*
X3356443Y-15686674D02*
X3375491Y-15677150D01*
X3375491Y-15677150D02*
X3404063Y-15677150D01*
X3404063Y-15677150D02*
X3423110Y-15686674D01*
X3423110Y-15686674D02*
X3432634Y-15705722D01*
X3432634Y-15705722D02*
X3432634Y-15810484D01*
X3432634Y-15705722D02*
X3442158Y-15686674D01*
X3442158Y-15686674D02*
X3461205Y-15677150D01*
X3461205Y-15677150D02*
X3489777Y-15677150D01*
X3489777Y-15677150D02*
X3508824Y-15686674D01*
X3508824Y-15686674D02*
X3518348Y-15705722D01*
X3518348Y-15705722D02*
X3518348Y-15810484D01*
X3613586Y-15810484D02*
X3613586Y-15677150D01*
X3613586Y-15696198D02*
X3623110Y-15686674D01*
X3623110Y-15686674D02*
X3642158Y-15677150D01*
X3642158Y-15677150D02*
X3670729Y-15677150D01*
X3670729Y-15677150D02*
X3689777Y-15686674D01*
X3689777Y-15686674D02*
X3699301Y-15705722D01*
X3699301Y-15705722D02*
X3699301Y-15810484D01*
X3699301Y-15705722D02*
X3708824Y-15686674D01*
X3708824Y-15686674D02*
X3727872Y-15677150D01*
X3727872Y-15677150D02*
X3756443Y-15677150D01*
X3756443Y-15677150D02*
X3775491Y-15686674D01*
X3775491Y-15686674D02*
X3785015Y-15705722D01*
X3785015Y-15705722D02*
X3785015Y-15810484D01*
X4175491Y-15600960D02*
X4004063Y-15858103D01*
X4432634Y-15610484D02*
X4451682Y-15610484D01*
X4451682Y-15610484D02*
X4470729Y-15620008D01*
X4470729Y-15620008D02*
X4480253Y-15629531D01*
X4480253Y-15629531D02*
X4489777Y-15648579D01*
X4489777Y-15648579D02*
X4499301Y-15686674D01*
X4499301Y-15686674D02*
X4499301Y-15734293D01*
X4499301Y-15734293D02*
X4489777Y-15772388D01*
X4489777Y-15772388D02*
X4480253Y-15791436D01*
X4480253Y-15791436D02*
X4470729Y-15800960D01*
X4470729Y-15800960D02*
X4451682Y-15810484D01*
X4451682Y-15810484D02*
X4432634Y-15810484D01*
X4432634Y-15810484D02*
X4413587Y-15800960D01*
X4413587Y-15800960D02*
X4404063Y-15791436D01*
X4404063Y-15791436D02*
X4394539Y-15772388D01*
X4394539Y-15772388D02*
X4385015Y-15734293D01*
X4385015Y-15734293D02*
X4385015Y-15686674D01*
X4385015Y-15686674D02*
X4394539Y-15648579D01*
X4394539Y-15648579D02*
X4404063Y-15629531D01*
X4404063Y-15629531D02*
X4413587Y-15620008D01*
X4413587Y-15620008D02*
X4432634Y-15610484D01*
X4585015Y-15791436D02*
X4594539Y-15800960D01*
X4594539Y-15800960D02*
X4585015Y-15810484D01*
X4585015Y-15810484D02*
X4575491Y-15800960D01*
X4575491Y-15800960D02*
X4585015Y-15791436D01*
X4585015Y-15791436D02*
X4585015Y-15810484D01*
X4718348Y-15610484D02*
X4737396Y-15610484D01*
X4737396Y-15610484D02*
X4756444Y-15620008D01*
X4756444Y-15620008D02*
X4765968Y-15629531D01*
X4765968Y-15629531D02*
X4775491Y-15648579D01*
X4775491Y-15648579D02*
X4785015Y-15686674D01*
X4785015Y-15686674D02*
X4785015Y-15734293D01*
X4785015Y-15734293D02*
X4775491Y-15772388D01*
X4775491Y-15772388D02*
X4765968Y-15791436D01*
X4765968Y-15791436D02*
X4756444Y-15800960D01*
X4756444Y-15800960D02*
X4737396Y-15810484D01*
X4737396Y-15810484D02*
X4718348Y-15810484D01*
X4718348Y-15810484D02*
X4699301Y-15800960D01*
X4699301Y-15800960D02*
X4689777Y-15791436D01*
X4689777Y-15791436D02*
X4680253Y-15772388D01*
X4680253Y-15772388D02*
X4670729Y-15734293D01*
X4670729Y-15734293D02*
X4670729Y-15686674D01*
X4670729Y-15686674D02*
X4680253Y-15648579D01*
X4680253Y-15648579D02*
X4689777Y-15629531D01*
X4689777Y-15629531D02*
X4699301Y-15620008D01*
X4699301Y-15620008D02*
X4718348Y-15610484D01*
X4956444Y-15677150D02*
X4956444Y-15810484D01*
X4908825Y-15600960D02*
X4861206Y-15743817D01*
X4861206Y-15743817D02*
X4985015Y-15743817D01*
X5042158Y-15610484D02*
X5165968Y-15610484D01*
X5165968Y-15610484D02*
X5099301Y-15686674D01*
X5099301Y-15686674D02*
X5127872Y-15686674D01*
X5127872Y-15686674D02*
X5146920Y-15696198D01*
X5146920Y-15696198D02*
X5156444Y-15705722D01*
X5156444Y-15705722D02*
X5165968Y-15724769D01*
X5165968Y-15724769D02*
X5165968Y-15772388D01*
X5165968Y-15772388D02*
X5156444Y-15791436D01*
X5156444Y-15791436D02*
X5146920Y-15800960D01*
X5146920Y-15800960D02*
X5127872Y-15810484D01*
X5127872Y-15810484D02*
X5070729Y-15810484D01*
X5070729Y-15810484D02*
X5051682Y-15800960D01*
X5051682Y-15800960D02*
X5042158Y-15791436D01*
X5232634Y-15610484D02*
X5356444Y-15610484D01*
X5356444Y-15610484D02*
X5289777Y-15686674D01*
X5289777Y-15686674D02*
X5318349Y-15686674D01*
X5318349Y-15686674D02*
X5337396Y-15696198D01*
X5337396Y-15696198D02*
X5346920Y-15705722D01*
X5346920Y-15705722D02*
X5356444Y-15724769D01*
X5356444Y-15724769D02*
X5356444Y-15772388D01*
X5356444Y-15772388D02*
X5346920Y-15791436D01*
X5346920Y-15791436D02*
X5337396Y-15800960D01*
X5337396Y-15800960D02*
X5318349Y-15810484D01*
X5318349Y-15810484D02*
X5261206Y-15810484D01*
X5261206Y-15810484D02*
X5242158Y-15800960D01*
X5242158Y-15800960D02*
X5232634Y-15791436D01*
X5432634Y-15610484D02*
X5432634Y-15648579D01*
X5508825Y-15610484D02*
X5508825Y-15648579D01*
X5804063Y-15886674D02*
X5794539Y-15877150D01*
X5794539Y-15877150D02*
X5775491Y-15848579D01*
X5775491Y-15848579D02*
X5765968Y-15829531D01*
X5765968Y-15829531D02*
X5756444Y-15800960D01*
X5756444Y-15800960D02*
X5746920Y-15753341D01*
X5746920Y-15753341D02*
X5746920Y-15715246D01*
X5746920Y-15715246D02*
X5756444Y-15667627D01*
X5756444Y-15667627D02*
X5765968Y-15639055D01*
X5765968Y-15639055D02*
X5775491Y-15620008D01*
X5775491Y-15620008D02*
X5794539Y-15591436D01*
X5794539Y-15591436D02*
X5804063Y-15581912D01*
X5965968Y-15677150D02*
X5965968Y-15810484D01*
X5918348Y-15600960D02*
X5870729Y-15743817D01*
X5870729Y-15743817D02*
X5994539Y-15743817D01*
X6223110Y-15810484D02*
X6223110Y-15610484D01*
X6308825Y-15810484D02*
X6308825Y-15705722D01*
X6308825Y-15705722D02*
X6299301Y-15686674D01*
X6299301Y-15686674D02*
X6280253Y-15677150D01*
X6280253Y-15677150D02*
X6251682Y-15677150D01*
X6251682Y-15677150D02*
X6232634Y-15686674D01*
X6232634Y-15686674D02*
X6223110Y-15696198D01*
X6432634Y-15810484D02*
X6413587Y-15800960D01*
X6413587Y-15800960D02*
X6404063Y-15791436D01*
X6404063Y-15791436D02*
X6394539Y-15772388D01*
X6394539Y-15772388D02*
X6394539Y-15715246D01*
X6394539Y-15715246D02*
X6404063Y-15696198D01*
X6404063Y-15696198D02*
X6413587Y-15686674D01*
X6413587Y-15686674D02*
X6432634Y-15677150D01*
X6432634Y-15677150D02*
X6461206Y-15677150D01*
X6461206Y-15677150D02*
X6480253Y-15686674D01*
X6480253Y-15686674D02*
X6489777Y-15696198D01*
X6489777Y-15696198D02*
X6499301Y-15715246D01*
X6499301Y-15715246D02*
X6499301Y-15772388D01*
X6499301Y-15772388D02*
X6489777Y-15791436D01*
X6489777Y-15791436D02*
X6480253Y-15800960D01*
X6480253Y-15800960D02*
X6461206Y-15810484D01*
X6461206Y-15810484D02*
X6432634Y-15810484D01*
X6613587Y-15810484D02*
X6594539Y-15800960D01*
X6594539Y-15800960D02*
X6585015Y-15781912D01*
X6585015Y-15781912D02*
X6585015Y-15610484D01*
X6765968Y-15800960D02*
X6746920Y-15810484D01*
X6746920Y-15810484D02*
X6708825Y-15810484D01*
X6708825Y-15810484D02*
X6689777Y-15800960D01*
X6689777Y-15800960D02*
X6680253Y-15781912D01*
X6680253Y-15781912D02*
X6680253Y-15705722D01*
X6680253Y-15705722D02*
X6689777Y-15686674D01*
X6689777Y-15686674D02*
X6708825Y-15677150D01*
X6708825Y-15677150D02*
X6746920Y-15677150D01*
X6746920Y-15677150D02*
X6765968Y-15686674D01*
X6765968Y-15686674D02*
X6775491Y-15705722D01*
X6775491Y-15705722D02*
X6775491Y-15724769D01*
X6775491Y-15724769D02*
X6680253Y-15743817D01*
X6851682Y-15800960D02*
X6870730Y-15810484D01*
X6870730Y-15810484D02*
X6908825Y-15810484D01*
X6908825Y-15810484D02*
X6927872Y-15800960D01*
X6927872Y-15800960D02*
X6937396Y-15781912D01*
X6937396Y-15781912D02*
X6937396Y-15772388D01*
X6937396Y-15772388D02*
X6927872Y-15753341D01*
X6927872Y-15753341D02*
X6908825Y-15743817D01*
X6908825Y-15743817D02*
X6880253Y-15743817D01*
X6880253Y-15743817D02*
X6861206Y-15734293D01*
X6861206Y-15734293D02*
X6851682Y-15715246D01*
X6851682Y-15715246D02*
X6851682Y-15705722D01*
X6851682Y-15705722D02*
X6861206Y-15686674D01*
X6861206Y-15686674D02*
X6880253Y-15677150D01*
X6880253Y-15677150D02*
X6908825Y-15677150D01*
X6908825Y-15677150D02*
X6927872Y-15686674D01*
X7004063Y-15886674D02*
X7013587Y-15877150D01*
X7013587Y-15877150D02*
X7032634Y-15848579D01*
X7032634Y-15848579D02*
X7042158Y-15829531D01*
X7042158Y-15829531D02*
X7051682Y-15800960D01*
X7051682Y-15800960D02*
X7061206Y-15753341D01*
X7061206Y-15753341D02*
X7061206Y-15715246D01*
X7061206Y-15715246D02*
X7051682Y-15667627D01*
X7051682Y-15667627D02*
X7042158Y-15639055D01*
X7042158Y-15639055D02*
X7032634Y-15620008D01*
X7032634Y-15620008D02*
X7013587Y-15591436D01*
X7013587Y-15591436D02*
X7004063Y-15581912D01*
D13*
X2110000Y-15923500D02*
X2229000Y-16042500D01*
X2229000Y-15923500D02*
X2110000Y-16042500D01*
X2211573Y-16025073D02*
X2211573Y-15940927D01*
X2127427Y-15940927D01*
X2127427Y-16025073D01*
X2211573Y-16025073D01*
D11*
X2594539Y-16074484D02*
X2480253Y-16074484D01*
X2537396Y-16074484D02*
X2537396Y-15874484D01*
X2537396Y-15874484D02*
X2518348Y-15903055D01*
X2518348Y-15903055D02*
X2499301Y-15922103D01*
X2499301Y-15922103D02*
X2480253Y-15931627D01*
X2680253Y-16055436D02*
X2689777Y-16064960D01*
X2689777Y-16064960D02*
X2680253Y-16074484D01*
X2680253Y-16074484D02*
X2670729Y-16064960D01*
X2670729Y-16064960D02*
X2680253Y-16055436D01*
X2680253Y-16055436D02*
X2680253Y-16074484D01*
X2880253Y-16074484D02*
X2765967Y-16074484D01*
X2823110Y-16074484D02*
X2823110Y-15874484D01*
X2823110Y-15874484D02*
X2804062Y-15903055D01*
X2804062Y-15903055D02*
X2785015Y-15922103D01*
X2785015Y-15922103D02*
X2765967Y-15931627D01*
X2975491Y-16074484D02*
X3013586Y-16074484D01*
X3013586Y-16074484D02*
X3032634Y-16064960D01*
X3032634Y-16064960D02*
X3042158Y-16055436D01*
X3042158Y-16055436D02*
X3061205Y-16026865D01*
X3061205Y-16026865D02*
X3070729Y-15988769D01*
X3070729Y-15988769D02*
X3070729Y-15912579D01*
X3070729Y-15912579D02*
X3061205Y-15893531D01*
X3061205Y-15893531D02*
X3051682Y-15884008D01*
X3051682Y-15884008D02*
X3032634Y-15874484D01*
X3032634Y-15874484D02*
X2994539Y-15874484D01*
X2994539Y-15874484D02*
X2975491Y-15884008D01*
X2975491Y-15884008D02*
X2965967Y-15893531D01*
X2965967Y-15893531D02*
X2956443Y-15912579D01*
X2956443Y-15912579D02*
X2956443Y-15960198D01*
X2956443Y-15960198D02*
X2965967Y-15979246D01*
X2965967Y-15979246D02*
X2975491Y-15988769D01*
X2975491Y-15988769D02*
X2994539Y-15998293D01*
X2994539Y-15998293D02*
X3032634Y-15998293D01*
X3032634Y-15998293D02*
X3051682Y-15988769D01*
X3051682Y-15988769D02*
X3061205Y-15979246D01*
X3061205Y-15979246D02*
X3070729Y-15960198D01*
X3194539Y-15874484D02*
X3213586Y-15874484D01*
X3213586Y-15874484D02*
X3232634Y-15884008D01*
X3232634Y-15884008D02*
X3242158Y-15893531D01*
X3242158Y-15893531D02*
X3251682Y-15912579D01*
X3251682Y-15912579D02*
X3261205Y-15950674D01*
X3261205Y-15950674D02*
X3261205Y-15998293D01*
X3261205Y-15998293D02*
X3251682Y-16036388D01*
X3251682Y-16036388D02*
X3242158Y-16055436D01*
X3242158Y-16055436D02*
X3232634Y-16064960D01*
X3232634Y-16064960D02*
X3213586Y-16074484D01*
X3213586Y-16074484D02*
X3194539Y-16074484D01*
X3194539Y-16074484D02*
X3175491Y-16064960D01*
X3175491Y-16064960D02*
X3165967Y-16055436D01*
X3165967Y-16055436D02*
X3156443Y-16036388D01*
X3156443Y-16036388D02*
X3146920Y-15998293D01*
X3146920Y-15998293D02*
X3146920Y-15950674D01*
X3146920Y-15950674D02*
X3156443Y-15912579D01*
X3156443Y-15912579D02*
X3165967Y-15893531D01*
X3165967Y-15893531D02*
X3175491Y-15884008D01*
X3175491Y-15884008D02*
X3194539Y-15874484D01*
X3346920Y-16074484D02*
X3346920Y-15941150D01*
X3346920Y-15960198D02*
X3356443Y-15950674D01*
X3356443Y-15950674D02*
X3375491Y-15941150D01*
X3375491Y-15941150D02*
X3404063Y-15941150D01*
X3404063Y-15941150D02*
X3423110Y-15950674D01*
X3423110Y-15950674D02*
X3432634Y-15969722D01*
X3432634Y-15969722D02*
X3432634Y-16074484D01*
X3432634Y-15969722D02*
X3442158Y-15950674D01*
X3442158Y-15950674D02*
X3461205Y-15941150D01*
X3461205Y-15941150D02*
X3489777Y-15941150D01*
X3489777Y-15941150D02*
X3508824Y-15950674D01*
X3508824Y-15950674D02*
X3518348Y-15969722D01*
X3518348Y-15969722D02*
X3518348Y-16074484D01*
X3613586Y-16074484D02*
X3613586Y-15941150D01*
X3613586Y-15960198D02*
X3623110Y-15950674D01*
X3623110Y-15950674D02*
X3642158Y-15941150D01*
X3642158Y-15941150D02*
X3670729Y-15941150D01*
X3670729Y-15941150D02*
X3689777Y-15950674D01*
X3689777Y-15950674D02*
X3699301Y-15969722D01*
X3699301Y-15969722D02*
X3699301Y-16074484D01*
X3699301Y-15969722D02*
X3708824Y-15950674D01*
X3708824Y-15950674D02*
X3727872Y-15941150D01*
X3727872Y-15941150D02*
X3756443Y-15941150D01*
X3756443Y-15941150D02*
X3775491Y-15950674D01*
X3775491Y-15950674D02*
X3785015Y-15969722D01*
X3785015Y-15969722D02*
X3785015Y-16074484D01*
X4175491Y-15864960D02*
X4004063Y-16122103D01*
X4432634Y-15874484D02*
X4451682Y-15874484D01*
X4451682Y-15874484D02*
X4470729Y-15884008D01*
X4470729Y-15884008D02*
X4480253Y-15893531D01*
X4480253Y-15893531D02*
X4489777Y-15912579D01*
X4489777Y-15912579D02*
X4499301Y-15950674D01*
X4499301Y-15950674D02*
X4499301Y-15998293D01*
X4499301Y-15998293D02*
X4489777Y-16036388D01*
X4489777Y-16036388D02*
X4480253Y-16055436D01*
X4480253Y-16055436D02*
X4470729Y-16064960D01*
X4470729Y-16064960D02*
X4451682Y-16074484D01*
X4451682Y-16074484D02*
X4432634Y-16074484D01*
X4432634Y-16074484D02*
X4413587Y-16064960D01*
X4413587Y-16064960D02*
X4404063Y-16055436D01*
X4404063Y-16055436D02*
X4394539Y-16036388D01*
X4394539Y-16036388D02*
X4385015Y-15998293D01*
X4385015Y-15998293D02*
X4385015Y-15950674D01*
X4385015Y-15950674D02*
X4394539Y-15912579D01*
X4394539Y-15912579D02*
X4404063Y-15893531D01*
X4404063Y-15893531D02*
X4413587Y-15884008D01*
X4413587Y-15884008D02*
X4432634Y-15874484D01*
X4585015Y-16055436D02*
X4594539Y-16064960D01*
X4594539Y-16064960D02*
X4585015Y-16074484D01*
X4585015Y-16074484D02*
X4575491Y-16064960D01*
X4575491Y-16064960D02*
X4585015Y-16055436D01*
X4585015Y-16055436D02*
X4585015Y-16074484D01*
X4718348Y-15874484D02*
X4737396Y-15874484D01*
X4737396Y-15874484D02*
X4756444Y-15884008D01*
X4756444Y-15884008D02*
X4765968Y-15893531D01*
X4765968Y-15893531D02*
X4775491Y-15912579D01*
X4775491Y-15912579D02*
X4785015Y-15950674D01*
X4785015Y-15950674D02*
X4785015Y-15998293D01*
X4785015Y-15998293D02*
X4775491Y-16036388D01*
X4775491Y-16036388D02*
X4765968Y-16055436D01*
X4765968Y-16055436D02*
X4756444Y-16064960D01*
X4756444Y-16064960D02*
X4737396Y-16074484D01*
X4737396Y-16074484D02*
X4718348Y-16074484D01*
X4718348Y-16074484D02*
X4699301Y-16064960D01*
X4699301Y-16064960D02*
X4689777Y-16055436D01*
X4689777Y-16055436D02*
X4680253Y-16036388D01*
X4680253Y-16036388D02*
X4670729Y-15998293D01*
X4670729Y-15998293D02*
X4670729Y-15950674D01*
X4670729Y-15950674D02*
X4680253Y-15912579D01*
X4680253Y-15912579D02*
X4689777Y-15893531D01*
X4689777Y-15893531D02*
X4699301Y-15884008D01*
X4699301Y-15884008D02*
X4718348Y-15874484D01*
X4956444Y-15941150D02*
X4956444Y-16074484D01*
X4908825Y-15864960D02*
X4861206Y-16007817D01*
X4861206Y-16007817D02*
X4985015Y-16007817D01*
X5146920Y-15874484D02*
X5108825Y-15874484D01*
X5108825Y-15874484D02*
X5089777Y-15884008D01*
X5089777Y-15884008D02*
X5080253Y-15893531D01*
X5080253Y-15893531D02*
X5061206Y-15922103D01*
X5061206Y-15922103D02*
X5051682Y-15960198D01*
X5051682Y-15960198D02*
X5051682Y-16036388D01*
X5051682Y-16036388D02*
X5061206Y-16055436D01*
X5061206Y-16055436D02*
X5070729Y-16064960D01*
X5070729Y-16064960D02*
X5089777Y-16074484D01*
X5089777Y-16074484D02*
X5127872Y-16074484D01*
X5127872Y-16074484D02*
X5146920Y-16064960D01*
X5146920Y-16064960D02*
X5156444Y-16055436D01*
X5156444Y-16055436D02*
X5165968Y-16036388D01*
X5165968Y-16036388D02*
X5165968Y-15988769D01*
X5165968Y-15988769D02*
X5156444Y-15969722D01*
X5156444Y-15969722D02*
X5146920Y-15960198D01*
X5146920Y-15960198D02*
X5127872Y-15950674D01*
X5127872Y-15950674D02*
X5089777Y-15950674D01*
X5089777Y-15950674D02*
X5070729Y-15960198D01*
X5070729Y-15960198D02*
X5061206Y-15969722D01*
X5061206Y-15969722D02*
X5051682Y-15988769D01*
X5261206Y-16074484D02*
X5299301Y-16074484D01*
X5299301Y-16074484D02*
X5318349Y-16064960D01*
X5318349Y-16064960D02*
X5327872Y-16055436D01*
X5327872Y-16055436D02*
X5346920Y-16026865D01*
X5346920Y-16026865D02*
X5356444Y-15988769D01*
X5356444Y-15988769D02*
X5356444Y-15912579D01*
X5356444Y-15912579D02*
X5346920Y-15893531D01*
X5346920Y-15893531D02*
X5337396Y-15884008D01*
X5337396Y-15884008D02*
X5318349Y-15874484D01*
X5318349Y-15874484D02*
X5280253Y-15874484D01*
X5280253Y-15874484D02*
X5261206Y-15884008D01*
X5261206Y-15884008D02*
X5251682Y-15893531D01*
X5251682Y-15893531D02*
X5242158Y-15912579D01*
X5242158Y-15912579D02*
X5242158Y-15960198D01*
X5242158Y-15960198D02*
X5251682Y-15979246D01*
X5251682Y-15979246D02*
X5261206Y-15988769D01*
X5261206Y-15988769D02*
X5280253Y-15998293D01*
X5280253Y-15998293D02*
X5318349Y-15998293D01*
X5318349Y-15998293D02*
X5337396Y-15988769D01*
X5337396Y-15988769D02*
X5346920Y-15979246D01*
X5346920Y-15979246D02*
X5356444Y-15960198D01*
X5432634Y-15874484D02*
X5432634Y-15912579D01*
X5508825Y-15874484D02*
X5508825Y-15912579D01*
X5804063Y-16150674D02*
X5794539Y-16141150D01*
X5794539Y-16141150D02*
X5775491Y-16112579D01*
X5775491Y-16112579D02*
X5765968Y-16093531D01*
X5765968Y-16093531D02*
X5756444Y-16064960D01*
X5756444Y-16064960D02*
X5746920Y-16017341D01*
X5746920Y-16017341D02*
X5746920Y-15979246D01*
X5746920Y-15979246D02*
X5756444Y-15931627D01*
X5756444Y-15931627D02*
X5765968Y-15903055D01*
X5765968Y-15903055D02*
X5775491Y-15884008D01*
X5775491Y-15884008D02*
X5794539Y-15855436D01*
X5794539Y-15855436D02*
X5804063Y-15845912D01*
X5985015Y-16074484D02*
X5870729Y-16074484D01*
X5927872Y-16074484D02*
X5927872Y-15874484D01*
X5927872Y-15874484D02*
X5908825Y-15903055D01*
X5908825Y-15903055D02*
X5889777Y-15922103D01*
X5889777Y-15922103D02*
X5870729Y-15931627D01*
X6165968Y-15874484D02*
X6070729Y-15874484D01*
X6070729Y-15874484D02*
X6061206Y-15969722D01*
X6061206Y-15969722D02*
X6070729Y-15960198D01*
X6070729Y-15960198D02*
X6089777Y-15950674D01*
X6089777Y-15950674D02*
X6137396Y-15950674D01*
X6137396Y-15950674D02*
X6156444Y-15960198D01*
X6156444Y-15960198D02*
X6165968Y-15969722D01*
X6165968Y-15969722D02*
X6175491Y-15988769D01*
X6175491Y-15988769D02*
X6175491Y-16036388D01*
X6175491Y-16036388D02*
X6165968Y-16055436D01*
X6165968Y-16055436D02*
X6156444Y-16064960D01*
X6156444Y-16064960D02*
X6137396Y-16074484D01*
X6137396Y-16074484D02*
X6089777Y-16074484D01*
X6089777Y-16074484D02*
X6070729Y-16064960D01*
X6070729Y-16064960D02*
X6061206Y-16055436D01*
X6413587Y-16074484D02*
X6413587Y-15874484D01*
X6499301Y-16074484D02*
X6499301Y-15969722D01*
X6499301Y-15969722D02*
X6489777Y-15950674D01*
X6489777Y-15950674D02*
X6470730Y-15941150D01*
X6470730Y-15941150D02*
X6442158Y-15941150D01*
X6442158Y-15941150D02*
X6423110Y-15950674D01*
X6423110Y-15950674D02*
X6413587Y-15960198D01*
X6623110Y-16074484D02*
X6604063Y-16064960D01*
X6604063Y-16064960D02*
X6594539Y-16055436D01*
X6594539Y-16055436D02*
X6585015Y-16036388D01*
X6585015Y-16036388D02*
X6585015Y-15979246D01*
X6585015Y-15979246D02*
X6594539Y-15960198D01*
X6594539Y-15960198D02*
X6604063Y-15950674D01*
X6604063Y-15950674D02*
X6623110Y-15941150D01*
X6623110Y-15941150D02*
X6651682Y-15941150D01*
X6651682Y-15941150D02*
X6670730Y-15950674D01*
X6670730Y-15950674D02*
X6680253Y-15960198D01*
X6680253Y-15960198D02*
X6689777Y-15979246D01*
X6689777Y-15979246D02*
X6689777Y-16036388D01*
X6689777Y-16036388D02*
X6680253Y-16055436D01*
X6680253Y-16055436D02*
X6670730Y-16064960D01*
X6670730Y-16064960D02*
X6651682Y-16074484D01*
X6651682Y-16074484D02*
X6623110Y-16074484D01*
X6804063Y-16074484D02*
X6785015Y-16064960D01*
X6785015Y-16064960D02*
X6775491Y-16045912D01*
X6775491Y-16045912D02*
X6775491Y-15874484D01*
X6956444Y-16064960D02*
X6937396Y-16074484D01*
X6937396Y-16074484D02*
X6899301Y-16074484D01*
X6899301Y-16074484D02*
X6880253Y-16064960D01*
X6880253Y-16064960D02*
X6870730Y-16045912D01*
X6870730Y-16045912D02*
X6870730Y-15969722D01*
X6870730Y-15969722D02*
X6880253Y-15950674D01*
X6880253Y-15950674D02*
X6899301Y-15941150D01*
X6899301Y-15941150D02*
X6937396Y-15941150D01*
X6937396Y-15941150D02*
X6956444Y-15950674D01*
X6956444Y-15950674D02*
X6965968Y-15969722D01*
X6965968Y-15969722D02*
X6965968Y-15988769D01*
X6965968Y-15988769D02*
X6870730Y-16007817D01*
X7042158Y-16064960D02*
X7061206Y-16074484D01*
X7061206Y-16074484D02*
X7099301Y-16074484D01*
X7099301Y-16074484D02*
X7118349Y-16064960D01*
X7118349Y-16064960D02*
X7127872Y-16045912D01*
X7127872Y-16045912D02*
X7127872Y-16036388D01*
X7127872Y-16036388D02*
X7118349Y-16017341D01*
X7118349Y-16017341D02*
X7099301Y-16007817D01*
X7099301Y-16007817D02*
X7070730Y-16007817D01*
X7070730Y-16007817D02*
X7051682Y-15998293D01*
X7051682Y-15998293D02*
X7042158Y-15979246D01*
X7042158Y-15979246D02*
X7042158Y-15969722D01*
X7042158Y-15969722D02*
X7051682Y-15950674D01*
X7051682Y-15950674D02*
X7070730Y-15941150D01*
X7070730Y-15941150D02*
X7099301Y-15941150D01*
X7099301Y-15941150D02*
X7118349Y-15950674D01*
X7194539Y-16150674D02*
X7204063Y-16141150D01*
X7204063Y-16141150D02*
X7223111Y-16112579D01*
X7223111Y-16112579D02*
X7232634Y-16093531D01*
X7232634Y-16093531D02*
X7242158Y-16064960D01*
X7242158Y-16064960D02*
X7251682Y-16017341D01*
X7251682Y-16017341D02*
X7251682Y-15979246D01*
X7251682Y-15979246D02*
X7242158Y-15931627D01*
X7242158Y-15931627D02*
X7232634Y-15903055D01*
X7232634Y-15903055D02*
X7223111Y-15884008D01*
X7223111Y-15884008D02*
X7204063Y-15855436D01*
X7204063Y-15855436D02*
X7194539Y-15845912D01*
X2029000Y-16147000D02*
X2229000Y-16347000D01*
X2229000Y-16147000D02*
X2029000Y-16347000D01*
X2129000Y-16347000D02*
X2229000Y-16247000D01*
X2129000Y-16147000D01*
X2029000Y-16247000D01*
X2129000Y-16347000D01*
X2470729Y-16138484D02*
X2594539Y-16138484D01*
X2594539Y-16138484D02*
X2527872Y-16214674D01*
X2527872Y-16214674D02*
X2556444Y-16214674D01*
X2556444Y-16214674D02*
X2575491Y-16224198D01*
X2575491Y-16224198D02*
X2585015Y-16233722D01*
X2585015Y-16233722D02*
X2594539Y-16252769D01*
X2594539Y-16252769D02*
X2594539Y-16300388D01*
X2594539Y-16300388D02*
X2585015Y-16319436D01*
X2585015Y-16319436D02*
X2575491Y-16328960D01*
X2575491Y-16328960D02*
X2556444Y-16338484D01*
X2556444Y-16338484D02*
X2499301Y-16338484D01*
X2499301Y-16338484D02*
X2480253Y-16328960D01*
X2480253Y-16328960D02*
X2470729Y-16319436D01*
X2680253Y-16319436D02*
X2689777Y-16328960D01*
X2689777Y-16328960D02*
X2680253Y-16338484D01*
X2680253Y-16338484D02*
X2670729Y-16328960D01*
X2670729Y-16328960D02*
X2680253Y-16319436D01*
X2680253Y-16319436D02*
X2680253Y-16338484D01*
X2880253Y-16338484D02*
X2765967Y-16338484D01*
X2823110Y-16338484D02*
X2823110Y-16138484D01*
X2823110Y-16138484D02*
X2804062Y-16167055D01*
X2804062Y-16167055D02*
X2785015Y-16186103D01*
X2785015Y-16186103D02*
X2765967Y-16195627D01*
X2994539Y-16224198D02*
X2975491Y-16214674D01*
X2975491Y-16214674D02*
X2965967Y-16205150D01*
X2965967Y-16205150D02*
X2956443Y-16186103D01*
X2956443Y-16186103D02*
X2956443Y-16176579D01*
X2956443Y-16176579D02*
X2965967Y-16157531D01*
X2965967Y-16157531D02*
X2975491Y-16148008D01*
X2975491Y-16148008D02*
X2994539Y-16138484D01*
X2994539Y-16138484D02*
X3032634Y-16138484D01*
X3032634Y-16138484D02*
X3051682Y-16148008D01*
X3051682Y-16148008D02*
X3061205Y-16157531D01*
X3061205Y-16157531D02*
X3070729Y-16176579D01*
X3070729Y-16176579D02*
X3070729Y-16186103D01*
X3070729Y-16186103D02*
X3061205Y-16205150D01*
X3061205Y-16205150D02*
X3051682Y-16214674D01*
X3051682Y-16214674D02*
X3032634Y-16224198D01*
X3032634Y-16224198D02*
X2994539Y-16224198D01*
X2994539Y-16224198D02*
X2975491Y-16233722D01*
X2975491Y-16233722D02*
X2965967Y-16243246D01*
X2965967Y-16243246D02*
X2956443Y-16262293D01*
X2956443Y-16262293D02*
X2956443Y-16300388D01*
X2956443Y-16300388D02*
X2965967Y-16319436D01*
X2965967Y-16319436D02*
X2975491Y-16328960D01*
X2975491Y-16328960D02*
X2994539Y-16338484D01*
X2994539Y-16338484D02*
X3032634Y-16338484D01*
X3032634Y-16338484D02*
X3051682Y-16328960D01*
X3051682Y-16328960D02*
X3061205Y-16319436D01*
X3061205Y-16319436D02*
X3070729Y-16300388D01*
X3070729Y-16300388D02*
X3070729Y-16262293D01*
X3070729Y-16262293D02*
X3061205Y-16243246D01*
X3061205Y-16243246D02*
X3051682Y-16233722D01*
X3051682Y-16233722D02*
X3032634Y-16224198D01*
X3194539Y-16138484D02*
X3213586Y-16138484D01*
X3213586Y-16138484D02*
X3232634Y-16148008D01*
X3232634Y-16148008D02*
X3242158Y-16157531D01*
X3242158Y-16157531D02*
X3251682Y-16176579D01*
X3251682Y-16176579D02*
X3261205Y-16214674D01*
X3261205Y-16214674D02*
X3261205Y-16262293D01*
X3261205Y-16262293D02*
X3251682Y-16300388D01*
X3251682Y-16300388D02*
X3242158Y-16319436D01*
X3242158Y-16319436D02*
X3232634Y-16328960D01*
X3232634Y-16328960D02*
X3213586Y-16338484D01*
X3213586Y-16338484D02*
X3194539Y-16338484D01*
X3194539Y-16338484D02*
X3175491Y-16328960D01*
X3175491Y-16328960D02*
X3165967Y-16319436D01*
X3165967Y-16319436D02*
X3156443Y-16300388D01*
X3156443Y-16300388D02*
X3146920Y-16262293D01*
X3146920Y-16262293D02*
X3146920Y-16214674D01*
X3146920Y-16214674D02*
X3156443Y-16176579D01*
X3156443Y-16176579D02*
X3165967Y-16157531D01*
X3165967Y-16157531D02*
X3175491Y-16148008D01*
X3175491Y-16148008D02*
X3194539Y-16138484D01*
X3346920Y-16338484D02*
X3346920Y-16205150D01*
X3346920Y-16224198D02*
X3356443Y-16214674D01*
X3356443Y-16214674D02*
X3375491Y-16205150D01*
X3375491Y-16205150D02*
X3404063Y-16205150D01*
X3404063Y-16205150D02*
X3423110Y-16214674D01*
X3423110Y-16214674D02*
X3432634Y-16233722D01*
X3432634Y-16233722D02*
X3432634Y-16338484D01*
X3432634Y-16233722D02*
X3442158Y-16214674D01*
X3442158Y-16214674D02*
X3461205Y-16205150D01*
X3461205Y-16205150D02*
X3489777Y-16205150D01*
X3489777Y-16205150D02*
X3508824Y-16214674D01*
X3508824Y-16214674D02*
X3518348Y-16233722D01*
X3518348Y-16233722D02*
X3518348Y-16338484D01*
X3613586Y-16338484D02*
X3613586Y-16205150D01*
X3613586Y-16224198D02*
X3623110Y-16214674D01*
X3623110Y-16214674D02*
X3642158Y-16205150D01*
X3642158Y-16205150D02*
X3670729Y-16205150D01*
X3670729Y-16205150D02*
X3689777Y-16214674D01*
X3689777Y-16214674D02*
X3699301Y-16233722D01*
X3699301Y-16233722D02*
X3699301Y-16338484D01*
X3699301Y-16233722D02*
X3708824Y-16214674D01*
X3708824Y-16214674D02*
X3727872Y-16205150D01*
X3727872Y-16205150D02*
X3756443Y-16205150D01*
X3756443Y-16205150D02*
X3775491Y-16214674D01*
X3775491Y-16214674D02*
X3785015Y-16233722D01*
X3785015Y-16233722D02*
X3785015Y-16338484D01*
X4175491Y-16128960D02*
X4004063Y-16386103D01*
X4432634Y-16138484D02*
X4451682Y-16138484D01*
X4451682Y-16138484D02*
X4470729Y-16148008D01*
X4470729Y-16148008D02*
X4480253Y-16157531D01*
X4480253Y-16157531D02*
X4489777Y-16176579D01*
X4489777Y-16176579D02*
X4499301Y-16214674D01*
X4499301Y-16214674D02*
X4499301Y-16262293D01*
X4499301Y-16262293D02*
X4489777Y-16300388D01*
X4489777Y-16300388D02*
X4480253Y-16319436D01*
X4480253Y-16319436D02*
X4470729Y-16328960D01*
X4470729Y-16328960D02*
X4451682Y-16338484D01*
X4451682Y-16338484D02*
X4432634Y-16338484D01*
X4432634Y-16338484D02*
X4413587Y-16328960D01*
X4413587Y-16328960D02*
X4404063Y-16319436D01*
X4404063Y-16319436D02*
X4394539Y-16300388D01*
X4394539Y-16300388D02*
X4385015Y-16262293D01*
X4385015Y-16262293D02*
X4385015Y-16214674D01*
X4385015Y-16214674D02*
X4394539Y-16176579D01*
X4394539Y-16176579D02*
X4404063Y-16157531D01*
X4404063Y-16157531D02*
X4413587Y-16148008D01*
X4413587Y-16148008D02*
X4432634Y-16138484D01*
X4585015Y-16319436D02*
X4594539Y-16328960D01*
X4594539Y-16328960D02*
X4585015Y-16338484D01*
X4585015Y-16338484D02*
X4575491Y-16328960D01*
X4575491Y-16328960D02*
X4585015Y-16319436D01*
X4585015Y-16319436D02*
X4585015Y-16338484D01*
X4785015Y-16338484D02*
X4670729Y-16338484D01*
X4727872Y-16338484D02*
X4727872Y-16138484D01*
X4727872Y-16138484D02*
X4708825Y-16167055D01*
X4708825Y-16167055D02*
X4689777Y-16186103D01*
X4689777Y-16186103D02*
X4670729Y-16195627D01*
X4861206Y-16157531D02*
X4870729Y-16148008D01*
X4870729Y-16148008D02*
X4889777Y-16138484D01*
X4889777Y-16138484D02*
X4937396Y-16138484D01*
X4937396Y-16138484D02*
X4956444Y-16148008D01*
X4956444Y-16148008D02*
X4965968Y-16157531D01*
X4965968Y-16157531D02*
X4975491Y-16176579D01*
X4975491Y-16176579D02*
X4975491Y-16195627D01*
X4975491Y-16195627D02*
X4965968Y-16224198D01*
X4965968Y-16224198D02*
X4851682Y-16338484D01*
X4851682Y-16338484D02*
X4975491Y-16338484D01*
X5156444Y-16138484D02*
X5061206Y-16138484D01*
X5061206Y-16138484D02*
X5051682Y-16233722D01*
X5051682Y-16233722D02*
X5061206Y-16224198D01*
X5061206Y-16224198D02*
X5080253Y-16214674D01*
X5080253Y-16214674D02*
X5127872Y-16214674D01*
X5127872Y-16214674D02*
X5146920Y-16224198D01*
X5146920Y-16224198D02*
X5156444Y-16233722D01*
X5156444Y-16233722D02*
X5165968Y-16252769D01*
X5165968Y-16252769D02*
X5165968Y-16300388D01*
X5165968Y-16300388D02*
X5156444Y-16319436D01*
X5156444Y-16319436D02*
X5146920Y-16328960D01*
X5146920Y-16328960D02*
X5127872Y-16338484D01*
X5127872Y-16338484D02*
X5080253Y-16338484D01*
X5080253Y-16338484D02*
X5061206Y-16328960D01*
X5061206Y-16328960D02*
X5051682Y-16319436D01*
X5242158Y-16157531D02*
X5251682Y-16148008D01*
X5251682Y-16148008D02*
X5270729Y-16138484D01*
X5270729Y-16138484D02*
X5318349Y-16138484D01*
X5318349Y-16138484D02*
X5337396Y-16148008D01*
X5337396Y-16148008D02*
X5346920Y-16157531D01*
X5346920Y-16157531D02*
X5356444Y-16176579D01*
X5356444Y-16176579D02*
X5356444Y-16195627D01*
X5356444Y-16195627D02*
X5346920Y-16224198D01*
X5346920Y-16224198D02*
X5232634Y-16338484D01*
X5232634Y-16338484D02*
X5356444Y-16338484D01*
X5432634Y-16138484D02*
X5432634Y-16176579D01*
X5508825Y-16138484D02*
X5508825Y-16176579D01*
X5804063Y-16414674D02*
X5794539Y-16405150D01*
X5794539Y-16405150D02*
X5775491Y-16376579D01*
X5775491Y-16376579D02*
X5765968Y-16357531D01*
X5765968Y-16357531D02*
X5756444Y-16328960D01*
X5756444Y-16328960D02*
X5746920Y-16281341D01*
X5746920Y-16281341D02*
X5746920Y-16243246D01*
X5746920Y-16243246D02*
X5756444Y-16195627D01*
X5756444Y-16195627D02*
X5765968Y-16167055D01*
X5765968Y-16167055D02*
X5775491Y-16148008D01*
X5775491Y-16148008D02*
X5794539Y-16119436D01*
X5794539Y-16119436D02*
X5804063Y-16109912D01*
X5870729Y-16157531D02*
X5880253Y-16148008D01*
X5880253Y-16148008D02*
X5899301Y-16138484D01*
X5899301Y-16138484D02*
X5946920Y-16138484D01*
X5946920Y-16138484D02*
X5965968Y-16148008D01*
X5965968Y-16148008D02*
X5975491Y-16157531D01*
X5975491Y-16157531D02*
X5985015Y-16176579D01*
X5985015Y-16176579D02*
X5985015Y-16195627D01*
X5985015Y-16195627D02*
X5975491Y-16224198D01*
X5975491Y-16224198D02*
X5861206Y-16338484D01*
X5861206Y-16338484D02*
X5985015Y-16338484D01*
X6223110Y-16338484D02*
X6223110Y-16138484D01*
X6308825Y-16338484D02*
X6308825Y-16233722D01*
X6308825Y-16233722D02*
X6299301Y-16214674D01*
X6299301Y-16214674D02*
X6280253Y-16205150D01*
X6280253Y-16205150D02*
X6251682Y-16205150D01*
X6251682Y-16205150D02*
X6232634Y-16214674D01*
X6232634Y-16214674D02*
X6223110Y-16224198D01*
X6432634Y-16338484D02*
X6413587Y-16328960D01*
X6413587Y-16328960D02*
X6404063Y-16319436D01*
X6404063Y-16319436D02*
X6394539Y-16300388D01*
X6394539Y-16300388D02*
X6394539Y-16243246D01*
X6394539Y-16243246D02*
X6404063Y-16224198D01*
X6404063Y-16224198D02*
X6413587Y-16214674D01*
X6413587Y-16214674D02*
X6432634Y-16205150D01*
X6432634Y-16205150D02*
X6461206Y-16205150D01*
X6461206Y-16205150D02*
X6480253Y-16214674D01*
X6480253Y-16214674D02*
X6489777Y-16224198D01*
X6489777Y-16224198D02*
X6499301Y-16243246D01*
X6499301Y-16243246D02*
X6499301Y-16300388D01*
X6499301Y-16300388D02*
X6489777Y-16319436D01*
X6489777Y-16319436D02*
X6480253Y-16328960D01*
X6480253Y-16328960D02*
X6461206Y-16338484D01*
X6461206Y-16338484D02*
X6432634Y-16338484D01*
X6613587Y-16338484D02*
X6594539Y-16328960D01*
X6594539Y-16328960D02*
X6585015Y-16309912D01*
X6585015Y-16309912D02*
X6585015Y-16138484D01*
X6765968Y-16328960D02*
X6746920Y-16338484D01*
X6746920Y-16338484D02*
X6708825Y-16338484D01*
X6708825Y-16338484D02*
X6689777Y-16328960D01*
X6689777Y-16328960D02*
X6680253Y-16309912D01*
X6680253Y-16309912D02*
X6680253Y-16233722D01*
X6680253Y-16233722D02*
X6689777Y-16214674D01*
X6689777Y-16214674D02*
X6708825Y-16205150D01*
X6708825Y-16205150D02*
X6746920Y-16205150D01*
X6746920Y-16205150D02*
X6765968Y-16214674D01*
X6765968Y-16214674D02*
X6775491Y-16233722D01*
X6775491Y-16233722D02*
X6775491Y-16252769D01*
X6775491Y-16252769D02*
X6680253Y-16271817D01*
X6851682Y-16328960D02*
X6870730Y-16338484D01*
X6870730Y-16338484D02*
X6908825Y-16338484D01*
X6908825Y-16338484D02*
X6927872Y-16328960D01*
X6927872Y-16328960D02*
X6937396Y-16309912D01*
X6937396Y-16309912D02*
X6937396Y-16300388D01*
X6937396Y-16300388D02*
X6927872Y-16281341D01*
X6927872Y-16281341D02*
X6908825Y-16271817D01*
X6908825Y-16271817D02*
X6880253Y-16271817D01*
X6880253Y-16271817D02*
X6861206Y-16262293D01*
X6861206Y-16262293D02*
X6851682Y-16243246D01*
X6851682Y-16243246D02*
X6851682Y-16233722D01*
X6851682Y-16233722D02*
X6861206Y-16214674D01*
X6861206Y-16214674D02*
X6880253Y-16205150D01*
X6880253Y-16205150D02*
X6908825Y-16205150D01*
X6908825Y-16205150D02*
X6927872Y-16214674D01*
X7004063Y-16414674D02*
X7013587Y-16405150D01*
X7013587Y-16405150D02*
X7032634Y-16376579D01*
X7032634Y-16376579D02*
X7042158Y-16357531D01*
X7042158Y-16357531D02*
X7051682Y-16328960D01*
X7051682Y-16328960D02*
X7061206Y-16281341D01*
X7061206Y-16281341D02*
X7061206Y-16243246D01*
X7061206Y-16243246D02*
X7051682Y-16195627D01*
X7051682Y-16195627D02*
X7042158Y-16167055D01*
X7042158Y-16167055D02*
X7032634Y-16148008D01*
X7032634Y-16148008D02*
X7013587Y-16119436D01*
X7013587Y-16119436D02*
X7004063Y-16109912D01*
M02*
