M48
; DRILL file KiCad 10.0.4-150-gc4750059f9 date 2026-07-09T16:37:27
; FORMAT={-:-/ absolute / metric / decimal}
; #@! TF.CreationDate,2026-07-09T16:37:27+10:00
; #@! TF.GenerationSoftware,Kicad,Pcbnew,10.0.4-150-gc4750059f9
; #@! TF.FileFunction,Plated,1,2,PTH
FMAT,2
METRIC
; #@! TA.AperFunction,Plated,PTH,ViaDrill
T1C0.300
; #@! TA.AperFunction,Plated,PTH,ComponentDrill
T2C0.300
; #@! TA.AperFunction,Plated,PTH,ComponentDrill
T3C0.650
; #@! TA.AperFunction,Plated,PTH,ComponentDrill
T4C0.700
; #@! TA.AperFunction,Plated,PTH,ComponentDrill
T5C0.800
; #@! TA.AperFunction,Plated,PTH,ComponentDrill
T6C1.000
; #@! TA.AperFunction,Plated,PTH,ComponentDrill
T7C1.100
; #@! TA.AperFunction,Plated,PTH,ComponentDrill
T8C1.190
; #@! TA.AperFunction,Plated,PTH,ComponentDrill
T9C3.180
%
G90
G05
T1
X35.6Y-51.9
X35.6Y-60.5
X35.7Y-118.75
X37.35Y-120.4
X37.4Y-51.9
X37.4Y-60.5
X38.575Y-108.8
X39.15Y-42.5
X39.55Y-67.4
X39.55Y-71.1
X39.55Y-78.3
X39.55Y-82.1
X39.55Y-89.5
X39.55Y-93.1
X39.781Y-45.435
X39.781Y-61.377
X40.95Y-48.75
X41.1Y-70.345
X41.1Y-81.372
X41.1Y-92.402
X41.131Y-53.312
X42.666Y-54.95
X42.75Y-109.85
X42.8Y-103.2
X42.8Y-107.8
X43.104Y-45.435
X43.104Y-61.377
X43.15Y-67.9
X43.15Y-79.518
X43.15Y-90.3
X43.75Y-120.45
X43.8Y-63.9
X43.85Y-122.65
X43.9Y-101.8
X44.35Y-72.35
X44.379Y-81.556
X44.9Y-103.2
X44.9Y-121.3
X45.2Y-113.1
X45.35Y-123.9
X46.05Y-120.45
X46.427Y-45.435
X46.427Y-61.377
X46.866Y-90.056
X46.9Y-63.9
X47.057Y-79.143
X47.817Y-96.775
X47.9Y-114.0
X48.664Y-108.803
X48.664Y-124.746
X48.8Y-106.2
X49.1Y-120.25
X49.751Y-45.435
X49.751Y-61.377
X49.787Y-79.515
X49.8Y-49.5
X49.873Y-94.722
X49.972Y-78.323
X49.98Y-91.554
X50.032Y-76.595
X50.4Y-63.9
X50.667Y-81.548
X50.667Y-84.342
X50.93Y-90.056
X51.45Y-99.721
X51.56Y-98.316
X51.987Y-108.803
X51.987Y-124.746
X52.0Y-106.2
X52.1Y-58.25
X52.7Y-42.5
X52.953Y-77.484
X53.074Y-45.435
X53.074Y-61.377
X53.216Y-92.85
X53.4Y-63.9
X54.35Y-81.548
X54.35Y-84.342
X54.65Y-48.75
X54.751Y-53.312
X54.924Y-94.882
X55.3Y-106.2
X55.311Y-108.803
X55.311Y-124.746
X55.987Y-54.813
X56.397Y-45.435
X56.397Y-61.377
X56.4Y-63.9
X56.424Y-73.323
X56.474Y-91.924
X56.924Y-76.8
X57.2Y-86.75
X57.65Y-121.7
X58.1Y-98.5
X58.2Y-106.2
X58.287Y-81.548
X58.287Y-84.342
X58.4Y-64.25
X58.634Y-108.803
X58.634Y-124.746
X58.899Y-72.806
X59.2Y-98.5
X59.2Y-127.45
X59.25Y-90.7
X59.6Y-103.7
X59.721Y-45.435
X59.721Y-61.377
X59.75Y-112.35
X59.799Y-72.8
X60.175Y-85.8
X60.175Y-94.882
X60.5Y-63.9
X60.75Y-81.548
X60.934Y-76.493
X61.1Y-87.75
X61.15Y-90.6
X61.2Y-106.2
X61.725Y-94.75
X61.957Y-108.803
X61.957Y-124.746
X62.591Y-80.991
X62.65Y-82.5
X62.65Y-84.45
X62.8Y-111.5
X62.85Y-79.6
X63.044Y-45.435
X63.044Y-61.377
X63.4Y-49.75
X63.5Y-63.9
X64.129Y-79.008
X64.129Y-83.453
X64.256Y-77.484
X64.4Y-106.2
X65.1Y-93.7
X65.2Y-111.4
X65.281Y-108.803
X65.281Y-124.746
X65.45Y-58.3
X65.6Y-79.441
X65.9Y-42.5
X65.9Y-104.5
X66.099Y-98.15
X66.1Y-101.5
X66.288Y-85.358
X66.367Y-45.435
X66.367Y-61.377
X66.6Y-92.2
X66.7Y-63.9
X66.796Y-84.342
X66.81Y-76.327
X67.186Y-89.802
X67.3Y-83.3
X67.924Y-95.0
X67.95Y-49.05
X68.297Y-86.741
X68.374Y-53.312
X68.447Y-76.468
X68.456Y-80.988
X68.604Y-108.803
X68.604Y-124.746
X69.691Y-45.435
X69.691Y-61.377
X69.8Y-63.9
X70.0Y-72.7
X70.05Y-71.1
X70.05Y-96.4
X70.05Y-121.15
X70.733Y-75.706
X70.875Y-112.125
X70.95Y-113.75
X71.4Y-127.7
X71.927Y-108.803
X71.927Y-124.746
X72.5Y-112.15
X73.014Y-45.435
X73.014Y-61.377
X73.1Y-63.9
X73.45Y-69.4
X73.45Y-70.95
X75.107Y-109.607
X75.15Y-106.2
X75.2Y-72.6
X75.3Y-68.0
X75.85Y-114.05
X75.85Y-115.95
X76.3Y-63.9
X76.337Y-45.435
X76.337Y-61.377
X76.95Y-49.6
X77.965Y-109.335
X78.05Y-58.25
X78.55Y-73.85
X78.55Y-75.65
X78.7Y-123.0
X79.15Y-48.4
X79.15Y-54.7
X79.95Y-112.05
X80.05Y-81.9
X80.1Y-89.5
X80.15Y-45.435
X80.15Y-71.15
X80.15Y-78.65
X80.2Y-73.85
X80.2Y-75.65
X80.3Y-93.25
X80.5Y-121.05
X80.85Y-128.7
X81.15Y-48.4
X81.15Y-54.7
X81.45Y-59.2
X81.45Y-63.05
X81.45Y-66.9
X81.625Y-114.975
X81.75Y-111.45
X81.85Y-43.7
X82.05Y-108.985
X82.37Y-107.765
X82.4Y-119.05
X83.25Y-45.05
X83.358Y-128.7
X83.5Y-59.2
X83.5Y-63.1
X83.5Y-66.9
X83.7Y-105.535
X84.4Y-79.15
X84.4Y-90.2
X85.4Y-115.1
X85.8Y-109.1
X85.867Y-128.7
X87.05Y-115.1
X88.375Y-119.8
X88.375Y-128.7
X90.8Y-114.9
X90.8Y-117.15
X90.883Y-119.8
X90.883Y-128.7
X93.392Y-119.8
X93.392Y-128.7
X94.9Y-80.3
X94.95Y-106.45
X94.95Y-108.85
X95.0Y-86.3
X95.9Y-119.8
X95.9Y-128.7
X96.55Y-89.25
X96.7Y-77.6
X98.25Y-82.95
X98.6Y-75.35
X99.15Y-91.75
X99.7Y-58.05
X99.7Y-59.75
X101.55Y-65.1
X102.7Y-83.25
X102.758Y-76.825
X103.1Y-96.4
X103.1Y-98.8
X103.1Y-101.2
X103.1Y-103.6
X103.1Y-106.5
X103.1Y-109.05
X103.2Y-66.52
X103.25Y-85.75
X103.45Y-91.75
X103.5Y-90.15
X103.675Y-68.275
X104.11Y-58.74
X104.15Y-56.45
X104.8Y-85.5
X105.05Y-96.4
X105.05Y-98.8
X105.5Y-104.65
X106.2Y-89.25
X106.231Y-90.149
X106.25Y-76.55
X106.912Y-92.245
X107.225Y-109.475
X107.35Y-64.05
X107.35Y-107.0
X107.65Y-84.85
X107.8Y-102.45
X108.0Y-77.85
X108.785Y-88.962
X108.85Y-86.513
X108.85Y-91.283
X109.3Y-77.85
X109.8Y-106.9
X110.6Y-77.85
X111.55Y-80.1
X111.6Y-94.0
X111.704Y-91.499
X112.1Y-86.6
X112.2Y-98.6
X112.75Y-103.5
X112.75Y-106.05
X113.0Y-80.1
X113.55Y-69.25
X113.75Y-89.8
X113.75Y-91.4
X114.6Y-84.6
X114.65Y-98.6
X114.65Y-100.45
X114.7Y-95.1
X115.444Y-79.85
X115.45Y-77.25
X115.65Y-91.75
X116.35Y-96.85
X117.4Y-92.4
X117.506Y-80.95
X119.15Y-94.1
X119.35Y-83.9
X119.6Y-87.0
X119.65Y-69.3
T2
X110.3Y-87.962
X110.3Y-88.962
X110.3Y-89.962
X111.3Y-87.962
X111.3Y-88.962
X111.3Y-89.962
X112.3Y-87.962
X112.3Y-88.962
X112.3Y-89.962
T5
X89.85Y-38.1
X89.85Y-40.6
T6
X26.987Y-65.418
X26.987Y-67.958
X26.987Y-70.498
X26.987Y-73.038
X26.987Y-75.578
X26.987Y-80.658
X26.987Y-83.198
X26.987Y-85.738
X26.987Y-88.278
X26.987Y-90.818
X26.987Y-95.898
X26.987Y-98.438
X26.987Y-100.978
X26.987Y-103.518
X26.987Y-106.058
X26.987Y-117.81
X26.987Y-120.35
X26.987Y-122.89
X29.527Y-65.418
X29.527Y-67.958
X29.527Y-70.498
X29.527Y-73.038
X29.527Y-75.578
X29.527Y-80.658
X29.527Y-83.198
X29.527Y-85.738
X29.527Y-88.278
X29.527Y-90.818
X29.527Y-95.898
X29.527Y-98.438
X29.527Y-100.978
X29.527Y-103.518
X29.527Y-106.058
X29.527Y-117.81
X29.527Y-120.35
X29.527Y-122.89
X41.781Y-38.795
X41.781Y-41.335
X44.321Y-38.795
X44.321Y-41.335
X46.861Y-38.795
X46.861Y-41.335
X49.364Y-128.846
X49.364Y-131.386
X49.401Y-38.795
X49.401Y-41.335
X51.904Y-128.846
X51.904Y-131.386
X54.444Y-128.846
X54.444Y-131.386
X55.364Y-38.795
X55.364Y-41.335
X56.984Y-128.846
X56.984Y-131.386
X57.904Y-38.795
X57.904Y-41.335
X60.444Y-38.795
X60.444Y-41.335
X61.364Y-128.846
X61.364Y-131.386
X62.984Y-38.795
X62.984Y-41.335
X63.904Y-128.846
X63.904Y-131.386
X66.444Y-128.846
X66.444Y-131.386
X68.947Y-38.795
X68.947Y-41.335
X68.984Y-128.846
X68.984Y-131.386
X71.487Y-38.795
X71.487Y-41.335
X74.027Y-38.795
X74.027Y-41.335
X76.567Y-38.795
X76.567Y-41.335
X82.045Y-131.386
X84.585Y-131.386
X87.125Y-131.386
X89.665Y-131.386
X90.096Y-58.9
X90.096Y-66.52
X90.096Y-69.06
X90.096Y-71.6
X90.096Y-74.14
X90.096Y-76.68
X90.096Y-80.658
X90.096Y-83.198
X90.096Y-85.738
X90.096Y-88.278
X90.096Y-90.818
X90.096Y-95.1
X90.096Y-97.64
X90.096Y-100.18
X90.096Y-102.72
X90.096Y-105.26
X92.205Y-131.386
X92.636Y-58.9
X92.636Y-66.52
X92.636Y-69.06
X92.636Y-71.6
X92.636Y-74.14
X92.636Y-76.68
X92.636Y-80.658
X92.636Y-83.198
X92.636Y-85.738
X92.636Y-88.278
X92.636Y-90.818
X92.636Y-95.1
X92.636Y-97.64
X92.636Y-100.18
X92.636Y-102.72
X92.636Y-105.26
X94.745Y-131.386
X97.285Y-131.386
X99.06Y-38.1
X99.06Y-40.64
X99.825Y-131.386
X101.6Y-38.1
X101.6Y-40.64
X104.14Y-38.1
X104.14Y-40.64
X106.68Y-38.1
X106.68Y-40.64
X118.5Y-113.92
X118.5Y-116.46
X118.5Y-119.0
T7
X36.0Y-126.886
X36.0Y-131.386
X42.5Y-126.886
X42.5Y-131.386
T8
X114.1Y-56.45
X114.1Y-58.74
X114.1Y-61.03
X114.1Y-63.32
X114.1Y-65.61
X116.2Y-55.31
X116.2Y-57.6
X116.2Y-59.89
X116.2Y-62.18
X116.2Y-64.47
X118.28Y-56.45
X118.28Y-58.74
X118.28Y-61.03
X118.28Y-63.32
X118.28Y-65.61
T9
X116.2Y-48.27
X116.2Y-73.26
T3
X116.5Y-99.35G85X116.1Y-99.35
G05
X116.5Y-104.19G85X116.1Y-104.19
G05
T4
X119.55Y-99.04G85X119.05Y-99.04
G05
X119.55Y-104.5G85X119.05Y-104.5
G05
M30
